<?xml version="1.0" standalone="no"?>
<!DOCTYPE svg PUBLIC "-//W3C//DTD SVG 1.1//EN" "http://www.w3.org/Graphics/SVG/1.1/DTD/svg11.dtd" >
<svg>
<metadata>
Created by FontForge 20120731 at Fri Jan 19 13:02:08 2018
 By www-data
Copyright 1992, 1994, 1997, 2000, 2004 Adobe Systems Incorporated. All rights reserved. Protected by U.S. Patents D454,582. Myriad is either a registered trademark or a trademark of Adobe Systems Incorporated in the United States and/or other countries.
</metadata>
<defs>
<font id="MyriadPro-BlackSemiCnIt" horiz-adv-x="400" >
  <font-face 
    font-family="Myriad Pro"
    font-weight="900"
    font-style="italic"
    font-stretch="semi-condensed"
    units-per-em="1000"
    panose-1="2 11 9 3 3 4 3 9 2 4"
    ascent="750"
    descent="-250"
    x-height="492"
    cap-height="674"
    bbox="-203 -250 1193 993"
    underline-thickness="50"
    underline-position="-50"
    slope="-11"
    stemh="121"
    stemv="173"
    unicode-range="U+0020-FB04"
  />
<missing-glyph horiz-adv-x="500" 
d="M0 0v700h500v-700h-500zM250 395l170 255h-340zM280 350l170 -255v510zM80 50h340l-170 255zM50 605v-510l170 255z" />
    <glyph glyph-name="f_f" unicode="ff" horiz-adv-x="634" 
d="M726 703l-30 -128c-12 5 -25 7 -43 7c-39 0 -65 -32 -72 -67l-5 -23h93l-23 -121h-91l-69 -371h-165l71 371h-136l-69 -371h-164l70 371h-64l23 121h64l3 14c11 49 31 100 69 137c34 35 83 58 152 58c31 0 58 -6 76 -14l-44 -121c-9 3 -18 5 -31 5c-39 0 -54 -35 -60 -63
l-4 -16h138l4 22c10 56 33 112 82 152c39 35 93 48 145 49c35 0 63 -5 80 -12z" />
    <glyph glyph-name="f_f_i" unicode="ffi" horiz-adv-x="862" 
d="M838 688l-41 -125c-24 9 -61 20 -107 20c-79 0 -104 -38 -110 -73l-3 -18h279l-93 -492h-164l70 371h-114l-70 -371h-164l70 371h-135l-70 -371h-164l70 371h-64l23 121h64l4 16c11 51 33 99 67 134c36 36 86 59 155 59c35 0 70 -11 85 -19l-53 -118c-9 4 -21 7 -33 7
c-15 0 -27 -5 -35 -14c-14 -12 -21 -33 -25 -51l-3 -14h137l4 18c23 114 116 204 280 204c59 0 113 -13 140 -26z" />
    <glyph glyph-name="f_f_j" unicode="ffj" horiz-adv-x="862" 
d="M838 688l-41 -125c-24 9 -61 20 -107 20c-79 0 -104 -38 -110 -73l-3 -18h279l-86 -461c-17 -88 -37 -139 -66 -175c-32 -41 -87 -62 -147 -62c-22 0 -47 2 -71 7l18 123c10 -2 17 -2 27 -2c33 0 58 16 74 103l65 346h-115l-71 -371h-163l70 371h-135l-70 -371h-164
l70 371h-64l23 121h64l4 16c11 51 33 99 67 134c36 36 86 59 155 59c35 0 69 -11 84 -19l-52 -118c-9 4 -21 7 -33 7c-15 0 -27 -5 -35 -14c-14 -12 -21 -33 -25 -51l-3 -14h137l4 18c23 114 116 204 280 204c59 0 113 -13 140 -26z" />
    <glyph glyph-name="f_f_l" unicode="ffl" horiz-adv-x="862" 
d="M423 683l-48 -119c-11 4 -22 7 -35 7c-16 0 -28 -6 -36 -14c-14 -14 -21 -36 -24 -51l-3 -14h137l3 19c9 48 35 108 93 151c47 36 112 53 192 53c60 0 143 -15 188 -40l-127 -675h-164l110 580c-8 5 -23 9 -48 9c-45 0 -74 -37 -81 -80l-3 -17h73l-22 -121h-73l-71 -371
h-163l70 371h-135l-70 -371h-164l70 371h-64l23 121h64l3 12c11 56 33 105 68 140c36 36 85 57 151 57c38 0 68 -10 86 -18z" />
    <glyph glyph-name="f_i" unicode="fi" horiz-adv-x="564" 
d="M187 0h-163l70 371h-64l23 121h64l4 18c21 114 116 204 280 204c59 0 113 -13 140 -26l-41 -125c-24 9 -61 20 -107 20c-79 0 -104 -38 -110 -73l-3 -18h279l-93 -492h-164l70 371h-114z" />
    <glyph glyph-name="f_j" unicode="fj" horiz-adv-x="564" 
d="M541 688l-41 -125c-24 9 -61 20 -107 20c-79 0 -104 -38 -110 -73l-3 -18h279l-86 -461c-17 -88 -37 -139 -66 -175c-32 -41 -87 -62 -147 -62c-22 0 -47 2 -71 7l18 123c10 -2 17 -2 27 -2c32 0 58 16 74 103l65 346h-115l-70 -371h-164l70 371h-64l23 121h64l4 18
c23 114 116 204 280 204c59 0 113 -13 140 -26z" />
    <glyph glyph-name="f_l" unicode="fl" horiz-adv-x="564" 
d="M187 0h-164l70 371h-64l23 121h64l3 19c9 48 35 108 93 151c48 36 112 53 193 53c60 -1 142 -15 187 -41l-127 -674h-164l110 580c-8 5 -22 9 -48 9c-45 0 -74 -37 -81 -80l-3 -17h73l-22 -121h-73z" />
    <glyph glyph-name=".notdef" horiz-adv-x="500" 
d="M0 0v700h500v-700h-500zM250 395l170 255h-340zM280 350l170 -255v510zM80 50h340l-170 255zM50 605v-510l170 255z" />
    <glyph glyph-name="space" unicode=" " horiz-adv-x="171" 
 />
    <glyph glyph-name="exclam" unicode="!" horiz-adv-x="274" 
d="M198 233h-130l61 441h177zM97 -10c-53 0 -87 39 -87 90c0 56 45 110 105 110c54 0 90 -39 90 -91c0 -65 -47 -109 -108 -109z" />
    <glyph glyph-name="quotedbl" unicode="&#x22;" horiz-adv-x="397" 
d="M110 689h144l-75 -286h-99zM309 689h144l-76 -286h-98z" />
    <glyph glyph-name="numbersign" unicode="#" horiz-adv-x="527" 
d="M220 275h81l32 104h-80zM133 0h-96l57 179h-80l17 96h94l34 104h-83l17 96h95l56 175h94l-56 -175h82l55 175h95l-56 -175h79l-17 -96h-92l-32 -104h80l-17 -96h-95l-56 -179h-96l57 179h-81z" />
    <glyph glyph-name="dollar" unicode="$" horiz-adv-x="527" 
d="M243 -88h-102l18 96c-58 3 -117 26 -145 46l48 124c37 -25 82 -43 145 -43c55 0 88 24 88 57c0 32 -21 52 -75 80c-74 44 -132 95 -132 172c0 94 72 176 198 193l16 89h102l-16 -87c49 -2 95 -16 121 -33l-49 -120c-25 14 -67 31 -123 31c-49 0 -76 -25 -76 -52
c0 -25 21 -45 88 -82c75 -40 119 -95 119 -168c0 -122 -96 -192 -207 -205z" />
    <glyph glyph-name="percent" unicode="%" horiz-adv-x="842" 
d="M265 660c92 0 141 -64 141 -147c0 -148 -93 -254 -206 -254c-85 0 -146 54 -146 152c0 132 85 249 211 249zM250 570c-52 0 -77 -117 -77 -166c0 -34 14 -55 37 -55c55 0 77 133 77 172c0 28 -10 49 -37 49zM237 -10h-91l479 669h90zM671 392c92 0 141 -64 141 -147
c0 -148 -93 -254 -205 -254c-85 0 -146 54 -146 152c0 132 85 249 210 249zM656 302c-52 0 -76 -117 -76 -166c0 -34 14 -55 36 -55c55 0 77 133 77 172c0 28 -10 49 -37 49z" />
    <glyph glyph-name="ampersand" unicode="&#x26;" horiz-adv-x="652" 
d="M599 0h-187c-12 13 -20 25 -29 38c-39 -25 -91 -48 -169 -48c-123 0 -204 70 -204 176c0 102 71 164 158 206v3c-22 39 -35 75 -35 113c0 116 94 196 217 196c109 0 176 -65 176 -153c0 -73 -52 -133 -163 -188v-3c22 -36 53 -81 74 -110c39 46 62 104 79 155h144
c-32 -100 -80 -189 -155 -257c24 -36 58 -83 94 -128zM261 111c28 0 47 9 62 20c-31 41 -71 99 -102 151c-23 -18 -47 -48 -47 -88c0 -45 30 -83 87 -83zM336 580c-32 0 -57 -35 -57 -78c0 -28 10 -52 25 -72c41 20 78 57 78 102c0 26 -13 48 -46 48z" />
    <glyph glyph-name="quoteright" unicode="&#x2019;" horiz-adv-x="252" 
d="M165 679l154 10c-49 -101 -100 -191 -166 -278l-104 -9c48 96 88 186 116 277z" />
    <glyph glyph-name="parenleft" unicode="(" horiz-adv-x="307" 
d="M250 690h120c-99 -119 -189 -314 -189 -534c0 -98 5 -176 38 -273h-114c-34 76 -53 170 -53 267c0 240 93 429 198 540z" />
    <glyph glyph-name="parenright" unicode=")" horiz-adv-x="307" 
d="M73 -117h-122c97 120 189 315 189 537c0 98 -5 174 -38 270h116c33 -75 51 -169 51 -265c0 -241 -93 -430 -196 -542z" />
    <glyph glyph-name="asterisk" unicode="*" horiz-adv-x="442" 
d="M337 684l95 -57l-124 -123l1 -3l162 38l-22 -117l-149 34l-1 -3l100 -123l-108 -55l-36 157l-3 -2l-67 -156l-93 60l125 122l-1 1l-160 -35l22 117l143 -38l1 3l-95 125l107 55l36 -155h2z" />
    <glyph glyph-name="plus" unicode="+" horiz-adv-x="596" 
d="M244 532h108v-213h204v-103h-204v-216h-108v216h-204v103h204v213z" />
    <glyph glyph-name="comma" unicode="," horiz-adv-x="268" 
d="M51 -110l-117 -10c50 99 96 202 124 297l172 10c-49 -105 -110 -208 -179 -297z" />
    <glyph glyph-name="hyphen" unicode="-" horiz-adv-x="305" 
d="M45 324h245l-22 -115h-245z" />
    <glyph glyph-name="period" unicode="." horiz-adv-x="268" 
d="M105 -9c-55 0 -89 39 -89 94c0 59 45 113 106 113c56 0 92 -39 92 -95c0 -68 -47 -112 -109 -112z" />
    <glyph glyph-name="slash" unicode="/" horiz-adv-x="312" 
d="M62 -40h-113l342 724h113z" />
    <glyph glyph-name="zero" unicode="0" horiz-adv-x="527" 
d="M335 660c144 0 186 -114 186 -223c0 -201 -91 -447 -297 -447c-138 0 -187 108 -187 229c0 211 101 441 298 441zM317 528c-83 0 -120 -249 -120 -317c0 -41 7 -89 47 -89c82 0 117 257 117 322c0 40 -8 84 -44 84z" />
    <glyph glyph-name="one" unicode="1" horiz-adv-x="527" 
d="M166 0l94 498h-2l-127 -54l-2 128l182 78h136l-123 -650h-158z" />
    <glyph glyph-name="two" unicode="2" horiz-adv-x="527" 
d="M430 0h-436l20 108l134 109c109 95 188 168 188 237c0 42 -29 69 -80 69c-52 0 -92 -12 -124 -31l-26 120c51 27 121 48 193 48c139 0 203 -82 203 -178c0 -131 -99 -217 -193 -293l-60 -46v-2h207z" />
    <glyph glyph-name="three" unicode="3" horiz-adv-x="527" 
d="M5 28l47 130c27 -12 72 -30 129 -30c66 0 112 28 112 76c0 50 -42 75 -120 75h-21l24 125h17c62 0 128 20 128 71c0 26 -22 47 -72 47c-49 0 -92 -12 -118 -26l-13 126c41 22 108 38 171 38c116 0 205 -55 205 -154c0 -79 -60 -138 -136 -159l-1 -2
c61 -17 104 -68 104 -140c0 -137 -136 -215 -280 -215c-79 0 -148 17 -176 38z" />
    <glyph glyph-name="four" unicode="4" horiz-adv-x="527" 
d="M387 0h-149l28 149h-257l20 110l289 391h192l-71 -376h69l-23 -125h-69zM183 274h107l23 105c9 43 22 90 33 133h-4c-28 -44 -54 -86 -82 -126l-76 -110z" />
    <glyph glyph-name="five" unicode="5" horiz-adv-x="527" 
d="M521 650l-29 -141h-209l-22 -80c7 1 12 1 19 1c31 0 91 -11 131 -46c38 -32 60 -79 60 -138c0 -159 -134 -256 -302 -256c-74 0 -133 14 -158 33l40 132c26 -14 71 -27 120 -27c61 0 132 28 132 90c0 56 -40 89 -147 89c-27 0 -47 -2 -71 -4l91 347h345z" />
    <glyph glyph-name="six" unicode="6" horiz-adv-x="527" 
d="M501 658l-25 -134c-16 1 -30 0 -50 -2c-106 -11 -169 -63 -198 -123l2 -1c31 24 69 38 114 38c92 -1 154 -78 154 -173c0 -149 -106 -273 -257 -273c-147 0 -210 106 -210 225c0 157 73 282 160 351c70 55 162 87 259 92c24 2 38 1 51 0zM248 113c59 0 83 80 83 133
c0 41 -23 70 -61 70c-31 0 -56 -23 -70 -50c-5 -10 -8 -21 -9 -29c-3 -21 -3 -34 -3 -45c0 -41 20 -79 60 -79z" />
    <glyph glyph-name="seven" unicode="7" horiz-adv-x="527" 
d="M115 650h430l-21 -109c-110 -180 -220 -360 -330 -541h-176l324 507v2h-253z" />
    <glyph glyph-name="eight" unicode="8" horiz-adv-x="527" 
d="M326 660c110 0 192 -57 192 -160c0 -65 -41 -118 -111 -152l-1 -2c53 -35 81 -89 81 -141c0 -143 -135 -215 -259 -215c-137 1 -214 71 -214 168c0 91 62 151 130 182l1 2c-41 34 -59 76 -59 121c0 123 114 197 240 197zM245 104c36 0 74 33 74 88c0 46 -30 73 -65 88
c-37 -15 -72 -53 -72 -104c0 -41 21 -72 63 -72zM309 546c-36 0 -68 -36 -68 -76c0 -37 27 -59 59 -73c35 16 64 50 64 91c0 37 -22 58 -55 58z" />
    <glyph glyph-name="nine" unicode="9" horiz-adv-x="527" 
d="M44 -8l22 136c18 -2 33 -1 59 0c38 2 77 13 109 31c43 26 75 61 94 99l-2 1c-26 -23 -67 -34 -104 -34c-98 0 -165 69 -165 170c0 144 116 265 261 265c147 0 207 -103 207 -222c-2 -166 -80 -294 -167 -363c-63 -51 -154 -80 -243 -85c-34 -1 -49 1 -71 2zM304 537
c-47 0 -81 -69 -81 -123c0 -44 24 -72 57 -72c31 0 54 19 63 30c5 8 10 19 15 41c4 14 5 37 5 52c0 41 -19 72 -59 72z" />
    <glyph glyph-name="colon" unicode=":" horiz-adv-x="268" 
d="M163 300c-53 0 -87 39 -87 91c0 57 45 111 105 111c54 0 90 -39 90 -93c0 -65 -47 -109 -108 -109zM104 -10c-53 0 -87 39 -87 91c0 57 45 111 105 111c54 0 90 -39 90 -93c0 -65 -47 -109 -108 -109z" />
    <glyph glyph-name="semicolon" unicode=";" horiz-adv-x="268" 
d="M50 -110l-115 -10c50 99 95 202 123 297l170 10c-48 -105 -109 -208 -178 -297zM167 300c-53 0 -87 39 -87 91c0 57 45 111 105 111c54 0 90 -39 90 -93c0 -65 -47 -109 -108 -109z" />
    <glyph glyph-name="less" unicode="&#x3c;" horiz-adv-x="596" 
d="M46 221v90l488 221v-121l-347 -144v-2l347 -145v-120z" />
    <glyph glyph-name="equal" unicode="=" horiz-adv-x="596" 
d="M558 317h-516v103h516v-103zM558 114h-516v103h516v-103z" />
    <glyph glyph-name="greater" unicode="&#x3e;" horiz-adv-x="596" 
d="M557 319v-106l-487 -213v119l366 146v2l-366 146v119z" />
    <glyph glyph-name="question" unicode="?" horiz-adv-x="422" 
d="M271 229h-155l3 24c8 55 36 103 86 158c36 41 70 71 70 100c0 23 -12 40 -51 41c-40 0 -74 -9 -100 -25l-15 118c34 21 92 41 165 41c110 0 171 -63 171 -139c0 -82 -56 -138 -105 -189c-33 -36 -53 -66 -63 -107c-2 -7 -4 -15 -6 -22zM159 -10c-52 0 -86 39 -86 90
c0 56 45 110 104 110c55 0 91 -39 91 -91c0 -65 -47 -109 -109 -109z" />
    <glyph glyph-name="at" unicode="@" horiz-adv-x="722" 
d="M406 243l14 98c-7 2 -15 3 -23 3c-50 0 -95 -59 -95 -136c0 -34 13 -55 39 -55c27 0 57 38 65 90zM499 -7l18 -59c-60 -28 -110 -36 -179 -36c-154 0 -298 115 -298 313c0 199 144 381 362 381c176 0 290 -125 290 -283c0 -151 -75 -244 -185 -244c-51 0 -81 27 -87 77
h-2c-27 -48 -70 -77 -119 -77c-64 0 -107 49 -107 130c0 124 85 232 224 232c43 0 93 -11 117 -25l-28 -184c-9 -57 -2 -82 25 -83c39 -1 87 50 87 170c0 124 -76 225 -226 225c-143 0 -274 -121 -274 -312c0 -169 103 -257 242 -257c48 0 100 11 140 32z" />
    <glyph glyph-name="A" unicode="A" horiz-adv-x="584" 
d="M358 152h-159l-61 -152h-171l305 674h208l51 -674h-169zM243 274h112l-3 128c-2 38 -2 101 -3 145h-2c-17 -44 -37 -108 -53 -145z" />
    <glyph glyph-name="B" unicode="B" horiz-adv-x="574" 
d="M15 8l124 654c47 10 110 16 175 16c68 0 123 -7 170 -36c45 -24 77 -68 77 -125c0 -84 -60 -139 -130 -160v-3c65 -22 99 -78 99 -145c0 -69 -38 -121 -89 -156c-57 -39 -141 -57 -257 -57c-80 0 -135 5 -169 12zM278 550l-26 -138h33c70 0 111 31 111 80
c0 38 -28 62 -73 62c-19 0 -35 -1 -45 -4zM227 293l-32 -168c13 -2 26 -2 43 -2c66 0 122 32 122 93c0 58 -43 77 -103 77h-30z" />
    <glyph glyph-name="C" unicode="C" horiz-adv-x="536" 
d="M471 150l6 -136c-31 -13 -82 -23 -153 -23c-183 0 -277 126 -277 271c0 167 69 284 165 351c67 49 146 70 234 70c61 0 111 -14 128 -23l-43 -135c-17 6 -52 16 -101 16c-46 0 -91 -16 -123 -46c-49 -44 -83 -116 -83 -211c0 -94 51 -151 142 -151c39 0 78 6 105 17z" />
    <glyph glyph-name="D" unicode="D" horiz-adv-x="637" 
d="M16 11l125 652c53 10 114 15 178 15c97 0 171 -23 223 -67c56 -48 86 -116 86 -210c0 -147 -65 -265 -142 -325c-72 -56 -159 -80 -295 -80c-75 0 -144 7 -175 15zM282 544l-79 -411c10 -2 24 -3 46 -3c57 0 116 29 150 81s54 115 54 195c0 85 -45 141 -130 141
c-19 0 -32 -1 -41 -3z" />
    <glyph glyph-name="E" unicode="E" horiz-adv-x="498" 
d="M466 415l-27 -138h-208l-27 -136h235l-27 -141h-398l128 674h385l-28 -140h-219l-24 -119h210z" />
    <glyph glyph-name="F" unicode="F" horiz-adv-x="493" 
d="M14 0l128 674h382l-28 -140h-216l-27 -136h205l-26 -138h-204l-50 -260h-164z" />
    <glyph glyph-name="G" unicode="G" horiz-adv-x="632" 
d="M609 393l-69 -365c-52 -17 -126 -35 -205 -35c-89 0 -158 24 -209 69c-50 44 -81 116 -81 200c0 136 53 247 136 322c71 63 172 97 283 97c82 0 140 -15 166 -26l-48 -140c-25 11 -74 23 -124 23c-56 0 -104 -14 -139 -41c-55 -44 -95 -124 -95 -227
c0 -96 55 -138 128 -138c25 0 39 3 52 7l23 124h-78l26 130h234z" />
    <glyph glyph-name="H" unicode="H" horiz-adv-x="637" 
d="M143 674h164l-49 -258h185l49 258h164l-128 -674h-164l50 269h-184l-51 -269h-164z" />
    <glyph glyph-name="I" unicode="I" horiz-adv-x="284" 
d="M139 674h164l-128 -674h-164z" />
    <glyph glyph-name="J" unicode="J" horiz-adv-x="379" 
d="M160 242l82 432h164l-85 -444c-33 -174 -108 -240 -261 -240c-38 0 -80 6 -99 13l29 141c20 -5 42 -9 69 -9c51 0 86 27 101 107z" />
    <glyph glyph-name="K" unicode="K" horiz-adv-x="576" 
d="M14 0l128 674h161l-57 -296h3c19 33 38 59 57 86l148 210h197l-247 -295l125 -379h-177l-77 274l-59 -63l-41 -211h-161z" />
    <glyph glyph-name="L" unicode="L" horiz-adv-x="464" 
d="M14 0l128 674h164l-101 -531h224l-27 -143h-388z" />
    <glyph glyph-name="M" unicode="M" horiz-adv-x="779" 
d="M687 0h-154l35 233c11 69 25 157 46 264h-3c-38 -96 -78 -190 -109 -256l-104 -227h-125l-11 227c-3 63 -8 158 -9 256h-2c-21 -100 -40 -195 -56 -264l-54 -233h-147l169 674h208l7 -227c2 -60 8 -142 7 -216h4c24 74 59 158 85 217l96 226h209z" />
    <glyph glyph-name="N" unicode="N" horiz-adv-x="634" 
d="M162 0h-148l128 674h182l56 -210c24 -93 41 -166 53 -239h3c4 73 16 170 36 279l32 170h149l-128 -674h-162l-62 216c-27 98 -42 157 -57 246h-3c-8 -67 -25 -179 -48 -297z" />
    <glyph glyph-name="O" unicode="O" horiz-adv-x="654" 
d="M396 684c170 0 249 -121 249 -262c0 -132 -44 -265 -124 -343c-59 -57 -135 -89 -228 -89c-169 0 -250 130 -250 265c0 129 45 261 128 341c58 55 135 88 225 88zM377 546c-31 0 -58 -13 -81 -36c-51 -51 -80 -174 -80 -257c0 -71 30 -125 101 -125c29 0 55 13 76 34
c53 52 79 190 79 262c0 63 -23 122 -95 122z" />
    <glyph glyph-name="P" unicode="P" horiz-adv-x="549" 
d="M14 0l126 661c45 11 114 17 176 17c55 0 128 -8 179 -46c45 -31 71 -83 71 -142c0 -93 -43 -160 -95 -200c-54 -42 -130 -61 -207 -61c-18 0 -35 3 -46 3l-44 -232h-160zM278 545l-35 -180c11 -2 22 -3 41 -3c78 0 118 60 118 114c0 52 -35 72 -79 72
c-21 0 -36 -1 -45 -3z" />
    <glyph glyph-name="Q" unicode="Q" horiz-adv-x="654" 
d="M595 0l-63 -126c-87 31 -175 72 -234 102c-26 14 -34 16 -40 16c-125 9 -215 106 -215 266c0 120 41 249 122 331c61 62 142 95 231 95c182 0 248 -145 248 -263c0 -120 -42 -256 -114 -328c-20 -19 -42 -37 -71 -51l-1 -3c36 -13 83 -26 137 -39zM377 546
c-32 0 -59 -14 -81 -36c-54 -53 -80 -187 -80 -261c0 -75 34 -122 102 -122c28 0 53 12 74 33c50 51 80 189 80 268c0 55 -21 118 -95 118z" />
    <glyph glyph-name="R" unicode="R" horiz-adv-x="572" 
d="M15 0l126 661c47 11 114 17 180 17c62 0 130 -7 177 -39c43 -26 74 -69 74 -132c0 -100 -62 -163 -145 -192v-3c36 -18 51 -58 57 -119c7 -68 11 -165 22 -193h-166c-5 19 -11 77 -16 158c-4 77 -26 98 -73 98h-27l-48 -256h-161zM280 547l-31 -169h44
c63 0 110 46 110 105c0 41 -32 67 -79 67c-20 0 -34 -1 -44 -3z" />
    <glyph glyph-name="S" unicode="S" horiz-adv-x="487" 
d="M-5 33l50 136c36 -20 88 -36 145 -36c47 -1 88 19 88 60c0 36 -28 55 -81 89c-62 39 -123 92 -123 174c0 141 116 227 267 227c80 0 123 -15 150 -29l-48 -138c-22 11 -64 26 -112 25c-57 0 -87 -25 -87 -59c0 -30 33 -51 86 -86c75 -45 120 -101 120 -172
c0 -159 -127 -233 -271 -233c-96 1 -156 23 -184 42z" />
    <glyph glyph-name="T" unicode="T" horiz-adv-x="500" 
d="M118 0l100 528h-153l29 146h471l-28 -146h-155l-100 -528h-164z" />
    <glyph glyph-name="U" unicode="U" horiz-adv-x="620" 
d="M137 674h164l-76 -397c-5 -24 -8 -50 -8 -76c0 -38 23 -72 72 -72c57 0 94 37 114 145l77 400h163l-73 -387c-37 -192 -115 -297 -300 -297c-142 -1 -216 73 -216 205c0 29 5 65 11 100z" />
    <glyph glyph-name="V" unicode="V" horiz-adv-x="582" 
d="M329 0h-189l-64 674h173l10 -284c5 -69 6 -150 9 -222h2c24 69 57 153 85 220l117 286h183z" />
    <glyph glyph-name="W" unicode="W" horiz-adv-x="815" 
d="M274 0h-179l-7 674h167l-12 -256c-4 -79 -8 -166 -12 -238h2c24 77 51 153 79 232l94 262h172l-10 -262c-3 -77 -7 -151 -13 -229h2c23 77 48 157 73 232l85 259h168l-272 -674h-179l1 209c1 81 4 164 10 238h-2c-25 -74 -52 -157 -91 -254z" />
    <glyph glyph-name="X" unicode="X" horiz-adv-x="528" 
d="M484 0h-172l-31 127c-9 40 -16 68 -25 110h-2c-21 -41 -34 -70 -58 -118l-60 -119h-188l228 346l-94 328h171l24 -110c9 -47 16 -75 24 -117h2c24 49 38 79 57 119l54 108h187l-223 -334z" />
    <glyph glyph-name="Y" unicode="Y" horiz-adv-x="532" 
d="M288 0h-163l50 264l-112 410h175l26 -149c8 -63 13 -99 17 -134h2c20 41 38 81 63 131l77 152h189l-273 -407z" />
    <glyph glyph-name="Z" unicode="Z" horiz-adv-x="512" 
d="M-31 0l18 96l338 433v3h-230l28 142h439l-21 -110l-327 -419v-3h250l-27 -142h-468z" />
    <glyph glyph-name="bracketleft" unicode="[" horiz-adv-x="307" 
d="M191 -112h-206l152 798h206l-19 -95h-85l-116 -608h86z" />
    <glyph glyph-name="backslash" unicode="\" horiz-adv-x="323" 
d="M299 -40h-109l-138 724h109z" />
    <glyph glyph-name="bracketright" unicode="]" horiz-adv-x="307" 
d="M125 686h206l-152 -798h-206l18 95h86l116 608h-87z" />
    <glyph glyph-name="asciicircum" unicode="^" horiz-adv-x="596" 
d="M551 172h-122l-140 345h-4l-140 -345h-120l212 478h102z" />
    <glyph glyph-name="underscore" unicode="_" horiz-adv-x="500" 
d="M-54 -75h500l-10 -50h-500z" />
    <glyph glyph-name="quoteleft" unicode="&#x2018;" horiz-adv-x="252" 
d="M205 411l-154 -9c48 100 100 191 166 277l104 10c-48 -96 -88 -187 -116 -278z" />
    <glyph glyph-name="a" unicode="a" horiz-adv-x="531" 
d="M451 0h-147c2 28 3 55 4 83h-3c-39 -69 -96 -93 -144 -93c-86 0 -141 68 -141 168c0 159 94 344 337 344c61 0 125 -12 166 -26l-53 -261c-10 -54 -20 -154 -19 -215zM318 262l23 115c-11 2 -22 3 -29 3c-77 0 -124 -122 -124 -190c0 -42 15 -68 44 -68
c30 0 66 33 86 140z" />
    <glyph glyph-name="b" unicode="b" horiz-adv-x="540" 
d="M137 705h163l-54 -264h2c31 36 78 61 134 61c98 0 135 -86 135 -161c0 -174 -104 -351 -318 -351c-119 0 -171 50 -171 134c0 32 5 62 11 89zM212 262l-12 -55c-3 -16 -6 -33 -5 -51c1 -29 16 -45 41 -45c63 0 110 116 110 188c0 40 -12 69 -45 69
c-40 0 -77 -43 -89 -106z" />
    <glyph glyph-name="c" unicode="c" horiz-adv-x="403" 
d="M352 137l-5 -125c-28 -13 -72 -21 -124 -21c-117 0 -199 75 -199 198c0 181 133 312 312 312c38 0 68 -5 90 -12l-39 -127c-16 5 -32 8 -53 8c-83 0 -140 -73 -140 -162c0 -59 37 -86 77 -86c34 0 59 7 81 15z" />
    <glyph glyph-name="d" unicode="d" horiz-adv-x="537" 
d="M408 705h163l-98 -514c-12 -63 -20 -132 -24 -191h-145l5 72h-2c-39 -60 -95 -82 -143 -82c-78 0 -143 61 -143 179c0 170 112 333 293 333c16 0 35 -3 53 -10zM318 225l27 141c-8 7 -24 13 -40 13c-70 0 -116 -105 -116 -182c0 -54 23 -75 51 -75c30 0 62 32 78 103z
" />
    <glyph glyph-name="e" unicode="e" horiz-adv-x="487" 
d="M407 145l8 -119c-60 -28 -127 -35 -181 -35c-140 0 -210 77 -210 205c0 149 100 306 279 306c101 0 170 -61 171 -153c0 -128 -111 -179 -295 -173c1 -12 7 -24 17 -34c17 -15 44 -25 81 -25c48 0 90 9 130 28zM324 346c0 19 -14 34 -40 34c-55 0 -84 -46 -90 -85
c91 -2 130 16 130 51z" />
    <glyph glyph-name="f" unicode="f" horiz-adv-x="335" 
d="M186 0h-163l70 371h-64l23 121h64l4 22c10 56 33 112 82 153c39 35 93 48 145 48c35 0 63 -5 80 -12l-30 -128c-12 5 -25 7 -43 7c-39 0 -66 -32 -72 -67l-5 -23h93l-23 -121h-91z" />
    <glyph glyph-name="g" unicode="g" horiz-adv-x="536" 
d="M7 -179l37 124c25 -14 80 -23 114 -23c68 0 113 33 128 109l7 35h-2c-35 -42 -72 -61 -122 -61c-90 0 -144 74 -145 166c-2 159 107 331 319 331c71 0 129 -12 180 -34l-74 -408c-16 -83 -43 -162 -100 -209c-52 -42 -122 -57 -194 -57c-59 0 -118 11 -148 27zM321 236
l26 136c-8 4 -22 5 -34 5c-68 0 -119 -97 -119 -176c0 -42 17 -71 48 -71c35 0 68 43 79 106z" />
    <glyph glyph-name="h" unicode="h" horiz-adv-x="542" 
d="M167 0h-163l133 705h164l-51 -268h2c36 37 82 65 141 65c78 0 114 -52 114 -128c0 -23 -5 -61 -10 -94l-54 -280h-163l51 269c4 20 6 43 6 59c0 25 -9 42 -34 42c-37 0 -74 -48 -91 -135z" />
    <glyph glyph-name="i" unicode="i" horiz-adv-x="267" 
d="M167 0h-164l93 492h164zM195 543c-44 0 -74 31 -74 77c0 51 40 91 89 91c48 0 78 -32 78 -77c0 -58 -44 -91 -93 -91z" />
    <glyph glyph-name="j" unicode="j" horiz-adv-x="274" 
d="M108 492h163l-86 -461c-16 -88 -37 -139 -66 -175c-31 -41 -86 -62 -147 -62c-22 0 -47 2 -71 7l18 123c10 -2 17 -2 27 -2c33 0 58 16 74 103zM202 543c-44 0 -74 31 -74 77c0 51 40 91 90 91c48 0 78 -32 78 -77c0 -58 -44 -91 -94 -91z" />
    <glyph glyph-name="k" unicode="k" horiz-adv-x="518" 
d="M165 0h-162l134 705h161l-78 -411h2c15 20 28 40 42 59l96 139h194l-191 -209l112 -283h-178l-60 197l-44 -47z" />
    <glyph glyph-name="l" unicode="l" horiz-adv-x="267" 
d="M168 0h-164l134 705h164z" />
    <glyph glyph-name="m" unicode="m" horiz-adv-x="793" 
d="M163 0h-159l61 328c11 61 19 117 26 164h140l-7 -72h2c41 57 96 82 157 82c69 0 102 -44 107 -82c40 55 97 82 156 82c78 0 113 -51 113 -127c0 -20 -5 -61 -10 -90l-53 -285h-160l50 268c4 22 7 43 7 62c0 24 -11 41 -34 41c-36 0 -71 -52 -89 -147l-43 -224h-157
l50 268c4 21 7 41 7 59c0 26 -9 44 -31 44c-36 0 -75 -54 -92 -147z" />
    <glyph glyph-name="n" unicode="n" horiz-adv-x="542" 
d="M167 0h-163l61 328c13 61 21 117 28 164h143l-7 -70h2c43 55 98 80 157 80c85 0 119 -54 119 -128c0 -24 -5 -61 -9 -88l-55 -286h-163l52 277c3 16 5 33 5 49c0 26 -8 44 -33 44c-36 0 -76 -47 -95 -147z" />
    <glyph glyph-name="o" unicode="o" horiz-adv-x="534" 
d="M312 502c133 0 197 -93 197 -195c0 -183 -118 -317 -284 -317c-129 0 -200 85 -200 194c0 175 115 318 287 318zM289 378c-65 0 -98 -124 -97 -190c0 -42 16 -74 55 -74c63 0 95 122 95 198c0 36 -14 66 -53 66z" />
    <glyph glyph-name="p" unicode="p" horiz-adv-x="541" 
d="M129 -196h-163l96 503c10 57 22 137 28 188h144l-7 -67h2c36 48 89 74 141 74c103 0 146 -84 146 -181c0 -169 -104 -331 -268 -331c-31 0 -62 7 -78 17h-2zM213 250l-21 -120c12 -11 26 -18 47 -18c63 0 107 112 107 192c0 32 -10 64 -45 64c-42 0 -76 -49 -88 -118z
" />
    <glyph glyph-name="q" unicode="q" horiz-adv-x="537" 
d="M400 -196h-163l58 261h-2c-33 -51 -82 -75 -132 -75c-83 0 -140 70 -140 179c0 152 96 333 325 333c70 0 131 -16 180 -28zM320 234l26 137c-10 5 -23 6 -38 6c-75 0 -120 -112 -120 -186c0 -46 19 -69 46 -69c37 0 72 44 86 112z" />
    <glyph glyph-name="r" unicode="r" horiz-adv-x="368" 
d="M167 0h-164l57 298c13 71 19 150 25 194h141c-2 -31 -4 -61 -7 -93h3c37 65 89 103 148 103c10 0 18 -1 27 -2l-32 -160c-6 1 -15 1 -23 1c-85 0 -124 -71 -141 -159z" />
    <glyph glyph-name="s" unicode="s" horiz-adv-x="404" 
d="M-10 26l39 114c27 -14 74 -32 120 -31c33 0 48 15 48 34s-14 33 -55 55c-54 30 -96 71 -96 129c0 104 90 175 221 175c58 0 101 -11 125 -24l-36 -114c-20 9 -52 19 -91 19c-33 0 -55 -12 -55 -35c0 -15 16 -29 50 -46c56 -32 105 -73 105 -135
c0 -114 -94 -177 -229 -176c-61 1 -118 16 -146 35z" />
    <glyph glyph-name="t" unicode="t" horiz-adv-x="345" 
d="M129 583l169 47l-25 -138h97l-23 -121h-98l-31 -156c-3 -15 -6 -37 -6 -49c0 -25 12 -40 40 -40c11 0 25 0 39 1l-22 -125c-21 -8 -59 -11 -91 -11c-90 0 -134 45 -134 113c0 25 3 52 10 85l35 182h-59l23 121h59z" />
    <glyph glyph-name="u" unicode="u" horiz-adv-x="540" 
d="M369 492h163l-62 -328c-12 -61 -20 -117 -27 -164h-143l6 70l-2 1c-48 -59 -102 -81 -156 -81c-80 0 -116 50 -116 130c0 30 4 63 11 100l52 272h163l-49 -261c-5 -24 -8 -49 -8 -68c0 -22 9 -41 34 -41c38 0 73 47 89 132z" />
    <glyph glyph-name="v" unicode="v" horiz-adv-x="496" 
d="M43 492h170l6 -193c1 -65 5 -98 6 -142h3c13 42 27 77 52 140l76 195h178l-258 -492h-167z" />
    <glyph glyph-name="w" unicode="w" horiz-adv-x="706" 
d="M48 492h167l-10 -184c-3 -60 -5 -106 -11 -166h3c17 59 37 106 58 159l78 191h131l2 -184c0 -64 1 -106 -3 -166h2c16 60 32 107 54 173l63 177h162l-231 -492h-151l-6 134c-2 51 -1 102 1 168h-3c-25 -75 -38 -117 -57 -162l-59 -140h-152z" />
    <glyph glyph-name="x" unicode="x" horiz-adv-x="476" 
d="M41 492h177l18 -66c13 -43 18 -67 23 -84h3c13 23 27 49 45 78l40 72h181l-193 -241l99 -251h-177l-20 68c-10 36 -17 59 -23 89h-3c-11 -21 -22 -45 -43 -83l-41 -74h-183l196 253z" />
    <glyph glyph-name="y" unicode="y" horiz-adv-x="485" 
d="M42 492h173l14 -201c5 -48 8 -83 10 -113h2c9 33 18 63 38 117l70 197h170l-167 -356c-65 -133 -126 -225 -189 -283c-49 -46 -110 -70 -141 -76l-43 138c23 8 51 20 75 36c31 21 56 45 70 71c3 7 4 12 2 23z" />
    <glyph glyph-name="z" unicode="z" horiz-adv-x="424" 
d="M-29 0l18 102l125 144c39 44 64 69 112 111l2 2h-175l26 133h363l-19 -107l-121 -138c-44 -51 -72 -78 -112 -112v-2h194l-27 -133h-386z" />
    <glyph glyph-name="braceleft" unicode="{" horiz-adv-x="307" 
d="M23 242l17 91c64 2 77 34 83 60c9 47 9 102 19 152c18 96 78 141 177 141h39l-18 -95h-17c-38 -1 -57 -28 -66 -66c-7 -35 -8 -70 -15 -115c-11 -74 -46 -107 -104 -121v-2c41 -11 64 -42 64 -79c0 -25 -10 -61 -19 -96c-10 -35 -19 -68 -19 -88c0 -27 15 -41 44 -41h16
l-17 -95h-33c-86 0 -134 30 -134 106c0 36 12 76 23 113s22 70 22 90c0 29 -20 44 -62 45z" />
    <glyph glyph-name="bar" unicode="|" horiz-adv-x="244" 
d="M84 750h109v-1000h-109v1000z" />
    <glyph glyph-name="braceright" unicode="}" horiz-adv-x="307" 
d="M300 332l-17 -91c-64 -2 -77 -34 -83 -60c-9 -47 -9 -102 -19 -152c-18 -96 -78 -141 -177 -141h-39l18 95h17c38 1 57 28 66 66c7 35 8 70 15 115c11 74 46 107 104 121v2c-41 11 -64 42 -64 79c1 25 11 61 20 96s18 68 18 88c0 27 -15 41 -44 41h-16l17 95h33
c86 0 134 -30 134 -106c0 -35 -11 -75 -22 -112c-12 -37 -23 -70 -23 -91c0 -29 20 -44 62 -45z" />
    <glyph glyph-name="asciitilde" unicode="~" horiz-adv-x="596" 
d="M150 187h-106c0 147 68 196 147 196c52 0 87 -18 139 -51c43 -26 62 -39 81 -39c21 0 34 19 37 81h106c5 -144 -54 -198 -137 -198c-52 0 -92 19 -150 58c-20 13 -54 35 -74 35c-31 0 -39 -34 -43 -82z" />
    <glyph glyph-name="exclamdown" unicode="&#xa1;" horiz-adv-x="274" 
d="M141 -190h-177l108 441h131zM173 495c53 0 87 -39 87 -90c0 -56 -45 -110 -104 -110c-55 0 -91 39 -91 92c0 64 47 108 108 108z" />
    <glyph glyph-name="cent" unicode="&#xa2;" horiz-adv-x="527" 
d="M316 -10h-102l19 99c-47 8 -86 31 -111 63c-25 31 -40 75 -40 129c0 161 110 264 244 292l17 95h102l-17 -90c26 -1 58 -7 78 -16l-45 -124c-21 10 -45 14 -75 14c-77 0 -132 -64 -132 -149c0 -58 40 -93 95 -93c29 0 55 6 83 16v-122c-31 -13 -63 -18 -99 -19z" />
    <glyph glyph-name="sterling" unicode="&#xa3;" horiz-adv-x="527" 
d="M442 0h-432l16 95c54 20 102 71 119 116c7 16 10 33 9 50h-90l22 115h67c0 34 4 68 12 100c27 107 106 184 240 184c50 0 85 -13 103 -24l-41 -125c-18 10 -39 14 -68 14c-48 0 -75 -31 -85 -73c-5 -26 -6 -51 -5 -76h122l-22 -115h-105c-3 -20 -7 -35 -16 -54
c-10 -24 -29 -52 -56 -67v-2h234z" />
    <glyph glyph-name="fraction" unicode="&#x2044;" horiz-adv-x="145" 
d="M-109 -10h-94l488 670h94z" />
    <glyph glyph-name="yen" unicode="&#xa5;" horiz-adv-x="527" 
d="M286 0h-152l29 154h-142l15 79h142l11 58h-143l16 79h107l-94 280h168l23 -151c6 -41 13 -81 17 -115h2c17 32 37 74 59 116l81 150h172l-202 -280h105l-15 -79h-145l-10 -58h144l-15 -79h-144z" />
    <glyph glyph-name="florin" unicode="&#x192;" horiz-adv-x="527" 
d="M104 292l18 117h79l8 34c15 75 69 217 237 217c32 0 60 -7 77 -16l-39 -118c-13 6 -26 8 -41 8c-38 0 -64 -28 -75 -81l-9 -44h96l-19 -117h-104l-38 -175c-23 -109 -78 -207 -218 -207c-41 0 -69 9 -84 17l31 117c14 -6 29 -8 45 -8c30 0 56 18 80 122l27 134h-71z" />
    <glyph glyph-name="section" unicode="&#xa7;" horiz-adv-x="540" 
d="M189 331c0 -25 14 -46 63 -66c32 -13 70 -27 86 -36c17 10 34 30 34 54c0 29 -20 50 -44 61c-35 16 -76 32 -97 42c-18 -7 -42 -28 -42 -55zM520 650l-38 -97c-30 14 -73 27 -122 27c-50 0 -78 -20 -78 -47c0 -20 19 -34 80 -55c87 -31 147 -78 147 -154
c0 -69 -42 -119 -94 -152c17 -16 25 -42 25 -66c0 -123 -115 -179 -229 -179c-60 0 -128 10 -179 44l41 100c33 -20 83 -40 138 -40c51 0 79 19 79 44s-24 41 -86 66c-77 30 -150 77 -150 148c0 66 42 120 108 154c-18 21 -24 46 -24 67c0 113 113 174 233 174
c55 0 110 -11 149 -34z" />
    <glyph glyph-name="currency" unicode="&#xa4;" horiz-adv-x="527" 
d="M275 552c45 0 80 -13 103 -32l78 83l72 -75l-89 -81c15 -25 29 -60 29 -113c0 -54 -16 -91 -31 -118l87 -83l-70 -72l-77 85c-25 -22 -69 -35 -106 -35c-40 0 -81 13 -106 34l-72 -85l-71 73l85 82c-16 25 -32 62 -32 115c0 56 16 92 32 117l-89 80l72 76l77 -84
c26 21 65 33 108 33zM270 444c-41 0 -77 -44 -77 -112c0 -71 40 -113 79 -113c41 0 78 41 78 114c0 63 -34 111 -80 111z" />
    <glyph glyph-name="quotesingle" unicode="'" horiz-adv-x="199" 
d="M111 689h144l-75 -286h-99z" />
    <glyph glyph-name="quotedblleft" unicode="&#x201c;" horiz-adv-x="448" 
d="M203 411l-154 -9c48 100 100 191 166 277l104 10c-48 -96 -88 -187 -116 -278zM404 411l-154 -9c48 100 100 191 166 277l104 10c-49 -96 -89 -187 -116 -278z" />
    <glyph glyph-name="guillemotleft" unicode="&#xab;" horiz-adv-x="457" 
d="M267 444l-140 -196l89 -188h-111l-90 192l130 192h122zM462 444l-140 -196l89 -188h-111l-90 192l130 192h122z" />
    <glyph glyph-name="guilsinglleft" unicode="&#x2039;" horiz-adv-x="262" 
d="M267 444l-140 -196l89 -188h-111l-90 192l130 192h122z" />
    <glyph glyph-name="guilsinglright" unicode="&#x203a;" horiz-adv-x="261" 
d="M137 259l-89 185h111l90 -192l-130 -192h-122z" />
    <glyph glyph-name="fi" unicode="&#xfb01;" horiz-adv-x="564" 
d="M187 0h-163l70 371h-64l23 121h64l4 18c21 114 116 204 280 204c59 0 113 -13 140 -26l-41 -125c-24 9 -61 20 -107 20c-79 0 -104 -38 -110 -73l-3 -18h279l-93 -492h-164l70 371h-114z" />
    <glyph glyph-name="fl" unicode="&#xfb02;" horiz-adv-x="564" 
d="M187 0h-164l70 371h-64l23 121h64l3 19c9 48 35 108 93 151c48 36 112 53 193 53c60 -1 142 -15 187 -41l-127 -674h-164l110 580c-8 5 -22 9 -48 9c-45 0 -74 -37 -81 -80l-3 -17h73l-22 -121h-73z" />
    <glyph glyph-name="endash" unicode="&#x2013;" horiz-adv-x="500" 
d="M42 309h440l-21 -107h-440z" />
    <glyph glyph-name="dagger" unicode="&#x2020;" horiz-adv-x="508" 
d="M262 674h147l-51 -193l162 11l-25 -129l-156 12l-69 -426h-147l95 426l-162 -12l25 129l156 -11z" />
    <glyph glyph-name="daggerdbl" unicode="&#x2021;" horiz-adv-x="508" 
d="M265 674h142l-46 -177l160 11l-25 -129l-155 12l-29 -152l160 12l-25 -129l-155 11l-24 -183h-142l47 183l-160 -11l25 129l155 -12l29 152l-160 -12l25 129l155 -11z" />
    <glyph glyph-name="periodcentered" unicode="&#xb7;" horiz-adv-x="268" 
d="M124 159c-55 0 -89 39 -89 94c0 59 45 113 106 113c56 0 92 -39 92 -95c0 -68 -47 -112 -109 -112z" />
    <glyph glyph-name="paragraph" unicode="&#xb6;" horiz-adv-x="524" 
d="M236 -51h-97l60 310c-3 1 -7 2 -11 3c-61 17 -117 69 -117 160c0 164 129 252 324 252c60 0 114 -3 141 -9l-137 -716h-97l122 636h-67z" />
    <glyph glyph-name="bullet" unicode="&#x2022;" horiz-adv-x="344" 
d="M174 129c-72 0 -131 56 -131 133c-1 77 59 134 132 134s132 -55 132 -134c0 -77 -57 -133 -133 -133z" />
    <glyph glyph-name="quotesinglbase" unicode="&#x201a;" horiz-adv-x="252" 
d="M49 -100l-108 -10c50 99 91 193 119 287l161 10c-50 -104 -104 -198 -172 -287z" />
    <glyph glyph-name="quotedblbase" unicode="&#x201e;" horiz-adv-x="448" 
d="M42 -100l-108 -10c50 99 92 193 120 287l160 10c-50 -104 -104 -198 -172 -287zM257 -100l-108 -10c50 99 91 193 119 287l161 10c-50 -104 -104 -198 -172 -287z" />
    <glyph glyph-name="quotedblright" unicode="&#x201d;" horiz-adv-x="448" 
d="M162 679l154 10c-48 -101 -100 -191 -166 -278l-104 -9c49 96 88 186 116 277zM363 679l154 10c-49 -101 -100 -191 -166 -278l-104 -9c48 96 88 186 116 277z" />
    <glyph glyph-name="guillemotright" unicode="&#xbb;" horiz-adv-x="456" 
d="M137 259l-89 185h111l90 -192l-130 -192h-122zM332 259l-89 185h111l90 -192l-130 -192h-122z" />
    <glyph glyph-name="ellipsis" unicode="&#x2026;" horiz-adv-x="1000" 
d="M126 -9c-55 0 -89 39 -89 94c0 59 45 113 106 113c56 0 92 -39 92 -95c0 -68 -47 -112 -109 -112zM460 -9c-55 0 -89 39 -89 94c0 59 45 113 106 113c56 0 92 -39 92 -95c0 -68 -47 -112 -109 -112zM794 -9c-55 0 -89 39 -89 94c0 59 45 113 106 113c56 0 92 -39 92 -95
c0 -68 -47 -112 -109 -112z" />
    <glyph glyph-name="perthousand" unicode="&#x2030;" horiz-adv-x="1222" 
d="M265 660c92 0 141 -64 141 -147c0 -148 -93 -254 -206 -254c-85 0 -146 54 -146 152c0 132 85 249 211 249zM250 570c-52 0 -77 -117 -77 -166c0 -34 14 -55 37 -55c55 0 77 133 77 172c0 28 -10 49 -37 49zM237 -10h-91l479 669h90zM671 392c92 0 141 -64 141 -147
c0 -148 -93 -254 -205 -254c-85 0 -146 54 -146 152c0 132 85 249 210 249zM656 302c-52 0 -76 -117 -76 -166c0 -34 14 -55 36 -55c55 0 77 133 77 172c0 28 -10 49 -37 49zM1052 392c92 0 141 -64 141 -147c0 -148 -93 -254 -206 -254c-85 0 -146 54 -146 152
c0 132 85 249 211 249zM1037 302c-52 0 -77 -117 -77 -166c0 -34 14 -55 37 -55c55 0 77 133 77 172c0 28 -10 49 -37 49z" />
    <glyph glyph-name="questiondown" unicode="&#xbf;" horiz-adv-x="422" 
d="M152 258h156l-3 -24c-8 -55 -37 -104 -86 -160c-36 -40 -71 -71 -71 -99c0 -23 13 -40 51 -41c40 0 75 9 101 25l14 -118c-33 -21 -91 -41 -165 -41c-110 0 -171 63 -171 139c0 75 45 131 104 191c34 34 54 64 64 105zM267 495c52 0 86 -39 86 -90
c0 -56 -44 -110 -105 -110c-54 0 -90 39 -90 91c0 65 47 109 109 109z" />
    <glyph glyph-name="grave" unicode="`" 
d="M124 701h150l66 -151h-114z" />
    <glyph glyph-name="acute" unicode="&#xb4;" 
d="M272 701h153l-128 -151h-117z" />
    <glyph glyph-name="circumflex" unicode="&#x2c6;" 
d="M228 701h108l73 -151h-103l-33 71h-2l-52 -71h-111z" />
    <glyph glyph-name="tilde" unicode="&#x2dc;" 
d="M203 556h-77c12 83 46 133 100 133c28 0 45 -10 60 -19c14 -10 26 -20 36 -20c13 0 20 8 30 43h74c-14 -93 -49 -129 -100 -129c-26 0 -48 8 -62 18c-14 12 -25 19 -35 19c-11 0 -21 -18 -26 -45z" />
    <glyph glyph-name="macron" unicode="&#xaf;" 
d="M157 667h244l-18 -85h-244z" />
    <glyph glyph-name="breve" unicode="&#x2d8;" 
d="M152 689h79c3 -29 11 -52 43 -52c37 0 52 27 57 52h82c-12 -81 -60 -132 -146 -132c-90 0 -124 53 -115 132z" />
    <glyph glyph-name="dotaccent" unicode="&#x2d9;" 
d="M267 547c-39 0 -73 28 -73 74c0 49 36 82 81 82c43 0 73 -31 73 -74c0 -50 -36 -82 -81 -82z" />
    <glyph glyph-name="dieresis" unicode="&#xa8;" 
d="M166 548c-38 0 -72 28 -72 74c0 49 36 81 80 81c43 0 72 -31 72 -74c0 -50 -35 -81 -80 -81zM371 548c-38 0 -72 28 -72 74c0 49 36 81 80 81c43 0 72 -31 72 -74c0 -50 -35 -81 -80 -81z" />
    <glyph glyph-name="ring" unicode="&#x2da;" 
d="M281 737c62 0 109 -33 109 -94c-2 -64 -53 -103 -124 -103c-61 0 -107 35 -109 91c-2 63 48 106 124 106zM274 684c-29 0 -44 -24 -44 -49c0 -20 12 -42 40 -42c32 0 47 24 47 47c0 22 -11 44 -43 44z" />
    <glyph glyph-name="cedilla" unicode="&#xb8;" 
d="M122 5h82l-32 -46c36 -8 61 -35 61 -65c0 -79 -77 -101 -130 -101c-33 0 -63 9 -78 21l26 61c16 -10 36 -16 53 -16c16 0 34 7 34 26c1 18 -15 32 -70 36z" />
    <glyph glyph-name="hungarumlaut" unicode="&#x2dd;" 
d="M188 701h132l-117 -152h-94zM366 701h132l-117 -152h-94z" />
    <glyph glyph-name="ogonek" unicode="&#x2db;" 
d="M118 2h92c-24 -30 -37 -59 -37 -79c0 -23 15 -37 40 -37c19 0 37 5 47 8l12 -79c-32 -25 -77 -35 -112 -35c-66 0 -103 33 -103 91c0 52 37 104 61 131z" />
    <glyph glyph-name="caron" unicode="&#x2c7;" 
d="M318 550h-108l-73 151h103l33 -71h2l52 71h111z" />
    <glyph glyph-name="emdash" unicode="&#x2014;" horiz-adv-x="1000" 
d="M42 309h940l-21 -107h-940z" />
    <glyph glyph-name="AE" unicode="&#xc6;" horiz-adv-x="786" 
d="M118 0h-171l374 674h481l-25 -140h-227l-11 -126h216l-24 -138h-198l-10 -129h227l-25 -141h-369l12 164h-169zM269 297h106l15 152c2 32 5 68 9 104h-3c-19 -41 -41 -88 -54 -117z" />
    <glyph glyph-name="ordfeminine" unicode="&#xaa;" horiz-adv-x="390" 
d="M361 267h-103v46h-1c-27 -37 -62 -53 -101 -53c-54 0 -94 41 -94 114c0 109 67 216 220 216c49 0 94 -11 121 -21l-35 -202c-6 -35 -7 -75 -7 -100zM262 398l17 104c-8 4 -16 5 -24 5c-52 0 -77 -72 -77 -110c0 -28 12 -47 35 -47s42 24 49 48z" />
    <glyph glyph-name="Lslash" unicode="&#x141;" horiz-adv-x="473" 
d="M411 0h-387l42 222l-76 -45l25 124l74 45l62 328h164l-41 -217l125 77l-23 -124l-126 -77l-36 -190h224z" />
    <glyph glyph-name="Oslash" unicode="&#xd8;" horiz-adv-x="646" 
d="M100 -70l-73 63l66 89c-33 41 -54 102 -54 182c0 134 48 255 128 331c58 57 134 89 218 89c59 0 102 -11 138 -33l63 85l79 -55l-70 -96c27 -35 45 -90 46 -166c1 -139 -46 -261 -122 -337c-58 -58 -138 -92 -223 -92c-52 0 -93 10 -126 30zM211 232l217 298
c-12 11 -30 18 -55 18c-71 0 -126 -72 -152 -151c-17 -51 -22 -107 -15 -165h5zM472 429l-211 -288c12 -10 30 -15 51 -15c68 0 119 67 145 147c16 47 21 96 19 156h-4z" />
    <glyph glyph-name="OE" unicode="&#x152;" horiz-adv-x="846" 
d="M787 141l-25 -141h-339c-13 0 -30 -2 -48 -5c-20 -3 -44 -5 -72 -5c-182 0 -265 128 -265 269c0 223 143 425 381 425c41 0 61 -3 79 -5c24 -3 43 -5 61 -5h315l-25 -140h-223l-22 -119h209l-24 -138h-211l-25 -136h234zM387 135l76 402c-12 5 -32 9 -56 9
c-110 0 -195 -132 -195 -276c0 -85 49 -142 125 -142c20 0 36 3 50 7z" />
    <glyph glyph-name="ordmasculine" unicode="&#xba;" horiz-adv-x="374" 
d="M244 590c88 0 140 -57 140 -132c0 -127 -85 -198 -189 -198c-83 0 -139 56 -139 130c0 118 79 200 188 200zM234 507c-41 0 -62 -72 -62 -118c0 -27 13 -46 37 -46c38 0 59 67 59 119c0 25 -10 45 -34 45z" />
    <glyph glyph-name="ae" unicode="&#xe6;" horiz-adv-x="732" 
d="M655 144l3 -117c-57 -30 -127 -37 -178 -37c-66 0 -127 27 -156 78h-3c-39 -47 -97 -78 -172 -78c-89 0 -148 60 -148 137c0 149 167 202 294 200l2 12c4 19 -16 48 -69 48c-54 0 -101 -21 -132 -40l-23 105c41 25 107 50 175 50c69 0 119 -24 143 -70h3
c35 42 92 70 161 70c113 0 165 -71 165 -140c0 -135 -126 -177 -297 -168c-1 -14 0 -31 8 -43c16 -22 51 -34 92 -34c52 0 89 10 132 27zM271 178l9 44c-44 2 -120 -12 -120 -68c0 -24 16 -40 42 -40c33 0 60 23 69 64zM566 345c0 19 -13 38 -44 38c-48 0 -78 -46 -82 -79
c67 -5 126 3 126 41z" />
    <glyph glyph-name="dotlessi" unicode="&#x131;" horiz-adv-x="267" 
d="M167 0h-164l93 492h164z" />
    <glyph glyph-name="lslash" unicode="&#x142;" horiz-adv-x="278" 
d="M173 0h-164l43 222l-69 -45l24 126l69 45l68 357h163l-45 -238l75 50l-24 -126l-75 -50z" />
    <glyph glyph-name="oslash" unicode="&#xf8;" horiz-adv-x="534" 
d="M53 -58l-44 44l60 73c-28 32 -44 70 -44 129c0 172 116 314 284 314c41 0 76 -8 105 -25l61 71l48 -41l-59 -72c32 -40 44 -85 44 -129c0 -193 -126 -316 -275 -316c-52 0 -87 9 -116 28zM192 194l132 173c-8 12 -19 17 -37 17c-62 0 -93 -102 -96 -153
c-1 -11 -2 -24 -2 -35zM340 292l-130 -165c7 -13 19 -19 37 -19c60 0 91 85 95 147c1 11 2 24 2 37h-4z" />
    <glyph glyph-name="oe" unicode="&#x153;" horiz-adv-x="783" 
d="M703 144l7 -117c-56 -30 -124 -37 -170 -37c-64 0 -126 19 -162 75h-2c-39 -53 -99 -75 -160 -75c-114 0 -192 80 -192 202c0 187 122 310 263 310c67 0 120 -24 149 -75h1c38 45 98 75 166 75c108 0 165 -72 165 -147c0 -143 -143 -185 -291 -179c0 -13 6 -25 16 -34
c19 -17 49 -26 84 -25c51 0 87 11 126 27zM243 115h2c65 0 95 118 95 191c0 38 -11 74 -53 74c-63 0 -96 -109 -96 -188c0 -44 18 -77 52 -77zM619 341c0 21 -11 40 -47 40c-46 0 -72 -47 -78 -86c63 -4 125 9 125 46z" />
    <glyph glyph-name="germandbls" unicode="&#xdf;" horiz-adv-x="570" 
d="M167 0h-164l83 435c33 174 117 280 289 280c119 0 192 -72 192 -163c0 -44 -16 -78 -41 -100c-35 -21 -60 -44 -60 -76c0 -22 8 -41 23 -68c21 -34 40 -82 40 -125c0 -139 -96 -193 -213 -193c-49 0 -87 10 -107 20l36 119c20 -11 44 -15 64 -15c33 0 55 16 55 46
c0 18 -4 33 -23 66c-26 46 -42 76 -42 118c0 64 48 113 93 139c9 13 16 25 16 51s-17 52 -52 52c-46 0 -86 -42 -104 -137z" />
    <glyph glyph-name="onesuperior" unicode="&#xb9;" horiz-adv-x="273" 
d="M257 405h-128l54 285h-1l-77 -31l-9 88l124 48h111z" />
    <glyph glyph-name="logicalnot" unicode="&#xac;" horiz-adv-x="596" 
d="M32 432h516v-332h-106v229h-410v103z" />
    <glyph glyph-name="mu" unicode="&#xb5;" horiz-adv-x="541" 
d="M258 492l-54 -282c-14 -71 5 -89 37 -89c26 0 48 27 61 53c4 7 9 20 12 32l55 286h164l-62 -324c-8 -41 3 -50 29 -51l-33 -118c-11 -5 -27 -9 -52 -9c-56 0 -84 28 -95 78h-4c-23 -41 -55 -72 -103 -72c-23 0 -43 6 -55 18l-6 -33c-11 -57 -21 -138 -21 -177h-146
c-7 22 -3 96 16 195l94 493h163z" />
    <glyph glyph-name="trademark" unicode="&#x2122;" horiz-adv-x="674" 
d="M102 674h230v-76h-69v-197h-94v197h-67v76zM697 401h-87l-3 102c-1 34 1 72 0 119h-5c-8 -46 -16 -87 -22 -117l-17 -99h-86l-13 99c-3 29 -9 76 -15 117h-5c-1 -42 -1 -85 -3 -119l-3 -102h-86l14 273h143l5 -38c4 -24 7 -44 14 -96h1c6 37 11 65 18 96l7 38h132z" />
    <glyph glyph-name="Eth" unicode="&#xd0;" horiz-adv-x="648" 
d="M10 280l25 130h68l48 253c51 10 109 15 174 15c98 0 177 -20 227 -64c57 -50 86 -120 86 -215c0 -153 -65 -263 -142 -323c-72 -56 -159 -80 -295 -80c-86 0 -144 8 -175 15l52 269h-68zM365 410l-25 -130h-99l-28 -146c10 -3 24 -4 46 -4c57 0 116 29 150 81
c34 53 54 118 54 188c0 90 -45 148 -127 148c-22 0 -35 -1 -44 -4l-26 -133h99z" />
    <glyph glyph-name="onehalf" unicode="&#xbd;" horiz-adv-x="804" 
d="M242 265h-128l55 285h-2l-77 -32l-9 88l124 49h111zM183 -10h-94l488 670h94zM714 0h-291l12 65l75 64c67 53 120 96 120 134c0 19 -14 33 -43 33c-28 0 -57 -10 -80 -26l-14 85c35 23 85 40 140 40c80 0 132 -41 132 -104c0 -80 -73 -133 -133 -177l-20 -14v-3h120z" />
    <glyph glyph-name="plusminus" unicode="&#xb1;" horiz-adv-x="596" 
d="M236 577h108v-163h204v-103h-204v-166h-108v166h-204v103h204v163zM32 103h516v-103h-516v103z" />
    <glyph glyph-name="Thorn" unicode="&#xde;" horiz-adv-x="549" 
d="M14 0l128 674h160l-22 -114c12 1 31 2 54 2c55 0 111 -12 152 -47c41 -34 60 -81 60 -131c0 -183 -141 -264 -293 -264c-26 0 -43 2 -55 3l-24 -123h-160zM256 429l-33 -174c9 -2 24 -3 43 -3c70 0 116 50 116 109c0 46 -30 71 -85 71c-16 0 -32 -1 -41 -3z" />
    <glyph glyph-name="onequarter" unicode="&#xbc;" horiz-adv-x="804" 
d="M672 0h-118l16 83h-182l14 75l196 234h149l-43 -225h47l-16 -84h-47zM586 167l11 56c4 25 12 50 18 74h-3c-15 -23 -31 -44 -46 -62l-52 -67l2 -1h70zM246 265h-127l54 285h-1l-78 -32l-8 88l123 49h112zM203 -10h-97l485 670h97z" />
    <glyph glyph-name="divide" unicode="&#xf7;" horiz-adv-x="596" 
d="M296 364c-45 0 -75 32 -75 77c0 47 31 78 77 78s75 -31 76 -78c0 -45 -29 -77 -78 -77zM555 216h-516v103h516v-103zM296 16c-45 0 -75 32 -75 77c0 47 31 78 77 78s75 -31 76 -78c0 -45 -29 -77 -78 -77z" />
    <glyph glyph-name="brokenbar" unicode="&#xa6;" horiz-adv-x="244" 
d="M84 174h109v-350h-109v350zM84 674h109v-350h-109v350z" />
    <glyph glyph-name="degree" unicode="&#xb0;" horiz-adv-x="348" 
d="M229 684c87 0 144 -62 144 -138c0 -87 -75 -147 -152 -147c-86 0 -145 59 -145 137c0 81 70 148 153 148zM226 612c-36 0 -67 -35 -67 -75c0 -38 28 -66 66 -66c37 0 65 32 65 72c0 37 -20 69 -64 69z" />
    <glyph glyph-name="thorn" unicode="&#xfe;" horiz-adv-x="543" 
d="M-34 -196l166 874h162l-45 -237h2c22 31 66 61 121 61c96 0 146 -77 145 -180c-2 -192 -117 -332 -267 -332c-31 0 -62 7 -80 16h-3l-38 -202h-163zM210 235l-20 -108c11 -9 28 -17 48 -17c65 0 108 108 108 193c0 33 -10 65 -45 65c-40 0 -75 -46 -91 -133z" />
    <glyph glyph-name="threequarters" unicode="&#xbe;" horiz-adv-x="804" 
d="M231 -10h-98l486 670h96zM105 548l-7 80c30 18 75 32 131 32c77 0 132 -41 132 -90c0 -52 -41 -83 -93 -97v-2c38 -8 75 -37 75 -81c0 -83 -86 -130 -189 -130c-52 0 -102 11 -129 29l36 84c19 -13 55 -25 86 -25c35 0 64 16 64 42c0 25 -29 42 -75 42h-17l14 75h14
c38 0 81 8 81 37c0 17 -13 28 -41 28c-29 0 -62 -11 -82 -24zM685 0h-118l16 83h-182l14 75l196 234h148l-42 -225h47l-16 -84h-47zM599 167l10 56c5 25 13 50 19 74h-3c-15 -23 -31 -44 -46 -62l-53 -67l2 -1h71z" />
    <glyph glyph-name="twosuperior" unicode="&#xb2;" horiz-adv-x="331" 
d="M338 405h-296l13 65l77 64c68 52 120 95 120 134c0 19 -14 33 -44 33c-28 0 -57 -10 -81 -24l-14 83c34 23 84 40 138 40c84 0 136 -41 136 -104c0 -80 -74 -134 -133 -177l-20 -14v-3h123z" />
    <glyph glyph-name="registered" unicode="&#xae;" horiz-adv-x="401" 
d="M238 489v-53h-52v153c9 1 36 6 70 6c37 0 52 -5 63 -13c10 -6 17 -18 17 -33s-14 -29 -36 -35v-2c18 -5 27 -17 32 -39s9 -32 11 -37h-57c-5 6 -8 19 -11 31c-2 15 -10 22 -23 22h-14zM240 557v-33h12c17 0 25 7 25 17c0 12 -10 17 -23 17c-5 0 -11 -1 -14 -1zM258 686
c97 0 175 -77 175 -172s-78 -172 -176 -172c-97 0 -176 77 -176 172s79 172 177 172zM255 640c-67 0 -118 -56 -118 -127c0 -69 51 -125 119 -125c70 -1 122 56 122 126s-52 126 -123 126z" />
    <glyph glyph-name="minus" unicode="&#x2212;" horiz-adv-x="596" 
d="M42 319h516v-103h-516v103z" />
    <glyph glyph-name="eth" unicode="&#xf0;" horiz-adv-x="535" 
d="M242 113c59 0 84 69 92 141c4 38 6 53 1 74c-5 14 -18 30 -49 30c-59 0 -98 -98 -97 -176c0 -42 19 -69 53 -69zM144 474l-23 62l115 49c-20 15 -48 33 -73 46l80 85c51 -19 95 -45 131 -75l127 53l23 -62l-99 -41c50 -54 85 -145 85 -250c0 -202 -109 -351 -280 -351
c-141 0 -208 92 -208 204c0 141 99 266 243 278c24 2 44 0 65 -10l1 5c-9 26 -24 52 -41 69z" />
    <glyph glyph-name="multiply" unicode="&#xd7;" horiz-adv-x="596" 
d="M30 453l71 74l190 -192l185 192l73 -74l-189 -189l189 -189l-73 -75l-187 191l-186 -191l-71 75l187 188z" />
    <glyph glyph-name="threesuperior" unicode="&#xb3;" horiz-adv-x="324" 
d="M126 688l-7 80c30 18 75 32 131 32c77 0 132 -41 132 -90c0 -52 -42 -83 -93 -97v-2c37 -8 75 -37 75 -81c0 -83 -86 -130 -189 -130c-52 0 -102 11 -129 29l36 84c19 -13 55 -25 86 -25c35 0 64 16 64 42c0 25 -29 42 -75 42h-17l14 75h14c38 0 81 8 81 37
c0 17 -13 28 -41 28c-29 0 -62 -11 -82 -24z" />
    <glyph glyph-name="copyright" unicode="&#xa9;" horiz-adv-x="667" 
d="M356 648c168 0 304 -138 304 -308c0 -172 -136 -310 -305 -310c-170 0 -308 138 -308 310c0 170 138 308 309 308zM353 586c-130 0 -237 -110 -236 -247c0 -139 106 -248 237 -247c130 -1 236 109 236 247c0 137 -106 247 -237 247zM489 492l-16 -62c-13 8 -51 23 -95 23
c-69 0 -115 -40 -115 -116c0 -68 48 -117 112 -117c41 0 80 10 102 24l16 -60c-35 -22 -83 -31 -126 -31c-115 0 -183 79 -183 181c0 115 93 186 195 186c47 0 98 -15 110 -28z" />
    <glyph glyph-name="Aacute" unicode="&#xc1;" horiz-adv-x="584" 
d="M358 152h-159l-61 -152h-171l305 674h208l51 -674h-169zM243 274h112l-3 128c-2 38 -2 101 -3 145h-2c-17 -44 -37 -108 -53 -145zM402 840h172l-139 -130h-131z" />
    <glyph glyph-name="Acircumflex" unicode="&#xc2;" horiz-adv-x="584" 
d="M358 152h-159l-61 -152h-171l305 674h208l50 -674h-168zM243 274h112l-4 128c-1 38 -1 101 -3 145h-2c-16 -44 -37 -108 -52 -145zM346 840h118l76 -130h-111l-32 56h-2l-51 -56h-121z" />
    <glyph glyph-name="Adieresis" unicode="&#xc4;" horiz-adv-x="584" 
d="M358 152h-159l-61 -152h-171l305 674h208l50 -674h-168zM243 274h112l-3 128c-2 38 -2 101 -4 145h-2c-16 -44 -36 -108 -52 -145zM277 708c-36 0 -70 28 -70 70c0 47 36 79 77 79s70 -31 70 -71c0 -46 -36 -78 -77 -78zM484 708c-36 0 -70 28 -70 70c0 47 36 79 77 79
s70 -31 70 -71c0 -46 -36 -78 -77 -78z" />
    <glyph glyph-name="Agrave" unicode="&#xc0;" horiz-adv-x="584" 
d="M358 152h-159l-61 -152h-171l305 674h208l51 -674h-169zM243 274h112l-3 128c-2 38 -2 101 -3 145h-2c-17 -44 -37 -108 -53 -145zM206 840h170l75 -128h-129z" />
    <glyph glyph-name="Aring" unicode="&#xc5;" horiz-adv-x="584" 
d="M358 152h-159l-61 -152h-171l305 674h209l50 -674h-169zM243 274h112l-3 128c-1 38 -2 101 -3 145h-2c-17 -44 -37 -108 -53 -145zM398 887c67 0 112 -33 112 -90c-2 -60 -52 -99 -126 -99c-65 0 -109 36 -111 87c-1 59 49 102 125 102zM392 836c-27 0 -42 -22 -42 -47
c0 -21 13 -40 39 -40c29 0 44 20 44 45c0 22 -13 42 -41 42z" />
    <glyph glyph-name="Atilde" unicode="&#xc3;" horiz-adv-x="584" 
d="M358 152h-159l-61 -152h-171l305 674h208l50 -674h-168zM243 274h112l-3 128c-2 38 -2 101 -4 145h-2c-16 -44 -36 -108 -52 -145zM310 712h-79c15 93 56 131 103 130c28 0 46 -9 61 -18c15 -11 27 -20 38 -20c16 0 23 10 33 44h77c-15 -95 -53 -130 -105 -130
c-29 0 -49 9 -62 17c-15 10 -25 18 -38 18c-11 0 -23 -13 -28 -41z" />
    <glyph glyph-name="Ccedilla" unicode="&#xc7;" horiz-adv-x="536" 
d="M471 152l6 -134c-28 -13 -79 -25 -130 -26l-23 -33c36 -8 61 -32 61 -68c0 -74 -76 -96 -130 -96c-32 0 -59 9 -76 21l24 59c17 -10 37 -15 54 -15c15 0 34 6 34 25c0 15 -16 30 -71 34l49 75c-155 21 -222 144 -222 268c0 167 69 284 165 351c67 49 146 70 233 70
c62 0 112 -14 129 -23l-44 -135c-16 6 -51 16 -100 16c-46 0 -91 -16 -124 -46c-48 -44 -82 -116 -82 -211c0 -94 51 -151 141 -151c40 0 78 8 106 19z" />
    <glyph glyph-name="Eacute" unicode="&#xc9;" horiz-adv-x="498" 
d="M466 415l-27 -138h-208l-27 -136h235l-27 -141h-398l128 674h385l-28 -140h-219l-24 -119h210zM359 840h172l-139 -130h-132z" />
    <glyph glyph-name="Ecircumflex" unicode="&#xca;" horiz-adv-x="498" 
d="M466 415l-27 -138h-208l-27 -136h235l-27 -141h-398l128 674h385l-28 -140h-219l-24 -119h210zM307 840h118l76 -130h-111l-33 56h-2l-50 -56h-122z" />
    <glyph glyph-name="Edieresis" unicode="&#xcb;" horiz-adv-x="498" 
d="M466 415l-27 -138h-208l-26 -136h234l-27 -141h-398l128 674h385l-28 -140h-219l-24 -119h210zM244 708c-36 0 -70 28 -70 70c0 47 36 79 77 79s70 -31 70 -71c0 -46 -36 -78 -77 -78zM451 708c-36 0 -70 28 -70 70c0 47 36 79 77 79s70 -31 70 -71
c0 -46 -36 -78 -77 -78z" />
    <glyph glyph-name="Egrave" unicode="&#xc8;" horiz-adv-x="498" 
d="M466 415l-27 -138h-208l-27 -136h235l-27 -141h-398l128 674h385l-28 -140h-219l-24 -119h210zM175 840h170l75 -128h-129z" />
    <glyph glyph-name="Iacute" unicode="&#xcd;" horiz-adv-x="284" 
d="M140 674h163l-127 -674h-164zM253 840h172l-139 -130h-131z" />
    <glyph glyph-name="Icircumflex" unicode="&#xce;" horiz-adv-x="284" 
d="M139 674h164l-128 -674h-164zM189 840h118l76 -130h-111l-33 56h-2l-50 -56h-122z" />
    <glyph glyph-name="Idieresis" unicode="&#xcf;" horiz-adv-x="284" 
d="M139 674h164l-128 -674h-164zM124 708c-36 0 -70 28 -70 70c0 47 36 79 77 79s70 -31 70 -71c0 -46 -36 -78 -77 -78zM332 708c-36 0 -70 28 -70 70c0 47 36 79 77 79s70 -31 70 -71c0 -46 -36 -78 -77 -78z" />
    <glyph glyph-name="Igrave" unicode="&#xcc;" horiz-adv-x="284" 
d="M139 674h164l-128 -674h-164zM58 840h170l75 -128h-129z" />
    <glyph glyph-name="Ntilde" unicode="&#xd1;" horiz-adv-x="634" 
d="M162 0h-148l128 674h182l56 -210c24 -93 41 -166 54 -239h2c5 73 16 170 36 279l33 170h148l-127 -674h-163l-62 216c-27 98 -42 157 -57 246h-3c-8 -67 -25 -179 -48 -297zM343 717h-79c15 92 56 130 103 130c28 0 46 -9 62 -18c15 -11 27 -20 38 -20c15 0 23 10 33 44
h77c-15 -95 -53 -130 -105 -130c-29 0 -49 9 -63 17c-15 10 -25 18 -38 18c-11 0 -23 -13 -28 -41z" />
    <glyph glyph-name="Oacute" unicode="&#xd3;" horiz-adv-x="654" 
d="M293 -10c-169 0 -250 130 -250 265c0 129 45 261 128 341c58 55 135 88 225 88c170 0 249 -121 249 -262c0 -132 -44 -265 -124 -343c-59 -57 -135 -89 -228 -89zM317 128c29 0 55 13 76 34c53 52 79 190 79 262c0 63 -23 122 -95 122c-31 0 -58 -13 -81 -36
c-51 -51 -80 -174 -80 -257c0 -71 30 -125 101 -125zM428 843h172l-139 -130h-132z" />
    <glyph glyph-name="Ocircumflex" unicode="&#xd4;" horiz-adv-x="654" 
d="M293 -10c-169 0 -250 130 -250 265c0 129 45 261 128 341c58 55 135 88 225 88c170 0 249 -121 249 -262c0 -132 -44 -265 -124 -343c-59 -57 -135 -89 -228 -89zM317 128c29 0 55 13 76 34c53 52 79 190 79 262c0 63 -23 122 -95 122c-31 0 -58 -13 -81 -36
c-51 -51 -80 -174 -80 -257c0 -71 30 -125 101 -125zM369 840h118l76 -130h-111l-33 56h-2l-50 -56h-122z" />
    <glyph glyph-name="Odieresis" unicode="&#xd6;" horiz-adv-x="654" 
d="M293 -10c-169 0 -250 130 -250 265c0 129 45 261 128 341c58 55 134 88 225 88c170 0 249 -121 249 -262c0 -132 -44 -265 -124 -343c-59 -57 -136 -89 -228 -89zM317 128c28 0 55 13 76 34c52 52 79 190 79 262c0 63 -23 122 -96 122c-30 0 -58 -13 -80 -36
c-51 -51 -80 -174 -80 -257c0 -71 30 -125 101 -125zM310 708c-36 0 -70 28 -70 70c0 47 36 79 77 79s70 -31 70 -71c0 -46 -36 -78 -77 -78zM518 708c-36 0 -70 28 -70 70c0 47 36 79 77 79s70 -31 70 -71c0 -46 -36 -78 -77 -78z" />
    <glyph glyph-name="Ograve" unicode="&#xd2;" horiz-adv-x="654" 
d="M293 -10c-169 0 -250 130 -250 265c0 129 45 261 128 341c58 55 135 88 225 88c170 0 249 -121 249 -262c0 -132 -44 -265 -124 -343c-59 -57 -135 -89 -228 -89zM317 128c29 0 55 13 76 34c53 52 79 190 79 262c0 63 -23 122 -95 122c-31 0 -58 -13 -81 -36
c-51 -51 -80 -174 -80 -257c0 -71 30 -125 101 -125zM234 840h170l75 -128h-129z" />
    <glyph glyph-name="Otilde" unicode="&#xd5;" horiz-adv-x="654" 
d="M293 -10c-169 0 -250 130 -250 265c0 129 45 261 128 341c58 55 134 88 225 88c170 0 249 -121 249 -262c0 -132 -44 -265 -124 -343c-59 -57 -136 -89 -228 -89zM317 128c28 0 55 13 76 34c52 52 79 190 79 262c0 63 -23 122 -95 122c-31 0 -59 -13 -81 -36
c-51 -51 -80 -174 -80 -257c0 -71 29 -125 101 -125zM337 717h-79c15 92 56 130 103 130c28 0 47 -9 62 -18c15 -11 27 -20 38 -20c15 0 23 10 33 44h77c-15 -95 -53 -130 -105 -130c-29 0 -49 9 -63 17c-15 10 -25 18 -38 18c-11 0 -23 -13 -28 -41z" />
    <glyph glyph-name="Scaron" unicode="&#x160;" horiz-adv-x="487" 
d="M-5 33l50 136c36 -20 88 -36 145 -36c47 -1 88 19 88 60c0 36 -28 55 -81 89c-62 39 -123 92 -123 174c0 141 116 227 267 227c80 0 123 -15 150 -29l-48 -138c-22 11 -64 26 -112 25c-57 0 -87 -25 -87 -59c0 -30 33 -51 86 -86c75 -45 120 -101 120 -172
c0 -159 -127 -233 -271 -233c-96 1 -156 23 -184 42zM385 710h-119l-76 130h111l32 -59h2l51 59h122z" />
    <glyph glyph-name="Uacute" unicode="&#xda;" horiz-adv-x="620" 
d="M137 674h164l-76 -397c-5 -24 -8 -50 -8 -76c0 -38 23 -72 72 -72c57 0 94 37 114 145l77 400h163l-73 -387c-37 -192 -115 -297 -300 -297c-142 -1 -216 73 -216 205c0 29 5 65 11 100zM420 840h172l-139 -130h-131z" />
    <glyph glyph-name="Ucircumflex" unicode="&#xdb;" horiz-adv-x="620" 
d="M137 674h164l-76 -397c-5 -24 -8 -50 -8 -76c0 -38 23 -72 72 -72c57 0 94 37 114 145l77 400h163l-73 -387c-37 -192 -115 -297 -300 -297c-142 -1 -216 73 -216 205c0 29 5 65 11 100zM362 840h119l76 -130h-111l-33 56h-2l-50 -56h-122z" />
    <glyph glyph-name="Udieresis" unicode="&#xdc;" horiz-adv-x="620" 
d="M137 674h164l-76 -397c-5 -24 -8 -50 -8 -76c0 -38 23 -72 73 -72c56 0 93 37 114 145l76 400h163l-73 -387c-37 -192 -115 -297 -300 -297c-142 -1 -216 73 -216 205c0 29 5 65 11 100zM301 708c-36 0 -70 28 -70 70c0 47 36 79 78 79c40 0 70 -31 70 -71
c0 -46 -37 -78 -78 -78zM509 708c-36 0 -70 28 -70 70c0 47 36 79 77 79s70 -31 70 -71c0 -46 -36 -78 -77 -78z" />
    <glyph glyph-name="Ugrave" unicode="&#xd9;" horiz-adv-x="620" 
d="M137 674h164l-76 -397c-5 -24 -8 -50 -8 -76c0 -38 23 -72 72 -72c57 0 94 37 114 145l77 400h163l-73 -387c-37 -192 -115 -297 -300 -297c-142 -1 -216 73 -216 205c0 29 5 65 11 100zM231 840h170l75 -128h-129z" />
    <glyph glyph-name="Yacute" unicode="&#xdd;" horiz-adv-x="532" 
d="M288 0h-163l50 264l-112 410h175l26 -149c8 -63 13 -99 17 -134h2c20 41 38 81 63 131l77 152h189l-273 -407zM364 840h172l-139 -130h-131z" />
    <glyph glyph-name="Ydieresis" unicode="&#x178;" horiz-adv-x="532" 
d="M288 0h-163l50 264l-112 410h175l25 -149c9 -63 13 -99 18 -134h2c19 41 37 81 63 131l77 152h188l-273 -407zM240 708c-36 0 -70 28 -70 70c0 47 36 79 77 79s70 -31 70 -71c0 -46 -36 -78 -77 -78zM447 708c-36 0 -70 28 -70 70c0 47 36 79 77 79s70 -31 70 -71
c0 -46 -36 -78 -77 -78z" />
    <glyph glyph-name="Zcaron" unicode="&#x17d;" horiz-adv-x="512" 
d="M-31 0l18 96l338 433v3h-230l28 142h439l-21 -110l-327 -419v-3h250l-27 -142h-468zM398 710h-118l-76 130h111l32 -59h2l51 59h122z" />
    <glyph glyph-name="aacute" unicode="&#xe1;" horiz-adv-x="531" 
d="M451 0h-147c2 28 3 55 4 83h-3c-39 -69 -96 -93 -144 -93c-86 0 -141 68 -141 168c0 159 94 344 337 344c61 0 125 -12 166 -26l-53 -261c-10 -54 -20 -154 -19 -215zM318 262l23 115c-11 2 -22 3 -29 3c-77 0 -124 -122 -124 -190c0 -42 15 -68 44 -68
c30 0 66 33 86 140zM370 701h153l-128 -151h-116z" />
    <glyph glyph-name="acircumflex" unicode="&#xe2;" horiz-adv-x="531" 
d="M451 0h-147c2 28 3 55 4 83h-3c-39 -69 -96 -93 -144 -93c-86 0 -141 68 -141 168c0 159 94 344 337 344c61 0 125 -12 166 -26l-53 -261c-10 -54 -20 -154 -19 -215zM318 262l23 115c-11 2 -22 3 -29 3c-77 0 -124 -122 -124 -190c0 -42 15 -68 44 -68
c30 0 66 33 86 140zM316 701h108l72 -151h-102l-34 71h-2l-51 -71h-110z" />
    <glyph glyph-name="adieresis" unicode="&#xe4;" horiz-adv-x="531" 
d="M451 0h-147c2 28 3 55 4 83h-3c-39 -69 -96 -93 -144 -93c-86 0 -141 68 -141 168c0 159 94 344 337 344c61 0 125 -12 166 -26l-53 -261c-10 -54 -20 -154 -19 -215zM318 262l23 115c-11 2 -22 3 -29 3c-77 0 -124 -122 -124 -190c0 -42 15 -68 44 -68
c30 0 66 33 86 140zM232 548c-38 0 -72 28 -72 74c0 49 36 81 80 81c43 0 72 -31 72 -74c0 -50 -35 -81 -80 -81zM436 548c-38 0 -72 28 -72 74c0 49 36 81 80 81c43 0 72 -31 72 -74c0 -50 -35 -81 -80 -81z" />
    <glyph glyph-name="agrave" unicode="&#xe0;" horiz-adv-x="531" 
d="M451 0h-147c2 28 3 55 4 83h-3c-39 -69 -96 -93 -144 -93c-86 0 -141 68 -141 168c0 159 94 344 337 344c61 0 125 -12 166 -26l-53 -261c-10 -54 -20 -154 -19 -215zM318 262l23 115c-11 2 -22 3 -29 3c-77 0 -124 -122 -124 -190c0 -42 15 -68 44 -68
c30 0 66 33 86 140zM189 701h149l66 -151h-113z" />
    <glyph glyph-name="aring" unicode="&#xe5;" horiz-adv-x="531" 
d="M451 0h-147c2 28 3 55 4 83h-3c-39 -69 -96 -93 -144 -93c-86 0 -141 68 -141 168c0 159 94 344 337 344c61 0 125 -12 166 -26l-53 -261c-10 -54 -20 -154 -19 -215zM318 262l23 115c-10 2 -21 3 -29 3c-76 0 -124 -122 -124 -190c0 -42 15 -68 44 -68
c30 0 66 33 86 140zM348 737c62 0 109 -33 109 -94c-2 -64 -53 -103 -123 -103c-61 0 -107 35 -109 91c-2 63 48 106 123 106zM342 684c-29 0 -44 -24 -44 -49c0 -20 12 -42 40 -42c31 0 46 24 46 47c0 22 -11 44 -42 44z" />
    <glyph glyph-name="atilde" unicode="&#xe3;" horiz-adv-x="531" 
d="M451 0h-147c2 28 3 55 4 83h-3c-39 -69 -96 -93 -144 -93c-86 0 -141 68 -141 168c0 159 94 344 337 344c61 0 125 -12 166 -26l-53 -261c-10 -54 -20 -154 -19 -215zM318 262l23 115c-11 2 -22 3 -29 3c-77 0 -124 -122 -124 -190c0 -42 15 -68 44 -68
c30 0 66 33 86 140zM269 556h-77c12 83 46 133 99 133c28 0 45 -10 61 -19c14 -10 26 -20 35 -20c14 0 20 8 30 43h74c-14 -93 -49 -129 -100 -129c-26 0 -47 8 -62 18c-15 12 -25 19 -35 19s-20 -18 -25 -45z" />
    <glyph glyph-name="ccedilla" unicode="&#xe7;" horiz-adv-x="403" 
d="M350 137l-5 -126c-23 -10 -57 -18 -83 -19l-23 -33c36 -9 61 -37 61 -68c0 -76 -77 -98 -126 -98c-33 0 -67 9 -82 21l26 60c17 -9 38 -15 54 -15s33 7 33 26c1 17 -15 31 -71 35l49 74c-104 14 -161 93 -161 195c0 181 133 312 312 312c38 0 68 -5 90 -13l-39 -127
c-16 6 -32 9 -53 9c-83 0 -140 -73 -140 -162c0 -59 37 -86 77 -86c34 0 59 7 81 15z" />
    <glyph glyph-name="eacute" unicode="&#xe9;" horiz-adv-x="487" 
d="M407 145l8 -119c-60 -28 -127 -35 -181 -35c-140 0 -210 77 -210 205c0 149 100 306 279 306c101 0 170 -61 171 -153c0 -128 -111 -179 -295 -173c1 -12 7 -24 17 -34c17 -15 44 -25 81 -25c48 0 90 9 130 28zM324 346c0 19 -14 34 -40 34c-55 0 -84 -46 -90 -85
c91 -2 130 16 130 51zM341 701h153l-128 -151h-117z" />
    <glyph glyph-name="ecircumflex" unicode="&#xea;" horiz-adv-x="487" 
d="M407 145l8 -119c-60 -28 -127 -35 -181 -35c-140 0 -210 77 -210 205c0 149 100 306 279 306c101 0 170 -61 171 -153c0 -128 -111 -179 -295 -173c1 -12 7 -24 17 -34c17 -15 44 -25 81 -25c48 0 90 9 130 28zM324 346c0 19 -14 34 -40 34c-55 0 -84 -46 -90 -85
c91 -2 130 16 130 51zM278 701h109l72 -151h-102l-34 71h-2l-52 -71h-111z" />
    <glyph glyph-name="edieresis" unicode="&#xeb;" horiz-adv-x="487" 
d="M407 145l8 -119c-60 -28 -127 -35 -181 -35c-140 0 -210 77 -210 205c0 149 100 306 279 306c101 0 170 -61 171 -153c0 -128 -111 -179 -295 -173c1 -12 7 -24 17 -34c17 -15 44 -25 81 -25c48 0 90 9 130 28zM324 346c0 19 -14 34 -40 34c-55 0 -84 -46 -90 -85
c91 -2 130 16 130 51zM219 548c-38 0 -72 28 -72 74c0 49 36 81 80 81c43 0 72 -31 72 -74c0 -50 -35 -81 -80 -81zM424 548c-38 0 -72 28 -72 74c0 49 36 81 80 81c43 0 72 -31 72 -74c0 -50 -35 -81 -80 -81z" />
    <glyph glyph-name="egrave" unicode="&#xe8;" horiz-adv-x="487" 
d="M407 145l8 -119c-60 -28 -127 -35 -181 -35c-140 0 -210 77 -210 205c0 149 100 306 279 306c101 0 170 -61 171 -153c0 -128 -111 -179 -295 -173c1 -12 7 -24 17 -34c17 -15 44 -25 81 -25c48 0 90 9 130 28zM324 346c0 19 -14 34 -40 34c-55 0 -84 -46 -90 -85
c91 -2 130 16 130 51zM160 701h151l66 -151h-114z" />
    <glyph glyph-name="iacute" unicode="&#xed;" horiz-adv-x="267" 
d="M167 0h-164l93 492h164zM217 701h153l-128 -151h-117z" />
    <glyph glyph-name="icircumflex" unicode="&#xee;" horiz-adv-x="267" 
d="M167 0h-164l93 492h164zM161 701h108l72 -151h-102l-34 71h-2l-51 -71h-111z" />
    <glyph glyph-name="idieresis" unicode="&#xef;" horiz-adv-x="267" 
d="M167 0h-164l94 492h164zM99 548c-38 0 -72 28 -72 74c0 49 36 81 80 81c43 0 72 -31 72 -74c0 -50 -35 -81 -80 -81zM304 548c-38 0 -72 28 -72 74c0 49 36 81 80 81c43 0 72 -31 72 -74c0 -50 -35 -81 -80 -81z" />
    <glyph glyph-name="igrave" unicode="&#xec;" horiz-adv-x="267" 
d="M167 0h-163l93 492h164zM36 701h150l66 -151h-114z" />
    <glyph glyph-name="ntilde" unicode="&#xf1;" horiz-adv-x="542" 
d="M167 0h-163l61 328c13 61 21 117 28 164h143l-7 -70h2c43 55 98 80 157 80c85 0 119 -54 119 -128c0 -24 -5 -61 -9 -88l-55 -286h-163l52 277c3 16 5 33 5 49c0 26 -8 44 -33 44c-36 0 -76 -47 -95 -147zM264 556h-77c12 83 46 133 100 133c28 0 46 -10 60 -19
c14 -10 27 -20 36 -20c13 0 20 8 30 43h74c-14 -93 -49 -129 -100 -129c-26 0 -48 8 -61 18c-15 12 -26 19 -36 19c-11 0 -21 -18 -26 -45z" />
    <glyph glyph-name="oacute" unicode="&#xf3;" horiz-adv-x="534" 
d="M225 -10c-129 0 -200 85 -200 194c0 175 115 318 287 318c133 0 197 -93 197 -195c0 -183 -118 -317 -284 -317zM247 114c63 0 95 122 95 198c0 36 -14 66 -53 66c-65 0 -98 -124 -97 -190c0 -42 16 -74 55 -74zM340 701h153l-128 -151h-117z" />
    <glyph glyph-name="ocircumflex" unicode="&#xf4;" horiz-adv-x="534" 
d="M225 -10c-129 0 -200 85 -200 194c0 175 115 318 287 318c133 0 197 -93 197 -195c0 -183 -118 -317 -284 -317zM247 114c63 0 95 122 95 198c0 36 -14 66 -53 66c-65 0 -98 -124 -97 -190c0 -42 16 -74 55 -74zM290 701h109l72 -151h-102l-34 71h-2l-52 -71h-111z" />
    <glyph glyph-name="odieresis" unicode="&#xf6;" horiz-adv-x="534" 
d="M225 -10c-129 0 -200 85 -200 194c0 175 115 318 287 318c133 0 197 -93 197 -195c0 -183 -118 -317 -284 -317zM247 114c63 0 95 122 95 198c0 36 -14 66 -53 66c-65 0 -98 -124 -97 -190c0 -42 16 -74 55 -74zM227 548h-2c-38 0 -72 28 -72 74c0 49 36 81 80 81
c43 0 72 -31 72 -74c0 -50 -35 -81 -78 -81zM430 548c-38 0 -72 28 -72 74c0 49 36 81 80 81c43 0 72 -31 72 -74c0 -50 -35 -81 -80 -81z" />
    <glyph glyph-name="ograve" unicode="&#xf2;" horiz-adv-x="534" 
d="M225 -10c-129 0 -200 85 -200 194c0 175 115 318 287 318c133 0 197 -93 197 -195c0 -183 -118 -317 -284 -317zM247 114c63 0 95 122 95 198c0 36 -14 66 -53 66c-65 0 -98 -124 -97 -190c0 -42 16 -74 55 -74zM167 701h151l66 -151h-114z" />
    <glyph glyph-name="otilde" unicode="&#xf5;" horiz-adv-x="534" 
d="M225 -10c-129 0 -200 85 -200 194c0 175 115 318 287 318c133 0 197 -93 197 -195c0 -183 -118 -317 -284 -317zM247 114c63 0 95 122 95 198c0 36 -14 66 -53 66c-65 0 -98 -124 -97 -190c0 -42 16 -74 55 -74zM252 556h-77c12 83 46 133 100 133c28 0 46 -10 60 -19
c15 -10 27 -20 36 -20c13 0 20 8 30 43h74c-14 -93 -49 -129 -100 -129c-26 0 -48 8 -61 18c-15 12 -26 19 -36 19c-11 0 -21 -18 -26 -45z" />
    <glyph glyph-name="scaron" unicode="&#x161;" horiz-adv-x="404" 
d="M-10 26l39 114c27 -14 74 -32 120 -31c33 0 48 15 48 34s-14 33 -55 55c-54 30 -96 71 -96 129c0 104 90 175 221 175c58 0 101 -11 125 -24l-36 -114c-20 9 -52 19 -91 19c-33 0 -55 -12 -55 -35c0 -15 16 -29 50 -46c56 -32 105 -73 105 -135
c0 -114 -94 -177 -229 -176c-61 1 -118 16 -146 35zM314 550h-108l-72 151h102l34 -71h2l51 71h111z" />
    <glyph glyph-name="uacute" unicode="&#xfa;" horiz-adv-x="540" 
d="M369 492h163l-62 -328c-12 -61 -20 -117 -27 -164h-143l6 70l-2 1c-48 -59 -102 -81 -156 -81c-80 0 -116 50 -116 130c0 30 4 63 11 100l52 272h163l-49 -261c-5 -24 -8 -49 -8 -68c0 -22 9 -41 34 -41c38 0 73 47 89 132zM348 701h153l-128 -151h-117z" />
    <glyph glyph-name="ucircumflex" unicode="&#xfb;" horiz-adv-x="540" 
d="M369 492h163l-62 -328c-12 -61 -20 -117 -27 -164h-143l6 70l-2 1c-48 -59 -102 -81 -156 -81c-80 0 -116 50 -116 130c0 30 4 63 11 100l52 272h163l-49 -261c-5 -24 -8 -49 -8 -68c0 -22 9 -41 34 -41c38 0 73 47 89 132zM298 701h109l72 -151h-102l-34 71h-2l-52 -71
h-111z" />
    <glyph glyph-name="udieresis" unicode="&#xfc;" horiz-adv-x="540" 
d="M369 492h163l-62 -328c-12 -61 -20 -117 -27 -164h-143l6 70l-2 1c-48 -59 -102 -81 -156 -81c-80 0 -116 50 -116 130c0 30 4 63 11 100l52 272h163l-49 -261c-5 -24 -8 -49 -8 -68c0 -22 9 -41 34 -41c38 0 73 47 89 132zM226 548c-38 0 -72 28 -72 74
c0 49 36 81 80 81c43 0 72 -31 72 -74c0 -50 -35 -81 -80 -81zM430 548c-38 0 -72 28 -72 74c0 49 36 81 80 81c43 0 72 -31 72 -74c0 -50 -35 -81 -80 -81z" />
    <glyph glyph-name="ugrave" unicode="&#xf9;" horiz-adv-x="540" 
d="M369 492h163l-62 -328c-12 -61 -20 -117 -27 -164h-143l6 70l-2 1c-48 -59 -102 -81 -156 -81c-80 0 -116 50 -116 130c0 30 4 63 11 100l52 272h163l-49 -261c-5 -24 -8 -49 -8 -68c0 -22 9 -41 34 -41c38 0 73 47 89 132zM173 701h151l66 -151h-114z" />
    <glyph glyph-name="yacute" unicode="&#xfd;" horiz-adv-x="485" 
d="M42 492h173l14 -201c5 -48 8 -83 10 -113h2c9 33 18 63 38 117l70 197h170l-167 -356c-65 -133 -126 -225 -189 -283c-49 -46 -110 -70 -141 -76l-43 138c23 8 51 20 75 36c31 21 56 45 70 71c3 7 4 12 2 23zM323 701h152l-128 -151h-116z" />
    <glyph glyph-name="ydieresis" unicode="&#xff;" horiz-adv-x="485" 
d="M42 492h173l14 -201c5 -48 8 -83 10 -113h2c9 33 19 63 38 117l70 197h170l-167 -356c-64 -133 -126 -225 -189 -283c-49 -46 -110 -70 -141 -76l-43 138c23 8 51 20 75 36c31 21 56 45 70 71c3 7 4 12 2 23zM193 548c-38 0 -72 28 -72 74c0 49 36 81 80 81
c43 0 72 -31 72 -74c0 -50 -35 -81 -80 -81zM398 548c-38 0 -72 28 -72 74c0 49 36 81 80 81c43 0 72 -31 72 -74c0 -50 -35 -81 -80 -81z" />
    <glyph glyph-name="zcaron" unicode="&#x17e;" horiz-adv-x="424" 
d="M-29 0l18 102l125 144c39 44 64 69 112 111l2 2h-175l26 133h363l-19 -107l-121 -138c-44 -51 -72 -78 -112 -112v-2h194l-27 -133h-386zM323 550h-109l-72 151h102l34 -71h2l51 71h111z" />
    <glyph glyph-name="Dcroat" unicode="&#x110;" horiz-adv-x="648" 
d="M10 280l25 130h68l48 253c51 10 109 15 174 15c98 0 177 -20 227 -64c57 -50 86 -120 86 -215c0 -153 -65 -263 -142 -323c-72 -56 -159 -80 -295 -80c-86 0 -144 8 -175 15l52 269h-68zM365 410l-25 -130h-99l-28 -146c10 -3 24 -4 46 -4c57 0 116 29 150 81
c34 53 54 118 54 188c0 90 -45 148 -127 148c-22 0 -35 -1 -44 -4l-26 -133h99z" />
    <glyph glyph-name="Eng" unicode="&#x14a;" horiz-adv-x="634" 
d="M264 -211l-20 129c57 7 105 33 119 75l-62 223c-27 99 -42 157 -57 246h-3c-8 -67 -25 -179 -48 -297l-31 -165h-148l128 674h182l56 -210c24 -92 41 -166 53 -239h3c4 74 16 170 36 279l32 170h149l-118 -621c-37 -198 -144 -258 -271 -264z" />
    <glyph glyph-name="Hbar" unicode="&#x126;" horiz-adv-x="637" 
d="M452 467h-186l-14 -76h185zM49 570h73l20 104h164l-20 -104h185l20 104h164l-20 -104h67l-21 -103h-65l-89 -467h-164l46 244h-185l-46 -244h-164l89 467h-75z" />
    <glyph glyph-name="Tbar" unicode="&#x166;" horiz-adv-x="500" 
d="M443 281h-108l-53 -281h-164l53 281h-104l20 103h104l27 144h-154l29 146h472l-28 -146h-156l-27 -144h109z" />
    <glyph glyph-name="uni021C" unicode="&#x21c;" horiz-adv-x="491" 
d="M-1 -130l-11 131c139 7 284 71 284 176c0 30 -13 80 -88 80c-28 0 -52 -4 -79 -13l-18 111c90 19 199 71 199 140c0 39 -36 57 -74 57c-40 0 -63 -11 -96 -25l-23 109c46 27 116 48 186 48c116 0 178 -68 178 -144c0 -85 -49 -134 -135 -179v-2c81 -20 127 -91 127 -162
c0 -206 -220 -315 -450 -327z" />
    <glyph glyph-name="dcroat" unicode="&#x111;" horiz-adv-x="537" 
d="M318 225l27 141c-8 7 -24 13 -40 13c-70 0 -116 -105 -116 -182c0 -54 23 -75 51 -75c30 0 61 33 78 103zM229 630h165l14 75h163l-14 -75h71l-17 -91h-71l-67 -348c-12 -63 -20 -132 -24 -191h-145l5 72h-2c-39 -60 -95 -82 -143 -82c-78 0 -143 61 -143 179
c0 170 112 333 293 333c16 0 35 -3 53 -10l9 47h-164z" />
    <glyph glyph-name="eng" unicode="&#x14b;" horiz-adv-x="542" 
d="M208 -193l-16 132c57 5 83 35 94 95l46 243c3 16 5 33 5 49c0 26 -8 44 -33 44c-36 0 -76 -47 -95 -147l-42 -223h-163l61 328c12 61 21 117 28 164h143l-7 -70h2c43 55 98 80 155 80c85 0 121 -54 121 -130c0 -22 -5 -59 -9 -86l-46 -239c-35 -188 -125 -238 -244 -240z
" />
    <glyph glyph-name="hbar" unicode="&#x127;" horiz-adv-x="542" 
d="M42 627h81l14 78h164l-15 -78h148l-17 -90h-148l-19 -100h2c36 37 82 65 141 65c78 0 114 -52 114 -128c0 -23 -5 -61 -10 -94l-54 -280h-163l51 269c4 20 6 43 6 59c0 25 -9 42 -34 42c-37 0 -74 -48 -91 -135l-45 -235h-163l102 536h-81z" />
    <glyph glyph-name="kgreenlandic" unicode="&#x138;" horiz-adv-x="518" 
d="M165 0h-162l94 492h161l-38 -198h2c15 20 28 40 42 59l96 139h194l-191 -209l112 -283h-178l-60 197l-44 -47z" />
    <glyph glyph-name="napostrophe" unicode="&#x149;" horiz-adv-x="542" 
d="M167 0h-163l61 328c13 61 21 117 28 164h143l-7 -70h2c43 55 98 80 157 80c85 0 119 -54 119 -128c0 -24 -5 -61 -9 -88l-55 -286h-163l52 277c3 16 5 33 5 49c0 26 -8 44 -33 44c-36 0 -76 -47 -95 -147zM69 537l-23 72c23 8 44 35 44 64c0 20 -6 36 -17 47l110 19
c11 -11 25 -35 25 -63c0 -94 -90 -136 -139 -139z" />
    <glyph glyph-name="tbar" unicode="&#x167;" horiz-adv-x="345" 
d="M29 317h49l11 54h-59l23 121h59l17 91l169 47l-25 -138h97l-23 -121h-98l-11 -54h89l-17 -89h-89l-6 -31c-3 -11 -3 -23 -3 -31c0 -25 12 -40 40 -40c11 0 25 0 39 1l-22 -125c-21 -8 -59 -11 -91 -11c-90 0 -134 45 -134 113c0 25 4 52 10 85l7 39h-49z" />
    <glyph glyph-name="uni021D" unicode="&#x21d;" horiz-adv-x="433" 
d="M-41 -205l-10 130c60 3 268 27 268 141c0 27 -21 55 -81 55c-20 0 -53 -5 -77 -13l-17 111c87 18 180 45 180 113c-1 23 -19 37 -56 37c-40 0 -59 -9 -92 -23l-28 105c46 27 113 51 184 51c102 0 161 -62 161 -124c0 -74 -35 -116 -117 -152v-2c73 -16 116 -72 116 -134
c0 -198 -260 -295 -431 -295z" />
    <glyph glyph-name="IJ" unicode="&#x132;" horiz-adv-x="664" 
d="M139 674h164l-128 -674h-164zM444 243l82 431h164l-85 -444c-33 -174 -108 -240 -261 -240c-38 0 -80 6 -99 13l29 141c20 -5 42 -9 69 -9c51 0 85 27 101 108z" />
    <glyph glyph-name="ij" unicode="&#x133;" horiz-adv-x="540" 
d="M167 0h-164l94 492h163zM195 543c-44 0 -74 31 -74 77c0 51 40 91 90 91c48 0 78 -32 78 -77c0 -58 -44 -91 -94 -91zM375 492h163l-86 -461c-16 -88 -37 -139 -66 -175c-31 -41 -86 -62 -147 -62c-22 0 -47 2 -71 7l18 123c10 -2 18 -2 28 -2c32 0 57 16 73 103z
M469 543c-44 0 -74 31 -74 77c0 51 40 91 90 91c48 0 78 -32 78 -77c0 -58 -44 -91 -94 -91z" />
    <glyph glyph-name="zero.slash" unicode="&#xf638;" horiz-adv-x="527" 
d="M196 263l161 226c-4 23 -18 39 -40 39c-71 0 -108 -150 -120 -253c0 -4 -1 -8 -1 -12zM362 383l-160 -223c3 -22 17 -38 38 -38c72 0 107 145 121 250c0 3 1 7 1 11zM559 638l-61 -76c16 -38 23 -83 23 -125c0 -201 -91 -447 -297 -447c-53 0 -92 16 -122 42l-42 -55
l-51 46l53 65c-17 38 -25 84 -25 131c0 211 100 441 298 441c55 0 94 -16 123 -42l45 63z" />
    <glyph glyph-name="Euro" unicode="&#x20ac;" horiz-adv-x="527" 
d="M475 145l11 -127c-31 -15 -86 -28 -147 -28c-155 0 -242 91 -250 238h-72l16 79h61c2 14 4 28 7 42h-60l16 79h66c49 132 177 232 329 232c65 0 110 -13 135 -26l-46 -127c-16 7 -48 16 -94 16c-68 0 -128 -42 -153 -95h194l-17 -79h-205c-3 -14 -5 -28 -7 -42h204
l-16 -79h-190c10 -61 47 -101 113 -101c40 0 82 9 105 18z" />
    <glyph glyph-name="Aringacute" unicode="&#x1fa;" horiz-adv-x="584" 
d="M389 693c-66 0 -105 35 -105 86c0 52 48 96 119 96c67 0 104 -34 104 -87c0 -52 -44 -95 -118 -95zM393 746c29 0 43 18 43 39c0 19 -15 37 -40 37c-27 0 -41 -19 -41 -40s14 -36 38 -36zM447 985h173l-150 -94h-132zM358 152h-159l-61 -152h-171l305 674h209l50 -674
h-169zM243 274h112l-4 128c-1 38 -1 101 -3 145h-2c-16 -44 -36 -108 -52 -145z" />
    <glyph glyph-name="estimated" unicode="&#x212e;" horiz-adv-x="817" 
d="M782 316h-605c-3 0 -5 -1 -5 -4v-183c0 -8 4 -15 9 -21c57 -61 139 -99 229 -99c96 0 182 43 240 111h55c-68 -79 -176 -131 -296 -131c-206 0 -374 150 -374 336s168 336 374 336s373 -150 373 -336v-9zM646 340v184c0 9 -4 16 -10 22c-58 58 -138 95 -226 95
c-90 0 -170 -38 -228 -98c-6 -6 -10 -14 -10 -23v-180c0 -3 2 -5 5 -5h464c3 0 5 2 5 5z" />
    <glyph glyph-name="zero.oldstyle" unicode="&#xf730;" horiz-adv-x="533" 
d="M224 -10c-127 0 -198 89 -198 204c0 145 99 308 278 308c132 0 199 -96 199 -197c0 -157 -98 -315 -279 -315zM244 119c66 0 97 114 97 184c0 39 -16 70 -54 70c-67 0 -99 -115 -99 -179c0 -48 16 -75 56 -75z" />
    <glyph glyph-name="one.oldstyle" unicode="&#xf731;" horiz-adv-x="394" 
d="M359 492l-93 -492h-158l64 340h-2l-121 -51l-2 130l176 73h136z" />
    <glyph glyph-name="two.oldstyle" unicode="&#xf732;" horiz-adv-x="466" 
d="M414 134l-26 -134h-407l18 95l76 48c103 67 173 124 173 169c0 38 -22 57 -64 57c-33 0 -74 -17 -100 -32l-31 103c48 34 116 64 201 64c94 0 165 -57 165 -151c0 -84 -58 -146 -141 -200l-38 -24v-3c36 5 69 8 98 8h76z" />
    <glyph glyph-name="three.oldstyle" unicode="&#xf733;" horiz-adv-x="447" 
d="M-33 -109l35 124c20 -6 62 -13 99 -13c60 0 115 23 115 71c0 43 -51 63 -104 63h-41l26 120c9 1 17 1 26 2c36 2 123 18 124 70c0 26 -22 42 -60 42c-40 0 -82 -16 -111 -31l-21 109c48 31 116 54 184 54c112 0 172 -58 172 -136c-2 -88 -72 -133 -137 -152v-3
c59 -14 112 -60 112 -136c0 -128 -124 -205 -280 -205c-59 0 -108 8 -139 21z" />
    <glyph glyph-name="four.oldstyle" unicode="&#xf734;" horiz-adv-x="524" 
d="M391 29l-29 -155h-148l30 155h-259l21 108l282 355h191l-65 -341h70l-24 -122h-69zM267 151l19 99c6 35 15 81 25 117h-4c-17 -31 -43 -72 -64 -101l-84 -110l2 -5h106z" />
    <glyph glyph-name="five.oldstyle" unicode="&#xf735;" horiz-adv-x="438" 
d="M-26 -108l32 122c21 -7 57 -13 93 -13c72 0 121 32 121 83c0 16 -6 35 -18 47c-29 28 -106 38 -172 38l106 323h304l-41 -139h-172l-27 -77c59 -6 108 -26 142 -59c29 -28 47 -67 47 -114c0 -150 -119 -233 -280 -233c-56 0 -109 10 -135 22z" />
    <glyph glyph-name="six.oldstyle" unicode="&#xf736;" horiz-adv-x="522" 
d="M242 115c46 0 79 59 79 117c0 45 -26 68 -56 68c-25 0 -40 -13 -51 -27c-14 -17 -24 -50 -24 -88c0 -48 22 -70 52 -70zM481 622l9 -123c-88 -6 -171 -32 -218 -80c-15 -14 -25 -30 -34 -45l2 -1c25 19 63 38 109 38c78 0 137 -60 137 -162c0 -144 -110 -259 -256 -259
c-115 0 -200 74 -200 213c0 78 29 195 116 283c75 75 191 135 335 136z" />
    <glyph glyph-name="seven.oldstyle" unicode="&#xf737;" horiz-adv-x="464" 
d="M472 492l-18 -102c-48 -106 -208 -360 -330 -520l-149 34c106 138 221 304 298 444v2h-234l24 142h409z" />
    <glyph glyph-name="eight.oldstyle" unicode="&#xf738;" horiz-adv-x="545" 
d="M318 622c123 0 200 -67 200 -158c0 -67 -50 -107 -106 -135v-3c43 -27 84 -75 84 -132c0 -125 -124 -204 -256 -204c-138 1 -217 71 -217 165c0 79 56 131 132 164v3c-38 26 -66 68 -66 116c0 115 109 184 229 184zM309 510c-41 0 -67 -28 -67 -58c0 -36 37 -59 68 -72
c30 13 54 42 54 74c0 33 -22 56 -55 56zM257 108c39 0 69 36 69 76c0 33 -30 61 -65 79c-42 -19 -69 -53 -69 -88c0 -42 29 -67 65 -67z" />
    <glyph glyph-name="nine.oldstyle" unicode="&#xf739;" horiz-adv-x="522" 
d="M252 198c18 0 33 8 48 21c16 16 29 54 29 90c0 42 -19 70 -53 70c-41 0 -77 -54 -77 -114c0 -42 22 -67 53 -67zM44 -124l-7 124c18 1 43 2 71 7c89 13 153 63 177 115l-2 1c-20 -18 -57 -34 -97 -34c-95 0 -152 71 -152 165c0 134 108 252 257 252
c120 0 198 -92 198 -219c0 -204 -142 -381 -382 -409c-27 -2 -49 -3 -63 -2z" />
    <glyph glyph-name="percent.oldstyle" unicode="&#xf642;" horiz-adv-x="845" 
d="M238 623c92 0 141 -64 141 -147c0 -148 -93 -254 -205 -254c-85 0 -146 54 -146 152c0 132 85 249 210 249zM223 533c-52 0 -76 -117 -76 -166c0 -34 14 -55 36 -55c55 0 77 133 77 172c0 28 -10 49 -37 49zM240 -10h-91l453 632h91zM675 392c92 0 141 -64 141 -147
c0 -148 -93 -254 -206 -254c-85 0 -146 54 -146 152c0 132 85 249 211 249zM660 302c-52 0 -77 -117 -77 -166c0 -34 14 -55 37 -55c55 0 77 133 77 172c0 28 -10 49 -37 49z" />
    <glyph glyph-name="zero.fitted" unicode="&#xf639;" horiz-adv-x="527" 
d="M224 -10c-138 0 -187 108 -187 229c0 211 101 441 298 441c144 0 186 -114 186 -223c0 -201 -91 -447 -297 -447zM244 122c82 0 117 257 117 322c0 40 -8 84 -44 84c-83 0 -120 -249 -120 -317c0 -41 7 -89 47 -89z" />
    <glyph glyph-name="one.fitted" unicode="&#xf6dc;" horiz-adv-x="398" 
d="M107 0l94 498h-2l-127 -54l-2 128l182 78h136l-123 -650h-158z" />
    <glyph glyph-name="two.fitted" unicode="&#xf63a;" horiz-adv-x="484" 
d="M404 0h-436l20 108l134 109c109 95 188 168 188 237c0 42 -29 69 -80 69c-52 0 -92 -12 -124 -31l-26 120c51 27 121 48 193 48c139 0 203 -82 203 -178c0 -131 -99 -217 -193 -293l-60 -46v-2h207z" />
    <glyph glyph-name="three.fitted" unicode="&#xf63b;" horiz-adv-x="467" 
d="M-25 28l47 130c27 -12 72 -30 129 -30c66 0 112 28 112 76c0 50 -42 75 -120 75h-21l24 125h17c62 0 128 20 128 71c0 26 -22 47 -72 47c-49 0 -92 -12 -118 -26l-13 126c41 22 108 38 171 38c116 0 205 -55 205 -154c0 -79 -60 -138 -136 -159l-1 -2
c61 -17 104 -68 104 -140c0 -137 -136 -215 -280 -215c-79 0 -148 17 -176 38z" />
    <glyph glyph-name="four.fitted" unicode="&#xf63c;" horiz-adv-x="527" 
d="M387 0h-149l28 149h-257l20 110l289 391h192l-71 -376h69l-23 -125h-69zM183 274h107l23 105c9 43 22 90 33 133h-4c-28 -44 -54 -86 -82 -126l-76 -110z" />
    <glyph glyph-name="five.fitted" unicode="&#xf63d;" horiz-adv-x="484" 
d="M500 650l-29 -141h-209l-22 -80c7 1 12 1 19 1c31 0 91 -11 131 -46c38 -32 60 -79 60 -138c0 -159 -134 -256 -302 -256c-74 0 -133 14 -158 33l40 132c26 -14 71 -27 120 -27c61 0 132 28 132 90c0 56 -40 89 -147 89c-27 0 -47 -2 -71 -4l91 347h345z" />
    <glyph glyph-name="six.fitted" unicode="&#xf63e;" horiz-adv-x="529" 
d="M505 658l-25 -134c-16 1 -30 0 -50 -2c-105 -11 -168 -63 -198 -123l3 -1c30 24 68 38 113 38c92 -1 154 -78 154 -173c0 -149 -106 -273 -257 -273c-146 0 -209 106 -209 225c0 157 73 282 160 351c69 55 161 87 258 92c24 2 38 1 51 0zM253 113c58 0 82 80 82 133
c0 41 -23 70 -60 70c-31 0 -56 -23 -71 -50c-4 -10 -7 -21 -8 -29c-3 -21 -3 -34 -3 -45c0 -41 20 -79 60 -79z" />
    <glyph glyph-name="seven.fitted" unicode="&#xf63f;" horiz-adv-x="463" 
d="M91 650h430l-21 -109c-110 -180 -220 -360 -330 -541h-176l324 507v2h-253z" />
    <glyph glyph-name="eight.fitted" unicode="&#xf640;" horiz-adv-x="527" 
d="M326 660c110 0 192 -57 192 -160c0 -65 -41 -118 -111 -152l-1 -2c53 -35 81 -89 81 -141c0 -143 -135 -215 -259 -215c-137 1 -214 71 -214 168c0 91 62 151 130 182l1 2c-41 34 -59 76 -59 121c0 123 114 197 240 197zM245 104c36 0 74 33 74 88c0 46 -30 73 -65 88
c-37 -15 -72 -53 -72 -104c0 -41 21 -72 63 -72zM309 546c-36 0 -68 -36 -68 -76c0 -37 27 -59 59 -73c35 16 64 50 64 91c0 37 -22 58 -55 58z" />
    <glyph glyph-name="nine.fitted" unicode="&#xf641;" horiz-adv-x="529" 
d="M43 -8l22 136c18 -2 33 -1 59 0c38 2 77 13 109 31c43 26 75 61 94 99l-2 1c-26 -23 -67 -34 -104 -34c-98 0 -165 69 -165 170c0 144 116 265 261 265c147 0 207 -103 207 -222c-2 -166 -80 -294 -167 -363c-63 -51 -154 -80 -243 -85c-34 -1 -49 1 -71 2zM303 537
c-47 0 -81 -69 -81 -123c0 -44 24 -72 57 -72c31 0 54 19 63 30c5 8 10 19 15 41c4 14 5 37 5 52c0 41 -19 72 -59 72z" />
    <glyph glyph-name="zero.slashfitted" unicode="&#xe008;" horiz-adv-x="527" 
d="M196 263l161 226c-4 23 -18 39 -40 39c-71 0 -108 -150 -120 -253c0 -4 -1 -8 -1 -12zM362 383l-160 -223c3 -22 17 -38 38 -38c72 0 107 145 121 250c0 3 1 7 1 11zM559 638l-61 -76c16 -38 23 -83 23 -125c0 -201 -91 -447 -297 -447c-53 0 -92 16 -122 42l-42 -55
l-51 46l53 65c-17 38 -25 84 -25 131c0 211 100 441 298 441c55 0 94 -16 123 -42l45 63z" />
    <glyph glyph-name="zero.taboldstyle" unicode="&#xf643;" horiz-adv-x="533" 
d="M224 -10c-127 0 -198 89 -198 204c0 145 99 308 278 308c132 0 199 -96 199 -197c0 -157 -98 -315 -279 -315zM244 119c66 0 97 114 97 184c0 39 -16 70 -54 70c-67 0 -99 -115 -99 -179c0 -48 16 -75 56 -75z" />
    <glyph glyph-name="one.taboldstyle" unicode="&#xf644;" horiz-adv-x="533" 
d="M444 492l-92 -492h-159l65 344h-2l-170 -56l3 130l219 74h136z" />
    <glyph glyph-name="two.taboldstyle" unicode="&#xf645;" horiz-adv-x="533" 
d="M453 134l-26 -134h-407l18 95l76 48c103 67 173 124 173 169c0 38 -22 57 -64 57c-33 0 -74 -17 -100 -32l-31 103c48 34 116 64 201 64c94 0 165 -57 165 -151c0 -84 -58 -146 -141 -200l-38 -24v-3c36 5 69 8 98 8h76z" />
    <glyph glyph-name="three.taboldstyle" unicode="&#xf646;" horiz-adv-x="533" 
d="M19 -109l35 124c20 -6 62 -13 99 -13c60 0 115 23 115 71c0 43 -51 63 -104 63h-41l26 120c9 1 17 1 26 2c36 2 123 18 124 70c0 26 -22 42 -60 42c-40 0 -82 -16 -111 -31l-21 109c48 31 116 54 184 54c112 0 172 -58 172 -136c-2 -88 -72 -133 -137 -152v-3
c59 -14 112 -60 112 -136c0 -128 -124 -205 -280 -205c-59 0 -108 8 -139 21z" />
    <glyph glyph-name="four.taboldstyle" unicode="&#xf647;" horiz-adv-x="533" 
d="M398 29l-29 -155h-148l30 155h-259l21 108l282 355h191l-64 -341h69l-24 -122h-69zM274 151l19 99c6 35 16 81 25 117h-4c-17 -31 -43 -72 -64 -101l-84 -110l2 -5h106z" />
    <glyph glyph-name="five.taboldstyle" unicode="&#xf648;" horiz-adv-x="533" 
d="M24 -108l32 122c21 -7 57 -13 93 -13c72 0 121 32 121 83c0 16 -6 35 -18 47c-29 28 -106 38 -172 38l106 323h304l-41 -139h-172l-27 -77c59 -6 108 -26 142 -59c29 -28 47 -67 47 -114c0 -150 -119 -233 -280 -233c-56 0 -109 10 -135 22z" />
    <glyph glyph-name="six.taboldstyle" unicode="&#xf649;" horiz-adv-x="533" 
d="M247 115c46 0 79 59 79 117c0 45 -26 68 -56 68c-25 0 -39 -13 -50 -27c-14 -17 -24 -50 -24 -88c0 -48 22 -70 51 -70zM486 622l9 -123c-88 -6 -171 -32 -218 -80c-14 -14 -25 -30 -33 -45l2 -1c24 19 62 38 108 38c78 0 137 -60 137 -162c0 -144 -110 -259 -255 -259
c-115 0 -200 74 -200 213c0 78 29 195 116 283c75 75 190 135 334 136z" />
    <glyph glyph-name="seven.taboldstyle" unicode="&#xf64a;" horiz-adv-x="533" 
d="M512 492l-18 -102c-48 -106 -208 -360 -330 -520l-149 34c106 138 221 304 298 444v2h-234l24 142h409z" />
    <glyph glyph-name="eight.taboldstyle" unicode="&#xf64b;" horiz-adv-x="533" 
d="M315 622c123 0 200 -67 200 -158c0 -67 -50 -107 -107 -135v-3c43 -27 84 -75 84 -132c0 -125 -124 -204 -256 -204c-138 1 -217 71 -217 165c0 79 56 131 132 164v3c-38 26 -66 68 -66 116c0 115 109 184 230 184zM306 510c-42 0 -68 -28 -68 -58c0 -36 37 -59 69 -72
c29 13 54 42 54 74c0 33 -22 56 -55 56zM253 108c39 0 69 36 69 76c0 33 -30 61 -65 79c-42 -19 -69 -53 -69 -88c0 -42 29 -67 65 -67z" />
    <glyph glyph-name="nine.taboldstyle" unicode="&#xf64c;" horiz-adv-x="533" 
d="M258 198c17 0 33 8 47 21c17 16 30 54 30 90c0 42 -19 70 -54 70c-41 0 -77 -54 -77 -114c0 -42 22 -67 54 -67zM49 -124l-7 124c18 1 43 2 71 7c89 13 154 63 177 115l-2 1c-20 -18 -57 -34 -97 -34c-95 0 -152 71 -152 165c0 134 108 252 257 252
c121 0 199 -92 199 -219c0 -204 -142 -381 -383 -409c-27 -2 -49 -3 -63 -2z" />
    <glyph glyph-name="dollar.taboldstyle" unicode="&#xf653;" horiz-adv-x="533" 
d="M251 -84h-96l16 83c-56 3 -106 20 -136 40l51 115c27 -18 81 -35 122 -35c32 0 72 8 72 34c0 14 -11 24 -70 49c-79 29 -111 64 -111 115c0 98 85 151 173 169l18 94h96l-16 -87c48 -3 90 -15 115 -29l-50 -111c-21 12 -61 26 -104 26c-32 0 -66 -10 -66 -30
c0 -17 14 -24 72 -47c77 -28 114 -68 114 -119c0 -101 -91 -161 -182 -178z" />
    <glyph glyph-name="cent.taboldstyle" unicode="&#xf654;" horiz-adv-x="533" 
d="M400 172l-6 -114c-24 -9 -67 -18 -99 -19l-14 -71h-92l14 75c-84 15 -141 74 -141 160c0 127 87 236 221 262l14 73h92l-13 -68c25 -2 65 -10 85 -18l-41 -113c-15 7 -49 16 -76 16c-80 0 -127 -57 -127 -125c0 -52 38 -74 87 -74c35 0 72 8 96 16z" />
    <glyph glyph-name="Euro.taboldstyle" unicode="&#xf64e;" horiz-adv-x="533" 
d="M447 136v-124c-28 -12 -81 -22 -134 -22c-122 0 -199 71 -210 183h-65l18 78h49c2 15 4 29 7 42h-48l19 77h52c41 109 150 185 283 185c56 0 94 -12 115 -22l-45 -119c-15 6 -42 13 -73 13c-54 0 -98 -23 -118 -57h160l-17 -77h-171c-3 -16 -5 -27 -6 -42h167l-16 -78
h-146c13 -37 51 -53 90 -53c29 0 65 6 89 16z" />
    <glyph glyph-name="florin.taboldstyle" unicode="&#xf64f;" horiz-adv-x="533" 
d="M522 605l-40 -120c-12 5 -27 8 -43 8c-37 0 -64 -26 -77 -78l-11 -48h91l-16 -122h-104l-40 -172c-26 -108 -77 -207 -210 -207c-43 1 -72 10 -89 20l34 118c12 -5 27 -9 43 -9c29 0 52 16 77 119l30 131h-68l16 122h80l7 29c19 84 80 226 242 226c33 0 61 -7 78 -17z
" />
    <glyph glyph-name="sterling.taboldstyle" unicode="&#xf651;" horiz-adv-x="533" 
d="M499 555l-44 -127c-16 9 -41 14 -67 14c-54 0 -82 -33 -89 -78c-3 -13 -4 -26 -3 -38h125l-15 -92h-113c-8 -41 -26 -73 -56 -97v-2h225l-21 -135h-424l15 93c64 24 108 73 112 141h-80l15 92h64c0 13 1 26 3 41c17 111 106 210 249 210c46 0 85 -10 104 -22z" />
    <glyph glyph-name="yen.taboldstyle" unicode="&#xf652;" horiz-adv-x="533" 
d="M290 0h-153l20 101h-134l15 79h134l8 47h-133l15 79h99l-84 239h166l19 -117c7 -39 12 -70 17 -104h1c17 33 36 68 56 104l60 117h165l-177 -239h99l-15 -79h-135l-8 -47h134l-15 -79h-135z" />
    <glyph glyph-name="numbersign.taboldstyle" unicode="&#xf650;" horiz-adv-x="533" 
d="M220 259h81l32 104h-80zM138 0h-96l52 163h-80l17 96h94l34 104h-83l17 96h95l52 163h94l-52 -163h82l51 163h95l-52 -163h79l-17 -96h-92l-32 -104h80l-17 -96h-95l-51 -163h-96l52 163h-81z" />
    <glyph glyph-name="zero.superior" unicode="&#x2070;" horiz-adv-x="356" 
d="M214 400c-88 0 -133 64 -133 144c0 137 76 256 199 256c92 0 133 -68 133 -139c0 -141 -74 -261 -199 -261zM229 495c40 0 62 102 62 159c0 34 -9 51 -25 51c-44 0 -63 -130 -63 -160c0 -29 6 -50 26 -50z" />
    <glyph glyph-name="one.superior" horiz-adv-x="273" 
d="M257 405h-128l54 285h-1l-77 -31l-9 88l124 48h111z" />
    <glyph glyph-name="two.superior" horiz-adv-x="331" 
d="M338 405h-296l13 65l77 64c68 52 120 95 120 134c0 19 -14 33 -44 33c-28 0 -57 -10 -81 -24l-14 83c34 23 84 40 138 40c84 0 136 -41 136 -104c0 -80 -74 -134 -133 -177l-20 -14v-3h123z" />
    <glyph glyph-name="three.superior" horiz-adv-x="324" 
d="M126 688l-7 80c30 18 75 32 131 32c77 0 132 -41 132 -90c0 -52 -42 -83 -93 -97v-2c37 -8 75 -37 75 -81c0 -83 -86 -130 -189 -130c-52 0 -102 11 -129 29l36 84c19 -13 55 -25 86 -25c35 0 64 16 64 42c0 25 -29 42 -75 42h-17l14 75h14c38 0 81 8 81 37
c0 17 -13 28 -41 28c-29 0 -62 -11 -82 -24z" />
    <glyph glyph-name="four.superior" unicode="&#x2074;" horiz-adv-x="353" 
d="M331 405h-115l16 84h-173l14 74l189 235h144l-42 -224h45l-17 -85h-44zM248 574l10 48c5 25 13 54 20 79h-3c-16 -25 -34 -51 -46 -68l-42 -58v-1h61z" />
    <glyph glyph-name="five.superior" unicode="&#x2075;" horiz-adv-x="326" 
d="M388 795l-20 -99h-139l-8 -32h21c18 0 48 -5 70 -21c37 -18 55 -47 55 -86c0 -99 -90 -157 -208 -157c-50 0 -86 8 -106 18l28 92c15 -7 45 -14 79 -14c42 0 75 13 75 44c0 28 -29 42 -88 42c-19 0 -34 -1 -49 -2l56 215h234z" />
    <glyph glyph-name="six.superior" unicode="&#x2076;" horiz-adv-x="345" 
d="M392 798l-18 -94c-12 2 -26 3 -40 1c-61 -5 -93 -31 -107 -55l2 -1c16 13 42 21 65 21c69 -1 103 -52 103 -107c0 -95 -74 -163 -171 -163c-94 0 -147 66 -147 141c0 97 51 170 111 209c40 26 92 43 147 47c19 2 40 2 55 1zM232 485c24 0 44 26 44 70c0 19 -12 35 -34 35
c-15 0 -27 -11 -33 -21c-3 -5 -4 -8 -6 -12c-4 -15 -5 -27 -5 -35c0 -18 12 -37 34 -37z" />
    <glyph glyph-name="seven.superior" unicode="&#x2077;" horiz-adv-x="306" 
d="M114 795h284l-15 -76c-37 -58 -154 -240 -200 -314h-131c55 80 161 238 197 290v1h-154z" />
    <glyph glyph-name="eight.superior" unicode="&#x2078;" horiz-adv-x="358" 
d="M281 800c69 0 132 -31 132 -98c0 -38 -33 -69 -73 -87l-1 -1c39 -21 59 -52 59 -83c0 -92 -96 -132 -177 -132c-90 0 -145 43 -145 103c0 52 42 88 86 106l1 1c-27 17 -45 41 -45 70c0 78 78 121 163 121zM234 480c20 0 38 17 38 43c0 22 -15 37 -37 45
c-18 -8 -35 -24 -35 -52c0 -20 13 -36 34 -36zM268 722h-2c-17 0 -30 -16 -30 -34c0 -17 10 -30 34 -40c18 7 30 23 30 43s-13 31 -32 31z" />
    <glyph glyph-name="nine.superior" unicode="&#x2079;" horiz-adv-x="348" 
d="M85 401l16 95c11 -1 31 -3 50 -2c20 1 40 4 58 12c28 11 48 31 56 46l-2 1c-15 -11 -41 -16 -63 -16c-60 0 -111 37 -111 106c0 90 81 158 174 158c96 0 144 -64 144 -141c0 -98 -49 -168 -104 -210c-44 -34 -108 -50 -167 -51c-15 -1 -33 1 -51 2zM253 714
c-24 0 -42 -30 -42 -63c0 -23 15 -37 34 -37c16 0 25 5 31 12c4 4 8 14 10 27c1 6 2 15 2 24c0 20 -12 37 -35 37z" />
    <glyph glyph-name="period.superior" unicode="&#xf6e8;" horiz-adv-x="177" 
d="M133 400c-37 0 -61 26 -61 63c0 41 31 77 74 77c37 0 63 -25 63 -64c0 -46 -32 -76 -76 -76z" />
    <glyph glyph-name="comma.superior" unicode="&#xf6e2;" horiz-adv-x="177" 
d="M100 342l-82 -7c33 68 60 129 78 191l120 6c-32 -68 -68 -128 -116 -190z" />
    <glyph glyph-name="dollar.superior" unicode="&#xf6e4;" horiz-adv-x="328" 
d="M218 352h-71l10 56c-41 2 -82 19 -101 33l35 87c25 -18 58 -31 102 -31c30 0 47 9 47 23c0 16 -13 25 -47 40c-45 24 -91 54 -91 107c0 63 48 112 131 122l9 51h72l-9 -50c35 -1 66 -10 84 -22l-35 -85c-17 10 -48 22 -87 22c-27 0 -40 -11 -40 -22s15 -21 58 -42
c47 -23 81 -56 81 -106c0 -78 -66 -118 -137 -126z" />
    <glyph glyph-name="cent.superior" unicode="&#xf6e0;" horiz-adv-x="300" 
d="M248 400h-72l11 57c-29 6 -55 19 -71 39s-26 47 -26 82c0 99 70 156 154 174l9 55h72l-9 -52c15 -1 35 -3 49 -9l-32 -86c-12 5 -26 7 -46 7c-45 0 -74 -29 -74 -72c0 -36 27 -52 57 -52c17 0 32 3 49 9l2 -86c-21 -8 -41 -11 -62 -12z" />
    <glyph glyph-name="hyphen.superior" unicode="&#xf6e6;" horiz-adv-x="194" 
d="M92 633h159l-15 -79h-159z" />
    <glyph glyph-name="parenleft.superior" unicode="&#x207d;" horiz-adv-x="199" 
d="M215 833h82c-59 -76 -110 -194 -110 -320c0 -59 4 -107 22 -162h-80c-18 42 -32 101 -32 156c0 141 50 255 118 326z" />
    <glyph glyph-name="parenright.superior" unicode="&#x207e;" horiz-adv-x="199" 
d="M119 351h-84c58 77 110 194 110 321c0 59 -3 106 -21 161h81c18 -41 31 -101 31 -155c0 -140 -50 -254 -117 -327z" />
    <glyph glyph-name="zero.inferior" unicode="&#x2080;" horiz-adv-x="356" 
d="M108 -150c-88 0 -133 64 -133 144c0 137 76 256 199 256c92 0 133 -68 133 -139c0 -141 -74 -261 -199 -261zM123 -55c40 0 62 102 62 159c0 34 -9 51 -25 51c-44 0 -63 -130 -63 -160c0 -29 6 -50 26 -50z" />
    <glyph glyph-name="one.inferior" unicode="&#x2081;" horiz-adv-x="273" 
d="M151 -145h-128l54 285h-1l-77 -32l-9 88l124 49h111z" />
    <glyph glyph-name="two.inferior" unicode="&#x2082;" horiz-adv-x="331" 
d="M232 -145h-296l13 65l77 64c68 52 120 95 120 134c0 19 -14 33 -44 33c-28 0 -57 -10 -81 -24l-14 83c34 23 84 40 138 40c84 0 136 -41 136 -104c0 -80 -74 -134 -133 -177l-20 -14v-3h123z" />
    <glyph glyph-name="three.inferior" unicode="&#x2083;" horiz-adv-x="324" 
d="M20 138l-7 80c30 18 75 32 131 32c77 0 132 -41 132 -90c0 -52 -42 -83 -93 -97v-2c37 -8 75 -37 75 -81c0 -83 -86 -130 -189 -130c-52 0 -102 11 -129 29l36 84c19 -13 55 -25 86 -25c35 0 64 16 64 42c0 25 -29 42 -75 42h-17l14 75h14c38 0 81 8 81 37
c0 17 -13 28 -41 28c-29 0 -62 -11 -82 -24z" />
    <glyph glyph-name="four.inferior" unicode="&#x2084;" horiz-adv-x="353" 
d="M225 -145h-115l16 84h-173l14 74l189 235h144l-42 -224h45l-17 -85h-44zM142 24l10 48c5 25 13 54 20 79h-3c-16 -25 -34 -51 -46 -68l-42 -58v-1h61z" />
    <glyph glyph-name="five.inferior" unicode="&#x2085;" horiz-adv-x="326" 
d="M282 245l-20 -99h-139l-8 -32h21c18 0 48 -5 70 -21c37 -18 55 -47 55 -86c0 -99 -90 -157 -208 -157c-50 0 -86 8 -106 18l28 92c15 -7 45 -14 79 -14c42 0 75 13 75 44c0 28 -29 42 -88 42c-19 0 -34 -1 -49 -2l56 215h234z" />
    <glyph glyph-name="six.inferior" unicode="&#x2086;" horiz-adv-x="345" 
d="M286 248l-18 -94c-12 2 -26 3 -40 2c-61 -6 -93 -32 -107 -56l2 -1c16 13 42 21 65 21c69 -1 103 -52 103 -107c0 -95 -74 -163 -171 -163c-94 0 -147 66 -147 141c0 97 51 170 111 209c40 26 92 43 147 47c19 2 40 2 55 1zM126 -65c24 0 44 26 44 70c0 19 -12 35 -34 35
c-15 0 -27 -11 -33 -21c-3 -5 -4 -8 -6 -12c-4 -15 -5 -27 -5 -35c0 -18 12 -37 34 -37z" />
    <glyph glyph-name="seven.inferior" unicode="&#x2087;" horiz-adv-x="306" 
d="M8 245h284l-15 -76c-37 -58 -154 -240 -200 -314h-131c55 80 161 238 197 290v1h-154z" />
    <glyph glyph-name="eight.inferior" unicode="&#x2088;" horiz-adv-x="358" 
d="M175 250c69 0 132 -31 132 -98c0 -38 -33 -69 -73 -87l-1 -1c39 -21 59 -52 59 -83c0 -92 -96 -131 -177 -131c-90 0 -145 42 -145 102c0 52 42 88 86 106l1 1c-27 17 -45 41 -45 70c0 78 78 121 163 121zM128 -69c20 0 38 16 38 43c0 22 -15 36 -37 44
c-18 -8 -35 -24 -35 -52c0 -20 13 -35 34 -35zM162 172h-2c-17 0 -30 -16 -30 -34c0 -17 10 -29 34 -40c18 7 30 23 30 43s-13 31 -32 31z" />
    <glyph glyph-name="nine.inferior" unicode="&#x2089;" horiz-adv-x="348" 
d="M-21 -149l16 95c11 -1 31 -3 50 -2c20 1 40 4 58 12c28 11 48 31 56 46l-2 1c-15 -11 -41 -16 -63 -16c-60 0 -111 37 -111 106c0 90 81 158 174 158c96 0 144 -64 144 -141c0 -98 -49 -168 -104 -210c-44 -34 -108 -50 -167 -51c-15 -1 -33 1 -51 2zM147 164
c-24 0 -42 -30 -42 -63c0 -23 15 -37 34 -37c16 0 25 5 31 12c4 4 8 14 10 27c1 6 2 15 2 24c0 20 -12 37 -35 37z" />
    <glyph glyph-name="period.inferior" unicode="&#xf6e7;" horiz-adv-x="177" 
d="M27 -150c-37 0 -61 26 -61 63c0 41 31 77 74 77c37 0 63 -25 63 -64c0 -46 -32 -76 -76 -76z" />
    <glyph glyph-name="comma.inferior" unicode="&#xf6e1;" horiz-adv-x="177" 
d="M-6 -208l-82 -7c33 68 60 129 78 191l120 6c-32 -68 -68 -128 -116 -190z" />
    <glyph glyph-name="dollar.inferior" unicode="&#xf6e3;" horiz-adv-x="328" 
d="M113 -198h-72l10 55c-41 2 -82 20 -101 34l35 87c25 -18 58 -31 102 -31c30 0 47 9 47 23c0 16 -13 25 -47 40c-45 24 -91 54 -91 107c0 63 48 112 131 122l9 51h72l-9 -50c35 -1 66 -10 84 -22l-35 -85c-17 10 -48 22 -87 22c-27 0 -40 -11 -40 -22s15 -21 58 -42
c47 -23 81 -56 81 -106c0 -78 -66 -118 -137 -126z" />
    <glyph glyph-name="cent.inferior" unicode="&#xf6df;" horiz-adv-x="300" 
d="M142 -150h-72l11 56c-29 7 -55 20 -71 40s-26 47 -26 82c0 99 70 156 154 174l9 55h72l-9 -52c15 -1 35 -3 49 -9l-32 -86c-12 5 -26 7 -46 7c-45 0 -74 -29 -74 -72c0 -36 27 -52 57 -52c17 0 32 3 49 9l2 -86c-21 -8 -41 -11 -62 -12z" />
    <glyph glyph-name="hyphen.inferior" unicode="&#xf6e5;" horiz-adv-x="194" 
d="M-14 83h159l-15 -79h-159z" />
    <glyph glyph-name="parenleft.inferior" unicode="&#x208d;" horiz-adv-x="199" 
d="M109 283h82c-59 -76 -110 -194 -110 -320c0 -59 4 -107 22 -162h-80c-18 43 -32 101 -32 156c0 141 50 255 118 326z" />
    <glyph glyph-name="parenright.inferior" unicode="&#x208e;" horiz-adv-x="199" 
d="M13 -199h-84c58 77 110 194 110 321c0 59 -3 106 -21 161h81c18 -41 31 -101 31 -155c0 -140 -50 -254 -117 -327z" />
    <glyph glyph-name="zero.numerator" unicode="&#xf661;" horiz-adv-x="356" 
d="M186 260c-88 0 -133 64 -133 144c0 137 76 256 199 256c92 0 133 -68 133 -139c0 -141 -74 -261 -199 -261zM201 355c40 0 62 102 62 159c0 34 -9 51 -25 51c-44 0 -63 -130 -63 -160c0 -29 6 -50 26 -50z" />
    <glyph glyph-name="one.numerator" unicode="&#xf662;" horiz-adv-x="273" 
d="M229 265h-128l54 285h-1l-77 -32l-9 88l124 49h111z" />
    <glyph glyph-name="two.numerator" unicode="&#xf663;" horiz-adv-x="331" 
d="M310 265h-296l13 65l77 64c68 52 120 95 120 134c0 19 -14 33 -44 33c-28 0 -57 -10 -81 -24l-14 83c34 23 84 40 138 40c84 0 136 -41 136 -104c0 -80 -74 -134 -133 -177l-20 -14v-3h123z" />
    <glyph glyph-name="three.numerator" unicode="&#xf664;" horiz-adv-x="324" 
d="M98 548l-7 80c30 18 75 32 131 32c77 0 132 -41 132 -90c0 -52 -42 -83 -93 -97v-2c37 -8 75 -37 75 -81c0 -83 -86 -130 -189 -130c-52 0 -102 11 -129 29l36 84c19 -13 55 -25 86 -25c35 0 64 16 64 42c0 25 -29 42 -75 42h-17l14 75h14c38 0 81 8 81 37
c0 17 -13 28 -41 28c-29 0 -62 -11 -82 -24z" />
    <glyph glyph-name="four.numerator" unicode="&#xf665;" horiz-adv-x="353" 
d="M303 265h-115l16 84h-173l14 74l189 235h144l-42 -224h45l-17 -85h-44zM220 434l10 48c5 25 13 54 20 79h-3c-16 -25 -34 -51 -46 -68l-42 -58v-1h61z" />
    <glyph glyph-name="five.numerator" unicode="&#xf666;" horiz-adv-x="326" 
d="M360 655l-20 -99h-139l-8 -32h21c18 0 48 -5 70 -21c37 -18 55 -47 55 -86c0 -99 -90 -157 -208 -157c-50 0 -86 8 -106 18l28 92c15 -7 45 -14 79 -14c42 0 75 13 75 44c0 28 -29 42 -88 42c-19 0 -34 -1 -49 -2l56 215h234z" />
    <glyph glyph-name="six.numerator" unicode="&#xf667;" horiz-adv-x="345" 
d="M364 658l-18 -94c-12 2 -26 3 -40 2c-61 -6 -93 -32 -107 -56l2 -1c16 13 42 21 65 21c69 -1 103 -52 103 -107c0 -95 -74 -163 -171 -163c-94 0 -147 66 -147 141c0 97 51 170 111 209c40 26 92 43 147 47c19 2 40 2 55 1zM204 345c24 0 44 26 44 70c0 19 -12 35 -34 35
c-15 0 -27 -11 -33 -21c-3 -5 -4 -8 -6 -12c-4 -15 -5 -27 -5 -35c0 -18 12 -37 34 -37z" />
    <glyph glyph-name="seven.numerator" unicode="&#xf668;" horiz-adv-x="306" 
d="M86 655h284l-15 -76c-37 -58 -154 -240 -200 -314h-131c55 80 161 238 197 290v1h-154z" />
    <glyph glyph-name="eight.numerator" unicode="&#xf669;" horiz-adv-x="358" 
d="M253 660c69 0 132 -31 132 -98c0 -38 -33 -69 -73 -87l-1 -1c39 -21 59 -52 59 -83c0 -92 -96 -131 -177 -131c-90 0 -145 42 -145 102c0 52 42 88 86 106l1 1c-27 17 -45 41 -45 70c0 78 78 121 163 121zM206 341c20 0 38 16 38 43c0 22 -15 36 -37 44
c-18 -8 -35 -24 -35 -52c0 -20 13 -35 34 -35zM240 582h-2c-17 0 -30 -16 -30 -34c0 -17 10 -29 34 -40c18 7 30 23 30 43s-13 31 -32 31z" />
    <glyph glyph-name="nine.numerator" unicode="&#xf66a;" horiz-adv-x="348" 
d="M57 261l16 95c11 -1 31 -3 50 -2c20 1 40 4 58 12c28 11 48 31 56 46l-2 1c-15 -11 -41 -16 -63 -16c-60 0 -111 37 -111 106c0 90 81 158 174 158c96 0 144 -64 144 -141c0 -98 -49 -168 -104 -210c-44 -34 -108 -50 -167 -51c-15 -1 -33 1 -51 2zM225 574
c-24 0 -42 -30 -42 -63c0 -23 15 -37 34 -37c16 0 25 5 31 12c4 4 8 14 10 27c1 6 2 15 2 24c0 20 -12 37 -35 37z" />
    <glyph glyph-name="period.numerator" unicode="&#xf66c;" horiz-adv-x="177" 
d="M105 260c-37 0 -61 26 -61 63c0 41 31 77 74 77c37 0 63 -25 63 -64c0 -46 -32 -76 -76 -76z" />
    <glyph glyph-name="comma.numerator" unicode="&#xf66b;" horiz-adv-x="177" 
d="M72 202l-82 -7c33 68 60 129 78 191l120 6c-32 -68 -68 -128 -116 -190z" />
    <glyph glyph-name="dollar.numerator" unicode="&#xf62f;" horiz-adv-x="328" 
d="M190 212h-71l10 56c-41 2 -82 19 -101 33l35 87c25 -18 58 -31 102 -31c30 0 47 9 47 23c0 16 -13 25 -47 40c-45 24 -91 54 -91 107c0 63 48 112 131 122l9 51h72l-9 -50c35 -1 66 -11 84 -22l-35 -85c-17 9 -48 22 -87 22c-27 0 -40 -12 -40 -22c0 -11 15 -22 58 -42
c47 -23 81 -56 81 -106c0 -78 -66 -118 -137 -126z" />
    <glyph glyph-name="cent.numerator" unicode="&#xf62e;" horiz-adv-x="300" 
d="M220 260h-72l11 57c-29 6 -55 19 -71 39s-26 47 -26 82c0 99 70 156 154 174l9 55h72l-9 -52c15 -1 35 -3 49 -9l-32 -86c-12 5 -26 7 -46 7c-45 0 -74 -29 -74 -72c0 -36 27 -52 57 -52c17 0 32 3 49 9l2 -86c-21 -8 -41 -11 -62 -12z" />
    <glyph glyph-name="hyphen.numerator" unicode="&#xf630;" horiz-adv-x="194" 
d="M64 493h159l-15 -79h-159z" />
    <glyph glyph-name="parenleft.numerator" unicode="&#xf631;" horiz-adv-x="199" 
d="M187 693h82c-59 -76 -110 -194 -110 -320c0 -60 4 -108 22 -162h-80c-18 42 -32 101 -32 156c0 141 50 254 118 326z" />
    <glyph glyph-name="parenright.numerator" unicode="&#xf632;" horiz-adv-x="199" 
d="M91 211h-84c58 76 110 193 110 321c0 59 -3 106 -21 161h81c18 -42 31 -101 31 -155c0 -140 -50 -254 -117 -327z" />
    <glyph glyph-name="zero.denominator" unicode="&#xf655;" horiz-adv-x="356" 
d="M133 -5c-88 0 -133 64 -133 144c0 137 76 256 200 256c92 0 133 -68 133 -139c0 -141 -74 -261 -200 -261zM148 90c41 0 63 102 63 159c0 34 -9 51 -25 51c-45 0 -64 -130 -64 -160c0 -29 6 -50 26 -50z" />
    <glyph glyph-name="one.denominator" unicode="&#xf656;" horiz-adv-x="273" 
d="M176 0h-128l54 285h-1l-77 -31l-9 88l124 48h111z" />
    <glyph glyph-name="two.denominator" unicode="&#xf657;" horiz-adv-x="331" 
d="M258 0h-296l13 65l77 64c68 52 120 96 120 134c0 19 -14 33 -44 33c-28 0 -57 -10 -81 -24l-14 83c34 23 84 40 138 40c84 0 136 -41 136 -104c0 -80 -74 -134 -133 -177l-20 -14v-3h123z" />
    <glyph glyph-name="three.denominator" unicode="&#xf658;" horiz-adv-x="324" 
d="M45 284l-7 79c30 18 75 32 131 32c77 0 132 -41 132 -90c0 -51 -42 -82 -92 -96v-2c37 -7 75 -37 75 -82c0 -83 -86 -130 -189 -130c-52 0 -102 11 -129 29l36 84c19 -13 55 -25 86 -25c35 0 64 16 64 43c0 25 -29 42 -76 42h-17l14 75h14c38 0 81 8 81 37
c0 16 -13 27 -41 27c-29 0 -62 -11 -82 -23z" />
    <glyph glyph-name="four.denominator" unicode="&#xf659;" horiz-adv-x="353" 
d="M250 0h-115l16 84h-173l14 74l189 235h144l-42 -224h45l-16 -85h-45zM167 169l10 48c5 25 13 54 20 79h-3c-16 -25 -33 -51 -46 -68l-42 -57v-2h61z" />
    <glyph glyph-name="five.denominator" unicode="&#xf65a;" horiz-adv-x="326" 
d="M308 390l-20 -99h-139l-8 -32h21c18 0 48 -5 70 -21c37 -18 55 -47 55 -86c0 -99 -90 -157 -208 -157c-50 0 -86 8 -106 18l28 92c15 -7 45 -14 79 -14c42 0 75 13 75 44c0 28 -29 42 -88 42c-19 0 -34 -1 -49 -2l56 215h234z" />
    <glyph glyph-name="six.denominator" unicode="&#xf65b;" horiz-adv-x="345" 
d="M312 393l-18 -94c-12 2 -26 3 -40 1c-61 -5 -94 -31 -108 -55l2 -1c17 13 43 21 66 21c69 -1 103 -52 103 -107c0 -95 -74 -163 -171 -163c-95 0 -148 66 -148 141c0 97 51 170 111 209c41 26 93 43 148 47c19 2 40 2 55 1zM152 80c24 0 44 26 44 70c0 19 -12 35 -35 35
c-14 0 -27 -11 -33 -21c-3 -5 -4 -8 -6 -12c-4 -15 -5 -27 -5 -35c0 -18 12 -37 35 -37z" />
    <glyph glyph-name="seven.denominator" unicode="&#xf65c;" horiz-adv-x="306" 
d="M33 390h284l-15 -76c-37 -58 -154 -240 -200 -314h-131c55 80 161 238 197 290v1h-154z" />
    <glyph glyph-name="eight.denominator" unicode="&#xf65d;" horiz-adv-x="358" 
d="M201 395c69 0 132 -31 132 -98c0 -38 -33 -69 -74 -87l-1 -1c39 -21 59 -52 59 -83c0 -92 -96 -131 -176 -131c-90 0 -145 42 -145 102c0 52 42 88 85 106l1 1c-27 17 -45 41 -45 70c0 78 78 121 164 121zM154 76c19 0 37 16 37 43c0 22 -15 36 -36 44
c-18 -8 -35 -24 -35 -52c0 -20 13 -35 34 -35zM186 317c-18 0 -31 -16 -31 -34c0 -17 10 -29 35 -40c18 7 30 23 30 43s-13 31 -34 31z" />
    <glyph glyph-name="nine.denominator" unicode="&#xf65e;" horiz-adv-x="348" 
d="M5 -4l16 95c11 -1 31 -3 50 -2c20 1 40 4 58 12c27 11 47 31 55 46l-1 1c-16 -11 -41 -16 -63 -16c-60 0 -111 37 -111 106c0 90 81 158 174 158c95 0 143 -64 143 -141c0 -98 -49 -168 -104 -210c-44 -34 -107 -50 -166 -51c-15 -1 -33 1 -51 2zM172 309
c-24 0 -41 -30 -41 -63c0 -23 15 -37 34 -37c16 0 24 5 30 12c4 4 8 14 10 27c1 6 2 15 2 24c0 20 -12 37 -35 37z" />
    <glyph glyph-name="period.denominator" unicode="&#xf660;" horiz-adv-x="177" 
d="M52 -6c-37 0 -61 26 -61 63c0 41 31 77 74 77c37 0 63 -25 63 -64c0 -46 -32 -76 -76 -76z" />
    <glyph glyph-name="comma.denominator" unicode="&#xf65f;" horiz-adv-x="177" 
d="M19 -63l-82 -7c33 68 60 129 78 191l120 6c-32 -68 -68 -128 -116 -190z" />
    <glyph glyph-name="dollar.denominator" unicode="&#xf62a;" horiz-adv-x="328" 
d="M138 -53h-71l10 56c-41 2 -82 19 -101 33l35 87c25 -18 58 -31 102 -31c30 0 47 9 47 23c0 16 -13 25 -48 40c-45 24 -91 54 -91 107c0 63 48 112 131 122l9 51h72l-9 -50c35 -1 66 -10 84 -22l-35 -85c-17 10 -48 22 -87 22c-27 0 -40 -11 -40 -22s15 -21 59 -42
c47 -23 81 -56 81 -106c0 -78 -66 -118 -137 -126z" />
    <glyph glyph-name="cent.denominator" unicode="&#xf629;" horiz-adv-x="300" 
d="M167 -6h-72l11 58c-29 6 -55 19 -71 39s-26 47 -26 83c0 99 70 156 154 174l9 55h72l-9 -52c15 -1 35 -3 49 -9l-32 -87c-12 6 -26 8 -46 8c-45 0 -74 -30 -74 -73c0 -36 27 -52 57 -52c17 0 32 3 49 9l2 -86c-21 -8 -41 -11 -62 -12z" />
    <glyph glyph-name="hyphen.denominator" unicode="&#xf62b;" horiz-adv-x="194" 
d="M12 228h159l-15 -79h-159z" />
    <glyph glyph-name="parenleft.denominator" unicode="&#xf62c;" horiz-adv-x="199" 
d="M134 428h82c-59 -76 -110 -194 -110 -320c0 -59 4 -107 22 -162h-80c-18 42 -32 101 -32 156c0 141 50 255 118 326z" />
    <glyph glyph-name="parenright.denominator" unicode="&#xf62d;" horiz-adv-x="199" 
d="M39 -54h-84c58 77 110 194 110 321c0 59 -3 106 -21 161h81c18 -41 31 -101 31 -155c0 -140 -50 -254 -117 -327z" />
    <glyph glyph-name="at.cap" unicode="&#xf633;" horiz-adv-x="722" 
d="M423 335l14 98c-7 2 -15 3 -23 3c-50 0 -95 -59 -95 -137c0 -33 13 -54 39 -54c28 0 58 37 65 90zM517 85l17 -59c-60 -27 -110 -36 -179 -36c-154 0 -297 115 -297 312c0 200 143 382 362 382c176 0 290 -125 290 -283c0 -151 -75 -244 -185 -244c-52 0 -81 27 -87 76
h-3c-26 -47 -69 -76 -119 -76c-64 0 -107 49 -107 130c0 124 85 232 225 232c42 0 93 -11 117 -25l-29 -184c-9 -57 -2 -83 26 -83c39 -1 87 49 87 170c0 124 -76 225 -227 225c-143 0 -273 -121 -273 -312c0 -169 102 -257 242 -257c47 0 99 11 140 32z" />
    <glyph glyph-name="emdash.cap" unicode="&#xf6bc;" horiz-adv-x="1000" 
d="M56 384h940l-21 -107h-940z" />
    <glyph glyph-name="endash.cap" unicode="&#xf6bb;" horiz-adv-x="500" 
d="M56 384h440l-21 -107h-440z" />
    <glyph glyph-name="exclamdown.cap" unicode="&#xf6b4;" horiz-adv-x="274" 
d="M177 0h-177l108 441h131zM209 685c53 0 87 -39 87 -90c0 -56 -45 -110 -104 -110c-55 0 -91 39 -91 92c0 64 47 108 108 108z" />
    <glyph glyph-name="guillemotleft.cap" unicode="&#xf6b6;" horiz-adv-x="457" 
d="M281 519l-140 -196l89 -188h-111l-90 192l130 192h122zM476 519l-140 -196l89 -188h-111l-90 192l130 192h122z" />
    <glyph glyph-name="guillemotright.cap" unicode="&#xf6b7;" horiz-adv-x="456" 
d="M151 334l-89 185h111l90 -192l-130 -192h-122zM346 334l-89 185h111l90 -192l-130 -192h-122z" />
    <glyph glyph-name="guilsinglleft.cap" unicode="&#xf6b8;" horiz-adv-x="262" 
d="M281 519l-140 -196l89 -188h-111l-90 192l130 192h122z" />
    <glyph glyph-name="guilsinglright.cap" unicode="&#xf6b9;" horiz-adv-x="261" 
d="M151 334l-89 185h111l90 -192l-130 -192h-122z" />
    <glyph glyph-name="hyphen.cap" unicode="&#xf6ba;" horiz-adv-x="305" 
d="M59 399h245l-22 -115h-245z" />
    <glyph glyph-name="questiondown.cap" unicode="&#xf6b5;" horiz-adv-x="422" 
d="M188 448h156l-3 -24c-8 -55 -37 -104 -86 -160c-36 -39 -71 -71 -71 -99c0 -23 13 -40 51 -41c40 0 75 9 101 25l14 -118c-33 -21 -91 -41 -165 -41c-110 0 -171 63 -171 139c0 75 45 131 104 191c34 34 54 65 64 105zM303 685c52 0 86 -39 86 -90
c0 -56 -44 -110 -105 -110c-54 0 -90 39 -90 92c0 64 47 108 109 108z" />
    <glyph glyph-name="braceleft.cap" unicode="&#xf6b2;" horiz-adv-x="307" 
d="M35 280l17 91c64 2 77 34 83 60c9 47 9 102 19 152c18 96 78 141 177 141h39l-18 -95h-17c-38 -1 -57 -28 -66 -66c-7 -35 -8 -70 -15 -115c-11 -74 -46 -107 -104 -121v-2c41 -11 64 -42 64 -79c0 -25 -10 -61 -19 -96c-10 -35 -19 -68 -19 -88c0 -27 15 -41 44 -41h16
l-17 -95h-33c-86 0 -134 30 -134 106c0 36 12 76 23 113s22 70 22 90c0 29 -20 44 -62 45z" />
    <glyph glyph-name="braceright.cap" unicode="&#xf6b3;" horiz-adv-x="307" 
d="M312 370l-17 -91c-64 -2 -77 -34 -83 -60c-9 -47 -9 -102 -19 -152c-18 -96 -78 -141 -177 -141h-39l18 95h17c38 1 57 28 66 66c7 35 8 70 15 115c11 74 46 107 104 121v2c-41 11 -64 42 -64 79c1 25 11 61 20 96s18 68 18 88c0 27 -15 41 -44 41h-16l17 95h33
c86 0 134 -30 134 -106c0 -35 -11 -75 -22 -112c-12 -37 -23 -70 -23 -91c0 -29 20 -44 62 -45z" />
    <glyph glyph-name="bracketleft.cap" unicode="&#xf6b0;" horiz-adv-x="307" 
d="M203 -74h-206l152 798h206l-19 -95h-85l-116 -608h86z" />
    <glyph glyph-name="bracketright.cap" unicode="&#xf6b1;" horiz-adv-x="307" 
d="M137 724h206l-152 -798h-206l18 95h86l116 608h-87z" />
    <glyph glyph-name="parenleft.cap" unicode="&#xf6ae;" horiz-adv-x="307" 
d="M262 728h120c-99 -119 -189 -314 -189 -534c0 -98 5 -176 38 -273h-114c-34 76 -53 170 -53 267c0 240 93 429 198 540z" />
    <glyph glyph-name="parenright.cap" unicode="&#xf6af;" horiz-adv-x="307" 
d="M85 -79h-122c97 120 189 315 189 537c0 97 -5 174 -38 270h116c33 -75 51 -169 51 -265c0 -241 -93 -430 -196 -542z" />
    <glyph glyph-name="periodcentered.cap" unicode="&#xf6bd;" horiz-adv-x="268" 
d="M138 234c-55 0 -89 39 -89 94c0 59 45 113 106 113c56 0 92 -39 92 -95c0 -68 -47 -112 -109 -112z" />
    <glyph glyph-name="lessequal" unicode="&#x2264;" horiz-adv-x="596" 
d="M540 123l-484 171v102l484 171v-112l-340 -109v-2l340 -109v-112zM540 0h-484v96h484v-96z" />
    <glyph glyph-name="greaterequal" unicode="&#x2265;" horiz-adv-x="596" 
d="M540 294l-484 -171v112l340 109v2l-340 109v112l484 -171v-102zM540 0h-484v96h484v-96z" />
    <glyph glyph-name="approxequal" unicode="&#x2248;" horiz-adv-x="596" 
d="M520 438l58 -69c-36 -54 -94 -97 -164 -97c-55 0 -91 22 -123 37c-30 13 -62 34 -110 34c-49 0 -86 -34 -111 -62l-53 72c36 48 93 93 166 93c55 0 90 -21 122 -36c30 -13 61 -34 108 -34c50 0 87 40 107 62zM523 222l56 -67c-36 -56 -96 -99 -166 -99
c-53 0 -90 21 -122 36c-30 13 -61 34 -111 34c-46 0 -85 -34 -109 -62l-53 73c35 49 95 92 164 92c56 0 91 -21 123 -36c30 -13 62 -34 108 -34c51 0 88 35 110 63z" />
    <glyph glyph-name="notequal" unicode="&#x2260;" horiz-adv-x="596" 
d="M556 107h-309l-58 -95h-107l60 95h-102v103h168l72 114h-240v103h306l58 95h108l-61 -95h105v-103h-171l-72 -114h243v-103z" />
    <glyph glyph-name="infinity" unicode="&#x221e;" horiz-adv-x="760" 
d="M559 91c-73 0 -132 53 -181 101c-52 -48 -100 -101 -188 -101c-99 0 -166 76 -166 172c0 92 68 174 174 174c74 0 133 -53 182 -101c52 48 100 101 188 101c99 0 166 -76 166 -174c0 -90 -68 -172 -175 -172zM557 193c38 0 68 31 68 70c0 42 -29 72 -66 72
c-43 0 -78 -38 -112 -71c29 -27 65 -71 110 -71zM200 193c42 0 77 37 111 69c-29 28 -65 73 -109 73c-39 0 -69 -32 -69 -72c0 -41 29 -70 67 -70z" />
    <glyph glyph-name="lozenge" unicode="&#x25ca;" horiz-adv-x="593" 
d="M562 324l-255 -363h-122l-121 363l254 364h122zM426 321l-62 209c-3 10 -7 25 -8 35h-2c-6 -10 -15 -25 -22 -35l-133 -203l62 -209c3 -10 7 -24 8 -34h3c6 10 15 24 21 34z" />
    <glyph glyph-name="integral" unicode="&#x222b;" horiz-adv-x="337" 
d="M413 801l-28 -99c-8 3 -21 5 -34 5c-67 0 -78 -109 -89 -174c-22 -155 -24 -258 -50 -435c-19 -125 -57 -268 -209 -268c-30 0 -50 6 -67 13l28 106c9 -4 22 -7 35 -7c62 0 75 89 83 150c28 181 29 286 53 452c21 138 70 268 217 268c24 0 47 -4 61 -11z" />
    <glyph glyph-name="partialdiff" unicode="&#x2202;" horiz-adv-x="551" 
d="M152 571l-29 111c28 18 94 53 184 53c146 0 236 -106 236 -282c0 -183 -87 -463 -327 -463c-126 0 -192 85 -192 197c0 141 103 269 248 269c61 0 93 -29 107 -51h1c3 13 5 42 5 66c-1 79 -39 131 -113 131c-53 0 -101 -19 -120 -31zM240 113c48 0 89 80 105 170
c-5 17 -25 49 -60 49c-62 0 -99 -88 -98 -146c0 -50 22 -73 53 -73z" />
    <glyph glyph-name="product" unicode="&#x220f;" horiz-adv-x="620" 
d="M640 509h-66l-114 -599h-153l115 599h-126l-115 -599h-152l115 599h-66l28 141h561z" />
    <glyph glyph-name="radical" unicode="&#x221a;" horiz-adv-x="553" 
d="M678 844l-353 -934h-111l-72 422l-75 -29l-19 73l191 75l40 -291c5 -34 6 -70 8 -94h1c7 23 19 60 34 100l247 678h109z" />
    <glyph glyph-name="summation" unicode="&#x2211;" horiz-adv-x="530" 
d="M440 -90h-464l17 98l223 273l-123 258l19 111h434l-25 -143h-238v-4l105 -219l-183 -227v-4h260z" />
    <glyph glyph-name="Delta" unicode="&#x2206;" horiz-adv-x="601" 
d="M514 0h-522l16 84l266 566h205l51 -564zM189 138h179l-12 191c-2 48 -8 148 -9 184h-3c-14 -38 -47 -125 -68 -176z" />
    <glyph glyph-name="Omega" unicode="&#x2126;" horiz-adv-x="674" 
d="M119 126l1 5c-36 43 -71 115 -71 198c0 202 157 355 349 355c176 0 266 -121 266 -251c0 -144 -85 -250 -150 -302v-5h108l-23 -126h-281l17 99c68 50 154 162 154 321c0 84 -40 131 -107 131c-81 0 -164 -98 -164 -281c0 -76 23 -138 60 -171l-17 -99h-279l22 126h115z
" />
    <glyph glyph-name="pi" unicode="&#x3c0;" horiz-adv-x="565" 
d="M563 364h-56l-40 -211c-12 -64 -20 -121 -18 -153h-157c-8 20 -1 85 12 150l40 214h-74c-6 -26 -12 -53 -18 -80c-30 -127 -70 -240 -104 -284h-157c38 63 76 174 103 282c7 28 13 57 18 82c-28 0 -60 -1 -83 -7l-2 94c26 26 74 41 191 41h373z" />
    <glyph glyph-name="aringacute" unicode="&#x1fb;" horiz-adv-x="531" 
d="M451 0h-147c2 28 3 55 4 83h-2c-40 -69 -97 -93 -145 -93c-86 0 -141 68 -141 168c0 159 94 344 337 344c61 0 125 -12 166 -26l-53 -261c-10 -54 -20 -154 -19 -215zM318 262l24 115c-11 2 -22 3 -30 3c-76 0 -124 -122 -124 -190c0 -42 15 -68 44 -68
c30 0 66 33 86 140zM432 860h152l-153 -114h-117zM372 723c62 0 109 -33 109 -94c-2 -64 -53 -103 -123 -103c-61 0 -107 35 -109 90c-2 64 48 107 123 107zM366 670c-29 0 -44 -24 -44 -50c0 -19 12 -41 40 -41c31 0 46 24 46 47c0 22 -11 44 -42 44z" />
    <glyph glyph-name="Abreve" unicode="&#x102;" horiz-adv-x="584" 
d="M358 152h-159l-61 -152h-171l305 674h208l51 -674h-169zM243 274h112l-3 128c-2 38 -2 101 -3 145h-2c-17 -44 -37 -108 -53 -145zM259 847h88c-1 -23 12 -47 48 -47c38 0 55 23 60 47h91c-13 -72 -58 -127 -160 -127c-98 0 -136 55 -127 127z" />
    <glyph glyph-name="Amacron" unicode="&#x100;" horiz-adv-x="584" 
d="M358 152h-159l-61 -152h-171l305 674h208l51 -674h-169zM243 274h112l-3 128c-2 38 -2 101 -3 145h-2c-17 -44 -37 -108 -53 -145zM275 823h253l-17 -88h-254z" />
    <glyph glyph-name="Aogonek" unicode="&#x104;" horiz-adv-x="584" 
d="M480 674l51 -674h-77c-17 -26 -30 -56 -30 -77c0 -23 15 -37 40 -37c19 0 37 5 47 8l12 -79c-31 -25 -73 -35 -111 -35c-66 0 -104 33 -104 95c0 50 34 100 54 126l-4 151h-159l-61 -152h-171l305 674h208zM244 274h111l-3 128c-1 38 -2 101 -3 145h-2
c-17 -44 -37 -108 -53 -145z" />
    <glyph glyph-name="i.dot" horiz-adv-x="267" 
d="M167 0h-164l93 492h164zM195 543c-44 0 -74 31 -74 77c0 51 40 91 89 91c48 0 78 -32 78 -77c0 -58 -44 -91 -93 -91z" />
    <glyph glyph-name="Cacute" unicode="&#x106;" horiz-adv-x="536" 
d="M471 150l6 -136c-31 -13 -82 -23 -153 -23c-183 0 -277 126 -277 271c0 167 69 284 165 351c67 49 146 70 234 70c61 0 111 -14 128 -23l-43 -135c-17 6 -52 16 -101 16c-46 0 -91 -16 -123 -46c-49 -44 -83 -116 -83 -211c0 -94 51 -151 142 -151c39 0 78 6 105 17z
M419 843h172l-140 -130h-131z" />
    <glyph glyph-name="Ccaron" unicode="&#x10c;" horiz-adv-x="536" 
d="M471 150l6 -136c-31 -13 -82 -23 -153 -23c-183 0 -277 126 -277 271c0 167 69 284 165 351c67 49 146 70 234 70c61 0 111 -14 128 -23l-43 -135c-17 6 -52 16 -101 16c-46 0 -91 -16 -123 -46c-49 -44 -83 -116 -83 -211c0 -94 51 -151 142 -151c39 0 78 6 105 17z
M454 713h-118l-76 130h111l32 -59h2l50 59h123z" />
    <glyph glyph-name="Ccircumflex" unicode="&#x108;" horiz-adv-x="536" 
d="M471 150l6 -136c-31 -13 -82 -23 -153 -23c-183 0 -277 126 -277 271c0 167 69 284 165 351c67 49 146 70 234 70c61 0 111 -14 128 -23l-43 -135c-17 6 -52 16 -101 16c-46 0 -91 -16 -123 -46c-49 -44 -83 -116 -83 -211c0 -94 51 -151 142 -151c39 0 78 6 105 17z
M363 843h118l76 -130h-111l-33 56h-2l-50 -56h-122z" />
    <glyph glyph-name="Cdotaccent" unicode="&#x10a;" horiz-adv-x="536" 
d="M471 150l6 -136c-30 -13 -82 -23 -153 -23c-183 0 -277 126 -277 271c0 167 69 284 165 351c67 49 146 70 234 70c61 0 111 -14 128 -23l-43 -135c-16 6 -52 16 -101 16c-46 0 -90 -16 -123 -46c-49 -44 -83 -116 -83 -211c0 -94 51 -151 142 -151c39 0 78 6 105 17z
M413 711c-38 0 -73 29 -73 72c0 47 37 80 80 80s73 -32 73 -72c0 -47 -37 -80 -80 -80z" />
    <glyph glyph-name="Dcaron" unicode="&#x10e;" horiz-adv-x="637" 
d="M16 11l125 652c53 10 114 15 178 15c97 0 171 -23 223 -67c56 -48 86 -116 86 -210c0 -147 -65 -265 -142 -325c-72 -56 -159 -80 -295 -80c-75 0 -144 7 -175 15zM282 544l-79 -411c10 -2 24 -3 46 -3c57 0 116 29 150 81s54 115 54 195c0 85 -45 141 -130 141
c-19 0 -32 -1 -41 -3zM415 710h-118l-76 130h111l32 -59h2l50 59h122z" />
    <glyph glyph-name="Ebreve" unicode="&#x114;" horiz-adv-x="498" 
d="M466 415l-26 -138h-209l-26 -136h235l-27 -141h-399l128 674h385l-27 -140h-220l-24 -119h210zM214 839h88c-1 -24 12 -48 48 -47c38 0 55 23 60 47h91c-13 -72 -58 -127 -160 -127c-98 0 -136 55 -127 127z" />
    <glyph glyph-name="Ecaron" unicode="&#x11a;" horiz-adv-x="498" 
d="M466 415l-27 -138h-208l-26 -136h235l-28 -141h-398l128 674h385l-27 -140h-220l-24 -119h210zM399 710h-119l-76 130h112l31 -59h2l51 59h122z" />
    <glyph glyph-name="Edotaccent" unicode="&#x116;" horiz-adv-x="498" 
d="M466 415l-27 -138h-208l-27 -136h235l-27 -141h-398l128 674h385l-28 -140h-219l-24 -119h210zM345 708c-38 0 -73 29 -73 72c0 47 37 80 80 80s73 -32 73 -72c0 -47 -37 -80 -80 -80z" />
    <glyph glyph-name="Emacron" unicode="&#x112;" horiz-adv-x="498" 
d="M466 415l-27 -138h-208l-27 -136h235l-27 -141h-398l128 674h385l-28 -140h-219l-24 -119h210zM232 823h253l-17 -88h-254z" />
    <glyph glyph-name="Eogonek" unicode="&#x118;" horiz-adv-x="498" 
d="M14 0l128 674h385l-28 -140h-219l-24 -119h210l-27 -138h-208l-26 -136h234l-27 -141h-19c-43 -33 -64 -64 -64 -87c0 -19 12 -28 28 -28c17 0 37 6 46 9l19 -79c-32 -25 -76 -35 -112 -35c-64 0 -99 35 -99 88c0 50 36 100 78 132h-275z" />
    <glyph glyph-name="Gbreve" unicode="&#x11e;" horiz-adv-x="632" 
d="M609 393l-69 -365c-52 -17 -126 -35 -205 -35c-89 0 -158 24 -209 69c-50 44 -81 116 -81 200c0 136 53 247 136 322c71 63 172 97 283 97c82 0 140 -15 166 -26l-48 -140c-25 11 -74 23 -124 23c-56 0 -104 -14 -139 -41c-55 -44 -95 -124 -95 -227
c0 -96 55 -138 128 -138c25 0 39 3 52 7l23 124h-78l26 130h234zM301 844h87c-1 -23 13 -47 49 -47c38 0 55 23 60 47h91c-13 -72 -59 -127 -161 -127c-97 0 -135 55 -126 127z" />
    <glyph glyph-name="Gcircumflex" unicode="&#x11c;" horiz-adv-x="632" 
d="M609 393l-69 -365c-52 -17 -126 -35 -205 -35c-89 0 -158 24 -209 69c-50 44 -81 116 -81 200c0 136 53 247 136 322c71 63 172 97 283 97c82 0 140 -15 166 -26l-48 -140c-25 11 -74 23 -124 23c-56 0 -104 -14 -139 -41c-55 -44 -95 -124 -95 -227
c0 -96 55 -138 128 -138c25 0 39 3 52 7l23 124h-78l26 130h234zM398 840h118l77 -130h-112l-32 56h-2l-50 -56h-122z" />
    <glyph glyph-name="Gcommaaccent" unicode="&#x122;" horiz-adv-x="632" 
d="M609 393l-69 -365c-52 -17 -126 -35 -205 -35c-89 0 -158 24 -209 69c-50 44 -81 116 -81 200c0 136 53 247 136 322c71 63 172 97 283 97c82 0 140 -15 166 -26l-48 -140c-25 11 -74 23 -124 23c-56 0 -104 -14 -139 -41c-55 -44 -95 -124 -95 -227
c0 -96 55 -138 128 -138c25 0 39 3 52 7l23 124h-78l26 130h234zM217 -242l-17 71c31 6 67 28 67 64c0 20 -9 36 -19 47l117 19c11 -10 25 -34 25 -63c0 -94 -97 -136 -173 -138z" />
    <glyph glyph-name="Gdotaccent" unicode="&#x120;" horiz-adv-x="632" 
d="M609 393l-69 -365c-52 -17 -126 -35 -205 -35c-89 0 -158 24 -209 69c-50 44 -81 116 -81 200c0 136 53 247 136 322c71 63 172 97 283 97c82 0 140 -15 166 -26l-49 -140c-25 11 -73 23 -123 23c-56 0 -104 -14 -139 -41c-55 -44 -95 -124 -95 -227
c0 -96 55 -138 128 -138c25 0 39 3 52 7l23 124h-78l26 130h234zM443 708c-38 0 -73 29 -73 72c0 47 37 80 80 80s73 -32 73 -72c0 -47 -37 -80 -80 -80z" />
    <glyph glyph-name="G_tildecomb" unicode="&#xe000;" horiz-adv-x="632" 
d="M610 393l-70 -365c-52 -17 -126 -35 -204 -35c-90 0 -159 24 -210 69c-50 44 -81 116 -81 200c0 136 53 247 136 322c72 63 172 97 284 97c81 0 140 -15 165 -26l-48 -140c-25 11 -73 23 -123 23c-57 0 -104 -14 -140 -41c-55 -44 -95 -124 -95 -227
c0 -96 55 -138 128 -138c25 0 40 3 52 7l24 124h-79l26 130h235zM344 717h-79c15 92 56 130 103 130c28 0 46 -9 62 -18c15 -11 27 -20 38 -20c15 0 23 10 33 44h77c-15 -95 -53 -130 -105 -130c-29 0 -49 9 -63 18c-15 10 -25 17 -38 17c-11 0 -23 -12 -28 -41z" />
    <glyph glyph-name="Hcircumflex" unicode="&#x124;" horiz-adv-x="637" 
d="M143 674h164l-49 -258h185l49 258h164l-128 -674h-164l50 269h-184l-51 -269h-164zM371 840h118l76 -130h-111l-33 56h-2l-50 -56h-122z" />
    <glyph glyph-name="Ibreve" unicode="&#x12c;" horiz-adv-x="284" 
d="M140 674h163l-127 -674h-164zM108 842h87c-1 -23 13 -47 48 -47c39 0 56 23 61 47h90c-13 -72 -58 -127 -160 -127c-97 0 -135 55 -126 127z" />
    <glyph glyph-name="Idotaccent" unicode="&#x130;" horiz-adv-x="284" 
d="M139 674h164l-128 -674h-164zM242 708c-38 0 -73 29 -73 72c0 47 37 80 80 80s73 -32 73 -72c0 -47 -37 -80 -80 -80z" />
    <glyph glyph-name="Imacron" unicode="&#x12a;" horiz-adv-x="284" 
d="M139 674h164l-128 -674h-164zM122 823h254l-18 -88h-253z" />
    <glyph glyph-name="Iogonek" unicode="&#x12e;" horiz-adv-x="284" 
d="M303 674l-128 -674h-71c-17 -24 -30 -56 -30 -77c0 -23 15 -37 40 -37c19 0 37 5 47 8l12 -79c-31 -25 -73 -35 -111 -35c-66 0 -104 33 -104 95c0 50 34 100 54 126l128 673h163z" />
    <glyph glyph-name="Itilde" unicode="&#x128;" horiz-adv-x="284" 
d="M139 674h164l-128 -674h-164zM162 712h-79c15 92 56 130 103 130c28 0 46 -9 62 -18c15 -11 27 -20 38 -20c15 0 23 10 33 44h77c-15 -95 -53 -130 -105 -130c-29 0 -49 9 -63 18c-15 10 -25 17 -38 17c-11 0 -23 -12 -28 -41z" />
    <glyph glyph-name="Jcircumflex" unicode="&#x134;" horiz-adv-x="379" 
d="M160 242l83 432h163l-85 -444c-33 -174 -108 -240 -261 -240c-38 0 -80 6 -99 13l29 141c20 -5 42 -9 69 -9c51 0 86 27 101 107zM292 840h118l77 -130h-112l-32 56h-2l-50 -56h-122z" />
    <glyph glyph-name="Kcommaaccent" unicode="&#x136;" horiz-adv-x="576" 
d="M14 0l128 674h160l-56 -296h3c19 33 38 59 57 86l148 210h197l-248 -295l126 -379h-177l-77 274l-59 -63l-41 -211h-161zM150 -242l-17 71c31 7 67 28 67 65c0 20 -9 36 -19 47l117 19c11 -11 25 -35 25 -64c0 -94 -97 -135 -173 -138z" />
    <glyph glyph-name="Lacute" unicode="&#x139;" horiz-adv-x="464" 
d="M14 0l128 674h163l-100 -531h224l-27 -143h-388zM272 840h172l-139 -130h-131z" />
    <glyph glyph-name="Lcaron" unicode="&#x13d;" horiz-adv-x="464" 
d="M14 0l128 674h164l-101 -531h224l-27 -143h-388zM336 478l-17 72c31 6 67 28 67 64c0 20 -9 36 -19 47l117 19c11 -11 25 -35 25 -64c0 -94 -97 -135 -173 -138z" />
    <glyph glyph-name="Lcommaaccent" unicode="&#x13b;" horiz-adv-x="464" 
d="M15 0l128 674h163l-101 -531h224l-27 -143h-387zM100 -242l-17 71c31 7 67 28 67 64c0 21 -9 36 -19 47l117 20c11 -11 25 -35 25 -64c0 -94 -97 -135 -173 -138z" />
    <glyph glyph-name="Ldot" unicode="&#x13f;" horiz-adv-x="471" 
d="M14 0l128 674h163l-101 -531h225l-27 -143h-388zM390 303c-38 0 -73 29 -73 72c0 47 37 80 80 80s73 -32 73 -72c0 -47 -37 -80 -80 -80z" />
    <glyph glyph-name="M_uni0302" unicode="&#xe001;" horiz-adv-x="779" 
d="M687 0h-154l35 233c11 69 25 157 46 264h-3c-38 -96 -78 -190 -109 -256l-104 -227h-125l-11 227c-3 63 -8 158 -9 256h-2c-21 -100 -40 -195 -56 -264l-54 -233h-147l169 674h208l7 -227c2 -60 8 -142 7 -216h4c24 74 59 158 85 217l96 226h209zM440 840h118l77 -130
h-112l-32 56h-2l-50 -56h-122z" />
    <glyph glyph-name="Nacute" unicode="&#x143;" horiz-adv-x="634" 
d="M162 0h-148l128 674h182l56 -210c24 -93 41 -166 53 -239h3c4 73 16 170 36 279l32 170h149l-128 -674h-162l-62 216c-27 98 -42 157 -57 246h-3c-8 -67 -25 -179 -48 -297zM422 840h172l-139 -130h-131z" />
    <glyph glyph-name="Ncaron" unicode="&#x147;" horiz-adv-x="634" 
d="M162 0h-148l128 674h182l56 -210c24 -93 41 -166 53 -239h3c4 73 16 170 36 279l32 170h149l-128 -674h-162l-62 216c-27 98 -42 157 -57 246h-3c-8 -67 -25 -179 -48 -297zM462 710h-119l-76 130h112l32 -59h2l50 59h122z" />
    <glyph glyph-name="N_uni0302" unicode="&#xe002;" horiz-adv-x="634" 
d="M162 0h-148l128 674h182l56 -210c24 -93 41 -166 53 -239h3c4 73 16 170 36 279l32 170h149l-128 -674h-162l-62 216c-27 98 -42 157 -57 246h-3c-8 -67 -25 -179 -48 -297zM368 840h118l77 -130h-112l-32 56h-2l-50 -56h-122z" />
    <glyph glyph-name="Ncommaaccent" unicode="&#x145;" horiz-adv-x="634" 
d="M163 0h-148l128 674h181l56 -210c24 -93 41 -166 54 -239h2c5 73 16 170 36 279l32 170h150l-128 -674h-163l-61 216c-27 98 -42 157 -57 246h-4c-7 -67 -25 -179 -47 -297zM180 -242l-17 71c31 7 67 28 67 65c0 20 -9 36 -19 47l117 19c11 -11 25 -35 25 -64
c0 -94 -97 -135 -173 -138z" />
    <glyph glyph-name="Obreve" unicode="&#x14e;" horiz-adv-x="654" 
d="M293 -10c-169 0 -250 130 -250 265c0 129 45 261 128 341c58 55 135 88 225 88c170 0 249 -121 249 -262c0 -132 -44 -265 -124 -343c-59 -57 -135 -89 -228 -89zM317 128c29 0 55 13 76 34c53 52 79 190 79 262c0 63 -23 122 -95 122c-31 0 -58 -13 -81 -36
c-51 -51 -80 -174 -80 -257c0 -71 30 -125 101 -125zM285 842h87c-1 -23 13 -47 49 -47c38 0 55 23 60 47h91c-13 -72 -59 -127 -161 -127c-97 0 -135 55 -126 127z" />
    <glyph glyph-name="Ohungarumlaut" unicode="&#x150;" horiz-adv-x="654" 
d="M293 -10c-169 0 -250 130 -250 265c0 129 45 261 128 341c58 55 135 88 225 88c170 0 249 -121 249 -262c0 -132 -44 -265 -124 -343c-59 -57 -135 -89 -228 -89zM317 128c29 0 55 13 76 34c53 52 79 190 79 262c0 63 -23 122 -95 122c-31 0 -58 -13 -81 -36
c-51 -51 -80 -174 -80 -257c0 -71 30 -125 101 -125zM331 841h148l-118 -124h-112zM518 841h147l-118 -124h-111z" />
    <glyph glyph-name="Omacron" unicode="&#x14c;" horiz-adv-x="654" 
d="M293 -10c-169 0 -250 130 -250 265c0 129 45 261 128 341c58 55 135 88 225 88c170 0 249 -121 249 -262c0 -132 -44 -265 -124 -343c-59 -57 -135 -89 -228 -89zM317 128c29 0 55 13 76 34c53 52 79 190 79 262c0 63 -23 122 -95 122c-31 0 -58 -13 -81 -36
c-51 -51 -80 -174 -80 -257c0 -71 30 -125 101 -125zM299 823h254l-17 -88h-254z" />
    <glyph glyph-name="Oslashacute" unicode="&#x1fe;" horiz-adv-x="646" 
d="M100 -70l-73 63l66 89c-33 41 -54 102 -54 182c0 134 48 255 128 331c58 57 134 89 218 89c59 0 102 -11 138 -33l63 86l79 -56l-70 -96c27 -35 45 -90 46 -166c1 -139 -46 -261 -122 -337c-58 -58 -138 -92 -223 -92c-52 0 -93 10 -126 30zM211 232l217 298
c-12 11 -30 18 -55 18c-71 0 -126 -72 -152 -151c-17 -51 -22 -107 -15 -165h5zM472 429l-211 -288c12 -10 30 -15 51 -15c68 0 119 67 145 147c16 47 21 96 19 156h-4zM424 843h172l-140 -130h-131z" />
    <glyph glyph-name="Racute" unicode="&#x154;" horiz-adv-x="572" 
d="M15 0l126 661c47 11 114 17 180 17c62 0 130 -7 177 -39c43 -26 74 -69 74 -132c0 -100 -62 -163 -145 -192v-3c36 -18 51 -58 57 -119c7 -68 11 -165 22 -193h-166c-5 19 -11 77 -16 158c-4 77 -26 98 -73 98h-27l-48 -256h-161zM280 547l-31 -169h44
c63 0 110 46 110 105c0 41 -32 67 -79 67c-20 0 -34 -1 -44 -3zM362 840h172l-139 -130h-131z" />
    <glyph glyph-name="Rcaron" unicode="&#x158;" horiz-adv-x="572" 
d="M15 0l126 661c47 11 114 17 180 17c62 0 130 -7 177 -39c43 -26 74 -69 74 -132c0 -100 -62 -163 -145 -192v-3c36 -18 51 -58 57 -119c7 -68 11 -165 22 -193h-166c-5 19 -11 77 -16 158c-4 77 -26 98 -73 98h-27l-48 -256h-161zM280 547l-31 -169h44
c63 0 110 46 110 105c0 41 -32 67 -79 67c-20 0 -34 -1 -44 -3zM406 710h-119l-76 130h112l31 -59h2l51 59h121z" />
    <glyph glyph-name="Rcommaaccent" unicode="&#x156;" horiz-adv-x="572" 
d="M15 0l127 661c46 11 113 17 179 17c62 0 130 -7 177 -39c43 -26 74 -69 74 -132c0 -100 -62 -163 -145 -192v-3c36 -18 51 -58 57 -119c7 -68 11 -165 22 -193h-166c-5 19 -11 77 -16 158c-4 77 -26 98 -73 98h-27l-48 -256h-161zM280 547l-31 -169h44
c63 0 110 46 110 105c0 41 -33 67 -79 67c-20 0 -34 -1 -44 -3zM149 -242l-17 71c31 7 67 28 67 65c0 20 -9 36 -19 47l117 19c11 -11 25 -35 25 -64c0 -94 -97 -135 -173 -138z" />
    <glyph glyph-name="Sacute" unicode="&#x15a;" horiz-adv-x="487" 
d="M-5 33l50 136c36 -20 88 -36 145 -36c47 -1 88 19 88 60c0 36 -28 55 -81 89c-62 39 -123 92 -123 174c0 141 116 227 267 227c80 0 123 -15 150 -29l-48 -138c-22 11 -64 26 -112 25c-57 0 -87 -25 -87 -59c0 -30 33 -51 86 -86c75 -45 120 -101 120 -172
c0 -159 -127 -233 -271 -233c-96 1 -156 23 -184 42zM343 840h172l-139 -130h-131z" />
    <glyph glyph-name="Scedilla" unicode="&#x15e;" horiz-adv-x="487" 
d="M491 654l-48 -138c-22 11 -64 26 -112 25c-57 0 -87 -25 -87 -59c0 -30 33 -51 86 -86c75 -45 120 -101 120 -172c0 -131 -87 -205 -198 -226l-25 -37c36 -9 61 -36 61 -68c0 -77 -77 -99 -130 -99c-33 0 -63 9 -78 21l26 61c16 -10 36 -16 53 -16c16 0 34 7 34 26
c0 18 -15 32 -70 36l44 69h-5c-45 0 -126 14 -167 42l50 136c36 -20 88 -36 145 -36c47 -1 88 19 88 60c0 36 -28 55 -81 89c-62 39 -123 92 -123 174c0 141 116 227 267 227c80 0 123 -15 150 -29z" />
    <glyph glyph-name="Scircumflex" unicode="&#x15c;" horiz-adv-x="487" 
d="M-5 33l50 136c36 -20 88 -36 145 -36c47 -1 88 19 88 60c0 36 -28 55 -81 89c-62 39 -123 92 -123 174c0 141 116 227 267 227c80 0 123 -15 150 -29l-48 -138c-22 11 -64 26 -112 25c-57 0 -87 -25 -87 -59c0 -30 33 -51 86 -86c75 -45 120 -101 120 -172
c0 -159 -127 -233 -271 -233c-96 1 -156 23 -184 42zM295 840h118l76 -130h-111l-33 56h-2l-50 -56h-122z" />
    <glyph glyph-name="Scommaaccent" unicode="&#x218;" horiz-adv-x="487" 
d="M-5 33l50 136c36 -20 88 -36 145 -36c47 -1 88 19 88 60c0 36 -28 55 -81 89c-62 39 -123 92 -123 174c0 141 116 227 267 227c80 0 123 -15 150 -29l-48 -138c-22 11 -64 26 -112 25c-57 0 -87 -25 -87 -59c0 -30 33 -51 86 -86c75 -45 120 -101 120 -172
c0 -159 -127 -233 -271 -233c-96 1 -156 23 -184 42zM105 -242l-17 72c31 6 67 28 67 64c0 20 -9 36 -19 47l117 19c11 -11 25 -35 25 -63c0 -94 -97 -136 -173 -139z" />
    <glyph glyph-name="Tcaron" unicode="&#x164;" horiz-adv-x="500" 
d="M118 0l100 528h-153l29 146h471l-28 -146h-155l-100 -528h-164zM394 710h-118l-76 130h112l31 -59h2l51 59h122z" />
    <glyph glyph-name="Tcommaaccent" unicode="&#x162;" horiz-adv-x="500" 
d="M118 0l99 528h-153l29 146h471l-28 -146h-155l-100 -528h-163zM104 -242l-17 71c31 7 67 28 67 65c0 20 -9 36 -19 47l117 19c11 -11 25 -35 25 -64c0 -94 -97 -135 -173 -138z" />
    <glyph glyph-name="Ubreve" unicode="&#x16c;" horiz-adv-x="620" 
d="M137 674h164l-76 -397c-5 -24 -8 -50 -8 -76c0 -38 23 -72 72 -72c57 0 94 37 114 145l77 400h163l-73 -387c-37 -192 -115 -297 -300 -297c-142 -1 -216 73 -216 205c0 29 5 65 11 100zM275 837h87c-1 -23 13 -47 48 -47c39 0 56 23 61 47h90
c-12 -72 -58 -127 -160 -127c-97 0 -135 55 -126 127z" />
    <glyph glyph-name="Uhungarumlaut" unicode="&#x170;" horiz-adv-x="620" 
d="M137 674h164l-76 -397c-5 -24 -8 -50 -8 -76c0 -38 23 -72 72 -72c57 0 94 37 114 145l77 400h163l-73 -387c-37 -192 -115 -297 -300 -297c-142 -1 -216 73 -216 205c0 29 5 65 11 100zM314 841h147l-118 -124h-111zM500 841h148l-118 -124h-112z" />
    <glyph glyph-name="Umacron" unicode="&#x16a;" horiz-adv-x="620" 
d="M137 674h164l-76 -397c-5 -24 -8 -50 -8 -76c0 -38 23 -72 72 -72c57 0 94 37 114 145l77 400h163l-73 -387c-37 -192 -115 -297 -300 -297c-142 -1 -216 73 -216 205c0 29 5 65 11 100zM290 823h254l-18 -88h-254z" />
    <glyph glyph-name="Uogonek" unicode="&#x172;" horiz-adv-x="620" 
d="M366 -108l19 -80c-32 -24 -74 -32 -113 -32c-62 0 -98 33 -98 89c0 42 28 89 65 123c-3 0 -8 1 -12 1c-113 11 -173 83 -173 202c0 29 5 65 11 100l72 379h164l-76 -397c-5 -24 -8 -50 -8 -76c0 -38 23 -72 72 -72c57 0 94 37 114 145l76 400h164l-73 -387
c-28 -145 -80 -240 -183 -278c-14 -5 -27 -11 -44 -24c-33 -23 -51 -55 -51 -73c0 -17 12 -27 28 -27c17 0 37 5 46 7z" />
    <glyph glyph-name="Uring" unicode="&#x16e;" horiz-adv-x="620" 
d="M137 674h164l-76 -397c-5 -24 -8 -50 -8 -76c0 -38 23 -72 73 -72c57 0 93 37 114 145l76 400h164l-73 -387c-37 -192 -116 -297 -300 -297c-143 -1 -217 73 -217 205c0 29 5 65 11 100zM408 882c67 0 112 -33 112 -90c-2 -60 -52 -99 -126 -99c-65 0 -109 36 -111 87
c-1 59 49 102 125 102zM402 831c-27 0 -42 -22 -42 -47c0 -21 13 -40 39 -40c29 0 44 20 44 45c0 22 -13 42 -41 42z" />
    <glyph glyph-name="Utilde" unicode="&#x168;" horiz-adv-x="620" 
d="M137 674h164l-76 -397c-5 -24 -8 -50 -8 -76c0 -38 23 -72 73 -72c56 0 93 37 114 145l76 400h164l-74 -387c-36 -192 -115 -297 -300 -297c-142 -1 -216 73 -216 205c0 29 5 65 11 100zM338 717h-79c15 92 56 130 103 130c28 0 46 -9 62 -18c15 -11 27 -20 38 -20
c15 0 23 10 33 44h77c-15 -95 -53 -130 -105 -130c-29 0 -49 9 -63 17c-15 10 -25 18 -38 18c-11 0 -23 -13 -28 -41z" />
    <glyph glyph-name="Wacute" unicode="&#x1e82;" horiz-adv-x="815" 
d="M274 0h-179l-7 674h167l-12 -256c-4 -79 -8 -166 -12 -238h2c24 77 51 153 79 232l94 262h172l-10 -262c-3 -77 -7 -151 -13 -229h2c23 77 48 157 73 232l85 259h168l-272 -674h-179l1 209c1 81 4 164 10 238h-2c-25 -74 -52 -157 -91 -254zM517 840h173l-140 -130h-131z
" />
    <glyph glyph-name="Wcircumflex" unicode="&#x174;" horiz-adv-x="815" 
d="M274 0h-179l-7 674h167l-12 -256c-4 -79 -8 -166 -12 -238h2c24 77 51 153 79 232l94 262h172l-10 -262c-3 -77 -7 -151 -13 -229h2c23 77 48 157 73 232l85 259h168l-272 -674h-179l1 209c1 81 4 164 10 238h-2c-25 -74 -52 -157 -91 -254zM459 840h118l76 -130h-111
l-32 56h-2l-51 -56h-121z" />
    <glyph glyph-name="Wdieresis" unicode="&#x1e84;" horiz-adv-x="815" 
d="M274 0h-179l-7 674h167l-12 -256c-4 -79 -8 -166 -12 -238h2c24 77 51 153 79 232l94 262h172l-10 -262c-3 -77 -7 -151 -13 -229h2c23 77 48 157 73 232l85 259h168l-272 -674h-179l1 209c1 81 4 164 10 238h-2c-25 -74 -52 -157 -91 -254zM402 708c-36 0 -70 28 -70 70
c0 47 36 79 77 79s70 -31 70 -71c0 -46 -36 -78 -77 -78zM610 708c-36 0 -70 28 -70 70c0 47 36 79 77 79s70 -31 70 -71c0 -46 -36 -78 -77 -78z" />
    <glyph glyph-name="Wgrave" unicode="&#x1e80;" horiz-adv-x="815" 
d="M274 0h-179l-7 674h167l-12 -256c-4 -79 -8 -166 -12 -238h2c24 77 51 153 79 232l94 262h172l-10 -262c-3 -77 -7 -151 -13 -229h2c23 77 48 157 73 232l85 259h168l-272 -674h-179l1 209c1 81 4 164 10 238h-2c-25 -74 -52 -157 -91 -254zM323 840h169l75 -128h-129z
" />
    <glyph glyph-name="Ycircumflex" unicode="&#x176;" horiz-adv-x="532" 
d="M288 0h-163l50 264l-112 410h175l26 -149c8 -63 13 -99 17 -134h2c20 41 38 81 63 131l77 152h189l-273 -407zM305 840h118l77 -130h-112l-32 56h-2l-50 -56h-122z" />
    <glyph glyph-name="Ygrave" unicode="&#x1ef2;" horiz-adv-x="532" 
d="M288 0h-163l50 264l-112 410h175l26 -149c8 -63 13 -99 17 -134h2c20 41 38 81 63 131l77 152h189l-273 -407zM175 840h169l75 -128h-129z" />
    <glyph glyph-name="uni0232" unicode="&#x232;" horiz-adv-x="532" 
d="M288 0h-163l50 264l-112 410h175l26 -149c8 -63 13 -99 17 -134h2c20 41 38 81 63 131l77 152h189l-273 -407zM246 823h253l-18 -88h-253z" />
    <glyph glyph-name="Zacute" unicode="&#x179;" horiz-adv-x="512" 
d="M-31 0l18 96l338 433v3h-230l28 142h439l-21 -110l-327 -419v-3h250l-27 -142h-468zM361 840h172l-139 -130h-132z" />
    <glyph glyph-name="Zdotaccent" unicode="&#x17b;" horiz-adv-x="512" 
d="M-31 0l18 96l337 433v3h-229l28 142h439l-21 -110l-327 -419v-3h250l-27 -142h-468zM345 708c-38 0 -73 29 -73 72c0 47 37 80 80 80s73 -32 73 -72c0 -47 -37 -80 -80 -80z" />
    <glyph glyph-name="AEacute" unicode="&#x1fc;" horiz-adv-x="786" 
d="M118 0h-171l374 674h481l-25 -140h-227l-11 -126h216l-24 -138h-198l-10 -129h227l-25 -141h-369l12 164h-169zM269 297h106l15 152c2 32 5 68 9 104h-3c-19 -41 -41 -88 -54 -117zM526 840h172l-140 -130h-131z" />
    <glyph glyph-name="abreve" unicode="&#x103;" horiz-adv-x="531" 
d="M451 0h-147c2 28 3 55 4 83h-3c-39 -69 -96 -93 -144 -93c-86 0 -141 68 -141 168c0 159 94 344 337 344c61 0 125 -12 166 -26l-53 -261c-10 -54 -20 -154 -19 -215zM318 262l23 115c-11 2 -22 3 -29 3c-77 0 -124 -122 -124 -190c0 -42 15 -68 44 -68
c30 0 66 33 86 140zM220 689h78c3 -29 11 -52 43 -52c37 0 52 27 57 52h82c-12 -81 -60 -132 -146 -132c-89 0 -124 53 -114 132z" />
    <glyph glyph-name="amacron" unicode="&#x101;" horiz-adv-x="531" 
d="M451 0h-147c2 28 3 55 4 83h-3c-39 -69 -96 -93 -144 -93c-86 0 -141 68 -141 168c0 159 94 344 337 344c61 0 125 -12 166 -26l-53 -261c-10 -54 -20 -154 -19 -215zM318 262l23 115c-11 2 -22 3 -29 3c-77 0 -124 -122 -124 -190c0 -42 15 -68 44 -68
c30 0 66 33 86 140zM233 667h243l-18 -85h-243z" />
    <glyph glyph-name="aogonek" unicode="&#x105;" horiz-adv-x="531" 
d="M524 476l-51 -261c-10 -54 -20 -154 -19 -215h-44c-23 -24 -41 -59 -41 -82c0 -20 14 -32 36 -32s41 5 51 8l12 -79c-31 -25 -73 -35 -111 -35c-66 0 -104 33 -104 95c0 50 34 100 54 127c2 27 3 54 4 81h-3c-41 -69 -98 -93 -146 -93c-86 0 -141 68 -141 168
c0 159 94 344 338 344c61 0 125 -12 165 -26zM320 262l22 115c-11 2 -21 3 -28 3c-77 0 -125 -122 -125 -190c0 -42 15 -68 44 -68c31 0 68 33 87 140z" />
    <glyph glyph-name="a.superior" horiz-adv-x="390" 
d="M361 267h-103v46h-1c-27 -37 -62 -53 -101 -53c-54 0 -94 41 -94 114c0 109 67 216 220 216c49 0 94 -11 121 -21l-35 -202c-6 -35 -7 -75 -7 -100zM262 398l17 104c-8 4 -16 5 -24 5c-52 0 -77 -72 -77 -110c0 -28 12 -47 35 -47s42 24 49 48z" />
    <glyph glyph-name="cacute" unicode="&#x107;" horiz-adv-x="403" 
d="M352 137l-5 -125c-28 -13 -72 -21 -124 -21c-117 0 -199 75 -199 198c0 181 133 312 312 312c38 0 68 -5 90 -12l-39 -127c-16 5 -32 8 -53 8c-83 0 -140 -73 -140 -162c0 -59 37 -86 77 -86c34 0 59 7 81 15zM317 701h153l-128 -151h-117z" />
    <glyph glyph-name="ccaron" unicode="&#x10d;" horiz-adv-x="403" 
d="M352 137l-5 -125c-28 -13 -72 -21 -124 -21c-117 0 -199 75 -199 198c0 181 133 312 312 312c38 0 68 -5 90 -12l-39 -127c-16 5 -32 8 -53 8c-83 0 -140 -73 -140 -162c0 -59 37 -86 77 -86c34 0 59 7 81 15zM344 550h-108l-73 151h103l33 -71h2l52 71h111z" />
    <glyph glyph-name="ccircumflex" unicode="&#x109;" horiz-adv-x="403" 
d="M352 137l-5 -125c-28 -13 -72 -21 -124 -21c-117 0 -199 75 -199 198c0 181 133 312 312 312c38 0 68 -5 90 -12l-39 -127c-16 5 -32 8 -53 8c-83 0 -140 -73 -140 -162c0 -59 37 -86 77 -86c34 0 59 7 81 15zM250 701h108l72 -151h-102l-34 71h-2l-51 -71h-111z" />
    <glyph glyph-name="cdotaccent" unicode="&#x10b;" horiz-adv-x="403" 
d="M353 137l-6 -125c-27 -13 -72 -21 -124 -21c-117 0 -199 75 -199 198c0 181 133 312 313 312c38 0 68 -5 89 -12l-39 -127c-16 5 -31 8 -52 8c-83 0 -141 -73 -141 -162c0 -59 37 -86 77 -86c35 0 60 7 82 15zM304 547c-39 0 -73 28 -73 74c0 49 36 82 81 82
c43 0 73 -31 73 -74c0 -50 -36 -82 -81 -82z" />
    <glyph glyph-name="dcaron" unicode="&#x10f;" horiz-adv-x="542" 
d="M408 705h164l-98 -514c-13 -63 -21 -132 -25 -191h-145l5 72h-2c-39 -60 -95 -82 -143 -82c-78 0 -143 61 -143 179c0 170 112 333 293 333c16 0 35 -3 53 -10zM318 225l27 141c-8 7 -24 13 -40 13c-70 0 -116 -105 -116 -182c0 -54 23 -75 51 -75c30 0 62 32 78 103z
M624 497l-54 61c30 24 48 63 48 100c0 18 -3 30 -9 41l108 19c11 -12 21 -37 21 -62c0 -73 -64 -133 -114 -159z" />
    <glyph glyph-name="ebreve" unicode="&#x115;" horiz-adv-x="487" 
d="M407 145l8 -119c-60 -28 -127 -35 -181 -35c-140 0 -210 77 -210 205c0 149 100 306 279 306c101 0 170 -61 171 -153c0 -128 -111 -179 -295 -173c1 -12 7 -24 17 -34c17 -15 44 -25 81 -25c48 0 90 9 130 28zM324 346c0 19 -14 34 -40 34c-55 0 -84 -46 -90 -85
c91 -2 130 16 130 51zM195 689h80c3 -29 11 -52 43 -52c36 0 51 27 57 52h82c-12 -81 -60 -132 -146 -132c-90 0 -125 53 -116 132z" />
    <glyph glyph-name="ecaron" unicode="&#x11b;" horiz-adv-x="487" 
d="M407 145l8 -119c-60 -28 -127 -35 -181 -35c-140 0 -210 77 -210 205c0 149 100 306 279 306c101 0 170 -61 171 -153c0 -128 -111 -179 -295 -173c1 -12 7 -24 17 -34c17 -15 44 -25 81 -25c48 0 90 9 130 28zM324 346c0 19 -14 34 -40 34c-55 0 -84 -46 -90 -85
c91 -2 130 16 130 51zM362 550h-109l-73 151h103l34 -71h2l51 71h111z" />
    <glyph glyph-name="edotaccent" unicode="&#x117;" horiz-adv-x="487" 
d="M407 145l8 -119c-60 -28 -127 -35 -181 -35c-140 0 -210 77 -210 205c0 149 100 306 279 306c101 0 170 -61 171 -153c0 -128 -111 -179 -295 -173c1 -12 7 -24 17 -34c17 -15 44 -25 81 -25c48 0 90 9 130 28zM324 346c0 19 -14 34 -40 34c-55 0 -84 -46 -90 -85
c91 -2 130 16 130 51zM311 547c-39 0 -73 28 -73 74c0 49 36 82 81 82c43 0 73 -31 73 -74c0 -50 -36 -82 -81 -82z" />
    <glyph glyph-name="emacron" unicode="&#x113;" horiz-adv-x="487" 
d="M407 145l8 -119c-60 -28 -127 -35 -181 -35c-140 0 -210 77 -210 205c0 149 100 306 279 306c101 0 170 -61 171 -153c0 -128 -111 -179 -295 -173c1 -12 7 -24 17 -34c17 -15 44 -25 81 -25c48 0 90 9 130 28zM324 346c0 19 -14 34 -40 34c-55 0 -84 -46 -90 -85
c91 -2 130 16 130 51zM201 667h244l-18 -85h-244z" />
    <glyph glyph-name="eogonek" unicode="&#x119;" horiz-adv-x="487" 
d="M324 346c0 19 -14 34 -41 34c-54 0 -83 -46 -89 -85c91 -2 130 16 130 51zM340 -106l20 -79c-35 -25 -77 -35 -116 -35c-62 0 -96 33 -96 87c0 45 32 92 79 123v1c-7 0 -13 0 -20 1c-122 10 -183 84 -183 204c0 149 100 306 279 306c101 0 171 -61 171 -153
c0 -128 -111 -179 -295 -173c1 -12 7 -24 17 -34c17 -15 44 -25 81 -25c48 0 90 9 130 28l8 -120c-15 -7 -30 -12 -64 -24c-66 -39 -85 -69 -85 -89c0 -18 12 -27 28 -27c18 0 38 6 46 9z" />
    <glyph glyph-name="gbreve" unicode="&#x11f;" horiz-adv-x="536" 
d="M7 -179l37 124c25 -14 80 -23 114 -23c68 0 113 33 128 109l7 35h-2c-35 -42 -72 -61 -122 -61c-90 0 -144 74 -145 166c-2 159 107 331 319 331c71 0 129 -12 180 -34l-74 -408c-16 -83 -43 -162 -100 -209c-52 -42 -122 -57 -194 -57c-59 0 -118 11 -148 27zM321 236
l26 136c-8 4 -22 5 -34 5c-68 0 -119 -97 -119 -176c0 -42 17 -71 48 -71c35 0 68 43 79 106zM220 689h79c3 -29 11 -52 44 -52c36 0 51 27 56 52h82c-12 -81 -60 -132 -146 -132c-90 0 -124 53 -115 132z" />
    <glyph glyph-name="gcircumflex" unicode="&#x11d;" horiz-adv-x="536" 
d="M7 -179l37 124c25 -14 80 -23 114 -23c68 0 113 33 128 109l7 35h-2c-35 -42 -72 -61 -122 -61c-90 0 -144 74 -145 166c-2 159 107 331 319 331c71 0 129 -12 180 -34l-74 -408c-16 -83 -43 -162 -100 -209c-52 -42 -122 -57 -194 -57c-59 0 -118 11 -148 27zM321 236
l26 136c-8 4 -22 5 -34 5c-68 0 -119 -97 -119 -176c0 -42 17 -71 48 -71c35 0 68 43 79 106zM296 701h108l73 -151h-103l-33 71h-2l-52 -71h-111z" />
    <glyph glyph-name="gcommaaccent" unicode="&#x123;" horiz-adv-x="536" 
d="M7 -179l37 124c25 -14 80 -23 114 -23c68 0 113 33 129 109l6 35h-2c-34 -42 -72 -61 -122 -61c-90 0 -144 74 -145 166c-2 159 107 331 319 331c71 0 129 -12 181 -34l-75 -408c-15 -83 -43 -162 -100 -209c-52 -42 -122 -57 -194 -57c-59 0 -118 11 -148 27zM322 236
l25 136c-8 4 -22 5 -33 5c-69 0 -120 -97 -120 -176c0 -42 17 -71 48 -71c35 0 67 43 80 106zM446 732l15 -72c-36 -5 -72 -26 -72 -64c0 -20 9 -36 19 -47l-112 -19c-11 12 -25 35 -25 64c0 94 97 135 175 138z" />
    <glyph glyph-name="gdotaccent" unicode="&#x121;" horiz-adv-x="536" 
d="M7 -179l37 124c25 -14 80 -23 114 -23c68 0 113 33 129 109l6 35h-2c-34 -42 -72 -61 -122 -61c-90 0 -144 74 -145 166c-2 159 107 331 319 331c71 0 129 -12 181 -34l-75 -408c-16 -83 -43 -162 -100 -209c-52 -42 -122 -57 -194 -57c-59 0 -118 11 -148 27zM322 236
l25 136c-8 4 -22 5 -33 5c-69 0 -120 -97 -120 -176c0 -42 17 -71 48 -71c35 0 68 43 80 106zM343 547c-39 0 -73 28 -73 74c0 49 36 82 81 82c43 0 73 -31 73 -74c0 -50 -36 -82 -81 -82z" />
    <glyph glyph-name="g_tildecomb" unicode="&#xe005;" horiz-adv-x="536" 
d="M7 -179l37 124c25 -14 80 -23 114 -23c68 0 113 33 128 109l7 35h-2c-35 -42 -72 -61 -122 -61c-90 0 -144 74 -145 166c-2 159 107 331 319 331c71 0 128 -12 180 -34l-75 -408c-15 -83 -42 -162 -99 -209c-52 -42 -122 -57 -194 -57c-59 0 -118 11 -148 27zM321 236
l26 136c-8 4 -22 5 -33 5c-69 0 -120 -97 -120 -176c0 -42 17 -71 48 -71c35 0 68 43 79 106zM271 556h-77c12 83 46 133 100 133c28 0 45 -10 59 -19c15 -10 27 -20 36 -20c13 0 20 8 30 43h74c-14 -93 -49 -129 -100 -129c-26 0 -48 8 -61 18c-15 12 -25 19 -35 19
c-11 0 -21 -18 -26 -45z" />
    <glyph glyph-name="hcircumflex" unicode="&#x125;" horiz-adv-x="542" 
d="M167 0h-163l133 705h164l-51 -268h2c36 37 82 65 141 65c78 0 114 -52 114 -128c0 -23 -5 -61 -10 -94l-54 -280h-163l51 269c4 20 6 43 6 59c0 25 -9 42 -34 42c-37 0 -74 -48 -91 -135zM194 866h118l76 -130h-111l-32 56h-2l-51 -56h-121z" />
    <glyph glyph-name="ibreve" unicode="&#x12d;" horiz-adv-x="267" 
d="M167 0h-164l94 492h163zM85 689h79c3 -29 11 -52 43 -52c37 0 52 27 57 52h82c-12 -81 -60 -132 -146 -132c-90 0 -124 53 -115 132z" />
    <glyph glyph-name="imacron" unicode="&#x12b;" horiz-adv-x="267" 
d="M167 0h-164l93 492h164zM91 667h243l-18 -85h-243z" />
    <glyph glyph-name="iogonek" unicode="&#x12f;" horiz-adv-x="267" 
d="M195 547c-49 0 -81 34 -81 85c0 55 43 99 98 99c52 0 85 -34 85 -84c0 -64 -48 -100 -102 -100zM260 492l-93 -492h-71c-17 -24 -30 -56 -30 -77c0 -23 15 -37 39 -37c19 0 38 5 47 8l12 -79c-30 -25 -72 -35 -110 -35c-66 0 -104 33 -104 95c0 50 34 100 54 126l93 491
h163z" />
    <glyph glyph-name="itilde" unicode="&#x129;" horiz-adv-x="267" 
d="M167 0h-164l93 492h165zM136 556h-77c12 83 46 133 100 133c28 0 45 -10 60 -19c14 -10 26 -20 36 -20c13 0 20 8 30 43h74c-14 -93 -49 -129 -100 -129c-26 0 -48 8 -62 18c-14 12 -25 19 -35 19c-11 0 -21 -18 -26 -45z" />
    <glyph glyph-name="jcircumflex" unicode="&#x135;" horiz-adv-x="274" 
d="M109 492h163l-86 -461c-17 -88 -37 -139 -66 -175c-32 -41 -87 -62 -147 -62c-22 0 -47 2 -71 7l18 123c10 -2 17 -2 27 -2c33 0 58 16 74 103zM161 701h100l73 -151h-99l-33 78h-2l-52 -78h-107z" />
    <glyph glyph-name="kcommaaccent" unicode="&#x137;" horiz-adv-x="518" 
d="M165 0h-161l133 705h162l-78 -411h2c14 20 27 40 41 59l96 139h194l-191 -209l112 -283h-178l-60 197l-43 -47zM121 -242l-17 71c31 7 67 28 67 65c0 20 -9 36 -19 47l117 19c11 -11 25 -35 25 -64c0 -94 -97 -135 -173 -138z" />
    <glyph glyph-name="lacute" unicode="&#x13a;" horiz-adv-x="267" 
d="M168 0h-164l135 705h163zM249 872h172l-139 -130h-132z" />
    <glyph glyph-name="lcaron" unicode="&#x13e;" horiz-adv-x="272" 
d="M168 0h-164l135 705h164zM362 498l-55 57c24 22 47 64 47 103c0 18 -3 30 -9 41l108 19c11 -12 21 -37 21 -62c0 -83 -69 -140 -112 -158z" />
    <glyph glyph-name="lcommaaccent" unicode="&#x13c;" horiz-adv-x="267" 
d="M167 0h-163l134 705h164zM-10 -242l-17 71c31 7 67 28 67 65c0 20 -9 36 -19 47l117 19c11 -11 25 -35 25 -64c0 -94 -97 -135 -173 -138z" />
    <glyph glyph-name="ldot" unicode="&#x140;" horiz-adv-x="385" 
d="M168 0h-164l135 705h163zM338 270c-37 0 -69 28 -69 72c0 48 34 80 76 80c41 0 69 -30 69 -72c0 -49 -34 -80 -76 -80z" />
    <glyph glyph-name="m_uni0302" unicode="&#xe006;" horiz-adv-x="793" 
d="M163 0h-159l61 328c11 61 19 117 26 164h140l-7 -72h2c41 57 96 82 157 82c69 0 102 -44 107 -82c40 55 97 82 156 82c78 0 113 -51 113 -127c0 -20 -5 -61 -10 -90l-53 -285h-160l50 268c4 22 7 43 7 62c0 24 -11 41 -34 41c-36 0 -71 -52 -89 -147l-43 -224h-157
l50 268c4 21 7 41 7 59c0 26 -9 44 -31 44c-36 0 -75 -54 -92 -147zM424 701h108l73 -151h-103l-33 71h-2l-52 -71h-111z" />
    <glyph glyph-name="nacute" unicode="&#x144;" horiz-adv-x="542" 
d="M167 0h-163l61 328c13 61 21 117 28 164h143l-7 -70h2c43 55 98 80 157 80c85 0 119 -54 119 -128c0 -24 -5 -61 -9 -88l-55 -286h-163l52 277c3 16 5 33 5 49c0 26 -8 44 -33 44c-36 0 -76 -47 -95 -147zM353 701h152l-127 -151h-117z" />
    <glyph glyph-name="ncaron" unicode="&#x148;" horiz-adv-x="542" 
d="M167 0h-163l61 328c13 61 21 117 28 164h143l-7 -70h2c43 55 98 80 157 80c85 0 119 -54 119 -128c0 -24 -5 -61 -9 -88l-55 -286h-163l52 277c3 16 5 33 5 49c0 26 -8 44 -33 44c-36 0 -76 -47 -95 -147zM369 550h-109l-73 151h103l34 -71h2l51 71h111z" />
    <glyph glyph-name="n_uni0302" unicode="&#xe007;" horiz-adv-x="542" 
d="M167 0h-163l61 328c13 61 21 117 28 164h143l-7 -70h2c43 55 98 80 157 80c85 0 119 -54 119 -128c0 -24 -5 -61 -9 -88l-55 -286h-163l52 277c3 16 5 33 5 49c0 26 -8 44 -33 44c-36 0 -76 -47 -95 -147zM299 701h108l73 -151h-103l-33 71h-2l-52 -71h-111z" />
    <glyph glyph-name="ncommaaccent" unicode="&#x146;" horiz-adv-x="542" 
d="M167 0h-163l61 328c13 61 21 117 28 164h143l-7 -70h2c43 55 98 80 157 80c85 0 119 -54 119 -128c0 -24 -5 -61 -9 -88l-55 -286h-163l52 277c3 16 5 33 5 49c0 26 -8 44 -33 44c-36 0 -76 -47 -95 -147zM134 -242l-18 71c31 7 67 28 67 65c0 20 -9 36 -19 47l117 19
c11 -11 25 -35 25 -64c0 -94 -97 -135 -172 -138z" />
    <glyph glyph-name="obreve" unicode="&#x14f;" horiz-adv-x="534" 
d="M225 -10c-129 0 -200 85 -200 194c0 175 115 318 287 318c133 0 197 -93 197 -195c0 -183 -118 -317 -284 -317zM247 114c63 0 95 122 95 198c0 36 -14 66 -53 66c-65 0 -98 -124 -97 -190c0 -42 16 -74 55 -74zM220 689h79c3 -29 11 -52 43 -52c36 0 51 27 57 52h82
c-12 -81 -60 -132 -146 -132c-90 0 -125 53 -115 132z" />
    <glyph glyph-name="ohungarumlaut" unicode="&#x151;" horiz-adv-x="534" 
d="M225 -10c-129 0 -200 85 -200 194c0 175 115 318 287 318c133 0 197 -93 197 -195c0 -183 -118 -317 -284 -317zM247 114c63 0 95 122 95 198c0 36 -14 66 -53 66c-65 0 -98 -124 -97 -190c0 -42 16 -74 55 -74zM249 701h133l-118 -152h-94zM427 701h133l-118 -152h-94z
" />
    <glyph glyph-name="omacron" unicode="&#x14d;" horiz-adv-x="534" 
d="M225 -10c-129 0 -200 85 -200 194c0 175 115 318 287 318c133 0 197 -93 197 -195c0 -183 -118 -317 -284 -317zM247 114c63 0 95 122 95 198c0 36 -14 66 -53 66c-65 0 -98 -124 -97 -190c0 -42 16 -74 55 -74zM225 667h244l-18 -85h-244z" />
    <glyph glyph-name="oslashacute" unicode="&#x1ff;" horiz-adv-x="534" 
d="M53 -58l-44 44l60 73c-28 32 -44 70 -44 129c0 172 116 314 284 314c41 0 76 -8 105 -25l61 71l48 -41l-59 -72c32 -40 44 -85 44 -129c0 -193 -126 -316 -275 -316c-52 0 -87 9 -116 28zM192 194l132 173c-8 12 -19 17 -37 17c-62 0 -93 -102 -96 -153
c-1 -11 -2 -24 -2 -35zM340 292l-130 -165c7 -13 19 -19 37 -19c60 0 91 85 95 147c1 11 2 24 2 37h-4zM347 701h153l-128 -151h-117z" />
    <glyph glyph-name="racute" unicode="&#x155;" horiz-adv-x="368" 
d="M167 0h-164l57 298c13 71 19 150 25 194h141c-2 -31 -4 -61 -7 -93h3c37 65 89 103 148 103c10 0 18 -1 27 -2l-32 -160c-6 1 -15 1 -23 1c-85 0 -124 -71 -141 -159zM256 701h153l-128 -151h-117z" />
    <glyph glyph-name="rcaron" unicode="&#x159;" horiz-adv-x="368" 
d="M167 0h-164l57 298c13 71 19 150 25 194h141c-2 -31 -4 -61 -7 -93h3c37 65 89 103 148 103c10 0 18 -1 27 -2l-32 -160c-6 1 -15 1 -23 1c-85 0 -124 -71 -141 -159zM297 550h-109l-72 151h102l34 -71h2l51 71h112z" />
    <glyph glyph-name="rcommaaccent" unicode="&#x157;" horiz-adv-x="368" 
d="M167 0h-164l57 298c13 71 19 150 25 194h141c-2 -31 -4 -61 -7 -93h3c37 65 89 103 148 103c10 0 18 -1 27 -2l-32 -160c-6 1 -15 1 -23 1c-85 0 -124 -71 -141 -159zM9 -242l-16 71c31 7 67 28 67 65c0 20 -9 36 -19 47l117 19c11 -11 25 -35 25 -64
c0 -94 -97 -135 -174 -138z" />
    <glyph glyph-name="sacute" unicode="&#x15b;" horiz-adv-x="404" 
d="M-10 26l39 114c27 -14 74 -32 120 -31c33 0 48 15 48 34s-14 33 -55 55c-54 30 -96 71 -96 129c0 104 90 175 221 175c58 0 101 -11 125 -24l-36 -114c-20 9 -52 19 -91 19c-33 0 -55 -12 -55 -35c0 -15 16 -29 50 -46c56 -32 105 -73 105 -135
c0 -114 -94 -177 -229 -176c-61 1 -118 16 -146 35zM269 701h153l-128 -151h-116z" />
    <glyph glyph-name="scedilla" unicode="&#x15f;" horiz-adv-x="404" 
d="M392 478l-36 -114c-20 9 -52 19 -91 19c-33 0 -55 -12 -55 -35c0 -15 16 -29 50 -46c56 -31 105 -73 105 -135c0 -92 -60 -151 -154 -170l-25 -36c36 -8 61 -36 61 -65c0 -76 -77 -99 -130 -99c-33 0 -63 9 -78 21l26 58c16 -9 36 -15 53 -15c16 0 34 7 34 26
c0 18 -15 32 -70 36l44 68h-4c-41 0 -105 16 -132 35l39 114c27 -14 74 -32 120 -31c33 0 48 15 48 34s-14 33 -55 55c-54 30 -96 71 -96 129c0 104 90 175 221 175c58 0 101 -11 125 -24z" />
    <glyph glyph-name="scircumflex" unicode="&#x15d;" horiz-adv-x="404" 
d="M-10 26l39 114c27 -14 74 -32 120 -31c33 0 48 15 48 34s-14 33 -55 55c-54 30 -96 71 -96 129c0 104 90 175 221 175c58 0 101 -11 125 -24l-36 -114c-20 9 -52 19 -91 19c-33 0 -55 -12 -55 -35c0 -15 16 -29 50 -46c56 -32 105 -73 105 -135
c0 -114 -94 -177 -229 -176c-61 1 -118 16 -146 35zM226 701h108l72 -151h-102l-34 71h-2l-51 -71h-111z" />
    <glyph glyph-name="scommaaccent" unicode="&#x219;" horiz-adv-x="404" 
d="M-10 26l39 114c27 -14 74 -32 120 -31c33 0 48 15 48 34s-14 33 -55 55c-54 30 -96 71 -96 129c0 104 90 175 221 175c58 0 101 -11 125 -24l-36 -114c-20 9 -52 19 -91 19c-33 0 -55 -12 -55 -35c0 -15 16 -29 50 -46c56 -32 105 -73 105 -135
c0 -114 -94 -177 -229 -176c-61 1 -118 16 -146 35zM60 -242l-18 72c31 6 67 27 67 64c0 20 -9 36 -19 47l117 19c11 -11 25 -35 25 -63c0 -95 -97 -136 -172 -139z" />
    <glyph glyph-name="tcaron" unicode="&#x165;" horiz-adv-x="345" 
d="M129 583l169 46l-25 -137h97l-23 -121h-98l-31 -156c-3 -15 -6 -37 -6 -49c0 -25 12 -40 40 -40c10 0 25 0 38 1l-21 -125c-21 -8 -59 -11 -91 -11c-90 0 -134 45 -134 113c0 25 3 52 10 85l35 182h-59l23 121h59zM378 533l-36 66c22 12 35 39 35 62c0 19 -5 35 -13 48
l106 18c14 -12 27 -39 27 -64c0 -82 -78 -123 -119 -130z" />
    <glyph glyph-name="tcommaaccent" unicode="&#x163;" horiz-adv-x="345" 
d="M129 583l169 47l-25 -138h97l-23 -121h-98l-31 -156c-3 -15 -6 -37 -6 -49c0 -25 12 -40 40 -40c11 0 25 0 39 1l-22 -125c-21 -8 -59 -11 -91 -11c-90 0 -134 45 -134 113c0 25 3 52 10 85l35 182h-59l23 121h59zM35 -242l-17 72c31 6 67 27 67 64c0 20 -9 36 -19 47
l117 19c11 -11 25 -35 25 -63c0 -95 -97 -136 -173 -139z" />
    <glyph glyph-name="ubreve" unicode="&#x16d;" horiz-adv-x="540" 
d="M369 492h163l-62 -328c-12 -61 -20 -117 -27 -164h-143l6 70l-2 1c-48 -59 -102 -81 -156 -81c-80 0 -116 50 -116 130c0 30 4 63 11 100l52 272h163l-49 -261c-5 -24 -8 -49 -8 -68c0 -22 9 -41 34 -41c38 0 73 47 89 132zM218 689h80c3 -29 11 -52 43 -52
c36 0 51 27 57 52h82c-12 -81 -60 -132 -146 -132c-90 0 -125 53 -116 132z" />
    <glyph glyph-name="uhungarumlaut" unicode="&#x171;" horiz-adv-x="540" 
d="M369 492h163l-62 -328c-12 -61 -20 -117 -27 -164h-143l6 70l-2 1c-48 -59 -102 -81 -156 -81c-80 0 -116 50 -116 130c0 30 4 63 11 100l52 272h163l-49 -261c-5 -24 -8 -49 -8 -68c0 -22 9 -41 34 -41c38 0 73 47 89 132zM254 701h133l-118 -152h-94zM432 701h132
l-117 -152h-94z" />
    <glyph glyph-name="umacron" unicode="&#x16b;" horiz-adv-x="540" 
d="M369 492h163l-62 -328c-12 -61 -20 -117 -27 -164h-143l6 70l-2 1c-48 -59 -102 -81 -156 -81c-80 0 -116 50 -116 130c0 30 4 63 11 100l52 272h163l-49 -261c-5 -24 -8 -49 -8 -68c0 -22 9 -41 34 -41c38 0 73 47 89 132zM228 667h244l-18 -85h-244z" />
    <glyph glyph-name="uogonek" unicode="&#x173;" horiz-adv-x="540" 
d="M532 492l-62 -328c-11 -61 -20 -117 -27 -164h-51c-17 -24 -30 -56 -30 -77c0 -23 15 -37 40 -37c19 0 37 5 47 8l12 -79c-31 -25 -73 -35 -111 -35c-66 0 -104 33 -104 95c0 50 34 100 55 127l5 68l-2 1c-48 -59 -102 -81 -156 -81c-80 0 -116 50 -116 130
c0 30 4 63 11 100l52 272h163l-49 -261c-5 -24 -8 -49 -8 -68c0 -22 9 -41 34 -41c38 0 73 47 89 132l45 238h163z" />
    <glyph glyph-name="uring" unicode="&#x16f;" horiz-adv-x="540" 
d="M369 492h163l-62 -328c-12 -61 -20 -117 -27 -164h-143l6 70l-2 1c-48 -59 -102 -81 -156 -81c-80 0 -116 50 -116 130c0 30 4 63 11 100l52 272h163l-49 -261c-5 -24 -8 -49 -8 -68c0 -22 9 -41 34 -41c38 0 73 47 89 132zM351 737c62 0 109 -33 109 -94
c-2 -64 -53 -103 -123 -103c-61 0 -107 35 -109 91c-2 63 48 106 123 106zM345 684c-29 0 -44 -24 -44 -49c0 -20 12 -42 40 -42c31 0 46 24 46 47c0 22 -11 44 -42 44z" />
    <glyph glyph-name="utilde" unicode="&#x169;" horiz-adv-x="540" 
d="M369 492h163l-62 -328c-12 -61 -20 -117 -27 -164h-143l6 70l-2 1c-48 -59 -102 -81 -156 -81c-80 0 -116 50 -116 130c0 30 4 63 11 100l52 272h163l-49 -261c-5 -24 -8 -49 -8 -68c0 -22 9 -41 34 -41c38 0 73 47 89 132zM273 556h-77c12 83 46 133 100 133
c28 0 45 -10 60 -19c14 -10 27 -20 36 -20c13 0 20 8 30 43h74c-14 -93 -49 -129 -100 -129c-26 0 -48 8 -61 18c-15 12 -26 19 -36 19c-11 0 -21 -18 -26 -45z" />
    <glyph glyph-name="wacute" unicode="&#x1e83;" horiz-adv-x="706" 
d="M48 492h167l-10 -184c-3 -60 -5 -106 -11 -166h3c17 59 37 106 58 159l78 191h131l2 -184c0 -64 1 -106 -3 -166h2c16 60 32 107 54 173l63 177h162l-231 -492h-151l-6 134c-2 51 -1 102 1 168h-3c-25 -75 -38 -117 -57 -162l-59 -140h-152zM425 701h153l-128 -151h-117z
" />
    <glyph glyph-name="wcircumflex" unicode="&#x175;" horiz-adv-x="706" 
d="M48 492h167l-10 -184c-3 -60 -5 -106 -11 -166h3c17 59 37 106 58 159l79 191h130l2 -184c1 -64 1 -106 -3 -166h2c16 60 32 107 54 173l63 177h163l-232 -492h-151l-6 134c-2 51 -1 102 1 168h-3c-25 -75 -38 -117 -57 -162l-59 -140h-152zM381 701h108l73 -151h-103
l-33 71h-2l-52 -71h-111z" />
    <glyph glyph-name="wdieresis" unicode="&#x1e85;" horiz-adv-x="706" 
d="M48 492h167l-10 -184c-3 -60 -5 -106 -10 -166h2c18 59 38 106 59 159l78 191h130l2 -184c1 -64 1 -106 -3 -166h3c15 60 32 107 53 173l63 177h163l-231 -492h-152l-5 134c-2 51 -1 102 0 168h-2c-26 -75 -39 -117 -58 -162l-59 -140h-152zM315 548c-38 0 -72 28 -72 74
c0 49 36 81 81 81c43 0 72 -31 72 -74c0 -50 -36 -81 -81 -81zM520 548c-38 0 -72 28 -72 74c0 49 36 81 80 81c43 0 72 -31 72 -74c0 -50 -35 -81 -80 -81z" />
    <glyph glyph-name="wgrave" unicode="&#x1e81;" horiz-adv-x="706" 
d="M48 492h167l-10 -184c-3 -60 -5 -106 -11 -166h3c17 59 37 106 58 159l78 191h131l2 -184c0 -64 1 -106 -3 -166h2c16 60 32 107 54 173l63 177h162l-231 -492h-151l-6 134c-2 51 -1 102 1 168h-3c-25 -75 -38 -117 -57 -162l-59 -140h-152zM257 701h150l66 -151h-114z
" />
    <glyph glyph-name="ycircumflex" unicode="&#x177;" horiz-adv-x="485" 
d="M42 492h173l14 -201c5 -48 8 -83 10 -113h2c9 33 18 63 38 117l70 197h170l-167 -356c-65 -133 -126 -225 -189 -283c-49 -46 -110 -70 -141 -76l-43 138c23 8 51 20 75 36c31 21 56 45 70 71c3 7 4 12 2 23zM265 701h108l72 -151h-102l-34 71h-2l-51 -71h-111z" />
    <glyph glyph-name="ygrave" unicode="&#x1ef3;" horiz-adv-x="485" 
d="M42 492h173l14 -201c5 -48 8 -83 10 -113h2c9 33 18 63 38 117l70 197h170l-167 -356c-65 -133 -126 -225 -189 -283c-49 -46 -110 -70 -141 -76l-43 138c23 8 51 20 75 36c31 21 56 45 70 71c3 7 4 12 2 23zM151 701h150l66 -151h-114z" />
    <glyph glyph-name="uni0233" unicode="&#x233;" horiz-adv-x="485" 
d="M42 492h173l14 -201c5 -48 8 -83 10 -113h2c9 33 18 63 38 117l70 197h170l-167 -356c-65 -133 -126 -225 -189 -283c-49 -46 -110 -70 -141 -76l-43 138c23 8 51 20 75 36c31 21 56 45 70 71c3 7 4 12 2 23zM200 667h244l-18 -85h-244z" />
    <glyph glyph-name="zacute" unicode="&#x17a;" horiz-adv-x="424" 
d="M-29 0l18 102l125 144c39 44 64 69 112 111l2 2h-175l26 133h363l-19 -107l-121 -138c-44 -51 -72 -78 -112 -112v-2h194l-27 -133h-386zM290 701h153l-129 -151h-116z" />
    <glyph glyph-name="zdotaccent" unicode="&#x17c;" horiz-adv-x="424" 
d="M-29 0l18 102l125 144c39 44 64 69 112 111l1 2h-175l27 133h363l-19 -107l-121 -138c-44 -51 -72 -78 -112 -112l-1 -2h194l-26 -133h-386zM275 547c-39 0 -73 28 -73 74c0 49 36 82 81 82c43 0 73 -31 73 -74c0 -50 -36 -82 -81 -82z" />
    <glyph glyph-name="aeacute" unicode="&#x1fd;" horiz-adv-x="732" 
d="M655 144l3 -117c-57 -30 -127 -37 -178 -37c-66 0 -127 27 -156 78h-3c-39 -47 -97 -78 -172 -78c-89 0 -148 60 -148 137c0 149 167 202 294 200l2 12c4 19 -16 48 -69 48c-54 0 -101 -21 -132 -40l-23 105c41 25 107 50 175 50c69 0 119 -24 143 -70h3
c35 42 92 70 161 70c113 0 165 -71 165 -140c0 -135 -126 -177 -297 -168c-1 -14 0 -31 8 -43c16 -22 51 -34 92 -34c52 0 89 10 132 27zM271 178l9 44c-44 2 -120 -12 -120 -68c0 -24 16 -40 42 -40c33 0 60 23 69 64zM566 345c0 19 -13 38 -44 38c-48 0 -78 -46 -82 -79
c67 -5 126 3 126 41zM438 701h152l-128 -151h-116z" />
    <glyph glyph-name="space_uni0326" unicode="&#xf6c3;" 
d="M62 -242l-17 72c31 6 67 28 67 64c0 20 -9 36 -19 47l117 19c11 -11 25 -35 25 -63c0 -94 -97 -136 -173 -139z" />
    <glyph glyph-name="acute.cap" unicode="&#xf6c9;" 
d="M305 840h172l-139 -130h-131z" />
    <glyph glyph-name="breve.cap" unicode="&#xefee;" 
d="M165 847h88c-1 -23 12 -47 48 -47c38 0 55 23 60 47h91c-13 -72 -58 -127 -160 -127c-98 0 -136 55 -127 127z" />
    <glyph glyph-name="caron.cap" unicode="&#xf6ca;" 
d="M350 710h-119l-76 130h112l32 -59h2l50 59h122z" />
    <glyph glyph-name="cedilla.cap" unicode="&#xeff2;" 
d="M122 5h82l-32 -46c36 -8 61 -33 61 -68c0 -76 -76 -99 -130 -99c-32 0 -59 9 -77 21l25 62c17 -10 37 -15 54 -15c15 0 34 6 34 25c0 15 -16 30 -71 34z" />
    <glyph glyph-name="circumflex.cap" unicode="&#xeff7;" 
d="M251 840h118l77 -130h-112l-32 56h-2l-50 -56h-122z" />
    <glyph glyph-name="space_uni0326.cap" unicode="&#xf634;" 
d="M62 -242l-17 72c31 6 67 28 67 64c0 20 -9 36 -19 47l117 19c11 -11 25 -35 25 -63c0 -94 -97 -136 -173 -139z" />
    <glyph glyph-name="dieresis.cap" unicode="&#xf6cb;" 
d="M195 708c-36 0 -70 28 -70 70c0 47 36 79 77 79s70 -31 70 -71c0 -46 -36 -78 -77 -78zM402 708c-36 0 -70 28 -70 70c0 47 36 79 77 79s70 -31 70 -71c0 -46 -36 -78 -77 -78z" />
    <glyph glyph-name="dotaccent.cap" unicode="&#xefed;" 
d="M300 708c-38 0 -73 29 -73 72c0 47 37 80 80 80s73 -32 73 -72c0 -47 -37 -80 -80 -80z" />
    <glyph glyph-name="grave.cap" unicode="&#xf6ce;" 
d="M131 840h170l75 -128h-129z" />
    <glyph glyph-name="hungarumlaut.cap" unicode="&#xf6cf;" 
d="M224 841h148l-119 -124h-111zM410 841h148l-118 -124h-112z" />
    <glyph glyph-name="macron.cap" unicode="&#xf6d0;" 
d="M181 823h253l-18 -88h-253z" />
    <glyph glyph-name="ogonek.cap" unicode="&#xeff1;" 
d="M118 2h92c-24 -30 -37 -59 -37 -79c0 -23 15 -37 40 -37c19 0 37 5 47 8l12 -79c-32 -25 -77 -35 -112 -35c-66 0 -103 33 -103 91c0 52 37 104 61 131z" />
    <glyph glyph-name="ring.cap" unicode="&#xeff3;" 
d="M306 887c67 0 112 -33 112 -90c-2 -60 -52 -99 -126 -99c-65 0 -109 36 -111 87c-1 59 49 102 125 102zM300 836c-27 0 -42 -22 -42 -47c0 -21 13 -40 39 -40c29 0 44 20 44 45c0 22 -13 42 -41 42z" />
    <glyph glyph-name="tilde.cap" unicode="&#xeff5;" 
d="M228 717h-79c15 92 56 130 103 130c28 0 46 -9 62 -18c15 -11 27 -20 38 -20c15 0 23 10 33 44h77c-15 -95 -53 -130 -105 -130c-29 0 -49 9 -63 17c-15 10 -25 18 -38 18c-11 0 -23 -13 -28 -41z" />
    <glyph glyph-name="Alpha" unicode="&#x391;" horiz-adv-x="584" 
d="M358 152h-159l-61 -152h-171l305 674h208l51 -674h-169zM243 274h112l-3 128c-2 38 -2 101 -3 145h-2c-17 -44 -37 -108 -53 -145z" />
    <glyph glyph-name="Beta" unicode="&#x392;" horiz-adv-x="574" 
d="M15 8l124 654c47 10 110 16 175 16c68 0 123 -7 170 -36c45 -24 77 -68 77 -125c0 -84 -60 -139 -130 -160v-3c65 -22 99 -78 99 -145c0 -69 -38 -121 -89 -156c-57 -39 -141 -57 -257 -57c-80 0 -135 5 -169 12zM278 550l-26 -138h33c70 0 111 31 111 80
c0 38 -28 62 -73 62c-19 0 -35 -1 -45 -4zM227 293l-32 -168c13 -2 26 -2 43 -2c66 0 122 32 122 93c0 58 -43 77 -103 77h-30z" />
    <glyph glyph-name="Gamma" unicode="&#x393;" horiz-adv-x="459" 
d="M143 674h391l-27 -141h-223l-102 -533h-168z" />
    <glyph glyph-name="uni0394" unicode="&#x394;" horiz-adv-x="600" 
d="M-31 0l14 86l296 588h204l73 -588l-15 -86h-572zM172 133h212l-25 237c-3 47 -6 121 -10 163h-4c-13 -35 -42 -110 -62 -156z" />
    <glyph glyph-name="Epsilon" unicode="&#x395;" horiz-adv-x="498" 
d="M466 415l-27 -138h-208l-27 -136h235l-27 -141h-398l128 674h385l-28 -140h-219l-24 -119h210z" />
    <glyph glyph-name="Zeta" unicode="&#x396;" horiz-adv-x="512" 
d="M-31 0l18 96l338 433v3h-230l28 142h439l-21 -110l-327 -419v-3h250l-27 -142h-468z" />
    <glyph glyph-name="Eta" unicode="&#x397;" horiz-adv-x="637" 
d="M143 674h164l-49 -258h185l49 258h164l-128 -674h-164l50 269h-184l-51 -269h-164z" />
    <glyph glyph-name="Theta" unicode="&#x398;" horiz-adv-x="654" 
d="M293 -10c-169 0 -250 130 -250 265c0 128 45 261 128 341c58 55 135 88 225 88c170 0 249 -121 249 -263c0 -133 -45 -266 -127 -344c-56 -55 -133 -87 -225 -87zM317 126c98 0 156 194 156 297c0 65 -24 125 -96 125c-100 0 -162 -178 -162 -296c0 -70 30 -126 102 -126
zM283 407h149l-24 -132h-148z" />
    <glyph glyph-name="Iota" unicode="&#x399;" horiz-adv-x="284" 
d="M139 674h164l-128 -674h-164z" />
    <glyph glyph-name="Kappa" unicode="&#x39a;" horiz-adv-x="576" 
d="M14 0l128 674h161l-57 -296h3c19 33 38 59 57 86l148 210h197l-247 -295l125 -379h-177l-77 274l-59 -63l-41 -211h-161z" />
    <glyph glyph-name="Lambda" unicode="&#x39b;" horiz-adv-x="584" 
d="M532 0h-173l-13 348c0 53 -1 115 0 181h-4c-20 -66 -43 -128 -63 -183l-137 -346h-176l304 674h210z" />
    <glyph glyph-name="Mu" unicode="&#x39c;" horiz-adv-x="779" 
d="M687 0h-154l35 233c11 69 25 157 46 264h-3c-38 -96 -78 -190 -109 -256l-104 -227h-125l-11 227c-3 63 -8 158 -9 256h-2c-21 -100 -40 -195 -56 -264l-54 -233h-147l169 674h208l7 -227c2 -60 8 -142 7 -216h4c24 74 59 158 85 217l96 226h209z" />
    <glyph glyph-name="Nu" unicode="&#x39d;" horiz-adv-x="634" 
d="M162 0h-148l128 674h182l56 -210c24 -93 41 -166 53 -239h3c4 73 16 170 36 279l32 170h149l-128 -674h-162l-62 216c-27 98 -42 157 -57 246h-3c-8 -67 -25 -179 -48 -297z" />
    <glyph glyph-name="Xi" unicode="&#x39e;" horiz-adv-x="529" 
d="M123 674h438l-24 -138h-438zM104 412h384l-24 -137h-384zM16 140h463l-24 -140h-463z" />
    <glyph glyph-name="Omicron" unicode="&#x39f;" horiz-adv-x="654" 
d="M293 -10c-169 0 -250 130 -250 265c0 129 45 261 128 341c58 55 135 88 225 88c170 0 249 -121 249 -262c0 -133 -44 -267 -126 -345c-57 -55 -133 -87 -226 -87zM317 128c98 0 155 193 155 296c0 63 -23 122 -95 122c-100 0 -161 -176 -161 -293c0 -71 30 -125 101 -125
z" />
    <glyph glyph-name="Pi" unicode="&#x3a0;" horiz-adv-x="624" 
d="M645 674l-127 -674h-164l100 533h-176l-101 -533h-164l128 674h504z" />
    <glyph glyph-name="Rho" unicode="&#x3a1;" horiz-adv-x="549" 
d="M14 0l126 661c45 11 114 17 176 17c55 0 128 -8 179 -46c45 -31 71 -83 71 -142c0 -93 -43 -160 -95 -200c-54 -42 -130 -61 -207 -61c-19 0 -35 3 -46 3l-44 -232h-160zM278 545l-35 -180c11 -2 22 -3 41 -3c78 0 118 60 118 114c0 52 -35 72 -79 72
c-21 0 -36 -1 -45 -3z" />
    <glyph glyph-name="Sigma" unicode="&#x3a3;" horiz-adv-x="521" 
d="M219 145v-4h262l-25 -141h-478l15 98l213 240l-129 225l19 111h451l-24 -140h-246l-1 -4l115 -196z" />
    <glyph glyph-name="Tau" unicode="&#x3a4;" horiz-adv-x="500" 
d="M118 0l100 528h-153l29 146h471l-28 -146h-155l-100 -528h-164z" />
    <glyph glyph-name="Upsilon" unicode="&#x3a5;" horiz-adv-x="529" 
d="M35 542l40 138c54 0 120 -23 161 -76c40 -49 60 -127 53 -216h8c24 83 66 158 121 210c61 59 131 82 167 82l14 -150c-100 -28 -198 -151 -241 -263c-19 -49 -30 -92 -38 -132l-25 -135h-163l25 135c9 48 13 79 15 126c7 124 -22 256 -137 281z" />
    <glyph glyph-name="Phi" unicode="&#x3a6;" horiz-adv-x="736" 
d="M241 -29l11 59c-112 24 -209 112 -209 259c0 232 187 355 325 359l11 55h149l-10 -55c108 -21 208 -108 208 -254c0 -229 -173 -354 -324 -364l-12 -59h-149zM274 149l72 382c-64 -6 -140 -116 -140 -241c0 -76 28 -127 68 -141zM495 530l-73 -383c61 7 141 101 141 248
c0 75 -27 123 -68 135z" />
    <glyph glyph-name="Chi" unicode="&#x3a7;" horiz-adv-x="528" 
d="M484 0h-172l-31 127c-9 40 -16 68 -25 110h-2c-21 -41 -34 -70 -58 -118l-60 -119h-188l228 346l-94 328h171l24 -110c9 -47 16 -75 24 -117h2c24 49 38 79 57 119l54 108h187l-223 -334z" />
    <glyph glyph-name="Psi" unicode="&#x3a8;" horiz-adv-x="671" 
d="M723 674l-41 -217c-34 -174 -140 -268 -288 -278l-34 -179h-150l34 179c-102 13 -192 71 -192 196c0 19 2 47 9 81l41 218h158l-40 -207c-5 -30 -10 -56 -10 -76c0 -59 23 -79 57 -88l72 371h148l-71 -372c59 8 92 64 115 190l35 182h157z" />
    <glyph glyph-name="uni03A9" unicode="&#x3a9;" horiz-adv-x="674" 
d="M119 126l1 5c-36 43 -71 115 -71 198c0 202 157 355 349 355c176 0 266 -121 266 -251c0 -144 -85 -250 -150 -302v-5h108l-23 -126h-281l17 99c68 50 154 162 154 321c0 84 -40 131 -107 131c-81 0 -164 -98 -164 -281c0 -76 23 -138 60 -171l-17 -99h-279l22 126h115z
" />
    <glyph glyph-name="Alphatonos" unicode="&#x386;" horiz-adv-x="584" 
d="M358 152h-159l-61 -152h-171l305 674h208l51 -674h-169zM243 274h112l-3 128c-2 38 -2 101 -3 145h-2c-17 -44 -37 -108 -53 -146zM67 674h128l-68 -180h-90z" />
    <glyph glyph-name="Epsilontonos" unicode="&#x388;" horiz-adv-x="559" 
d="M527 415l-27 -138h-208l-27 -136h235l-27 -141h-398l128 674h385l-28 -140h-219l-24 -119h210zM28 674h129l-68 -179h-90z" />
    <glyph glyph-name="Etatonos" unicode="&#x389;" horiz-adv-x="695" 
d="M201 674h164l-49 -258h185l49 258h164l-128 -674h-164l50 269h-184l-51 -269h-164zM29 674h128l-68 -180h-90z" />
    <glyph glyph-name="Iotatonos" unicode="&#x38a;" horiz-adv-x="342" 
d="M197 674h164l-128 -674h-164zM28 674h129l-68 -180h-90z" />
    <glyph glyph-name="Iotadieresis" unicode="&#x3aa;" horiz-adv-x="284" 
d="M128 713c-36 0 -69 27 -69 70c0 47 35 78 77 78c41 0 69 -29 69 -70c0 -48 -34 -78 -77 -78zM336 713c-36 0 -69 27 -69 70c0 47 35 78 77 78c41 0 69 -29 69 -70c0 -48 -34 -78 -77 -78zM140 674h163l-128 -674h-163z" />
    <glyph glyph-name="Omicrontonos" unicode="&#x38c;" horiz-adv-x="695" 
d="M334 -10c-169 0 -250 130 -250 265c0 129 45 261 128 341c58 55 135 88 225 88c170 0 249 -121 249 -262c0 -133 -44 -267 -126 -345c-57 -55 -133 -87 -226 -87zM358 128c98 0 155 193 155 296c0 63 -23 122 -95 122c-100 0 -161 -176 -161 -293c0 -71 30 -125 101 -125
zM27 674h129l-68 -180h-90z" />
    <glyph glyph-name="Upsilontonos" unicode="&#x38e;" horiz-adv-x="666" 
d="M170 542l40 138c54 0 120 -23 161 -76c40 -49 60 -127 53 -216h8c24 83 66 158 121 210c61 59 131 82 167 82l14 -149c-100 -29 -198 -152 -241 -264c-19 -49 -30 -92 -38 -132l-25 -135h-163l25 135c9 48 13 79 15 126c7 124 -22 256 -137 281zM29 674h128l-68 -180h-90
z" />
    <glyph glyph-name="Upsilondieresis" unicode="&#x3ab;" horiz-adv-x="529" 
d="M237 698c-36 0 -69 27 -69 70c0 47 35 78 77 78c41 0 69 -30 69 -70c0 -48 -34 -78 -77 -78zM446 698c-36 0 -69 27 -69 70c0 47 35 78 77 78c41 0 69 -30 69 -70c0 -48 -34 -78 -77 -78zM35 542l40 138c54 0 120 -23 161 -76c40 -49 60 -127 53 -216h8
c24 83 67 158 122 210c61 59 131 82 167 82l13 -150c-99 -28 -197 -151 -240 -263c-19 -49 -31 -92 -38 -132l-26 -135h-163l25 135c9 48 13 79 15 126c7 124 -22 256 -137 281z" />
    <glyph glyph-name="Omegatonos" unicode="&#x38f;" horiz-adv-x="719" 
d="M164 126l1 5c-36 43 -71 115 -71 198c0 202 157 355 349 355c177 0 266 -121 266 -251c0 -145 -84 -250 -148 -302v-5h106l-23 -126h-281l17 99c68 50 154 162 154 321c0 84 -39 131 -106 131c-81 0 -165 -98 -165 -281c0 -76 23 -138 60 -171l-17 -99h-279l22 126h115z
M27 674h129l-68 -180h-90z" />
    <glyph glyph-name="alpha" unicode="&#x3b1;" horiz-adv-x="550" 
d="M333 69h-3c-42 -55 -94 -79 -151 -79c-91 0 -155 69 -155 179c0 205 142 333 243 333c59 0 95 -18 115 -60h4c6 16 13 33 21 50h136c-10 -35 -21 -84 -28 -117c-15 -68 -30 -135 -42 -198c-9 -51 7 -61 32 -60l-31 -119c-12 -5 -25 -8 -49 -8c-54 0 -83 31 -92 79z
M190 187c0 -45 19 -68 48 -68c33 0 60 35 72 68c6 15 11 39 15 62c4 21 8 48 8 58c0 43 -16 70 -47 70c-54 0 -96 -107 -96 -190z" />
    <glyph glyph-name="beta" unicode="&#x3b2;" horiz-adv-x="545" 
d="M136 -196h-150c-10 23 -5 104 13 196l75 396c28 149 68 216 117 259c43 37 94 59 160 59c115 0 176 -77 176 -162c0 -80 -42 -140 -103 -171l-1 -5c49 -18 89 -77 89 -154c0 -131 -104 -232 -219 -232c-48 0 -96 13 -124 38h-3l-9 -49c-13 -66 -22 -133 -21 -175z
M267 306l20 105c5 0 10 0 15 2c37 9 72 48 72 112c0 33 -14 61 -44 61c-35 0 -66 -32 -87 -145l-55 -287c17 -25 44 -38 71 -38c51 0 87 50 87 109c0 44 -25 73 -59 80c-7 1 -13 1 -20 1z" />
    <glyph glyph-name="gamma" unicode="&#x3b3;" horiz-adv-x="476" 
d="M216 -196h-160c16 71 36 166 38 264c2 130 -45 320 -82 424h179c21 -64 40 -194 39 -320h4c45 85 81 176 97 266c3 20 5 39 4 54h161c1 -14 0 -35 -3 -56c-21 -113 -106 -269 -231 -413c-7 -8 -13 -20 -15 -32c-6 -43 -20 -122 -31 -187z" />
    <glyph glyph-name="delta" unicode="&#x3b4;" horiz-adv-x="529" 
d="M510 650l-56 -95c-21 18 -63 43 -97 43c-22 0 -32 -9 -32 -23c0 -15 18 -35 43 -61l49 -53c43 -46 83 -112 83 -188c0 -136 -100 -283 -273 -283c-122 0 -206 85 -206 205c0 143 101 229 184 267v4l-17 22c-12 16 -33 49 -33 89c0 73 72 138 177 138
c92 0 148 -35 178 -65zM302 347l-26 32c-51 -32 -88 -97 -88 -188c0 -47 23 -83 60 -83c45 0 86 60 86 142c0 39 -9 71 -32 97z" />
    <glyph glyph-name="epsilon" unicode="&#x3b5;" horiz-adv-x="427" 
d="M339 201h-34c-60 -1 -116 -9 -116 -50c0 -25 37 -36 74 -36c44 0 88 11 119 23l1 -115c-60 -29 -129 -33 -176 -33c-106 0 -196 38 -196 126c0 82 62 130 119 140l1 5c-48 17 -70 53 -70 91c0 80 86 150 226 150c67 0 116 -16 146 -37l-37 -103c-23 13 -61 22 -95 22
c-48 0 -79 -16 -79 -40c0 -26 40 -37 105 -37h30z" />
    <glyph glyph-name="zeta" unicode="&#x3b6;" horiz-adv-x="427" 
d="M471 700l3 -109c-97 -49 -279 -218 -279 -368c0 -54 26 -87 58 -105c35 -22 86 -31 128 -38c6 -1 8 -6 8 -13c0 -56 -59 -172 -107 -220l-100 35c13 22 33 66 39 92c-16 4 -46 12 -76 26c-57 25 -122 82 -122 190c0 146 128 309 241 386v4c-15 0 -32 1 -48 2
c-41 1 -67 7 -85 18l31 107c26 -6 73 -7 130 -7c56 -1 115 0 179 0z" />
    <glyph glyph-name="eta" unicode="&#x3b7;" horiz-adv-x="542" 
d="M228 422h3c43 55 98 80 157 80c84 0 119 -54 119 -128c0 -24 -5 -63 -9 -88l-56 -290c-15 -83 -26 -156 -23 -192h-153c-11 22 -5 96 14 196l52 277c3 14 5 33 5 49c0 26 -8 44 -33 44c-36 0 -76 -47 -95 -147l-42 -223h-164l62 328c12 61 22 124 16 164h143
c5 -18 6 -47 4 -70z" />
    <glyph glyph-name="theta" unicode="&#x3b8;" horiz-adv-x="539" 
d="M228 -10c-126 0 -197 81 -197 233c0 56 7 114 20 170c41 174 142 322 296 322c122 0 189 -92 189 -223c0 -46 -5 -93 -13 -141c-34 -183 -132 -361 -295 -361zM221 416h149c6 37 10 68 10 92c0 57 -18 90 -50 90c-51 0 -87 -67 -109 -182zM348 298h-149
c-8 -39 -12 -76 -12 -101c0 -59 20 -90 56 -90c50 0 81 63 105 191z" />
    <glyph glyph-name="iota" unicode="&#x3b9;" horiz-adv-x="267" 
d="M254 492l-62 -327c-8 -39 2 -49 33 -48l-31 -118c-15 -5 -38 -9 -63 -9c-68 0 -112 30 -112 107c0 17 6 45 10 71l61 324h164z" />
    <glyph glyph-name="kappa" unicode="&#x3ba;" horiz-adv-x="517" 
d="M354 266l-1 -4c36 -17 50 -69 67 -131l38 -131h-176l-20 93c-12 60 -24 102 -53 102h-6l-37 -195h-163l66 345c10 53 20 124 15 147h155c8 -13 13 -43 4 -86l-22 -117h5c45 59 102 143 144 203h183v-6c-62 -73 -128 -146 -199 -220z" />
    <glyph glyph-name="lambda" unicode="&#x3bb;" horiz-adv-x="464" 
d="M260 0l-16 211c-1 24 -4 50 -6 86h-6c-10 -33 -19 -62 -30 -91l-80 -206h-170l227 458c5 11 9 22 9 28s-1 11 -2 18c-7 40 -29 68 -66 70c-7 1 -13 1 -19 1l34 128c14 2 34 3 53 1c111 -10 144 -106 165 -236l73 -468h-166z" />
    <glyph glyph-name="uni03BC" unicode="&#x3bc;" horiz-adv-x="541" 
d="M258 492l-54 -282c-14 -71 5 -89 37 -89c26 0 48 27 61 53c4 7 9 20 12 32l55 286h164l-62 -324c-8 -41 3 -50 29 -51l-33 -118c-11 -5 -27 -9 -52 -9c-56 0 -84 28 -95 78h-4c-23 -41 -55 -72 -103 -72c-23 0 -43 6 -55 18l-6 -33c-11 -57 -21 -138 -21 -177h-146
c-7 22 -3 96 16 195l94 493h163z" />
    <glyph glyph-name="nu" unicode="&#x3bd;" horiz-adv-x="473" 
d="M28 492h174c4 -58 8 -137 9 -205c1 -42 2 -82 3 -125h4c51 97 89 187 104 275c4 19 5 35 5 55h157c1 -14 0 -33 -2 -49c-19 -116 -121 -294 -236 -443h-155c-19 164 -40 344 -63 492z" />
    <glyph glyph-name="xi" unicode="&#x3be;" horiz-adv-x="446" 
d="M379 314h-29c-95 0 -158 -42 -158 -110c0 -50 29 -81 91 -99c36 -12 79 -20 117 -26c7 -2 9 -6 9 -15c0 -51 -66 -176 -107 -216l-101 34c13 23 32 68 38 93c-15 3 -40 9 -61 16c-55 17 -161 65 -161 185c0 114 87 194 170 213l1 6c-48 23 -80 68 -80 124
c0 107 92 196 248 196c57 0 106 -14 132 -31l-38 -107c-21 13 -50 20 -79 20c-60 0 -100 -38 -100 -87c0 -50 41 -73 103 -80c12 -2 19 -2 27 -2z" />
    <glyph glyph-name="omicron" unicode="&#x3bf;" horiz-adv-x="534" 
d="M224 -10c-129 0 -200 85 -200 194c0 175 115 318 286 318c133 0 197 -93 197 -195c0 -183 -118 -317 -283 -317zM245 114c63 0 95 122 95 198c0 36 -14 66 -53 66c-64 0 -97 -124 -96 -190c0 -42 16 -74 54 -74z" />
    <glyph glyph-name="rho" unicode="&#x3c1;" horiz-adv-x="540" 
d="M135 -196h-154c-4 22 -4 77 16 182l40 214c27 148 75 214 132 255c51 36 98 47 154 47c124 0 192 -91 192 -195c0 -175 -120 -317 -245 -317c-47 0 -85 16 -101 37h-2l-9 -48c-14 -70 -23 -140 -23 -175zM210 246l-7 -32c-3 -15 -5 -31 -5 -50c0 -20 20 -50 56 -50
c51 0 95 103 95 185c0 40 -16 72 -53 72c-42 0 -70 -48 -86 -125z" />
    <glyph glyph-name="sigma" unicode="&#x3c3;" horiz-adv-x="562" 
d="M465 397l-1 -5c26 -24 39 -79 39 -112c0 -151 -114 -290 -276 -290c-132 0 -203 85 -203 194c0 175 115 318 281 318h112h85h96l-21 -118c-21 0 -56 3 -112 13zM245 114c63 0 95 122 95 198c0 37 -14 67 -50 67c-69 0 -100 -125 -99 -191c0 -42 16 -74 54 -74z" />
    <glyph glyph-name="tau" unicode="&#x3c4;" horiz-adv-x="422" 
d="M319 119l-26 -118c-14 -7 -41 -11 -64 -11c-102 0 -133 56 -133 125c0 24 5 63 11 95l29 153h-35c-39 0 -60 -1 -83 -6l-1 97c25 18 61 38 179 38h253l-28 -129h-122l-31 -167c-3 -17 -4 -29 -4 -40c0 -25 14 -37 35 -37h20z" />
    <glyph glyph-name="upsilon" unicode="&#x3c5;" horiz-adv-x="520" 
d="M341 492h151c7 -20 13 -56 13 -93c0 -148 -81 -409 -290 -409c-112 0 -187 59 -187 163c0 28 7 62 12 92l16 80c13 70 24 132 20 167h159c6 -15 7 -47 -2 -94l-24 -125c-6 -33 -15 -74 -15 -95c0 -32 18 -55 46 -55c68 0 105 192 105 299c0 31 -2 57 -4 70z" />
    <glyph glyph-name="phi" unicode="&#x3c6;" horiz-adv-x="681" 
d="M240 103l36 196c25 140 96 203 192 203c105 0 186 -84 186 -200c0 -200 -161 -312 -291 -312l-35 -186h-146l36 186c-87 12 -194 79 -194 218c0 171 124 271 204 293l58 -77c-46 -32 -104 -105 -104 -211c0 -59 23 -96 58 -110zM432 354l-48 -252c68 5 114 104 114 201
c0 50 -18 82 -40 82c-13 0 -22 -10 -26 -31z" />
    <glyph glyph-name="chi" unicode="&#x3c7;" horiz-adv-x="468" 
d="M39 492h166l25 -123c6 -33 11 -65 16 -99h5c12 27 24 56 39 87c22 45 46 90 69 135h161c-72 -116 -143 -232 -216 -348l84 -339l-157 -31l-27 134c-7 37 -14 71 -21 113h-6c-13 -32 -25 -56 -47 -98c-24 -47 -55 -104 -80 -149l-135 47c74 117 142 222 215 339z" />
    <glyph glyph-name="psi" unicode="&#x3c8;" horiz-adv-x="683" 
d="M510 492h145c8 -24 13 -54 13 -95c0 -222 -109 -397 -306 -407l-35 -186h-149l36 186c-92 10 -185 64 -185 186c0 20 2 58 8 91l16 81c12 61 20 108 18 144h147c9 -16 7 -50 -1 -96l-25 -132c-6 -29 -8 -52 -8 -80c0 -51 21 -77 52 -80l96 508h148l-97 -509
c70 2 132 112 132 310c0 34 -2 63 -5 79z" />
    <glyph glyph-name="omega" unicode="&#x3c9;" horiz-adv-x="697" 
d="M480 492h141c24 -29 47 -97 47 -175c0 -154 -89 -327 -238 -327c-57 0 -97 29 -114 72h-4c-28 -39 -70 -72 -136 -72c-83 0 -153 63 -153 191c1 138 75 267 125 311h154v-3c-52 -56 -116 -171 -116 -296c0 -41 11 -67 33 -67c27 0 41 39 49 88l27 157h147l-30 -141
c-5 -23 -10 -48 -10 -65c0 -22 7 -39 26 -39c51 0 82 124 82 227c0 48 -8 99 -31 136z" />
    <glyph glyph-name="uni03C2" unicode="&#x3c2;" horiz-adv-x="433" 
d="M285 -153l-100 35c14 23 32 64 39 93c-17 4 -44 12 -72 23c-48 19 -132 74 -132 198c0 156 129 306 308 306c55 0 91 -11 114 -23l-42 -119c-16 8 -44 13 -69 13c-73 0 -141 -65 -141 -152c0 -62 32 -93 80 -113c34 -14 73 -21 114 -28c6 -2 8 -6 8 -14
c0 -56 -59 -171 -107 -219z" />
    <glyph glyph-name="alphatonos" unicode="&#x3ac;" horiz-adv-x="550" 
d="M363 701h146l-127 -151h-112zM333 69h-3c-42 -55 -94 -79 -151 -79c-91 0 -155 69 -155 179c0 205 142 333 243 333c59 0 95 -18 115 -60h4c6 16 13 33 21 50h136c-10 -35 -21 -84 -28 -117c-15 -68 -30 -135 -42 -198c-9 -51 7 -61 32 -60l-31 -119
c-12 -5 -25 -8 -49 -8c-54 0 -83 31 -92 79zM190 187c0 -45 19 -68 48 -68c33 0 60 35 72 68c6 15 11 39 15 62c4 21 8 48 8 58c0 43 -16 70 -47 70c-54 0 -96 -107 -96 -190z" />
    <glyph glyph-name="epsilontonos" unicode="&#x3ad;" horiz-adv-x="427" 
d="M296 701h147l-128 -151h-111zM340 201h-35c-60 -1 -116 -9 -116 -50c0 -25 37 -36 74 -36c44 0 88 11 119 23l1 -114c-60 -30 -129 -34 -176 -34c-106 0 -196 38 -196 126c0 82 62 130 120 140l1 5c-48 17 -70 53 -70 91c0 80 86 150 226 150c68 0 116 -15 146 -37
l-37 -103c-23 13 -61 22 -95 22c-48 0 -79 -16 -79 -40c0 -26 40 -37 105 -37h30z" />
    <glyph glyph-name="etatonos" unicode="&#x3ae;" horiz-adv-x="542" 
d="M348 701h147l-128 -151h-111zM228 422h3c43 55 98 80 157 80c84 0 119 -54 119 -128c0 -24 -5 -63 -9 -88l-56 -290c-15 -83 -25 -153 -24 -192h-153c-9 22 -3 99 15 196l52 277c3 14 5 33 5 49c0 26 -8 44 -34 44c-36 0 -75 -47 -94 -147l-42 -223h-163l62 328
c11 61 22 124 17 164h142c5 -18 5 -47 3 -70z" />
    <glyph glyph-name="iotatonos" unicode="&#x3af;" horiz-adv-x="267" 
d="M220 701h147l-128 -151h-111zM254 492l-62 -327c-7 -36 3 -50 33 -47l-31 -119c-16 -5 -37 -9 -63 -9c-65 0 -111 26 -111 105c0 24 4 49 9 73l61 324h164z" />
    <glyph glyph-name="iotadieresis" unicode="&#x3ca;" horiz-adv-x="267" 
d="M86 544c-36 0 -69 27 -69 70c0 47 35 78 77 78c41 0 69 -30 69 -71c0 -47 -34 -77 -77 -77zM289 544c-36 0 -69 27 -69 70c0 47 35 78 77 78c41 0 69 -30 69 -71c0 -47 -34 -77 -77 -77zM254 492l-62 -327c-7 -34 3 -50 34 -48l-32 -118c-16 -5 -37 -9 -64 -9
c-66 0 -109 30 -109 103c0 25 3 49 8 75l61 324h164z" />
    <glyph glyph-name="omicrontonos" unicode="&#x3cc;" horiz-adv-x="534" 
d="M341 701h147l-128 -151h-110zM224 -10c-129 0 -200 85 -200 194c0 175 115 318 286 318c133 0 197 -93 197 -195c0 -183 -118 -317 -283 -317zM245 114c63 0 95 122 95 198c0 36 -14 66 -53 66c-64 0 -97 -124 -96 -190c0 -42 16 -74 54 -74z" />
    <glyph glyph-name="upsilontonos" unicode="&#x3cd;" horiz-adv-x="520" 
d="M312 701h147l-128 -151h-111zM340 492h152c7 -20 13 -50 13 -86c0 -155 -82 -416 -291 -416c-112 0 -186 57 -186 164c0 30 8 63 13 95l15 76c12 65 24 132 19 167h159c6 -15 7 -47 -1 -94l-24 -126c-7 -39 -15 -72 -15 -93c0 -34 18 -56 46 -56c68 0 105 204 105 299
c0 31 -2 57 -5 70z" />
    <glyph glyph-name="upsilondieresis" unicode="&#x3cb;" horiz-adv-x="520" 
d="M196 544c-36 0 -69 27 -69 70c0 47 35 78 77 78c41 0 69 -30 69 -71c0 -47 -34 -77 -77 -77zM399 544c-36 0 -69 27 -69 70c0 47 35 78 77 78c41 0 69 -30 69 -71c0 -47 -34 -77 -77 -77zM340 492h152c7 -20 13 -50 13 -86c0 -155 -82 -416 -291 -416
c-112 0 -186 56 -186 166c0 28 7 59 13 93l15 76c12 65 24 132 19 167h159c6 -15 8 -47 -1 -94l-24 -126c-7 -37 -15 -74 -15 -93c0 -34 18 -56 46 -56c68 0 105 204 105 299c0 31 -2 57 -5 70z" />
    <glyph glyph-name="omegatonos" unicode="&#x3ce;" horiz-adv-x="694" 
d="M421 701h148l-129 -151h-111zM480 492h142c24 -29 47 -97 47 -175c0 -154 -89 -327 -239 -327c-57 0 -97 29 -114 72h-4c-28 -39 -70 -72 -135 -72c-83 0 -153 63 -153 191c1 138 75 267 125 311h153v-3c-51 -56 -115 -171 -115 -296c0 -41 10 -67 33 -67
c27 0 40 39 48 88l27 157h148l-31 -141c-5 -23 -10 -48 -10 -65c0 -22 7 -39 26 -39c52 0 83 124 83 227c0 48 -9 99 -31 136v3z" />
    <glyph glyph-name="iotadieresistonos" unicode="&#x390;" horiz-adv-x="267" 
d="M254 492l-63 -329c-7 -35 4 -47 34 -45l-32 -119c-16 -5 -36 -9 -62 -9c-68 0 -111 29 -111 105c0 22 3 46 8 73l62 324h164zM179 715h124l-95 -170h-89zM40 551c-33 0 -62 23 -62 62c0 42 31 69 69 69c36 0 61 -26 61 -62c0 -43 -31 -69 -68 -69zM358 551
c-33 0 -62 23 -62 62c0 42 31 69 68 69s62 -26 62 -62c0 -43 -30 -69 -68 -69z" />
    <glyph glyph-name="upsilondieresistonos" unicode="&#x3b0;" horiz-adv-x="520" 
d="M340 492h152c7 -20 13 -50 13 -86c0 -155 -82 -416 -291 -416c-112 0 -186 58 -186 165c0 26 8 62 13 94l15 76c12 65 24 132 19 167h159c6 -15 7 -47 -1 -94l-24 -126c-6 -34 -15 -72 -15 -93c0 -33 18 -56 46 -56c68 0 105 204 105 299c0 31 -2 57 -5 70zM275 715h124
l-95 -170h-88zM136 551c-33 0 -62 23 -62 62c0 42 31 69 68 69s62 -26 62 -62c0 -43 -31 -69 -68 -69zM454 551c-33 0 -62 23 -62 62c0 42 31 69 68 69s62 -26 62 -62c0 -43 -30 -69 -68 -69z" />
    <glyph glyph-name="uni037E" unicode="&#x37e;" horiz-adv-x="277" 
d="M66 -109l-115 -10c46 99 87 202 106 291l170 4c-39 -93 -96 -196 -161 -285zM164 274c-55 0 -91 41 -91 95c0 59 46 116 109 116c56 0 94 -41 94 -97c0 -67 -49 -114 -112 -114z" />
    <glyph glyph-name="anoteleia" unicode="&#x387;" horiz-adv-x="277" 
d="M134 205c-57 0 -93 41 -93 98c0 62 47 118 111 118c58 0 96 -40 96 -99c0 -71 -49 -117 -114 -117z" />
    <glyph glyph-name="tonos" unicode="&#x384;" horiz-adv-x="348" 
d="M275 701h147l-128 -151h-111z" />
    <glyph glyph-name="dieresistonos" unicode="&#x385;" horiz-adv-x="471" 
d="M265 716h124l-95 -170h-89zM126 553c-34 0 -64 24 -64 64c0 43 32 71 71 71c38 0 63 -27 63 -65c0 -43 -32 -70 -70 -70zM444 553c-34 0 -64 24 -64 64c0 43 32 71 71 71c38 0 63 -27 63 -65c0 -43 -31 -70 -70 -70z" />
    <glyph glyph-name="dieresis_acutecomb" unicode="&#xf6d7;" 
d="M122 555c-30 0 -63 21 -63 65c0 43 32 72 69 72c36 0 62 -28 62 -65c0 -46 -34 -72 -68 -72zM266 704h136l-117 -151h-95zM453 555c-29 0 -63 21 -63 64s32 72 69 72c36 0 62 -28 62 -65c0 -46 -34 -71 -68 -71z" />
    <glyph glyph-name="dieresis_gravecomb" unicode="&#xf6d8;" 
d="M104 556c-29 0 -62 21 -62 64c0 42 32 71 69 71c35 0 61 -28 61 -65c0 -45 -33 -70 -68 -70zM172 704h128l54 -151h-89zM431 555c-29 0 -63 21 -63 64c0 42 31 71 68 71c36 0 62 -28 62 -65c0 -45 -33 -70 -67 -70z" />
    <glyph glyph-name="space_uni030F" unicode="&#xf6d6;" 
d="M74 701h126l64 -151h-87zM273 701h126l64 -151h-87z" />
    <glyph glyph-name="dieresis_acutecomb.cap" unicode="&#xf6cc;" 
d="M117 709c-29 0 -62 21 -62 64c0 42 32 71 69 71c36 0 62 -28 62 -65c0 -45 -34 -70 -69 -70zM266 850h156l-111 -140h-119zM491 709c-30 0 -63 21 -63 64c0 42 31 71 69 71c36 0 62 -28 62 -65c0 -45 -33 -70 -68 -70z" />
    <glyph glyph-name="dieresis_gravecomb.cap" unicode="&#xf6cd;" 
d="M87 709c-29 0 -62 21 -62 64c0 42 32 71 69 71c36 0 61 -28 61 -65c0 -45 -34 -70 -68 -70zM163 851h160l64 -139h-109zM464 709c-29 0 -62 21 -62 64c0 42 31 71 68 71c36 0 62 -28 62 -65c0 -45 -33 -70 -68 -70z" />
    <glyph glyph-name="space_uni030F.cap" unicode="&#xf6d3;" 
d="M59 840h152l73 -128h-103zM278 840h152l73 -128h-103z" />
    <glyph glyph-name="o.superior" horiz-adv-x="374" 
d="M244 590c88 0 140 -57 140 -132c0 -127 -85 -198 -189 -198c-83 0 -139 56 -139 130c0 118 79 200 188 200zM234 507c-41 0 -62 -72 -62 -118c0 -27 13 -46 37 -46c38 0 59 67 59 119c0 25 -10 45 -34 45z" />
    <glyph glyph-name="uni0401" unicode="&#x401;" horiz-adv-x="498" 
d="M466 415l-27 -138h-208l-26 -136h234l-27 -141h-398l128 674h385l-28 -140h-219l-24 -119h210zM244 708c-36 0 -70 28 -70 70c0 47 36 79 77 79s70 -31 70 -71c0 -46 -36 -78 -77 -78zM451 708c-36 0 -70 28 -70 70c0 47 36 79 77 79s70 -31 70 -71
c0 -46 -36 -78 -77 -78z" />
    <glyph glyph-name="uni0402" unicode="&#x402;" horiz-adv-x="663" 
d="M94 674h510l-29 -145h-199l-18 -98h2c18 9 46 18 87 18c117 0 175 -91 175 -216c0 -114 -39 -213 -98 -278c-57 -61 -136 -97 -198 -105l-26 143c35 7 65 23 90 48c35 36 57 105 57 168c0 59 -18 103 -70 103c-15 0 -33 -6 -44 -12l-56 -300h-162l99 529h-149z" />
    <glyph glyph-name="uni0403" unicode="&#x403;" horiz-adv-x="452" 
d="M142 674h374l-28 -147h-210l-100 -527h-164zM355 840h172l-140 -130h-131z" />
    <glyph glyph-name="uni0404" unicode="&#x404;" horiz-adv-x="519" 
d="M571 657l-47 -133c-24 12 -63 19 -103 19c-92 -1 -162 -54 -187 -143h230l-22 -132h-222c-1 -8 -1 -13 -1 -19c1 -50 43 -119 137 -119c48 0 86 9 115 20l5 -134c-30 -15 -97 -26 -154 -26c-184 0 -276 118 -276 282c0 141 53 254 142 328c66 54 151 83 242 83
c73 0 117 -14 141 -26z" />
    <glyph glyph-name="uni0405" unicode="&#x405;" horiz-adv-x="487" 
d="M-5 33l50 136c36 -20 88 -36 145 -36c47 -1 88 19 88 60c0 36 -28 55 -81 89c-62 39 -123 92 -123 174c0 141 116 227 267 227c80 0 123 -15 150 -29l-48 -138c-22 11 -64 26 -112 25c-57 0 -87 -25 -87 -59c0 -30 33 -51 86 -86c75 -45 120 -101 120 -172
c0 -159 -127 -233 -271 -233c-96 1 -156 23 -184 42z" />
    <glyph glyph-name="uni0406" unicode="&#x406;" horiz-adv-x="284" 
d="M139 674h164l-128 -674h-164z" />
    <glyph glyph-name="uni0407" unicode="&#x407;" horiz-adv-x="284" 
d="M139 674h164l-128 -674h-164zM124 708c-36 0 -70 28 -70 70c0 47 36 79 77 79s70 -31 70 -71c0 -46 -36 -78 -77 -78zM332 708c-36 0 -70 28 -70 70c0 47 36 79 77 79s70 -31 70 -71c0 -46 -36 -78 -77 -78z" />
    <glyph glyph-name="uni0408" unicode="&#x408;" horiz-adv-x="379" 
d="M160 242l82 432h164l-85 -444c-33 -174 -108 -240 -261 -240c-38 0 -80 6 -99 13l29 141c20 -5 42 -9 69 -9c51 0 86 27 101 107z" />
    <glyph glyph-name="uni0409" unicode="&#x409;" horiz-adv-x="879" 
d="M202 674h421l-46 -233c19 4 41 6 65 6c123 0 208 -70 208 -195c0 -73 -26 -128 -67 -169c-66 -66 -175 -90 -280 -90c-69 0 -136 5 -168 10l100 531h-105l-30 -147c-23 -117 -57 -264 -143 -340c-41 -37 -99 -59 -171 -59l-18 138c32 2 69 17 90 39c44 44 77 158 87 211z
M553 315l-36 -192c14 -1 23 -1 38 -1c63 0 122 43 122 110c0 55 -35 86 -83 86c-13 0 -28 -1 -41 -3z" />
    <glyph glyph-name="uni040A" unicode="&#x40a;" horiz-adv-x="885" 
d="M143 674h164l-48 -253h160l48 253h161l-46 -238c21 4 44 6 67 6c116 0 207 -68 207 -196c0 -68 -26 -122 -67 -163c-66 -66 -175 -90 -280 -90c-69 0 -136 5 -168 10l53 281h-162l-53 -284h-164zM558 308l-35 -185c13 -1 23 -1 38 -1c62 0 122 46 122 107
c0 57 -38 84 -85 84c-13 0 -29 -2 -40 -5z" />
    <glyph glyph-name="uni040B" unicode="&#x40b;" horiz-adv-x="664" 
d="M93 674h495l-28 -144h-188l-24 -127h2c34 24 77 43 130 43c96 0 133 -59 132 -145c-1 -37 -7 -76 -13 -111l-33 -190h-162l34 186c3 19 8 45 8 71c0 27 -15 52 -52 52c-31 0 -55 -17 -70 -34l-52 -275h-160l99 530h-147z" />
    <glyph glyph-name="uni040C" unicode="&#x40c;" horiz-adv-x="569" 
d="M142 674h161l-55 -279h14l190 279h195l-248 -303c47 -33 66 -110 81 -208c13 -84 22 -130 35 -163h-165c-10 27 -21 84 -30 156c-10 74 -24 120 -78 120h-14l-54 -276h-161zM389 840h172l-139 -130h-132z" />
    <glyph glyph-name="uni040E" unicode="&#x40e;" horiz-adv-x="549" 
d="M74 674h180l42 -224c8 -37 16 -80 23 -122h4c15 40 27 78 45 123l86 223h188l-188 -371c-52 -103 -98 -192 -167 -253c-43 -40 -99 -60 -157 -60c-34 0 -67 6 -90 16l24 133c13 -5 35 -8 52 -8c36 0 66 27 80 54c9 16 10 31 5 47zM228 838h108c-4 -33 6 -59 36 -59
s46 26 53 59h111c-20 -83 -77 -128 -173 -128s-137 47 -135 128z" />
    <glyph glyph-name="uni040F" unicode="&#x40f;" horiz-adv-x="621" 
d="M142 674h164l-101 -533h171l101 533h164l-127 -674h-175l-44 -185h-130l29 185h-179z" />
    <glyph glyph-name="uni0410" unicode="&#x410;" horiz-adv-x="584" 
d="M358 152h-159l-61 -152h-171l305 674h208l51 -674h-169zM243 274h112l-3 128c-2 38 -2 101 -3 145h-2c-17 -44 -38 -108 -53 -145z" />
    <glyph glyph-name="uni0411" unicode="&#x411;" horiz-adv-x="564" 
d="M141 674h411l-25 -144h-251l-18 -98c20 5 44 7 69 7c112 0 202 -69 202 -190c0 -78 -32 -136 -79 -176c-66 -58 -164 -80 -263 -80c-67 0 -140 5 -172 10zM233 310l-34 -189c13 -2 24 -2 39 -2c58 0 118 43 118 111c0 50 -31 85 -82 85c-14 0 -28 -2 -41 -5z" />
    <glyph glyph-name="uni0412" unicode="&#x412;" horiz-adv-x="579" 
d="M15 8l124 654c47 10 110 16 175 16c68 0 123 -7 170 -36c45 -24 77 -68 77 -125c0 -84 -60 -139 -130 -160v-3c65 -22 99 -78 99 -145c0 -69 -38 -121 -89 -156c-57 -39 -141 -57 -257 -57c-80 0 -135 5 -169 12zM278 550l-26 -138h33c70 0 111 31 111 80
c0 38 -28 62 -73 62c-19 0 -35 -1 -45 -4zM227 293l-32 -168c13 -2 26 -2 43 -2c66 0 122 32 122 93c0 58 -43 77 -103 77h-30z" />
    <glyph glyph-name="uni0413" unicode="&#x413;" horiz-adv-x="452" 
d="M142 674h374l-28 -147h-210l-100 -527h-164z" />
    <glyph glyph-name="uni0414" unicode="&#x414;" horiz-adv-x="650" 
d="M225 674h424l-101 -538l63 -5l-69 -298h-131l25 167h-319l-44 -167h-128l49 298l53 6c33 52 64 109 88 168c25 62 44 128 56 191zM346 533l-15 -80c-12 -62 -30 -124 -52 -181c-18 -46 -38 -88 -64 -133h170l74 394h-113z" />
    <glyph glyph-name="uni0415" unicode="&#x415;" horiz-adv-x="498" 
d="M466 415l-27 -138h-208l-27 -136h235l-27 -141h-398l128 674h385l-28 -140h-219l-24 -119h210z" />
    <glyph glyph-name="uni0416" unicode="&#x416;" horiz-adv-x="809" 
d="M83 674h169l80 -281h14l52 281h155l-54 -282h15l185 282h181l-247 -306c61 -33 80 -122 91 -200c7 -75 15 -125 32 -168h-163c-14 43 -22 95 -28 158c-8 76 -28 121 -73 121h-12l-52 -279h-157l54 281h-12c-47 0 -83 -49 -111 -117c-26 -61 -47 -121 -74 -164h-170
c32 47 57 116 85 180c50 116 91 164 171 190z" />
    <glyph glyph-name="uni0417" unicode="&#x417;" horiz-adv-x="496" 
d="M128 287l21 122h43c70 0 124 25 122 82c0 39 -34 58 -71 58c-45 0 -90 -16 -124 -34l-30 117c40 24 109 51 195 51c104 0 200 -48 200 -160c0 -89 -64 -148 -145 -169l-1 -2c65 -14 115 -69 115 -146c0 -147 -138 -215 -274 -215c-70 0 -145 19 -191 51l48 124
c30 -17 83 -36 139 -36c55 0 109 27 109 81c0 55 -60 76 -107 76h-49z" />
    <glyph glyph-name="uni0418" unicode="&#x418;" horiz-adv-x="628" 
d="M142 674h154l-29 -147c-22 -114 -48 -219 -72 -311h4c49 90 96 161 135 223l141 235h172l-129 -674h-153l30 148c22 110 40 196 63 286h-3c-37 -73 -79 -147 -127 -224l-131 -210h-183z" />
    <glyph glyph-name="uni0419" unicode="&#x419;" horiz-adv-x="628" 
d="M142 674h153l-28 -147c-22 -114 -48 -219 -72 -311h4c49 90 96 161 135 223l141 235h172l-129 -674h-153l29 148c23 110 40 196 64 286h-3c-37 -73 -80 -147 -127 -224l-131 -210h-183zM266 835h108c-4 -33 6 -59 36 -59s46 26 53 59h111c-20 -83 -77 -128 -173 -128
s-137 47 -135 128z" />
    <glyph glyph-name="uni041A" unicode="&#x41a;" horiz-adv-x="569" 
d="M142 674h161l-55 -279h14l190 279h195l-248 -303c47 -33 66 -110 81 -208c13 -84 22 -130 35 -163h-165c-10 27 -21 84 -30 156c-10 74 -24 120 -78 120h-14l-54 -276h-161z" />
    <glyph glyph-name="uni041B" unicode="&#x41b;" horiz-adv-x="620" 
d="M201 674h438l-128 -674h-164l102 534h-119l-30 -148c-30 -153 -65 -266 -139 -334c-43 -41 -98 -63 -175 -64l-18 138c44 5 71 19 95 45c36 41 64 119 81 203z" />
    <glyph glyph-name="uni041C" unicode="&#x41c;" horiz-adv-x="779" 
d="M687 0h-154l35 233c11 69 25 157 46 264h-3c-38 -96 -79 -190 -109 -256l-104 -227h-125l-11 227c-3 63 -8 158 -9 256h-2c-21 -100 -40 -195 -56 -264l-54 -233h-147l169 674h208l7 -227c2 -60 8 -142 7 -216h4c24 74 59 158 85 217l96 226h209z" />
    <glyph glyph-name="uni041D" unicode="&#x41d;" horiz-adv-x="637" 
d="M143 674h164l-49 -258h185l49 258h164l-128 -674h-164l50 269h-184l-51 -269h-164z" />
    <glyph glyph-name="uni041E" unicode="&#x41e;" horiz-adv-x="654" 
d="M293 -10c-169 0 -250 130 -250 265c0 129 45 261 128 341c58 55 135 88 225 88c170 0 249 -121 249 -262c0 -133 -44 -267 -126 -345c-57 -55 -133 -87 -226 -87zM317 128c98 0 155 193 155 296c0 63 -23 122 -95 122c-100 0 -161 -176 -161 -293c0 -71 30 -125 101 -125
z" />
    <glyph glyph-name="uni041F" unicode="&#x41f;" horiz-adv-x="626" 
d="M142 674h503l-128 -674h-164l101 534h-174l-102 -534h-164z" />
    <glyph glyph-name="uni0420" unicode="&#x420;" horiz-adv-x="549" 
d="M14 0l126 661c45 11 114 17 176 17c55 0 128 -8 179 -46c45 -31 71 -83 71 -142c0 -93 -43 -160 -95 -200c-54 -42 -130 -61 -207 -61c-18 0 -35 3 -46 3l-44 -232h-160zM278 545l-35 -180c11 -2 22 -3 41 -3c78 0 118 60 118 114c0 52 -35 72 -79 72
c-21 0 -36 -1 -45 -3z" />
    <glyph glyph-name="uni0421" unicode="&#x421;" horiz-adv-x="534" 
d="M471 150l6 -136c-31 -13 -82 -23 -153 -23c-183 0 -277 126 -277 271c0 167 69 284 165 351c67 49 146 70 234 70c61 0 111 -14 128 -23l-43 -135c-17 6 -52 16 -101 16c-46 0 -91 -16 -123 -46c-49 -44 -83 -116 -83 -211c0 -94 51 -151 142 -151c39 0 78 6 105 17z" />
    <glyph glyph-name="uni0422" unicode="&#x422;" horiz-adv-x="500" 
d="M118 0l100 528h-153l29 146h471l-28 -146h-155l-100 -528h-164z" />
    <glyph glyph-name="uni0423" unicode="&#x423;" horiz-adv-x="549" 
d="M74 674h180l42 -224c8 -37 16 -80 23 -122h5c14 40 27 78 45 123l86 223h188l-188 -371c-53 -103 -99 -192 -168 -253c-43 -40 -98 -60 -157 -60c-33 0 -66 6 -89 16l23 133c13 -5 35 -8 52 -8c36 0 66 27 80 54c9 16 10 31 5 47z" />
    <glyph glyph-name="uni0424" unicode="&#x424;" horiz-adv-x="746" 
d="M247 -29l12 68c-107 26 -210 106 -210 259c0 239 187 343 325 347l11 58h149l-10 -62c104 -23 208 -102 208 -261c0 -239 -176 -341 -324 -347l-12 -62h-149zM281 158l71 370c-73 -6 -140 -115 -140 -233c0 -74 30 -123 69 -137zM500 523l-71 -372c65 7 140 96 140 241
c0 72 -25 119 -69 131z" />
    <glyph glyph-name="uni0425" unicode="&#x425;" horiz-adv-x="528" 
d="M484 0h-172l-31 127c-9 40 -16 68 -25 110h-2c-21 -41 -34 -70 -58 -118l-60 -119h-188l228 346l-94 328h171l24 -110c10 -47 16 -75 24 -117h2c24 49 37 79 57 119l54 108h187l-223 -334z" />
    <glyph glyph-name="uni0426" unicode="&#x426;" horiz-adv-x="642" 
d="M142 674h164l-102 -533h172l101 533h164l-102 -538l63 -5l-69 -298h-131l25 167h-413z" />
    <glyph glyph-name="uni0427" unicode="&#x427;" horiz-adv-x="587" 
d="M130 674h163l-37 -190c-3 -18 -7 -38 -7 -57c0 -40 27 -57 70 -57c27 0 52 7 69 16l55 288h163l-128 -674h-164l49 256l-2 1c-29 -14 -70 -21 -114 -21c-101 0 -168 52 -168 146c0 23 4 52 11 88z" />
    <glyph glyph-name="uni0428" unicode="&#x428;" horiz-adv-x="856" 
d="M142 674h159l-101 -533h127l102 533h159l-101 -533h127l102 533h159l-128 -674h-733z" />
    <glyph glyph-name="uni0429" unicode="&#x429;" horiz-adv-x="877" 
d="M143 674h159l-101 -533h127l102 533h159l-101 -533h127l102 533h159l-103 -538l63 -5l-69 -298h-130l24 167h-646z" />
    <glyph glyph-name="uni042A" unicode="&#x42a;" horiz-adv-x="663" 
d="M91 674h310l-46 -233c18 3 40 6 62 6c130 0 212 -76 212 -198c0 -68 -24 -120 -62 -161c-67 -71 -181 -95 -289 -95c-68 0 -134 5 -166 10l100 526h-148zM331 314l-36 -190c13 -2 24 -2 38 -2c61 0 121 43 121 108c0 50 -30 88 -84 88c-16 0 -30 -2 -39 -4z" />
    <glyph glyph-name="uni042B" unicode="&#x42b;" horiz-adv-x="817" 
d="M141 674h161l-45 -233c18 4 42 6 68 6c110 0 198 -72 198 -196c0 -68 -24 -122 -63 -163c-71 -74 -180 -95 -279 -95c-69 0 -134 5 -167 10zM232 313l-35 -189c9 -2 22 -2 37 -2c55 0 114 38 114 107c0 49 -27 89 -76 89c-14 0 -28 -2 -40 -5zM667 674h170l-129 -674
h-170z" />
    <glyph glyph-name="uni042C" unicode="&#x42c;" horiz-adv-x="561" 
d="M141 674h160l-45 -233c18 4 42 6 67 6c120 0 208 -71 208 -198c0 -67 -24 -119 -62 -158c-67 -71 -181 -98 -289 -98c-68 0 -134 5 -166 10zM232 314l-35 -190c13 -2 24 -2 38 -2c58 0 121 38 121 107c0 52 -31 89 -85 89c-13 0 -28 -2 -39 -4z" />
    <glyph glyph-name="uni042D" unicode="&#x42d;" horiz-adv-x="538" 
d="M97 266l24 133h234v11c-2 63 -41 135 -130 135c-36 0 -73 -8 -108 -21l-32 124c41 19 99 36 164 36c182 0 274 -134 274 -301c0 -122 -39 -230 -113 -301c-61 -60 -144 -92 -256 -92c-70 0 -134 20 -163 35l41 130c36 -18 77 -25 120 -25c97 0 161 62 181 136h-236z" />
    <glyph glyph-name="uni042E" unicode="&#x42e;" horiz-adv-x="897" 
d="M143 674h163l-48 -259h74c20 71 55 135 101 181c55 55 129 88 215 88c163 0 240 -121 240 -262c0 -133 -44 -267 -122 -346c-54 -54 -126 -86 -214 -86c-161 0 -239 132 -239 246c0 12 1 24 2 36h-86l-50 -272h-164zM573 127c93 0 145 193 145 296c0 63 -20 124 -89 124
c-95 0 -153 -177 -153 -294c0 -71 28 -126 97 -126z" />
    <glyph glyph-name="uni042F" unicode="&#x42f;" horiz-adv-x="558" 
d="M577 663l-119 -663h-164l48 261h-14c-63 0 -100 -88 -122 -135c-19 -44 -38 -88 -63 -126h-177c31 47 55 102 80 155c33 69 77 140 141 159v3c-46 13 -106 60 -106 150c0 65 31 120 80 155c56 41 131 57 223 57c73 0 151 -7 193 -16zM364 380l30 170c-10 1 -25 3 -38 3
c-62 0 -107 -37 -107 -98c0 -47 37 -78 84 -78c10 0 21 1 31 3z" />
    <glyph glyph-name="uni0430" unicode="&#x430;" horiz-adv-x="531" 
d="M454 0h-147c2 28 3 55 4 83h-3c-41 -69 -98 -93 -146 -93c-86 0 -141 68 -141 168c0 159 94 344 338 344c61 0 125 -12 165 -26l-51 -261c-10 -54 -20 -154 -19 -215zM320 262l22 115c-11 2 -21 3 -28 3c-77 0 -125 -122 -125 -190c0 -42 15 -68 44 -68
c31 0 68 33 87 140z" />
    <glyph glyph-name="uni0431" unicode="&#x431;" horiz-adv-x="537" 
d="M551 713l-23 -135c-28 -9 -63 -12 -94 -15c-61 -6 -125 -12 -179 -60c-29 -26 -51 -69 -59 -98h5c37 54 88 87 150 87c110 0 162 -91 161 -192c-2 -160 -108 -310 -278 -310c-119 0 -194 80 -194 235c0 144 43 276 131 363c79 78 165 99 274 107c41 4 80 9 106 18z
M253 110c65 0 92 116 92 178c0 35 -12 84 -53 84c-21 0 -40 -15 -54 -39c-25 -37 -39 -87 -39 -139c0 -43 16 -84 54 -84z" />
    <glyph glyph-name="uni0432" unicode="&#x432;" horiz-adv-x="524" 
d="M310 502h2c107 0 180 -36 180 -121c0 -67 -59 -104 -110 -119v-2c46 -4 95 -37 95 -97c0 -131 -147 -172 -260 -172c-133 0 -189 56 -189 153c0 95 38 253 128 315c42 29 94 43 154 43zM296 391c-50 0 -73 -53 -84 -97c30 6 63 12 91 25c19 9 35 21 35 41
c0 18 -16 31 -42 31zM258 203c-22 0 -49 -7 -66 -14c-2 -10 -5 -26 -5 -39c0 -24 11 -46 50 -46c47 0 77 24 77 56c0 33 -27 43 -56 43z" />
    <glyph glyph-name="uni0433" unicode="&#x433;" horiz-adv-x="416" 
d="M97 360l-14 109c41 19 100 33 160 33c106 0 165 -52 165 -138c0 -84 -72 -130 -159 -170c-49 -24 -82 -43 -82 -63c0 -14 12 -22 39 -22c49 0 96 18 128 34l15 -114c-45 -23 -108 -38 -170 -38c-108 0 -179 45 -179 135c0 102 89 141 174 180c46 22 77 38 77 54
c0 15 -18 23 -45 23c-39 0 -82 -12 -109 -23z" />
    <glyph glyph-name="uni0434" unicode="&#x434;" horiz-adv-x="543" 
d="M137 579v134c39 -11 94 -9 134 -13c65 -6 119 -21 161 -52c71 -46 92 -134 92 -235c0 -190 -82 -423 -309 -423c-119 0 -191 75 -191 198c0 146 105 304 256 304c57 0 90 -26 110 -68h4c1 8 1 16 1 20c1 29 -11 67 -43 90c-30 24 -76 31 -126 35c-29 2 -57 3 -89 10z
M242 111c66 0 100 122 101 178c1 37 -10 80 -50 80c-65 0 -103 -110 -102 -185c0 -40 14 -73 51 -73z" />
    <glyph glyph-name="uni0435" unicode="&#x435;" horiz-adv-x="487" 
d="M407 145l8 -119c-60 -28 -127 -35 -181 -35c-140 0 -210 77 -210 205c0 149 100 306 279 306c101 0 171 -61 171 -153c0 -128 -111 -179 -295 -173c1 -12 7 -24 17 -34c17 -15 44 -25 81 -25c48 0 90 9 130 28zM324 346c0 19 -14 34 -40 34c-55 0 -84 -46 -90 -85
c91 -2 130 16 130 51z" />
    <glyph glyph-name="uni0436" unicode="&#x436;" horiz-adv-x="732" 
d="M53 492h174l55 -201h11l37 201h155l-41 -201h12l137 201h179l-188 -218c42 -18 62 -93 70 -149c5 -37 14 -91 25 -125h-160c-9 26 -13 74 -18 103c-6 41 -12 98 -57 98h-14l-38 -201h-155l39 200h-10c-44 0 -70 -34 -92 -84c-19 -43 -34 -83 -54 -116h-160
c23 40 38 83 60 132c29 67 77 134 138 143z" />
    <glyph glyph-name="uni0437" unicode="&#x437;" horiz-adv-x="455" 
d="M96 201l15 104h51c46 0 92 10 92 42c0 26 -26 40 -62 40s-80 -13 -111 -28l-28 99c50 26 116 43 180 43c82 0 189 -26 189 -128c0 -66 -57 -102 -118 -115v-1c51 -10 103 -45 103 -111c0 -118 -134 -154 -236 -154c-71 0 -139 14 -190 47l40 108c34 -21 84 -37 132 -37
c42 0 84 15 84 47c0 31 -35 44 -87 44h-54z" />
    <glyph glyph-name="uni0438" unicode="&#x438;" horiz-adv-x="540" 
d="M95 492h163l-49 -261c-5 -24 -8 -49 -8 -68c0 -22 9 -41 34 -41c38 0 73 47 89 132l45 238h163l-62 -328c-11 -61 -20 -117 -27 -164h-143l6 71h-2c-48 -59 -102 -81 -156 -81c-80 0 -116 50 -116 130c0 30 4 63 11 100z" />
    <glyph glyph-name="uni0439" unicode="&#x439;" horiz-adv-x="540" 
d="M95 492h164l-50 -261c-4 -24 -8 -49 -8 -68c0 -22 10 -41 35 -41c37 0 72 47 88 132l45 238h163l-62 -328c-11 -61 -20 -117 -27 -164h-143l6 71h-2c-48 -59 -102 -81 -156 -81c-80 0 -116 50 -116 130c0 30 4 63 11 100zM215 691h99c-4 -39 6 -63 32 -63
c25 0 40 27 48 63h100c-17 -89 -73 -134 -158 -134s-125 50 -121 134z" />
    <glyph glyph-name="uni043A" unicode="&#x43a;" horiz-adv-x="502" 
d="M97 492h159l-37 -201h9l138 201h189l-197 -221c40 -20 58 -74 66 -146c5 -46 15 -94 25 -125h-160c-9 22 -15 75 -21 116c-8 51 -21 82 -56 82h-11l-38 -198h-160z" />
    <glyph glyph-name="uni043B" unicode="&#x43b;" horiz-adv-x="533" 
d="M138 492h390l-93 -492h-163l69 367h-77l-17 -86c-24 -120 -52 -184 -101 -230c-37 -37 -86 -60 -161 -60l-10 129c31 3 54 14 71 32c23 25 41 72 52 128z" />
    <glyph glyph-name="uni043C" unicode="&#x43c;" horiz-adv-x="692" 
d="M123 492h201l7 -165c1 -29 3 -70 3 -114h3c11 28 34 79 54 121l75 158h202l-63 -492h-151l28 173c6 38 18 109 28 164h-4c-19 -48 -41 -97 -68 -154l-82 -173h-127l-9 168c-3 49 -5 107 -7 159h-3c-12 -58 -27 -129 -36 -166l-42 -171h-140z" />
    <glyph glyph-name="uni043D" unicode="&#x43d;" horiz-adv-x="537" 
d="M95 492h164l-34 -177h108l34 177h164l-93 -492h-164l36 190h-107l-36 -190h-164z" />
    <glyph glyph-name="uni043E" unicode="&#x43e;" horiz-adv-x="534" 
d="M224 -10c-129 0 -200 85 -200 194c0 175 115 318 286 318c133 0 197 -93 197 -195c0 -183 -118 -317 -283 -317zM245 114c63 0 95 122 95 198c0 36 -14 66 -53 66c-64 0 -97 -124 -96 -190c0 -42 16 -74 54 -74z" />
    <glyph glyph-name="uni043F" unicode="&#x43f;" horiz-adv-x="542" 
d="M167 0h-163l61 328c12 61 21 117 28 164h143l-7 -70h2c43 55 98 80 157 80c85 0 119 -54 119 -128c0 -24 -5 -61 -9 -88l-55 -286h-163l52 277c3 16 5 33 5 49c0 26 -8 44 -33 44c-36 0 -76 -47 -95 -147z" />
    <glyph glyph-name="uni0440" unicode="&#x440;" horiz-adv-x="544" 
d="M129 -196h-163l96 503c10 57 22 137 28 188h144l-7 -67h2c36 48 89 74 141 74c103 0 146 -84 146 -181c0 -169 -104 -331 -268 -331c-31 0 -62 7 -78 17h-2zM213 250l-21 -120c12 -11 26 -18 47 -18c63 0 107 112 107 192c0 32 -10 64 -45 64c-42 0 -77 -49 -88 -118z
" />
    <glyph glyph-name="uni0441" unicode="&#x441;" horiz-adv-x="402" 
d="M350 137l-5 -125c-28 -13 -72 -21 -124 -21c-117 0 -199 75 -199 198c0 181 133 312 312 312c38 0 68 -5 90 -12l-39 -127c-16 5 -32 8 -53 8c-83 0 -140 -73 -140 -162c0 -59 37 -86 77 -86c34 0 59 7 81 15z" />
    <glyph glyph-name="uni0442" unicode="&#x442;" horiz-adv-x="793" 
d="M163 0h-159l61 328c11 61 19 117 26 164h140l-7 -72h2c41 57 96 82 157 82c69 0 102 -44 107 -82c40 55 97 82 156 82c78 0 113 -51 113 -127c0 -20 -5 -61 -10 -90l-53 -285h-160l50 268c4 22 7 43 7 62c0 24 -11 41 -34 41c-36 0 -71 -52 -89 -147l-43 -224h-157
l50 268c4 21 7 41 7 59c0 26 -9 44 -31 44c-36 0 -75 -54 -92 -147z" />
    <glyph glyph-name="uni0443" unicode="&#x443;" horiz-adv-x="485" 
d="M42 492h173l15 -203c5 -48 8 -83 10 -112h2c9 32 19 62 38 116l69 199h170c-40 -85 -111 -254 -171 -373c-68 -132 -118 -204 -184 -266c-50 -46 -111 -70 -142 -76l-43 138c23 8 51 20 75 36c31 21 56 46 70 72c3 7 4 12 2 23z" />
    <glyph glyph-name="uni0444" unicode="&#x444;" horiz-adv-x="720" 
d="M199 -196l42 222h-2c-21 -23 -54 -36 -94 -36c-64 0 -122 56 -122 182c0 158 94 330 236 330c35 0 58 -19 67 -35h2l46 238h147l-49 -244h3c20 21 54 41 94 41c90 0 127 -89 127 -183c0 -174 -96 -329 -232 -329c-30 0 -59 12 -73 33h-2l-39 -219h-151zM277 377
c-50 0 -93 -111 -93 -189c0 -42 15 -66 38 -66c25 0 42 23 48 48l29 143c4 16 5 28 5 40c-1 11 -9 24 -27 24zM498 368c-21 0 -35 -17 -42 -35c-8 -28 -15 -57 -22 -91c-5 -28 -11 -59 -15 -89c-1 -16 3 -28 11 -31c7 -3 20 -4 37 4c35 17 69 101 69 173c0 34 -10 69 -38 69
z" />
    </font>
</defs>
</svg>
