<?xml version="1.0" standalone="no"?>
<!DOCTYPE svg PUBLIC "-//W3C//DTD SVG 1.1//EN" "http://www.w3.org/Graphics/SVG/1.1/DTD/svg11.dtd" >
<svg>
<metadata>
Created by FontForge 20120731 at Mon Jun 18 20:26:29 2018
 By www-data
Copyright 1997 International Typeface Corporation. All rights reserved. "ITC" and "Officina" are trademarks of International Typeface Corporation Registered in U.S. Patent and Trademark Office and may be registered in certain other jurisdictions.
</metadata>
<defs>
<font id="OfficinaSerITCStd-ExtraBoldIta" horiz-adv-x="543" >
  <font-face 
    font-family="OfficinaSerITCStd Medium"
    font-weight="750"
    font-style="italic"
    font-stretch="normal"
    units-per-em="1000"
    panose-1="2 0 9 6 5 0 0 9 0 4"
    ascent="800"
    descent="-200"
    x-height="494"
    cap-height="686"
    bbox="-152.301 -267 1128 962"
    underline-thickness="79"
    underline-position="-25"
    stemh="114"
    stemv="144"
    unicode-range="U+0020-FB02"
  />
<missing-glyph horiz-adv-x="500" 
d="M12 0v665h475v-665h-475zM88 618l162 -243l161 243h-323zM60 575v-484c0 -1 161 242 161 242zM440 575l-162 -242l162 -243v485zM411 48l-161 242l-162 -242h323z" />
    <glyph glyph-name="f_i" unicode="fi" horiz-adv-x="630" 
d="M670 651c0 -51 -41 -95 -95 -95c-53 0 -94 44 -94 95s41 94 95 94c53 0 94 -44 94 -94zM615 477l-100 -466c-2 -9 -4 -11 -14 -11h-121c-15 0 -17 3 -14 15l78 366h-176l-73 -383c-13 -69 -34 -120 -69 -153c-33 -32 -80 -50 -136 -50c-42 0 -69 3 -92 14
c-15 7 -11 14 -7 27l25 83c2 7 7 8 13 6c12 -3 28 -6 41 -6c44 0 61 14 78 100l72 362h-67c-11 0 -15 4 -12 17l16 80c2 12 3 16 15 16h71l13 67c12 60 31 97 66 123c31 23 70 35 121 35c41 0 81 -8 104 -21c13 -7 12 -15 8 -27l-24 -76c-4 -14 -16 -12 -25 -9
c-14 5 -33 11 -51 11c-35 0 -49 -19 -59 -68l-7 -35h314c15 0 15 -4 12 -17z" />
    <glyph glyph-name="f_l" unicode="fl" horiz-adv-x="657" 
d="M668 710l-108 -506c-9 -41 -13 -59 -13 -67c0 -10 5 -16 16 -16c9 0 23 3 31 5c7 2 14 1 16 -10l11 -74c2 -14 4 -20 -8 -28c-18 -13 -58 -24 -105 -24c-73 0 -113 30 -114 94c0 28 4 59 14 106l105 497c3 12 5 14 17 16l125 21c13 2 15 -3 13 -14zM455 671l-24 -76
c-4 -14 -16 -12 -25 -9c-14 5 -33 11 -51 11c-35 0 -49 -19 -59 -68l-7 -35h113c12 0 13 -5 10 -16l-24 -86c-3 -10 -4 -11 -14 -11h-106l-73 -383c-13 -69 -34 -120 -69 -153c-33 -32 -80 -50 -136 -50c-42 0 -69 3 -92 14c-15 7 -11 14 -7 27l25 83c2 7 7 8 13 6
c12 -3 28 -6 41 -6c44 0 61 14 78 100l72 362h-67c-11 0 -15 4 -12 17l16 80c2 12 3 16 15 16h71l13 67c12 60 31 97 66 123c31 23 70 35 121 35c41 0 81 -8 104 -21c13 -7 12 -15 8 -27z" />
    <glyph glyph-name=".notdef" horiz-adv-x="500" 
d="M12 0v665h475v-665h-475zM88 618l162 -243l161 243h-323zM60 575v-484c0 -1 161 242 161 242zM440 575l-162 -242l162 -243v485zM411 48l-161 242l-162 -242h323z" />
    <glyph glyph-name="space" unicode=" " horiz-adv-x="210" 
 />
    <glyph glyph-name="exclam" unicode="!" horiz-adv-x="368" 
d="M360 664l-110 -408c-3 -12 -5 -14 -18 -14h-90c-19 0 -17 10 -15 24l62 402c2 16 4 18 18 18h138c21 0 19 -8 15 -22zM256 73c0 -53 -44 -97 -97 -97s-97 44 -97 97c0 54 43 97 97 97c53 0 97 -44 97 -97z" />
    <glyph glyph-name="quotedbl" unicode="&#x22;" horiz-adv-x="483" 
d="M486 658l-71 -230c-4 -12 -9 -16 -21 -16h-67c-21 0 -17 16 -15 30l28 227c1 12 10 17 22 17h111c21 0 17 -14 13 -28zM291 658l-71 -230c-4 -12 -9 -16 -21 -16h-67c-21 0 -17 16 -15 30l28 227c1 12 10 17 22 17h111c21 0 17 -14 13 -28z" />
    <glyph glyph-name="numbersign" unicode="#" horiz-adv-x="592" 
d="M612 486l-16 -75c-2 -11 -6 -17 -18 -17h-77l-42 -142h66c19 0 17 -8 14 -23l-17 -76c-2 -11 -6 -17 -18 -17h-80l-50 -171c-3 -11 -6 -17 -18 -17h-89c-24 0 -20 15 -16 30l45 158h-82l-49 -171c-3 -11 -7 -17 -19 -17h-90c-24 0 -20 15 -16 30l46 158h-59
c-19 0 -17 8 -14 24l16 74c2 11 7 18 19 18h73l42 142h-63c-18 0 -16 7 -13 23l16 76c3 12 7 17 19 17h76l46 160c3 11 6 16 18 16h90c12 0 20 -6 19 -15c0 -2 -2 -10 -3 -15l-42 -146h82l46 160c3 11 7 16 19 16h89c24 0 19 -15 15 -30l-41 -146h63c18 0 17 -6 13 -24z
M373 394h-82l-42 -142h82z" />
    <glyph glyph-name="dollar" unicode="$" horiz-adv-x="520" 
d="M527 618l-43 -80c-3 -6 -8 -8 -14 -8c-12 0 -24 6 -37 13c-34 18 -69 29 -102 29c-59 0 -93 -32 -93 -76c0 -26 21 -43 49 -64c9 -7 32 -22 69 -45c70 -43 111 -89 111 -164c0 -123 -84 -211 -211 -232l-9 -46c-2 -11 -10 -20 -21 -20h-61c-11 0 -22 9 -20 20l9 44
c-50 5 -105 20 -150 44c-16 8 -22 15 -13 31l49 90c7 12 13 14 23 10c9 -3 15 -7 41 -20c30 -15 65 -25 102 -25c64 0 99 31 99 78c0 30 -14 48 -48 70l-64 42c-40 26 -57 39 -75 59c-24 27 -38 61 -38 108c0 126 83 207 223 221l4 23c2 11 10 20 21 20h61
c11 0 22 -9 20 -20l-5 -25c44 -7 89 -21 115 -41c19 -15 18 -17 8 -36z" />
    <glyph glyph-name="percent" unicode="%" horiz-adv-x="843" 
d="M798 223c0 -115 -69 -238 -196 -238c-78 0 -128 50 -128 130c0 118 69 239 198 239c77 0 126 -52 126 -131zM691 647l-424 -672c-6 -9 -12 -15 -23 -15h-77c-23 0 -15 19 -8 31l424 672c6 9 12 15 23 15h77c23 0 16 -19 8 -31zM388 531c0 -115 -69 -238 -196 -238
c-78 0 -128 50 -128 130c0 118 70 240 199 240c77 0 125 -52 125 -132zM691 225c0 24 -13 37 -32 37c-58 0 -77 -109 -77 -150c0 -24 12 -35 31 -35c58 0 78 107 78 148zM281 534c0 24 -13 37 -32 37c-59 0 -77 -108 -77 -149c0 -25 12 -37 31 -37c58 0 78 108 78 149z" />
    <glyph glyph-name="ampersand" unicode="&#x26;" horiz-adv-x="653" 
d="M625 330c-1 -10 -7 -29 -13 -46c-20 -57 -43 -101 -76 -144l63 -87c6 -9 14 -23 0 -29l-91 -41c-14 -6 -27 -6 -34 5l-38 56c-68 -53 -128 -70 -204 -70c-127 0 -203 60 -203 169c0 105 63 178 181 231c-43 65 -58 103 -58 151c0 112 92 182 227 182
c106 0 174 -52 174 -143c0 -83 -51 -148 -163 -214l66 -98c14 25 28 55 37 91c6 25 11 24 34 20l85 -13c14 -2 14 -10 13 -20zM414 550c0 28 -15 46 -45 46c-43 0 -74 -30 -74 -69c0 -24 10 -48 37 -93c58 36 82 72 82 116zM366 142l-93 143c-65 -36 -90 -67 -90 -111
c0 -51 28 -80 72 -80c39 0 73 14 111 48z" />
    <glyph glyph-name="quoteright" unicode="&#x2019;" horiz-adv-x="293" 
d="M335 693l-158 -230c-10 -15 -16 -12 -32 -6l-59 21c-14 5 -14 11 -8 24l94 203c5 11 10 13 22 13h132c21 0 17 -13 9 -25z" />
    <glyph glyph-name="parenleft" unicode="(" horiz-adv-x="468" 
d="M515 669c-49 -54 -118 -136 -155 -193c-66 -102 -110 -229 -110 -368c0 -111 34 -211 77 -291c6 -11 17 -33 1 -40l-65 -30c-14 -6 -28 -7 -39 4c-7 7 -15 20 -29 46c-65 116 -99 214 -99 329c0 127 35 245 99 351c55 92 138 182 218 255c13 12 30 27 47 15l55 -38
c19 -13 15 -24 0 -40z" />
    <glyph glyph-name="parenright" unicode=")" horiz-adv-x="468" 
d="M370 367c0 -128 -35 -245 -99 -351c-41 -69 -105 -146 -177 -215c-3 -4 -37 -36 -42 -40c-12 -11 -30 -27 -47 -15l-55 38c-18 13 -12 26 0 39c46 50 119 138 155 194c67 103 110 229 110 369c0 111 -33 205 -77 290c-6 11 -16 32 0 40l64 30c15 7 26 10 39 -4
c7 -7 16 -20 30 -46c66 -118 99 -214 99 -329z" />
    <glyph glyph-name="asterisk" unicode="*" horiz-adv-x="528" 
d="M501 512c3 -15 10 -31 -13 -32l-130 -3l83 -98c8 -9 9 -20 -1 -26l-77 -43c-9 -5 -20 -3 -24 9l-45 124l-66 -112c-7 -13 -19 -10 -31 0l-55 49c-9 8 -12 21 0 31l99 80l-122 29c-21 5 -19 15 -13 28l35 75c8 17 20 8 32 0l100 -67l-10 124c-1 15 2 26 23 23l83 -10
c22 -3 16 -15 11 -30l-36 -116l119 46c13 5 22 7 25 -10z" />
    <glyph glyph-name="plus" unicode="+" horiz-adv-x="500" 
d="M502 284c0 -19 -2 -20 -21 -20h-131v-131c0 -19 -1 -20 -20 -20h-112c-18 0 -21 1 -21 20v131h-131c-19 0 -20 1 -20 20v99c0 17 1 21 20 21h131v130c0 18 3 21 21 21h112c19 0 20 -3 20 -21v-130h131c19 0 21 -4 21 -21v-99z" />
    <glyph glyph-name="comma" unicode="," horiz-adv-x="318" 
d="M248 103l-172 -237c-8 -11 -12 -12 -25 -7l-68 25c-14 5 -14 10 -8 22l105 208c5 10 9 11 20 11h136c15 0 21 -10 12 -22z" />
    <glyph glyph-name="hyphen" unicode="-" horiz-adv-x="382" 
d="M352 308l-25 -111c-2 -8 -7 -15 -15 -15h-270c-8 0 -14 7 -12 15l25 111c2 8 7 15 15 15h270c8 0 14 -7 12 -15z" />
    <glyph glyph-name="period" unicode="." horiz-adv-x="322" 
d="M242 88c0 -59 -49 -108 -108 -108s-107 49 -107 108c0 60 48 107 108 107c59 0 107 -48 107 -107z" />
    <glyph glyph-name="slash" unicode="/" horiz-adv-x="478" 
d="M535 683l-509 -874c-6 -10 -11 -14 -24 -14h-88c-26 0 -16 18 -8 32l508 873c6 11 10 15 24 15h88c25 0 16 -19 9 -32z" />
    <glyph glyph-name="zero" unicode="0" 
d="M562 497c0 -145 -49 -308 -123 -404c-51 -66 -133 -110 -218 -110c-127 0 -193 77 -193 195c0 146 52 310 129 405c51 63 129 103 212 103c120 0 193 -72 193 -189zM407 480c0 55 -19 77 -56 77c-46 0 -83 -41 -111 -107c-32 -76 -57 -207 -57 -262c0 -54 20 -76 55 -76
c47 0 84 42 113 111c32 76 56 200 56 257z" />
    <glyph glyph-name="one" unicode="1" 
d="M462 639l-113 -528h71c13 0 20 -4 16 -22l-15 -71c-3 -12 -7 -18 -19 -18h-314c-16 0 -15 7 -12 23l14 71c2 12 7 17 19 17h98l84 391l-92 -47c-15 -8 -21 -12 -29 6l-26 57c-6 14 -10 20 5 29l193 114c8 5 16 8 30 8h74c23 0 19 -15 16 -30z" />
    <glyph glyph-name="two" unicode="2" 
d="M542 528c0 -62 -20 -112 -57 -155c-43 -49 -89 -79 -163 -129c-64 -43 -114 -80 -124 -115h237c21 0 20 -7 17 -23l-18 -88c-2 -12 -8 -18 -20 -18h-374c-18 0 -19 9 -19 21c0 19 14 68 27 101c36 87 102 148 203 216c56 37 88 58 111 84c20 23 33 51 33 88
c0 35 -18 52 -49 52c-48 0 -82 -40 -113 -85c-14 -20 -16 -22 -36 -13l-73 32c-11 5 -7 14 -5 21c5 17 17 39 34 62c52 70 129 107 216 107c105 0 173 -60 173 -158z" />
    <glyph glyph-name="three" unicode="3" 
d="M511 538c0 -80 -45 -152 -115 -180c49 -28 73 -68 73 -128c0 -71 -27 -133 -72 -177c-49 -46 -115 -70 -200 -70c-58 0 -132 16 -175 46c-17 12 -16 17 -8 34l36 74c8 17 18 12 31 5c36 -21 77 -36 123 -36c37 0 63 9 84 28c23 22 37 54 37 90c0 43 -24 67 -96 67h-43
c-20 0 -20 8 -17 23l17 79c3 12 6 17 19 17h44c45 0 73 10 94 34c16 19 25 43 25 72c0 32 -21 48 -52 48c-37 0 -70 -24 -103 -53c-10 -8 -16 -14 -28 -4l-57 48c-15 13 -9 25 4 39c55 61 131 92 204 92c104 0 175 -57 175 -148z" />
    <glyph glyph-name="four" unicode="4" 
d="M514 240l-16 -78c-2 -12 -7 -18 -19 -18h-61l-27 -127c-3 -12 -8 -17 -20 -17h-102c-20 0 -18 9 -15 24l25 120h-245c-20 0 -21 9 -17 26l22 106c1 5 6 19 11 26l288 396c10 14 23 8 37 4l90 -28c19 -6 14 -18 5 -30l-293 -381h129l54 151c4 11 7 17 19 17h78
c19 0 20 -6 17 -23l-30 -145h56c16 0 17 -8 14 -23z" />
    <glyph glyph-name="five" unicode="5" 
d="M537 649l-25 -95c-2 -9 -9 -13 -17 -13h-210l-40 -128c27 15 54 21 86 21c93 0 169 -65 169 -160c0 -75 -32 -152 -86 -206c-55 -56 -132 -85 -221 -85c-59 0 -133 14 -170 34c-20 11 -18 18 -11 36l34 82c6 14 21 6 31 2c38 -17 87 -30 121 -30c93 0 158 58 158 151
c0 41 -22 65 -66 65c-41 0 -73 -14 -103 -42c-10 -9 -17 -15 -30 -11l-75 26c-14 5 -7 17 -4 28l101 328c3 11 7 17 19 17h325c14 0 17 -7 14 -20z" />
    <glyph glyph-name="six" unicode="6" 
d="M540 628l-41 -76c-8 -15 -23 -5 -34 0c-15 7 -35 11 -54 11c-72 0 -126 -44 -171 -130c33 25 66 36 100 36c96 0 153 -63 153 -168c0 -103 -38 -196 -104 -256c-43 -40 -100 -62 -167 -62c-115 0 -182 71 -182 193c0 138 60 301 148 401c61 69 137 109 233 109
c40 0 87 -9 113 -26c17 -11 13 -19 6 -32zM348 286c0 47 -19 68 -55 68c-59 0 -107 -70 -107 -181c0 -45 19 -66 53 -66c59 0 109 73 109 179z" />
    <glyph glyph-name="seven" unicode="7" 
d="M545 647l-15 -61l-342 -590c-5 -8 -11 -11 -19 -10l-126 22c-12 2 -9 13 -3 23l315 506h-244c-11 0 -15 8 -12 21l23 100c2 7 8 11 16 11h394c14 0 17 -7 13 -22z" />
    <glyph glyph-name="eight" unicode="8" 
d="M540 529c0 -73 -46 -138 -132 -177c61 -36 87 -82 87 -143c0 -60 -25 -118 -72 -161c-53 -48 -115 -65 -204 -65c-130 0 -211 54 -211 160c0 96 63 169 166 211c-46 31 -72 73 -72 129c0 121 97 203 238 203c115 0 200 -62 200 -157zM391 512c0 35 -21 57 -60 57
c-54 0 -83 -35 -83 -81c0 -36 19 -60 55 -80c62 24 88 56 88 104zM346 200c0 31 -12 55 -36 73c-10 7 -18 12 -37 21c-77 -31 -116 -67 -116 -123c0 -41 27 -67 85 -67c67 0 104 37 104 96z" />
    <glyph glyph-name="nine" unicode="9" 
d="M521 492c0 -137 -57 -294 -144 -395c-61 -70 -139 -114 -236 -114c-37 0 -69 10 -90 20c-12 6 -17 13 -17 21c0 6 2 13 4 18l25 69c3 9 9 11 15 11c7 0 14 -4 21 -6c17 -6 34 -10 50 -10c76 0 135 52 173 134c-33 -27 -69 -39 -101 -39c-92 0 -152 62 -152 167
c0 103 37 196 104 256c44 40 101 62 167 62c117 0 181 -71 181 -194zM377 497c0 44 -17 65 -53 65c-26 0 -48 -12 -65 -34c-28 -37 -45 -95 -45 -149c0 -41 20 -64 54 -64c23 0 47 12 63 33c26 33 46 89 46 149z" />
    <glyph glyph-name="colon" unicode=":" horiz-adv-x="324" 
d="M315 417c0 -59 -49 -108 -108 -108s-108 49 -108 108c0 60 48 107 108 107c59 0 108 -48 108 -107zM242 88c0 -59 -49 -108 -108 -108s-107 49 -107 108c0 60 48 107 108 107c59 0 107 -48 107 -107z" />
    <glyph glyph-name="semicolon" unicode=";" horiz-adv-x="329" 
d="M331 417c0 -59 -49 -108 -108 -108s-107 49 -107 108c0 60 48 107 108 107c59 0 107 -48 107 -107zM251 103l-172 -237c-8 -11 -12 -12 -25 -7l-68 25c-14 5 -14 10 -8 22l105 208c5 10 9 11 20 11h136c15 0 21 -10 12 -22z" />
    <glyph glyph-name="less" unicode="&#x3c;" horiz-adv-x="500" 
d="M512 53c0 -18 -6 -20 -21 -12l-437 222c-15 8 -19 8 -19 23v92c0 14 3 15 17 22l439 223c15 8 21 6 21 -12v-119c0 -15 -4 -18 -19 -25l-284 -134l284 -137c15 -7 19 -10 19 -25v-118z" />
    <glyph glyph-name="equal" unicode="=" horiz-adv-x="500" 
d="M502 388c0 -19 -2 -21 -21 -21h-415c-19 0 -20 2 -20 21v94c0 17 1 20 20 20h415c19 0 21 -3 21 -20v-94zM502 184c0 -19 -2 -20 -21 -20h-415c-19 0 -20 1 -20 20v94c0 17 1 21 20 21h415c19 0 21 -4 21 -21v-94z" />
    <glyph glyph-name="greater" unicode="&#x3e;" horiz-adv-x="500" 
d="M512 287c0 -15 -4 -15 -19 -23l-438 -222c-15 -8 -20 -6 -20 12v119c0 15 3 18 18 25l284 136l-284 135c-15 7 -18 9 -18 24v119c0 18 5 20 20 12l439 -223c14 -7 18 -8 18 -22v-92z" />
    <glyph glyph-name="question" unicode="?" horiz-adv-x="479" 
d="M494 543c0 -110 -78 -190 -202 -215l-15 -69c-3 -12 -4 -14 -17 -14h-110c-16 0 -15 7 -12 22l25 123c3 14 7 18 20 21c37 9 73 24 88 32c39 22 60 39 60 74c0 32 -21 48 -56 48s-61 -4 -102 -24l-14 -7c-9 -4 -14 0 -19 9l-40 79c-9 18 -8 20 13 33c51 32 126 48 194 48
c110 0 187 -63 187 -160zM274 74c0 -53 -44 -97 -97 -97s-97 44 -97 97c0 54 43 96 97 96c53 0 97 -43 97 -96z" />
    <glyph glyph-name="at" unicode="@" horiz-adv-x="999" 
d="M927 357c0 -184 -126 -313 -280 -313c-56 0 -86 21 -95 63c-37 -42 -70 -63 -119 -63c-66 0 -99 50 -99 127c0 140 82 264 179 264c40 0 70 -11 91 -33c5 10 7 24 21 24h69c14 0 13 -10 11 -20l-47 -221c-2 -8 -2 -17 -2 -24c0 -19 9 -27 35 -27c68 0 130 105 130 216
c0 132 -92 223 -256 223c-222 0 -368 -173 -368 -387c0 -90 29 -156 81 -201c53 -46 124 -65 213 -65c103 0 199 19 283 59c9 4 23 12 28 -1l22 -61c5 -13 -1 -18 -12 -25c-64 -41 -200 -72 -318 -72c-132 0 -232 31 -302 97c-68 64 -107 157 -107 272
c0 275 214 479 485 479c216 0 357 -118 357 -311zM578 323c-17 15 -33 25 -50 25c-21 0 -38 -18 -50 -47c-17 -41 -26 -95 -26 -127c0 -26 5 -39 27 -39c34 0 70 35 81 93z" />
    <glyph glyph-name="A" unicode="A" horiz-adv-x="602" 
d="M572 100l-18 -85c-2 -11 -6 -15 -17 -15h-146c-13 0 -15 6 -16 21l-9 154h-150l-67 -157c-5 -13 -9 -18 -27 -18h-150c-12 0 -15 7 -12 19l18 81c3 14 5 18 20 18h32l282 557c3 5 6 11 12 11h141c8 0 9 -7 10 -16l51 -552h28c18 0 21 -2 18 -18zM362 286l-1 161
c0 20 1 41 1 82c-11 -29 -30 -71 -38 -89l-69 -154h107z" />
    <glyph glyph-name="B" unicode="B" horiz-adv-x="596" 
d="M580 526c0 -72 -38 -132 -124 -168c58 -27 84 -76 84 -140c0 -88 -49 -160 -119 -191c-45 -20 -81 -27 -175 -27h-249c-11 0 -13 6 -11 15l19 90c2 11 6 15 18 15h46l95 446h-45c-11 0 -13 6 -11 15l19 90c2 11 6 15 18 15h229c66 0 116 -12 152 -40
c34 -27 54 -67 54 -120zM425 516c0 34 -16 51 -64 51h-42l-34 -160h31c37 0 61 8 80 28c18 18 29 49 29 81zM384 234c0 43 -21 59 -86 59h-38l-37 -174h36c47 0 73 7 93 25c20 19 32 50 32 90z" />
    <glyph glyph-name="C" unicode="C" horiz-adv-x="521" 
d="M558 621l-26 -128c-2 -11 -7 -13 -17 -13h-93c-13 0 -16 6 -14 16l15 70c-15 5 -27 8 -42 8c-49 0 -82 -27 -112 -78c-44 -76 -67 -192 -67 -268c0 -83 27 -107 87 -107c16 0 30 2 48 7l14 67c2 10 5 15 16 15h94c12 0 16 -5 14 -15l-29 -144c-3 -17 -11 -19 -20 -23
c-36 -17 -104 -45 -179 -45c-149 0 -210 100 -210 240c0 138 39 285 120 378c56 65 129 102 227 102c78 0 135 -27 166 -53c6 -5 12 -11 8 -29z" />
    <glyph glyph-name="D" unicode="D" horiz-adv-x="638" 
d="M621 458c0 -141 -56 -308 -135 -383c-65 -62 -152 -75 -272 -75h-217c-11 0 -13 6 -11 15l19 90c2 11 6 15 18 15h46l95 446h-45c-11 0 -13 6 -11 15l19 90c2 11 6 15 18 15h205c111 0 165 -12 209 -55c39 -38 62 -102 62 -173zM459 459c0 42 -11 72 -32 86
c-17 11 -38 14 -79 14h-28l-92 -432c4 0 24 -1 27 0c69 0 104 17 129 51c41 56 75 182 75 281z" />
    <glyph glyph-name="E" unicode="E" horiz-adv-x="530" 
d="M579 671l-35 -165c-2 -10 -8 -15 -19 -15h-91c-11 0 -13 6 -11 15l11 52h-114l-29 -136h175c11 0 14 -5 12 -15l-20 -97c-2 -10 -8 -15 -19 -15h-175l-36 -167h118l13 60c2 11 6 15 18 15h88c11 0 14 -5 12 -15l-37 -173c-2 -10 -8 -15 -19 -15h-424c-11 0 -13 6 -11 15
l19 90c2 11 6 15 18 15h46l95 446h-45c-11 0 -13 6 -11 15l19 90c2 11 6 15 18 15h421c11 0 15 -5 13 -15z" />
    <glyph glyph-name="F" unicode="F" horiz-adv-x="513" 
d="M578 671l-35 -165c-2 -10 -8 -15 -19 -15h-90c-11 0 -13 6 -11 15l11 52h-114l-30 -138h175c11 0 14 -5 12 -15l-20 -98c-2 -10 -8 -15 -19 -15h-175l-37 -172h59c12 0 14 -5 12 -15l-19 -90c-2 -10 -8 -15 -19 -15h-262c-11 0 -13 6 -11 15l19 90c2 11 6 15 18 15h46
l95 446h-45c-11 0 -13 6 -11 15l19 90c2 11 6 15 18 15h420c11 0 15 -5 13 -15z" />
    <glyph glyph-name="G" unicode="G" horiz-adv-x="615" 
d="M607 363l-19 -88c-2 -10 -8 -15 -19 -15h-39l-41 -192c-4 -20 -13 -28 -35 -39c-66 -32 -127 -46 -193 -46c-64 0 -114 16 -149 47c-47 41 -71 110 -71 188c0 107 32 230 79 312c60 105 160 173 290 173c85 0 148 -28 173 -48c6 -5 14 -9 10 -27l-28 -135
c-2 -11 -7 -13 -17 -13h-98c-13 0 -16 6 -14 16l15 72c-14 5 -29 9 -48 9c-66 0 -104 -31 -138 -97c-36 -69 -61 -181 -61 -266c0 -75 25 -100 79 -100c24 0 44 4 68 13l28 133h-57c-11 0 -13 6 -11 15l19 88c2 11 6 15 18 15h247c11 0 14 -5 12 -15z" />
    <glyph glyph-name="H" unicode="H" horiz-adv-x="658" 
d="M721 671l-19 -90c-2 -10 -8 -15 -19 -15h-45l-96 -446h45c11 0 14 -5 12 -15l-19 -90c-2 -10 -8 -15 -19 -15h-242c-11 0 -13 6 -11 15l19 90c2 11 6 15 18 15h40l36 169h-158l-36 -169h39c11 0 14 -5 12 -15l-19 -90c-2 -10 -8 -15 -19 -15h-244c-11 0 -13 6 -11 15
l19 90c2 11 6 15 18 15h46l96 446h-46c-11 0 -13 6 -11 15l19 90c2 11 6 15 18 15h243c11 0 14 -5 12 -15l-19 -90c-2 -10 -8 -15 -19 -15h-40l-31 -146h159l31 146h-41c-11 0 -13 6 -11 15l19 90c2 11 6 15 18 15h244c11 0 14 -5 12 -15z" />
    <glyph glyph-name="I" unicode="I" horiz-adv-x="355" 
d="M415 671l-19 -90c-2 -10 -8 -15 -19 -15h-49l-96 -446h49c12 0 14 -5 12 -15l-19 -90c-2 -10 -8 -15 -19 -15h-258c-11 0 -13 6 -11 15l19 90c2 11 6 15 18 15h51l96 446h-51c-11 0 -13 6 -11 15l19 90c2 11 6 15 18 15h258c11 0 14 -5 12 -15z" />
    <glyph glyph-name="J" unicode="J" horiz-adv-x="455" 
d="M485 670l-97 -459c-18 -85 -39 -128 -80 -165c-42 -38 -94 -58 -158 -58c-98 0 -160 56 -160 148c0 28 4 51 10 66c5 12 11 19 19 19h110c11 0 12 -4 10 -14c-3 -14 -7 -35 -7 -47c0 -30 9 -43 33 -43c29 0 46 15 58 70l81 379h-138c-13 0 -16 3 -13 19l19 87
c3 12 5 14 18 14h282c15 0 16 -4 13 -16z" />
    <glyph glyph-name="K" unicode="K" horiz-adv-x="614" 
d="M691 667l-18 -84c-2 -11 -6 -15 -17 -15h-41l-227 -213l140 -237h44c15 0 15 -6 13 -18l-17 -85c-2 -11 -6 -15 -17 -15h-127c-11 0 -16 4 -21 14l-141 269l-35 -163h35c11 0 14 -5 12 -15l-19 -90c-2 -10 -8 -15 -19 -15h-240c-11 0 -13 6 -11 15l19 90c2 11 6 15 18 15
h46l96 446h-46c-11 0 -13 6 -11 15l19 90c2 11 6 15 18 15h238c11 0 14 -5 12 -15l-19 -90c-2 -10 -8 -15 -19 -15h-34l-28 -132l241 242c7 7 11 10 20 10h122c15 0 17 -6 14 -19z" />
    <glyph glyph-name="L" unicode="L" horiz-adv-x="531" 
d="M511 175l-64 -163c-3 -9 -8 -12 -18 -12h-430c-13 0 -14 7 -12 18l18 87c2 11 5 15 16 15h47l96 446h-47c-11 0 -13 6 -11 15l19 90c2 11 6 15 18 15h252c11 0 14 -5 12 -15l-19 -90c-2 -10 -8 -15 -19 -15h-47l-92 -432h130l33 77c7 16 10 15 25 11l85 -25
c13 -4 13 -9 8 -22z" />
    <glyph glyph-name="M" unicode="M" horiz-adv-x="734" 
d="M777 671l-19 -90c-2 -10 -8 -15 -19 -15h-42l-74 -446h44c12 0 14 -5 12 -15l-19 -90c-2 -10 -8 -15 -19 -15h-174c-11 0 -13 6 -11 15l60 310c6 32 14 69 27 120c-19 -44 -39 -89 -55 -119l-90 -168c-4 -7 -9 -12 -15 -12h-76c-7 0 -11 5 -12 14l-16 163
c-4 37 -4 75 -6 126c-5 -29 -12 -77 -24 -128l-69 -306c-2 -10 -8 -15 -19 -15h-166c-11 0 -13 6 -11 15l19 90c2 11 6 15 18 15h40l115 446h-40c-11 0 -13 6 -11 15l19 90c2 11 6 15 18 15h183c12 0 16 -3 17 -16l22 -220c4 -37 3 -79 0 -117c15 40 33 79 52 113l129 229
c5 8 8 11 18 11h182c11 0 14 -5 12 -15z" />
    <glyph glyph-name="N" unicode="N" horiz-adv-x="661" 
d="M725 671l-19 -90c-2 -10 -8 -15 -19 -15h-45l-117 -551c-2 -11 -7 -15 -16 -15h-96c-6 0 -10 4 -13 13l-106 325c-9 28 -14 54 -20 89c-3 -26 -9 -63 -16 -96l-45 -211h50c12 0 14 -5 12 -15l-19 -90c-2 -10 -8 -15 -19 -15h-240c-11 0 -13 6 -11 15l19 90
c2 11 6 15 18 15h45l95 446h-45c-11 0 -13 6 -11 15l19 90c2 11 6 15 18 15h157c10 0 13 -5 16 -13l100 -300c12 -35 19 -64 25 -95c5 37 11 73 16 98l39 190h-46c-11 0 -13 6 -11 15l19 90c2 11 6 15 18 15h236c11 0 14 -5 12 -15z" />
    <glyph glyph-name="O" unicode="O" horiz-adv-x="601" 
d="M583 491c0 -155 -53 -328 -136 -418c-54 -59 -123 -90 -206 -90c-130 0 -202 79 -202 213c0 141 48 322 136 417c55 60 124 90 208 90c127 0 200 -80 200 -212zM421 489c0 71 -19 88 -52 88c-42 0 -79 -30 -112 -104c-35 -77 -57 -184 -57 -276c0 -71 20 -88 52 -88
c42 0 79 29 112 103c34 76 57 185 57 277z" />
    <glyph glyph-name="P" unicode="P" horiz-adv-x="593" 
d="M595 524c0 -97 -50 -187 -130 -227c-45 -22 -97 -31 -160 -31h-48l-31 -146h58c11 0 14 -5 12 -15l-19 -90c-2 -10 -8 -15 -19 -15h-261c-11 0 -13 6 -11 15l19 90c2 11 6 15 18 15h45l96 446h-46c-11 0 -13 6 -11 15l19 90c2 11 6 15 18 15h225c88 0 138 -11 177 -45
c32 -28 49 -69 49 -117zM439 510c0 40 -19 56 -77 56h-40l-38 -175h35c45 0 71 14 89 34s31 53 31 85z" />
    <glyph glyph-name="Q" unicode="Q" horiz-adv-x="601" 
d="M584 492c0 -105 -26 -222 -69 -315c-18 -38 -40 -72 -68 -105c6 -7 16 -19 28 -30c7 -7 35 -30 48 -41c8 -7 12 -15 3 -21l-94 -57c-4 -2 -12 -7 -17 -7c-6 0 -16 5 -27 14c-17 14 -38 38 -58 66c-27 -9 -55 -13 -86 -13c-132 0 -205 78 -205 212c0 143 49 320 137 416
c55 60 123 92 205 92c129 0 203 -79 203 -211zM422 490c0 70 -21 87 -53 87c-41 0 -77 -29 -109 -99c-35 -76 -59 -188 -59 -282c0 -69 20 -87 52 -87c41 0 77 29 110 99c35 76 59 188 59 282z" />
    <glyph glyph-name="R" unicode="R" horiz-adv-x="590" 
d="M584 521c0 -67 -30 -137 -76 -178c-21 -18 -41 -29 -81 -46l65 -177h59c11 0 14 -5 12 -15l-19 -90c-2 -10 -8 -15 -19 -15h-143c-12 0 -17 2 -21 15l-75 262h-29l-33 -157h44c12 0 14 -5 12 -15l-19 -90c-2 -10 -8 -15 -19 -15h-245c-11 0 -13 6 -11 15l19 90
c2 11 6 15 18 15h45l96 446h-46c-11 0 -13 6 -11 15l19 90c2 11 6 15 18 15h212c75 0 129 -10 169 -39c37 -27 59 -69 59 -126zM428 510c0 21 -7 37 -20 46c-10 7 -27 10 -55 10h-34l-37 -172h32c41 0 65 11 84 31c18 19 30 52 30 85z" />
    <glyph glyph-name="S" unicode="S" horiz-adv-x="526" 
d="M538 629l-26 -132c-2 -12 -7 -16 -18 -16h-91c-14 0 -15 6 -12 19l14 61c-16 6 -38 12 -65 12c-60 0 -95 -32 -95 -77c0 -26 20 -46 49 -64l70 -45c69 -44 111 -89 111 -164c0 -142 -111 -237 -275 -237c-58 0 -137 17 -181 43c-13 8 -21 17 -21 31c0 3 2 12 3 19l26 126
c2 10 6 14 17 14h90c15 0 17 -7 14 -19l-15 -66c28 -11 52 -16 81 -16c65 0 101 32 101 79c0 30 -15 47 -49 70l-63 42c-68 45 -115 75 -115 167c0 139 102 224 268 224c70 0 128 -19 167 -43c14 -9 18 -15 15 -28z" />
    <glyph glyph-name="T" unicode="T" horiz-adv-x="493" 
d="M558 671l-42 -200c-2 -10 -8 -15 -19 -15h-65c-11 0 -13 6 -11 15l18 84h-66l-92 -435h59c11 0 14 -5 12 -15l-19 -90c-2 -10 -8 -15 -19 -15h-276c-11 0 -13 6 -11 15l19 90c2 11 6 15 18 15h58l93 435h-65l-17 -84c-2 -10 -8 -15 -19 -15h-65c-11 0 -13 6 -11 15
l42 200c2 11 6 15 18 15h448c11 0 14 -5 12 -15z" />
    <glyph glyph-name="U" unicode="U" horiz-adv-x="636" 
d="M709 671l-19 -90c-2 -10 -8 -15 -19 -15h-44l-71 -333c-21 -98 -37 -148 -103 -195c-50 -36 -107 -52 -180 -52c-136 0 -219 57 -219 167c0 27 2 51 8 79l72 334h-47c-11 0 -13 6 -11 15l19 90c2 11 6 15 18 15h247c11 0 14 -5 12 -15l-19 -90c-2 -10 -8 -15 -19 -15h-42
l-71 -333c-6 -26 -7 -43 -7 -60c0 -38 22 -58 71 -58c60 0 97 31 115 115l70 336h-42c-11 0 -13 6 -11 15l19 90c2 11 6 15 18 15h243c11 0 14 -5 12 -15z" />
    <glyph glyph-name="V" unicode="V" horiz-adv-x="544" 
d="M647 668l-18 -85c-2 -10 -6 -15 -17 -15h-39l-279 -567c-5 -11 -7 -13 -19 -13h-140c-14 0 -16 3 -17 16l-40 564h-35c-15 0 -14 5 -12 17l17 86c2 11 5 15 16 15h157c17 0 19 -4 19 -18l-1 -381c0 -41 -1 -63 -4 -127c15 40 37 97 50 127l167 387c4 10 10 12 20 12h162
c14 0 16 -5 13 -18z" />
    <glyph glyph-name="W" unicode="W" horiz-adv-x="774" 
d="M866 667l-18 -84c-2 -10 -5 -15 -16 -15h-36l-254 -566c-5 -11 -7 -12 -19 -12h-108c-12 0 -17 3 -17 17l7 308c1 25 5 81 10 131c-22 -63 -36 -99 -50 -131l-140 -313c-5 -11 -8 -12 -20 -12h-111c-11 0 -16 3 -16 17l5 561h-41c-13 0 -13 5 -10 19l17 84
c2 11 6 15 17 15h153c18 0 19 -3 18 -18l-15 -309c-2 -46 -7 -79 -13 -124c19 49 35 95 48 125l138 314c5 11 6 12 18 12h104c15 0 16 -2 16 -17v-305c0 -27 -5 -77 -10 -128c18 61 25 89 40 127l118 310c4 12 9 13 20 13h152c15 0 16 -5 13 -19z" />
    <glyph glyph-name="X" unicode="X" horiz-adv-x="579" 
d="M647 671l-19 -90c-2 -10 -8 -15 -19 -15h-43l-171 -215l87 -231h50c12 0 14 -5 12 -15l-19 -90c-2 -10 -8 -15 -19 -15h-137c-12 0 -15 2 -19 14l-44 151c-5 16 -9 36 -12 56c-18 -27 -26 -38 -39 -56l-115 -156c-6 -8 -9 -9 -18 -9h-152c-11 0 -13 6 -11 15l19 90
c2 11 6 15 18 15h47l196 245l-80 201h-51c-11 0 -13 6 -11 15l19 90c2 11 6 15 18 15h19h111c12 0 13 -2 17 -14l38 -127c7 -23 12 -44 16 -68c14 27 25 47 39 68l88 131c6 9 8 10 19 10h154c11 0 14 -5 12 -15z" />
    <glyph glyph-name="Y" unicode="Y" horiz-adv-x="506" 
d="M611 667l-18 -86c-2 -10 -5 -15 -16 -15h-41l-205 -286l-35 -160h61c12 0 14 -5 12 -15l-19 -90c-2 -10 -8 -15 -19 -15h-282c-11 0 -13 6 -11 15l19 90c2 11 6 15 18 15h63l34 161l-89 285h-39c-14 0 -15 4 -12 17l19 88c2 11 5 15 16 15h131c11 0 16 -1 19 -13l44 -167
c7 -27 11 -55 14 -84c21 39 32 59 47 82l113 172c6 9 9 10 19 10h145c15 0 15 -5 12 -19z" />
    <glyph glyph-name="Z" unicode="Z" horiz-adv-x="522" 
d="M564 669l-23 -104l-347 -424h158l29 67c4 8 12 14 18 12l91 -23c8 -2 11 -10 7 -20l-64 -161c-4 -10 -9 -16 -19 -16h-421c-16 0 -17 5 -14 21l20 96l350 434h-142l-13 -63c-2 -10 -8 -15 -19 -15h-74c-11 0 -13 6 -11 15l36 183c2 11 6 15 18 15h403c15 0 19 -6 17 -17z
" />
    <glyph glyph-name="bracketleft" unicode="[" horiz-adv-x="444" 
d="M495 699l-21 -97c-2 -10 -7 -14 -19 -14h-100l-140 -665h98c17 0 15 -9 13 -20l-19 -91c-3 -15 -4 -17 -20 -17h-234c-15 0 -13 7 -10 21l188 885c3 13 5 14 18 14h231c16 0 17 -5 15 -16z" />
    <glyph glyph-name="backslash" unicode="\" horiz-adv-x="514" 
d="M499 -117c6 -16 11 -30 -13 -30h-98c-13 0 -19 3 -23 15l-304 843c-5 15 -8 30 15 30h97c14 0 18 -3 22 -15z" />
    <glyph glyph-name="bracketright" unicode="]" horiz-adv-x="444" 
d="M399 696l-188 -887c-3 -13 -5 -14 -18 -14h-233c-15 0 -14 6 -11 21l19 92c3 12 5 15 18 15h101l140 665h-99c-18 0 -16 4 -12 20l21 92c3 13 4 15 17 15h233c16 0 14 -8 12 -19z" />
    <glyph glyph-name="asciicircum" unicode="^" horiz-adv-x="500" 
d="M511 385c7 -14 6 -19 -10 -19h-115c-15 0 -17 3 -24 18l-88 183l-88 -183c-7 -15 -9 -18 -24 -18h-115c-17 0 -18 5 -11 19l143 286c7 15 7 18 21 18h146c13 0 15 -3 22 -17z" />
    <glyph glyph-name="underscore" unicode="_" horiz-adv-x="554" 
d="M509 -164h-544v116h544v-116z" />
    <glyph glyph-name="quoteleft" unicode="&#x2018;" horiz-adv-x="293" 
d="M342 676l-94 -203c-5 -11 -10 -13 -22 -13h-132c-21 0 -17 13 -9 25l158 230c10 15 16 13 32 7l59 -22c14 -5 14 -11 8 -24z" />
    <glyph glyph-name="a" unicode="a" 
d="M516 475l-68 -316c-4 -19 -6 -35 -6 -45h44c9 0 14 -5 12 -15l-17 -83c-2 -12 -6 -16 -17 -16h-105c-36 0 -48 13 -52 46l-3 25c-42 -55 -96 -88 -152 -88c-85 0 -128 67 -128 169c0 189 106 359 249 359c47 0 78 -14 108 -46l8 19c3 8 7 10 15 10h102c13 0 13 -6 10 -19
zM347 383c-26 21 -39 27 -58 27c-28 0 -49 -17 -68 -49c-24 -40 -53 -145 -53 -216c0 -30 12 -50 37 -50c31 0 61 23 81 57c13 22 23 50 30 84z" />
    <glyph glyph-name="b" unicode="b" horiz-adv-x="537" 
d="M511 357c0 -106 -41 -231 -105 -302c-43 -47 -98 -72 -163 -72c-74 0 -128 22 -198 61c-24 13 -25 14 -20 36l111 523h-46c-14 0 -14 9 -12 19l17 78c3 13 4 17 18 17h181c15 0 15 -7 12 -21l-42 -200c-4 -18 -9 -33 -15 -47c29 37 76 62 125 62c89 0 137 -55 137 -154z
M366 342c0 38 -19 56 -47 56c-48 0 -85 -38 -104 -127l-34 -161c23 -14 42 -22 65 -22c33 0 57 23 77 64c26 54 43 143 43 190z" />
    <glyph glyph-name="c" unicode="c" horiz-adv-x="435" 
d="M454 451l-27 -126c-2 -9 -7 -13 -16 -13h-86c-14 0 -15 5 -12 18l13 63c-6 1 -10 0 -15 0c-32 0 -60 -14 -79 -36c-38 -45 -56 -118 -56 -180c0 -45 22 -69 64 -69c23 0 44 6 69 16l18 7c9 4 14 2 18 -9l28 -81c4 -11 3 -16 -14 -25c-34 -18 -88 -33 -134 -33
c-125 0 -199 75 -199 198c0 107 41 212 117 274c44 36 103 56 171 56c61 0 108 -19 133 -36c9 -7 9 -13 7 -24z" />
    <glyph glyph-name="d" unicode="d" horiz-adv-x="540" 
d="M562 699l-120 -558c-2 -9 -2 -18 -2 -27h47c12 0 15 -5 13 -15l-18 -83c-3 -13 -6 -16 -18 -16h-102c-41 0 -57 17 -59 55v15c-43 -59 -88 -87 -152 -87c-84 0 -125 59 -125 157s31 209 88 282c46 58 101 89 175 89c33 0 55 -6 78 -19l24 111h-52c-10 0 -12 5 -10 17
l16 78c3 16 4 19 20 19h185c14 0 15 -6 12 -18zM347 396c-17 8 -31 11 -48 11c-40 0 -67 -23 -87 -62c-27 -52 -43 -136 -43 -187c0 -39 16 -63 44 -63c50 0 84 64 101 146z" />
    <glyph glyph-name="e" unicode="e" horiz-adv-x="504" 
d="M481 372c0 -89 -65 -146 -158 -171c-40 -11 -98 -17 -150 -16c0 0 -2 -7 -2 -11c-5 -52 24 -74 73 -74c46 0 90 23 123 38c9 4 18 8 23 -4l32 -76c3 -8 0 -13 -5 -17c-28 -26 -115 -58 -202 -58c-121 0 -189 70 -189 190c0 102 39 199 104 262c49 47 116 76 189 76
c98 0 162 -53 162 -139zM343 367c0 26 -17 43 -40 43c-36 0 -67 -18 -88 -46c-14 -19 -24 -44 -33 -79c56 0 88 5 115 17c31 13 46 35 46 65z" />
    <glyph glyph-name="f" unicode="f" horiz-adv-x="361" 
d="M455 671l-24 -76c-4 -14 -16 -12 -25 -9c-14 5 -33 11 -51 11c-35 0 -49 -19 -59 -68l-7 -35h113c12 0 13 -5 10 -16l-24 -86c-3 -10 -4 -11 -14 -11h-106l-73 -383c-13 -69 -34 -120 -69 -153c-33 -32 -80 -50 -136 -50c-42 0 -69 3 -92 14c-15 7 -11 14 -7 27l25 83
c2 7 7 8 13 6c12 -3 28 -6 41 -6c44 0 61 14 78 100l72 362h-67c-11 0 -15 4 -12 17l16 80c2 12 3 16 15 16h71l13 67c12 60 31 97 66 123c31 23 70 35 121 35c41 0 81 -8 104 -21c13 -7 12 -15 8 -27z" />
    <glyph glyph-name="g" unicode="g" horiz-adv-x="535" 
d="M541 454c-2 -4 -5 -9 -11 -18c-24 -37 -38 -72 -47 -115l-31 -142c-8 -35 -22 -115 -29 -159c-18 -106 -36 -153 -84 -189c-39 -29 -96 -43 -161 -43c-60 0 -146 18 -183 45c-12 9 -10 16 -5 28l32 80c5 13 16 9 26 4c29 -14 83 -36 132 -36c59 0 84 21 96 78l16 75
c-40 -41 -80 -63 -126 -63c-88 0 -139 62 -139 163c0 98 39 203 97 273c41 49 90 76 147 76c54 0 77 -13 118 -55c11 17 23 34 30 41c8 9 16 12 21 12c3 0 7 -1 16 -5l78 -33c10 -4 10 -10 7 -17zM345 377c-19 18 -36 28 -57 28c-28 0 -53 -22 -73 -62
c-25 -50 -42 -131 -42 -181c0 -33 14 -56 39 -56c22 0 47 13 67 37c15 18 25 41 33 79z" />
    <glyph glyph-name="h" unicode="h" horiz-adv-x="576" 
d="M533 97l-16 -82c-3 -13 -3 -15 -17 -15h-97c-41 0 -69 13 -78 42c-8 26 -2 58 4 84l38 170c4 17 9 45 9 62c0 23 -12 37 -35 37c-46 0 -90 -56 -114 -167l-46 -216c-2 -10 -7 -12 -18 -12h-119c-11 0 -13 6 -11 15l125 588h-46c-12 0 -15 7 -13 17l17 81c3 13 5 16 19 16
h180c10 0 15 -5 12 -19l-43 -205c-4 -17 -8 -33 -13 -50c42 45 87 68 144 68c71 0 116 -34 116 -106c0 -24 -3 -47 -10 -79l-47 -212h47c11 0 15 -4 12 -17z" />
    <glyph glyph-name="i" unicode="i" horiz-adv-x="305" 
d="M328 651c0 -51 -41 -95 -95 -95c-53 0 -94 44 -94 95s41 94 95 94c53 0 94 -44 94 -94zM273 477l-78 -363h55c14 0 16 -5 13 -17l-19 -84c-2 -9 -6 -13 -15 -13h-105c-39 0 -70 9 -81 47c-7 26 0 53 5 79l54 255h-62c-11 0 -14 3 -12 12l17 85c3 13 3 16 16 16h200
c15 0 15 -4 12 -17z" />
    <glyph glyph-name="j" unicode="j" horiz-adv-x="296" 
d="M332 651c0 -51 -41 -95 -95 -95c-53 0 -94 44 -94 95s41 94 95 94c53 0 94 -44 94 -94zM281 478l-99 -464c-19 -89 -35 -144 -73 -186c-35 -39 -83 -61 -148 -61c-49 0 -84 12 -101 22c-14 8 -14 11 -10 22l31 89c5 15 16 11 27 6c12 -5 34 -14 50 -14c24 0 40 12 51 37
c8 19 15 46 25 92l76 360h-63c-11 0 -14 4 -12 13l18 83c3 14 3 17 15 17h200c15 0 16 -4 13 -16z" />
    <glyph glyph-name="k" unicode="k" 
d="M582 479l-17 -84c-2 -10 -8 -15 -19 -15h-40l-150 -116l88 -144h55c12 0 14 -5 12 -15l-19 -90c-2 -10 -8 -15 -19 -15h-114c-9 -2 -15 1 -21 12l-114 200l-42 -201c-2 -10 -4 -11 -14 -11h-122c-14 0 -15 4 -12 16l124 587h-46c-11 0 -13 6 -11 15l17 84
c2 11 6 15 18 15h181c11 0 14 -5 12 -15l-84 -395l197 180c6 5 13 7 24 7h104c12 0 14 -5 12 -15z" />
    <glyph glyph-name="l" unicode="l" horiz-adv-x="301" 
d="M305 697l-104 -493c-8 -37 -13 -60 -13 -68c0 -10 5 -15 15 -15c13 0 24 3 35 6c5 1 10 1 11 -7l12 -78c2 -14 4 -19 -9 -28c-18 -13 -57 -24 -104 -24c-73 0 -113 30 -114 95c0 28 4 58 14 105l88 413h-48c-8 0 -12 5 -10 16l16 83c2 13 4 15 19 15h181
c14 0 14 -7 11 -20z" />
    <glyph glyph-name="m" unicode="m" horiz-adv-x="813" 
d="M769 96l-16 -83c-2 -9 -8 -13 -17 -13h-95c-65 0 -91 23 -82 89c1 7 4 23 7 36l38 166c4 18 11 48 11 67c0 17 -8 31 -29 31c-42 0 -82 -56 -107 -171l-44 -206c-2 -9 -4 -12 -14 -12h-119c-14 0 -16 4 -13 16l61 269c4 17 14 58 14 70c0 17 -1 34 -26 34
c-42 0 -87 -58 -111 -171l-44 -206c-2 -10 -4 -12 -14 -12h-122c-9 0 -14 5 -12 16l72 317c4 16 7 35 7 47h-50c-12 0 -13 6 -10 20l16 80c2 10 7 14 16 14h137c19 0 22 -5 25 -17c4 -14 7 -32 7 -58c44 55 97 92 157 92c51 0 82 -23 89 -90c50 61 95 90 162 90
c65 0 105 -43 105 -113c0 -23 -3 -51 -9 -76l-48 -208h47c12 0 14 -5 11 -18z" />
    <glyph glyph-name="n" unicode="n" horiz-adv-x="573" 
d="M529 93l-17 -80c-2 -9 -8 -13 -17 -13h-95c-39 0 -58 8 -71 27c-8 12 -12 26 -12 44c0 17 3 37 7 53l37 164c4 20 12 48 12 68c0 27 -11 35 -32 35c-46 0 -91 -65 -115 -177l-43 -202c-2 -10 -5 -12 -15 -12h-121c-9 0 -15 3 -12 15l72 318c3 12 7 33 7 47h-50
c-15 0 -15 6 -11 22l17 78c2 10 7 14 16 14h138c10 0 16 -3 20 -10c9 -17 11 -41 11 -65c49 60 97 92 164 92c68 0 109 -44 109 -113c0 -24 -3 -45 -10 -76l-47 -208h46c13 0 15 -8 12 -21z" />
    <glyph glyph-name="o" unicode="o" horiz-adv-x="527" 
d="M499 328c0 -98 -37 -198 -101 -267c-47 -50 -116 -78 -190 -78c-118 0 -184 67 -184 183c0 99 37 200 103 267c50 50 113 78 191 78c112 0 181 -71 181 -183zM349 337c0 39 -16 62 -54 62c-34 0 -59 -22 -79 -58c-26 -48 -42 -133 -42 -181c0 -41 15 -66 52 -66
c38 0 66 21 87 69c21 50 36 126 36 174z" />
    <glyph glyph-name="p" unicode="p" horiz-adv-x="537" 
d="M511 358c0 -103 -35 -226 -97 -297c-45 -51 -98 -78 -169 -78c-31 0 -51 5 -76 20l-19 -90h43c12 0 14 -6 12 -14l-16 -82c-3 -14 -4 -19 -17 -19h-235c-13 0 -14 7 -12 18l18 84c2 9 6 13 15 13h43l82 387c4 21 13 66 14 80h-48c-10 0 -15 5 -13 16l18 83
c2 11 4 15 16 15h138c11 0 16 -3 20 -16c4 -12 6 -30 6 -53c43 57 85 86 142 86c88 0 135 -59 135 -153zM370 340c0 31 -17 55 -39 55c-57 0 -90 -59 -110 -152l-30 -139c16 -8 31 -13 49 -13c39 0 69 25 90 69c22 47 40 128 40 180z" />
    <glyph glyph-name="q" unicode="q" horiz-adv-x="540" 
d="M540 465c8 -6 -2 -17 -7 -25c-23 -34 -38 -66 -47 -109l-89 -418h40c9 0 13 -5 11 -15l-17 -85c-2 -12 -5 -15 -16 -15h-235c-14 0 -14 6 -11 19l17 83c2 9 6 13 15 13h46l17 76c3 15 8 35 14 55c-36 -39 -78 -61 -129 -61c-81 0 -126 62 -126 160c0 113 39 228 106 301
c39 43 88 67 143 67c47 0 81 -16 115 -52c19 30 40 50 52 50c3 0 5 -1 8 -3l82 -34c2 -1 9 -6 11 -7zM347 375c-29 23 -41 28 -61 28c-29 0 -49 -20 -68 -55c-29 -56 -48 -152 -48 -203c0 -32 11 -48 34 -48c56 0 95 57 113 139z" />
    <glyph glyph-name="r" unicode="r" horiz-adv-x="392" 
d="M430 471l-43 -106c-4 -10 -13 -5 -20 -3c-10 3 -20 5 -31 5c-61 0 -101 -75 -119 -158l-42 -197c-2 -10 -4 -12 -14 -12h-122c-13 0 -15 7 -13 18l63 294c4 18 11 57 12 68h-49c-14 0 -14 7 -11 20l17 80c2 9 8 14 17 14h136c9 0 14 -3 18 -9c6 -11 8 -30 9 -46l1 -23
c20 29 33 44 51 59c23 19 54 31 84 31c21 0 41 -3 52 -12c10 -8 8 -12 4 -23z" />
    <glyph glyph-name="s" unicode="s" horiz-adv-x="428" 
d="M406 452l-21 -99c-2 -10 -4 -12 -14 -12h-75c-13 0 -17 2 -14 15l7 36c-6 2 -19 6 -31 6c-33 0 -58 -15 -58 -43c0 -18 15 -28 35 -38l54 -27c60 -30 88 -59 88 -125c0 -111 -79 -182 -204 -182c-66 0 -121 17 -165 39c-14 7 -17 13 -14 25l21 99c2 10 4 12 14 12h75
c13 0 16 -2 14 -15l-7 -37c19 -6 37 -10 56 -10c45 0 68 18 68 48c0 24 -19 32 -63 52c-39 18 -67 34 -86 55c-18 20 -28 44 -28 80c0 108 81 180 200 180c63 0 110 -21 134 -34c13 -7 17 -13 14 -25z" />
    <glyph glyph-name="t" unicode="t" horiz-adv-x="396" 
d="M422 477l-27 -81c-3 -9 -5 -11 -15 -11h-122l-45 -214c-3 -16 -5 -32 -5 -42c0 -15 9 -23 27 -23c24 0 56 9 77 17c16 6 23 10 28 -7l21 -72c4 -15 0 -17 -14 -25c-33 -19 -102 -36 -160 -36c-87 0 -134 37 -134 112c0 18 3 38 8 63l47 227h-63c-13 0 -14 5 -11 18l18 79
c2 10 4 12 14 12h66l27 124c2 8 5 11 13 12l122 13c17 2 21 0 17 -18l-30 -131h129c15 0 16 -5 12 -17z" />
    <glyph glyph-name="u" unicode="u" horiz-adv-x="558" 
d="M533 484l-76 -331c-3 -13 -4 -30 -4 -39h44c12 0 14 -6 12 -14l-18 -84c-2 -10 -3 -16 -17 -16h-93c-43 0 -66 14 -66 59c0 4 0 10 1 17c-46 -59 -97 -93 -161 -93c-74 0 -115 41 -115 111c0 23 5 51 11 78l47 208h-48c-9 0 -14 5 -12 15l16 82c3 13 4 17 18 17h184
c15 0 15 -8 12 -21l-64 -281c-6 -27 -9 -43 -9 -54c0 -17 12 -28 29 -28c56 0 100 85 123 198l32 159c2 12 4 14 16 16l118 19c18 3 24 0 20 -18z" />
    <glyph glyph-name="v" unicode="v" horiz-adv-x="487" 
d="M523 472l-272 -475c-4 -7 -6 -9 -14 -9h-109c-11 0 -13 2 -14 13l-50 379h-55c-9 0 -15 5 -12 17l18 82c3 12 4 15 16 15h156c11 0 14 -5 14 -15l10 -244c1 -28 0 -54 0 -93c17 41 34 82 53 122l108 229c4 9 11 9 21 8l121 -10c15 -1 15 -9 9 -19z" />
    <glyph glyph-name="w" unicode="w" horiz-adv-x="702" 
d="M729 469l-242 -468c-4 -8 -7 -9 -16 -9h-113c-12 0 -14 2 -14 15l8 233c1 24 2 45 6 77c-11 -32 -19 -53 -29 -77l-104 -238c-3 -7 -6 -10 -13 -10h-108c-8 0 -11 3 -12 14l-25 374h-54c-9 0 -14 4 -12 16l17 81c3 13 4 17 18 17h158c12 0 15 -5 15 -17l-7 -225
c-1 -42 -3 -63 -6 -88c10 28 24 66 33 88l97 233c3 8 6 9 15 9h111c11 0 13 -3 13 -14l-3 -223c0 -35 -4 -65 -8 -96c11 31 17 47 37 97l91 229c4 11 12 11 26 10l112 -10c15 -1 15 -7 9 -18z" />
    <glyph glyph-name="x" unicode="x" horiz-adv-x="495" 
d="M522 449l-193 -195l73 -140h60c12 0 14 -5 12 -15l-17 -84c-2 -10 -8 -15 -19 -15h-125c-7 0 -12 0 -16 9l-45 101c-10 22 -11 27 -18 49c-12 -18 -22 -33 -37 -50l-97 -112c-9 -10 -15 -9 -27 -5l-105 31c-12 4 -9 13 -3 19l203 210l-64 128h-59c-11 0 -13 6 -11 15
l17 84c2 11 6 15 18 15h126c9 0 13 0 18 -12l34 -84c6 -16 14 -35 18 -49c12 16 23 31 36 46l86 101c8 9 14 10 26 6l107 -35c9 -3 9 -11 2 -18z" />
    <glyph glyph-name="y" unicode="y" horiz-adv-x="487" 
d="M525 469l-203 -414c-47 -96 -79 -163 -120 -208c-37 -40 -86 -66 -146 -66c-48 0 -101 19 -122 35c-13 9 -12 15 -5 27l40 75c7 13 16 9 26 4c24 -11 46 -18 64 -18c35 0 56 14 72 45l26 51h-32c-11 0 -13 2 -14 13l-48 367h-55c-12 0 -13 6 -10 21l16 79c2 9 7 14 16 14
h154c12 0 15 -5 16 -15l17 -241c2 -34 3 -69 4 -112c11 27 23 56 36 88l118 278c5 11 17 9 29 8l111 -12c15 -2 16 -8 10 -19z" />
    <glyph glyph-name="z" unicode="z" horiz-adv-x="471" 
d="M480 479l-18 -85l-271 -274h125l30 46c6 9 10 14 21 9l69 -34c10 -5 13 -9 7 -18l-72 -113c-7 -10 -14 -10 -25 -10h-352c-10 0 -14 2 -12 12l17 88l275 274h-96l-8 -36c-2 -10 -8 -15 -19 -15h-68c-11 0 -13 6 -11 15l30 144c2 10 5 12 15 12h350c12 0 15 -6 13 -15z
" />
    <glyph glyph-name="braceleft" unicode="{" horiz-adv-x="435" 
d="M483 680l-19 -86c-4 -17 -5 -18 -28 -18c-47 0 -78 -6 -89 -59l-30 -140c-13 -60 -36 -95 -92 -120c52 -32 49 -80 38 -131l-28 -134c-7 -33 -12 -62 34 -64l30 -1c11 0 25 2 21 -16l-18 -84c-5 -21 -9 -21 -17 -25c-7 -4 -27 -5 -47 -5c-75 0 -120 18 -142 53
c-21 33 -22 81 -9 142l27 130c9 43 6 64 -30 70l-23 4c-10 2 -13 8 -11 18l21 92c3 14 10 15 18 17l31 7c31 7 45 43 52 73l36 151c13 55 47 101 91 124c36 19 80 27 130 27c15 0 38 -2 46 -4c12 -3 10 -11 8 -21z" />
    <glyph glyph-name="bar" unicode="|" horiz-adv-x="385" 
d="M293 -247c0 -19 -1 -20 -20 -20h-112c-19 0 -21 1 -21 20v988c0 17 2 20 21 20h112c19 0 20 -3 20 -20v-988z" />
    <glyph glyph-name="braceright" unicode="}" horiz-adv-x="435" 
d="M385 288l-20 -93c-3 -13 -6 -15 -22 -17l-17 -2c-33 -4 -51 -18 -60 -58l-32 -145c-27 -120 -99 -176 -229 -176c-16 0 -38 2 -46 4c-14 4 -9 10 -7 19l19 88c3 16 4 17 20 18l36 2c38 2 52 17 61 57l30 140c13 61 38 92 91 120c-50 33 -48 80 -37 132l28 134
c10 49 4 65 -52 65h-21c-14 0 -13 11 -11 19l19 91c2 11 4 12 14 15c8 2 28 4 49 4c67 0 110 -15 134 -43c28 -33 30 -84 16 -151l-28 -131c-9 -44 -8 -61 43 -71l10 -2c13 -3 15 -7 12 -19z" />
    <glyph glyph-name="asciitilde" unicode="~" horiz-adv-x="500" 
d="M518 381c0 -4 -5 -12 -7 -16c-35 -69 -71 -119 -153 -119c-43 0 -104 29 -144 45c-13 5 -27 9 -41 9c-46 0 -59 -60 -72 -60c-7 0 -52 30 -59 35c-5 3 -12 7 -12 13c0 5 3 11 5 15c31 73 62 126 147 126c72 0 139 -53 190 -53c52 0 62 50 75 50c8 0 71 -36 71 -45z" />
    <glyph glyph-name="exclamdown" unicode="&#xa1;" horiz-adv-x="368" 
d="M306 396c0 -54 -43 -97 -97 -97c-53 0 -97 44 -97 97s44 97 97 97s97 -44 97 -97zM241 203l-62 -402c-2 -16 -4 -18 -18 -18h-138c-21 0 -19 8 -15 22l110 408c3 12 5 14 18 14h90c19 0 17 -10 15 -24z" />
    <glyph glyph-name="cent" unicode="&#xa2;" horiz-adv-x="439" 
d="M461 541l-39 -75c-8 -15 -15 -18 -31 -7c-21 14 -44 24 -76 24c-34 0 -62 -13 -81 -36c-37 -45 -55 -118 -55 -180c0 -45 21 -69 63 -69c23 0 45 6 70 16c18 7 30 11 34 -1l28 -81c4 -11 6 -16 -12 -26c-28 -14 -67 -27 -106 -31l-12 -60c-2 -8 -7 -15 -15 -15h-63
c-8 0 -14 7 -12 15l13 65c-88 21 -139 90 -139 191c0 107 42 212 118 274c36 30 83 48 136 54l11 57c2 8 7 15 15 15h63c8 0 14 -7 12 -15l-12 -60c34 -7 61 -20 84 -35c9 -6 9 -14 6 -20z" />
    <glyph glyph-name="sterling" unicode="&#xa3;" horiz-adv-x="557" 
d="M591 609l-49 -78c-6 -10 -12 -11 -25 -7c-6 2 -11 5 -21 10c-30 17 -60 26 -94 26c-85 0 -120 -68 -120 -135c0 -9 0 -18 1 -27h143c18 0 20 -5 16 -22l-16 -73c-3 -15 -5 -17 -21 -17h-119c1 -11 3 -21 3 -29c0 -41 -11 -82 -31 -127h257c20 0 20 -8 13 -24l-38 -92
c-5 -12 -9 -14 -22 -14h-462c-16 0 -19 1 -16 18l19 95c3 15 6 17 21 17h74c31 58 38 90 37 156h-85c-17 0 -19 4 -16 21l15 73c3 15 7 17 22 17h59v21c0 160 119 268 284 268c78 0 134 -23 162 -44c18 -14 16 -21 9 -33z" />
    <glyph glyph-name="fraction" unicode="&#x2044;" horiz-adv-x="315" 
d="M432 654l-434 -681c-6 -9 -10 -13 -21 -13h-93c-15 0 -19 11 -12 21l435 683c6 10 10 14 22 14h91c18 0 20 -11 12 -24z" />
    <glyph glyph-name="yen" unicode="&#xa5;" horiz-adv-x="506" 
d="M628 667l-18 -86c-2 -10 -5 -15 -16 -15h-41l-102 -142h67c8 0 13 -7 12 -15l-7 -39c-1 -8 -7 -15 -15 -15h-106l-36 -50h127c8 0 13 -7 12 -15l-7 -39c-1 -8 -7 -15 -15 -15h-145l-25 -116h61c11 0 14 -5 12 -15l-19 -90c-2 -10 -8 -15 -19 -15h-282c-11 0 -13 6 -11 15
l19 90c2 11 6 15 18 15h63l24 116h-130c-8 0 -13 7 -12 15l7 39c1 8 7 15 15 15h123l-16 50h-92c-8 0 -13 7 -12 15l7 39c1 8 7 15 15 15h60l-44 142h-39c-14 0 -15 4 -12 17l19 88c2 11 5 15 16 15h131c11 0 16 -1 19 -13l44 -167c7 -27 11 -55 14 -84c21 39 32 59 47 82
l113 172c6 9 9 10 19 10h145c15 0 15 -5 12 -19z" />
    <glyph glyph-name="florin" unicode="&#x192;" horiz-adv-x="547" 
d="M560 675l-27 -86c-4 -12 -9 -12 -20 -8c-24 9 -36 16 -57 16c-39 0 -47 -27 -56 -72l-6 -29h105c16 0 19 -4 15 -21l-16 -74c-3 -15 -9 -18 -22 -18h-105l-77 -385c-15 -73 -36 -122 -74 -156c-34 -30 -78 -47 -137 -47c-40 0 -70 9 -87 18c-14 8 -14 10 -10 24l23 81
c3 12 8 12 20 9c13 -3 26 -5 40 -5c43 0 62 12 79 97l74 364h-62c-17 0 -20 2 -17 21l13 72c3 16 5 20 21 20h70l9 45c12 62 26 105 57 134c30 28 72 44 135 44c43 0 80 -7 106 -24c9 -6 9 -10 6 -20z" />
    <glyph glyph-name="section" unicode="&#xa7;" horiz-adv-x="523" 
d="M508 587l-49 -78c-7 -12 -13 -11 -29 -2c-34 20 -69 34 -97 34c-33 0 -61 -12 -61 -42c0 -15 8 -22 32 -36l84 -48c65 -37 95 -70 95 -127c0 -71 -50 -138 -124 -170c36 -25 55 -57 55 -101c0 -46 -23 -93 -56 -125c-40 -39 -100 -61 -162 -61c-76 0 -142 23 -194 56
c-14 9 -14 17 -9 26l48 85c6 11 14 11 30 1c37 -23 87 -49 132 -49c32 0 55 17 55 49c0 18 -11 28 -31 39l-91 52c-65 37 -93 82 -93 138c0 75 51 132 131 163c-31 24 -52 56 -52 99c0 105 86 166 221 166c56 0 120 -21 158 -49c9 -6 11 -14 7 -20zM340 261
c0 27 -24 42 -68 67c-49 -20 -84 -40 -84 -78c0 -28 23 -41 73 -66c47 21 79 41 79 77z" />
    <glyph glyph-name="currency" unicode="&#xa4;" horiz-adv-x="512" 
d="M498 175l-41 -42l-67 65c-46 -28 -82 -38 -117 -38c-32 0 -69 9 -117 38l-67 -65l-41 42l66 64c-31 52 -37 89 -37 115c0 27 6 64 37 115l-66 65l41 42l67 -65c48 29 85 37 117 37c33 0 70 -9 117 -37l67 65l41 -42l-65 -65c31 -52 38 -89 38 -115s-8 -62 -38 -115z
M410 355c0 78 -67 135 -137 135c-76 0 -136 -61 -136 -135c0 -75 61 -136 136 -136s137 61 137 136z" />
    <glyph glyph-name="quotesingle" unicode="'" horiz-adv-x="311" 
d="M309 658l-71 -230c-3 -11 -10 -16 -22 -16h-67c-19 0 -18 8 -16 22l30 235c2 12 9 17 21 17h112c21 0 17 -15 13 -28z" />
    <glyph glyph-name="quotedblleft" unicode="&#x201c;" horiz-adv-x="502" 
d="M551 676l-94 -203c-5 -11 -10 -13 -22 -13h-132c-21 0 -17 13 -9 25l158 230c10 15 16 13 32 7l59 -22c14 -5 14 -11 8 -24zM342 676l-94 -203c-5 -11 -10 -13 -22 -13h-132c-21 0 -17 13 -9 25l158 230c10 15 16 13 32 7l59 -22c14 -5 14 -11 8 -24z" />
    <glyph glyph-name="guillemotleft" unicode="&#xab;" horiz-adv-x="639" 
d="M621 426l-161 -184l77 -180c4 -9 10 -18 -9 -25l-86 -33c-10 -4 -19 -8 -26 6l-117 227c-5 10 -7 19 1 27l221 227c12 13 19 10 32 2l67 -41c14 -8 9 -17 1 -26zM363 426l-161 -184l77 -180c4 -9 10 -18 -9 -25l-86 -33c-10 -4 -19 -8 -26 6l-117 227c-5 10 -7 19 1 27
l221 227c12 13 19 10 32 2l67 -41c14 -8 9 -17 1 -26z" />
    <glyph glyph-name="guilsinglleft" unicode="&#x2039;" horiz-adv-x="381" 
d="M363 426l-161 -184l77 -180c4 -9 10 -18 -9 -25l-86 -33c-10 -4 -19 -8 -26 6l-117 227c-5 10 -7 19 1 27l221 227c12 13 19 10 32 2l67 -41c14 -8 9 -17 1 -26z" />
    <glyph glyph-name="guilsinglright" unicode="&#x203a;" horiz-adv-x="381" 
d="M371 261c5 -10 7 -19 -1 -27l-221 -227c-12 -13 -18 -9 -31 -1l-68 40c-14 8 -9 18 -1 27l161 183l-77 180c-4 9 -10 18 9 25l87 33c10 4 18 8 25 -6z" />
    <glyph glyph-name="endash" unicode="&#x2013;" horiz-adv-x="506" 
d="M476 303l-22 -97c-2 -8 -7 -15 -15 -15h-399c-8 0 -14 7 -12 15l22 97c2 8 7 15 15 15h399c8 0 14 -7 12 -15z" />
    <glyph glyph-name="dagger" unicode="&#x2020;" horiz-adv-x="510" 
d="M508 468l-19 -91c-2 -10 -5 -15 -20 -15h-118l-118 -553c-3 -15 -6 -17 -21 -17h-107c-18 0 -19 6 -16 22l117 548h-116c-15 0 -17 6 -14 21l18 82c4 16 6 19 21 19h116l40 185c3 15 6 17 21 17h108c19 0 19 -7 16 -19l-39 -183h116c15 0 18 -3 15 -16z" />
    <glyph glyph-name="daggerdbl" unicode="&#x2021;" horiz-adv-x="510" 
d="M508 468l-19 -91c-2 -10 -5 -15 -20 -15h-118l-50 -236h115c15 0 18 -3 15 -16l-19 -91c-2 -10 -5 -15 -20 -15h-117l-42 -195c-3 -15 -6 -17 -21 -17h-107c-18 0 -19 6 -16 22l41 190h-117c-15 0 -17 6 -14 21l18 82c4 16 6 19 21 19h118l50 236h-116
c-15 0 -17 6 -14 21l18 82c4 16 6 19 21 19h116l40 185c3 15 6 17 21 17h108c19 0 19 -7 16 -19l-39 -183h116c15 0 18 -3 15 -16z" />
    <glyph glyph-name="periodcentered" unicode="&#xb7;" horiz-adv-x="500" 
d="M362 334c0 -48 -40 -87 -88 -87s-88 39 -88 87s39 88 87 88s89 -40 89 -88z" />
    <glyph glyph-name="paragraph" unicode="&#xb6;" horiz-adv-x="760" 
d="M744 590c0 -17 -3 -20 -20 -20h-41v-736c0 -19 -1 -20 -20 -20h-79c-19 0 -27 1 -27 20v736h-82v-736c0 -19 -1 -20 -20 -20h-89c-17 0 -20 1 -20 20v320c-20 -5 -29 -6 -48 -6c-144 0 -230 96 -230 263c0 125 36 206 117 247c45 22 80 28 171 28h368c17 0 20 -3 20 -20
v-76zM346 265v304c-102 0 -124 -46 -124 -142c0 -129 34 -167 92 -167c13 0 20 2 32 5z" />
    <glyph glyph-name="bullet" unicode="&#x2022;" horiz-adv-x="500" 
d="M404 349c0 -79 -65 -143 -144 -143c-80 0 -144 64 -144 143c0 80 63 144 144 144c79 0 144 -64 144 -144z" />
    <glyph glyph-name="quotesinglbase" unicode="&#x201a;" horiz-adv-x="294" 
d="M216 100l-158 -230c-10 -15 -16 -12 -32 -6l-59 21c-14 5 -14 11 -8 24l94 203c5 11 10 13 22 13h132c21 0 17 -13 9 -25z" />
    <glyph glyph-name="quotedblbase" unicode="&#x201e;" horiz-adv-x="503" 
d="M425 100l-158 -230c-10 -15 -16 -12 -32 -6l-59 21c-14 5 -14 11 -8 24l94 203c5 11 10 13 22 13h132c21 0 17 -13 9 -25zM216 100l-158 -230c-10 -15 -16 -12 -32 -6l-59 21c-14 5 -14 11 -8 24l94 203c5 11 10 13 22 13h132c21 0 17 -13 9 -25z" />
    <glyph glyph-name="quotedblright" unicode="&#x201d;" horiz-adv-x="502" 
d="M544 693l-158 -230c-10 -15 -16 -12 -32 -6l-59 21c-14 5 -14 11 -8 24l94 203c5 11 10 13 22 13h132c21 0 17 -13 9 -25zM335 693l-158 -230c-10 -15 -16 -12 -32 -6l-59 21c-14 5 -14 11 -8 24l94 203c5 11 10 13 22 13h132c21 0 17 -13 9 -25z" />
    <glyph glyph-name="guillemotright" unicode="&#xbb;" horiz-adv-x="639" 
d="M629 261c5 -10 7 -19 -1 -27l-221 -227c-12 -13 -18 -9 -31 -1l-68 40c-14 8 -9 18 -1 27l161 183l-77 180c-4 9 -10 18 9 25l87 33c10 4 18 8 25 -6zM371 261c5 -10 7 -19 -1 -27l-221 -227c-12 -13 -18 -9 -31 -1l-68 40c-14 8 -9 18 -1 27l161 183l-77 180
c-4 9 -10 18 9 25l87 33c10 4 18 8 25 -6z" />
    <glyph glyph-name="ellipsis" unicode="&#x2026;" horiz-adv-x="935" 
d="M855 88c0 -59 -49 -108 -108 -108s-107 49 -107 108c0 60 48 107 108 107c59 0 107 -48 107 -107zM548 88c0 -59 -49 -108 -108 -108s-107 49 -107 108c0 60 48 107 108 107c59 0 107 -48 107 -107zM242 88c0 -59 -49 -108 -108 -108s-107 49 -107 108
c0 60 48 107 108 107c59 0 107 -48 107 -107z" />
    <glyph glyph-name="perthousand" unicode="&#x2030;" horiz-adv-x="1173" 
d="M1128 223c0 -115 -69 -238 -196 -238c-78 0 -128 50 -128 130c0 118 69 239 198 239c77 0 126 -52 126 -131zM778 223c0 -115 -69 -238 -196 -238c-78 0 -128 50 -128 130c0 118 69 239 198 239c77 0 126 -52 126 -131zM681 647l-424 -672c-6 -9 -12 -15 -23 -15h-77
c-23 0 -15 19 -8 31l424 672c6 9 12 15 23 15h77c23 0 16 -19 8 -31zM388 531c0 -115 -69 -238 -196 -238c-78 0 -128 50 -128 130c0 118 70 240 199 240c77 0 125 -52 125 -132zM1021 225c0 24 -13 37 -32 37c-58 0 -77 -109 -77 -150c0 -24 12 -35 31 -35
c58 0 78 107 78 148zM671 225c0 24 -13 37 -32 37c-58 0 -77 -109 -77 -150c0 -24 12 -35 31 -35c58 0 78 107 78 148zM281 534c0 24 -13 37 -32 37c-59 0 -77 -108 -77 -149c0 -25 12 -37 31 -37c58 0 78 108 78 149z" />
    <glyph glyph-name="questiondown" unicode="&#xbf;" horiz-adv-x="479" 
d="M399 403c0 -54 -43 -96 -97 -96c-53 0 -97 43 -97 96s44 97 97 97s97 -44 97 -97zM379 -145c9 -18 8 -20 -13 -33c-51 -32 -126 -48 -194 -48c-110 0 -187 63 -187 160c0 110 78 190 202 215l15 69c3 12 4 14 17 14h110c16 0 15 -7 12 -22l-25 -123
c-3 -14 -7 -18 -20 -21c-37 -9 -73 -24 -88 -32c-39 -22 -60 -39 -60 -74c0 -32 21 -48 56 -48s61 4 102 24l14 7c9 4 14 0 19 -9z" />
    <glyph glyph-name="grave" unicode="`" horiz-adv-x="433" 
d="M386 625c10 -7 10 -10 -1 -22l-39 -42c-10 -11 -11 -10 -24 -5l-188 78c-15 6 -16 10 -6 23l60 79c11 14 16 16 29 7z" />
    <glyph glyph-name="acute" unicode="&#xb4;" horiz-adv-x="424" 
d="M403 655c8 -13 9 -17 -7 -23l-203 -74c-14 -5 -14 -6 -24 5l-38 44c-11 12 -5 19 6 25l188 109c14 8 20 8 29 -7z" />
    <glyph glyph-name="circumflex" unicode="&#x2c6;" horiz-adv-x="448" 
d="M412 611l-43 -42c-14 -14 -17 -14 -32 -2l-68 51l-103 -58c-14 -8 -17 -8 -26 6l-29 45c-9 14 -9 17 6 27l156 106c15 10 24 9 37 -4l100 -101c11 -11 14 -16 2 -28z" />
    <glyph glyph-name="tilde" unicode="&#x2dc;" horiz-adv-x="449" 
d="M436 675c-2 -8 -8 -19 -18 -34c-26 -38 -61 -69 -107 -69c-26 0 -42 9 -64 24c-11 8 -19 12 -28 12c-16 0 -27 -8 -39 -28c-7 -11 -11 -10 -22 -4l-54 30c-8 5 -8 9 -6 15c3 9 6 16 21 39c24 37 56 66 102 66c27 0 46 -10 69 -23c13 -8 21 -11 29 -11c17 0 26 12 37 28
c5 8 15 5 22 1l53 -30c9 -5 7 -9 5 -16z" />
    <glyph glyph-name="macron" unicode="&#xaf;" horiz-adv-x="427" 
d="M401 683l-17 -78c-3 -15 -6 -17 -22 -17h-241c-15 0 -15 6 -12 18l16 77c4 17 5 19 21 19h238c19 0 20 -5 17 -19z" />
    <glyph glyph-name="breve" unicode="&#x2d8;" horiz-adv-x="431" 
d="M416 704c-2 -11 -8 -30 -17 -47c-29 -57 -83 -97 -162 -97c-93 0 -133 68 -126 138c1 12 4 17 14 18l80 9c16 2 22 0 19 -17c-4 -28 7 -43 31 -43c26 0 39 16 50 46c7 18 8 18 26 15l77 -11c6 -1 9 -4 8 -11z" />
    <glyph glyph-name="dotaccent" unicode="&#x2d9;" horiz-adv-x="373" 
d="M320 646c0 -50 -41 -91 -91 -91c-51 0 -92 40 -92 91s41 91 92 91c50 0 91 -40 91 -91z" />
    <glyph glyph-name="dieresis" unicode="&#xa8;" horiz-adv-x="509" 
d="M492 635c0 -47 -37 -84 -84 -84c-46 0 -84 38 -84 84c0 47 38 85 85 85c46 0 83 -38 83 -85zM267 635c0 -47 -37 -84 -84 -84c-46 0 -84 38 -84 84c0 47 38 85 85 85c46 0 83 -39 83 -85z" />
    <glyph glyph-name="ring" unicode="&#x2da;" horiz-adv-x="416" 
d="M369 692c0 -72 -59 -132 -135 -132c-59 0 -107 46 -107 104c0 73 57 131 135 131c60 0 107 -46 107 -103zM287 682c0 20 -15 37 -36 37c-24 0 -43 -18 -43 -46c0 -20 15 -36 36 -36c26 0 43 22 43 45z" />
    <glyph glyph-name="cedilla" unicode="&#xb8;" horiz-adv-x="394" 
d="M299 -118c0 -67 -60 -114 -133 -114c-54 0 -86 15 -92 27c-2 4 0 10 2 15l20 45c4 9 12 4 18 1c7 -3 16 -6 26 -6c19 0 36 7 36 27c0 14 -7 21 -34 21c-16 0 -23 2 -17 20l26 82h96l-13 -47c44 -7 65 -36 65 -71z" />
    <glyph glyph-name="hungarumlaut" unicode="&#x2dd;" horiz-adv-x="516" 
d="M539 696c12 -12 12 -17 -2 -28l-163 -132c-12 -10 -16 -9 -26 1l-28 29c-12 12 -12 14 1 28l141 150c13 14 17 12 29 0zM353 696c12 -12 12 -17 -2 -28l-163 -132c-12 -10 -16 -9 -26 1l-28 29c-12 12 -12 14 1 28l141 150c13 14 17 12 29 0z" />
    <glyph glyph-name="ogonek" unicode="&#x2db;" horiz-adv-x="384" 
d="M303 -154c3 -12 3 -18 -22 -31c-20 -10 -54 -23 -96 -23c-63 0 -94 37 -94 82c0 53 45 104 102 138h105c-46 -34 -91 -72 -91 -98c0 -11 8 -16 21 -16s24 4 39 10c11 5 20 5 22 -5z" />
    <glyph glyph-name="caron" unicode="&#x2c7;" horiz-adv-x="448" 
d="M422 698c9 -14 9 -17 -6 -27l-156 -106c-15 -10 -24 -9 -37 4l-100 101c-11 11 -14 16 -2 28l43 42c14 14 17 14 32 2l68 -51l103 58c14 8 17 8 26 -6z" />
    <glyph glyph-name="emdash" unicode="&#x2014;" horiz-adv-x="938" 
d="M908 303l-22 -97c-2 -8 -7 -15 -15 -15h-829c-8 0 -14 7 -12 15l22 97c2 8 7 15 15 15h829c8 0 14 -7 12 -15z" />
    <glyph glyph-name="AE" unicode="&#xc6;" horiz-adv-x="805" 
d="M854 671l-35 -165c-2 -10 -8 -15 -19 -15h-91c-11 0 -13 6 -11 15l11 52h-114l-29 -136h175c11 0 14 -5 12 -15l-20 -97c-2 -10 -8 -15 -19 -15h-175l-36 -167h118l13 60c2 11 6 15 18 15h88c11 0 14 -5 12 -15l-37 -173c-2 -10 -8 -15 -19 -15h-424c-11 0 -13 6 -11 15
l19 90c2 11 6 15 18 15h46l12 58h-136l-88 -163c-5 -9 -8 -15 -19 -15h-146c-11 0 -13 6 -11 15l19 90c2 11 6 15 18 15h27l341 556c5 8 8 10 19 10h461c11 0 15 -5 13 -15zM447 594c-10 -21 -44 -85 -54 -103l-115 -201h102l42 195c3 14 20 90 25 109z" />
    <glyph glyph-name="ordfeminine" unicode="&#xaa;" horiz-adv-x="359" 
d="M357 612l-40 -180c-2 -9 -3 -17 -3 -23h23c7 0 11 -4 10 -11l-10 -48c-1 -7 -5 -11 -13 -11h-62c-29 0 -32 13 -35 37c-25 -29 -57 -47 -89 -47c-53 0 -78 40 -78 99c0 109 63 208 150 208c27 0 46 -7 64 -24c3 8 4 14 14 14h61c10 0 10 -6 8 -14zM252 559
c-14 11 -22 14 -32 14c-16 0 -27 -8 -38 -26c-14 -23 -32 -83 -32 -123c0 -17 7 -26 20 -26c17 0 34 13 46 32c8 12 14 28 18 47z" />
    <glyph glyph-name="Lslash" unicode="&#x141;" horiz-adv-x="531" 
d="M511 175l-64 -163c-3 -9 -8 -12 -18 -12h-430c-13 0 -14 7 -12 18l18 87c2 11 5 15 16 15h47l29 136l-58 -29c-14 -7 -20 1 -16 18l16 74c3 13 6 15 20 22l63 31l42 194h-47c-11 0 -13 6 -11 15l19 90c2 11 6 15 18 15h252c11 0 14 -5 12 -15l-19 -90
c-2 -10 -8 -15 -19 -15h-47l-23 -108l108 53c15 7 21 2 17 -17l-15 -72c-3 -15 -7 -18 -21 -25l-114 -55l-44 -208h130l33 77c7 16 10 15 25 11l85 -25c13 -4 13 -9 8 -22z" />
    <glyph glyph-name="Oslash" unicode="&#xd8;" horiz-adv-x="601" 
d="M601 685l-47 -69c20 -33 30 -75 30 -125c0 -155 -54 -328 -137 -418c-54 -59 -123 -90 -206 -90c-44 0 -82 9 -112 26l-42 -60c-7 -10 -12 -10 -22 -4l-52 34c-13 8 -10 15 -3 25l53 76c-16 32 -24 71 -24 116c0 141 49 322 137 417c55 60 123 90 207 90
c39 0 73 -7 101 -21l38 55c9 13 15 10 25 3l49 -33c10 -7 11 -13 5 -22zM412 548c-9 22 -23 28 -43 28c-41 0 -78 -31 -111 -104c-27 -61 -47 -142 -53 -219zM419 452l-212 -302c7 -31 24 -40 47 -40c40 0 77 30 110 103c29 66 50 157 55 239z" />
    <glyph glyph-name="OE" unicode="&#x152;" horiz-adv-x="782" 
d="M831 671l-35 -165c-2 -10 -8 -15 -19 -15h-91c-11 0 -13 6 -11 15l11 52h-114l-29 -136h175c11 0 14 -5 12 -15l-20 -97c-2 -10 -8 -15 -19 -15h-175l-36 -167h118l13 60c2 11 6 15 18 15h88c11 0 14 -5 12 -15l-37 -173c-2 -10 -8 -15 -19 -15h-339
c-32 -12 -60 -17 -95 -17c-128 0 -200 79 -200 213c0 142 49 321 136 417c54 59 122 90 203 90c35 0 60 -5 88 -17h352c11 0 15 -5 13 -15zM415 563c-16 14 -30 16 -48 16c-40 0 -76 -32 -109 -104c-35 -76 -57 -186 -57 -279c0 -69 20 -89 51 -89c26 0 47 5 73 22z" />
    <glyph glyph-name="ordmasculine" unicode="&#xba;" horiz-adv-x="344" 
d="M363 525c0 -59 -23 -113 -60 -150c-29 -30 -70 -47 -115 -47c-73 0 -113 39 -113 108c0 105 69 198 176 198c69 0 112 -42 112 -109zM268 530c0 21 -9 33 -30 33c-19 0 -33 -11 -44 -30c-15 -26 -24 -73 -24 -100c0 -22 8 -36 29 -36s37 12 48 37c12 28 21 69 21 96z" />
    <glyph glyph-name="ae" unicode="&#xe6;" horiz-adv-x="757" 
d="M734 372c0 -89 -65 -146 -158 -171c-40 -11 -98 -17 -150 -16c0 0 -2 -7 -2 -11c-5 -52 24 -74 73 -74c46 0 90 23 123 38c9 4 18 8 23 -4l32 -76c3 -8 0 -13 -5 -17c-28 -26 -115 -58 -202 -58c-73 0 -126 26 -157 72c-47 -49 -110 -71 -171 -71c-79 0 -135 48 -135 126
c0 58 23 102 61 134c51 43 140 61 236 60l7 33c10 45 -3 64 -53 64c-38 0 -74 -14 -103 -24l-20 -7c-6 -2 -10 -1 -14 8l-26 66c-5 13 -5 19 14 27c62 27 110 40 182 40c57 0 97 -27 116 -57c46 36 105 57 167 57c98 0 162 -53 162 -139zM596 367c0 26 -17 43 -40 43
c-36 0 -67 -18 -88 -46c-14 -19 -24 -44 -33 -79c56 0 88 5 115 17c31 13 46 35 46 65zM282 212c-85 0 -142 -16 -142 -81c0 -29 17 -47 44 -47c36 0 78 25 87 72z" />
    <glyph glyph-name="dotlessi" unicode="&#x131;" horiz-adv-x="305" 
d="M273 477l-78 -363h55c14 0 16 -5 13 -17l-19 -84c-2 -9 -6 -13 -15 -13h-105c-39 0 -70 9 -81 47c-7 26 0 53 5 79l54 255h-62c-11 0 -14 3 -12 12l17 85c3 13 3 16 16 16h200c15 0 15 -4 12 -17z" />
    <glyph glyph-name="lslash" unicode="&#x142;" horiz-adv-x="326" 
d="M361 492l-15 -72c-3 -13 -6 -16 -20 -23l-83 -40l-32 -153c-8 -37 -13 -60 -13 -68c0 -10 5 -15 15 -15c13 0 24 3 35 6c5 1 10 1 11 -7l12 -78c2 -14 4 -19 -9 -28c-18 -13 -57 -24 -104 -24c-73 0 -113 30 -114 95c0 28 4 58 14 105l18 87l-59 -29
c-16 -8 -23 -4 -19 14l16 74c3 13 6 16 20 23l67 32l45 212h-48c-8 0 -12 5 -10 16l16 83c2 13 4 15 19 15h181c14 0 14 -7 11 -20l-48 -225l74 36c20 10 24 2 20 -16z" />
    <glyph glyph-name="oslash" unicode="&#xf8;" horiz-adv-x="527" 
d="M515 493l-44 -58c18 -29 28 -65 28 -107c0 -98 -37 -198 -101 -267c-46 -50 -117 -78 -191 -78c-35 0 -66 5 -92 17l-31 -41c-10 -13 -10 -16 -22 -9l-48 28c-13 8 -14 12 -4 25l41 54c-18 29 -27 65 -27 109c0 99 37 200 103 267c50 50 112 78 190 78c34 0 64 -7 89 -19
l34 45c10 13 13 15 24 8l47 -29c13 -8 14 -10 4 -23zM349 337c0 39 -17 62 -55 62c-34 0 -58 -22 -78 -58c-26 -48 -42 -133 -42 -181c0 -41 14 -66 51 -66c38 0 67 21 88 69c21 50 36 126 36 174z" />
    <glyph glyph-name="oe" unicode="&#x153;" horiz-adv-x="805" 
d="M782 372c0 -89 -65 -146 -158 -171c-40 -11 -98 -17 -150 -16c0 0 -2 -7 -2 -11c-5 -52 24 -74 73 -74c46 0 90 23 123 38c9 4 18 8 23 -4l32 -76c3 -8 0 -13 -5 -17c-28 -26 -115 -58 -202 -58c-63 0 -112 20 -144 55c-45 -35 -103 -55 -165 -55
c-118 0 -183 67 -183 183c0 99 37 200 103 267c50 50 112 78 190 78c59 0 107 -20 138 -55c46 35 104 55 165 55c98 0 162 -53 162 -139zM644 367c0 26 -17 43 -40 43c-36 0 -67 -18 -88 -46c-14 -19 -24 -44 -33 -79c56 0 88 5 115 17c31 13 46 35 46 65zM348 337
c0 39 -16 62 -54 62c-34 0 -58 -22 -78 -58c-26 -48 -42 -133 -42 -181c0 -41 14 -66 51 -66c38 0 66 21 87 69c21 50 36 126 36 174z" />
    <glyph glyph-name="germandbls" unicode="&#xdf;" horiz-adv-x="627" 
d="M588 168c0 -117 -91 -183 -224 -183c-35 0 -89 9 -119 25c-15 8 -11 16 -7 29l27 79c3 10 14 7 21 5c32 -12 57 -24 92 -24c44 0 74 16 74 53c0 34 -20 53 -63 89c-53 43 -79 69 -79 119c0 49 22 79 65 115c38 32 65 54 65 91c0 24 -21 40 -58 40c-34 0 -62 -10 -79 -33
c-12 -16 -19 -39 -27 -76l-103 -499c-14 -69 -31 -112 -62 -146c-33 -36 -79 -57 -141 -57c-41 0 -69 4 -91 14c-10 5 -11 11 -6 27l25 81c4 14 13 8 22 6s21 -4 31 -4c45 0 61 13 79 103l95 471c17 85 45 137 88 173c45 38 109 58 178 58c115 0 188 -50 188 -144
c0 -67 -33 -102 -86 -144c-30 -23 -43 -35 -43 -55c0 -17 19 -29 56 -60c53 -44 82 -82 82 -153z" />
    <glyph glyph-name="onesuperior" unicode="&#xb9;" horiz-adv-x="370" 
d="M332 646l-64 -300h38c19 0 16 -11 13 -25l-8 -38c-3 -13 -6 -16 -20 -16h-196c-18 0 -15 13 -12 27l8 36c3 13 6 16 20 16h59l45 212l-53 -24c-11 -5 -23 -13 -30 4l-14 33c-6 13 4 21 15 27l116 63c4 2 13 7 17 7h52c15 0 17 -8 14 -22z" />
    <glyph glyph-name="logicalnot" unicode="&#xac;" horiz-adv-x="500" 
d="M502 236c0 -19 -2 -21 -21 -21h-113c-19 0 -21 2 -21 21v131h-281c-19 0 -20 0 -20 19v95c0 17 1 21 20 21h415c19 0 21 -4 21 -21v-245z" />
    <glyph glyph-name="mu" unicode="&#xb5;" horiz-adv-x="535" 
d="M524 486l-74 -327c-8 -36 -9 -50 -8 -71s3 -35 8 -53c3 -10 -2 -15 -11 -18l-99 -32c-4 -1 -8 -1 -11 -1c-11 0 -22 24 -24 62c-1 9 -2 15 -1 26c-46 -57 -96 -91 -150 -88l-34 -159c-3 -12 -4 -14 -16 -16l-125 -19c-14 -2 -15 1 -12 16l140 658c3 12 6 17 18 19l121 19
c16 3 20 1 16 -15l-67 -295c-5 -23 -9 -43 -9 -54c0 -17 12 -28 29 -28c55 0 98 84 122 198l34 159c3 12 3 14 15 16l124 20c16 3 18 0 14 -17z" />
    <glyph glyph-name="trademark" unicode="&#x2122;" horiz-adv-x="832" 
d="M824 678l-12 -53c-1 -6 -4 -9 -11 -9h-25l-45 -261h27c7 0 8 -3 7 -9l-12 -53c-1 -6 -4 -8 -11 -8h-104c-7 0 -8 3 -7 8l36 182c4 19 8 40 16 70c-12 -26 -23 -51 -33 -69l-54 -99c-2 -4 -5 -7 -9 -7h-45c-4 0 -7 2 -8 8l-9 96c-2 21 -3 44 -4 74c-3 -17 -7 -45 -14 -75
l-42 -180c-1 -6 -4 -8 -11 -8h-100c-7 0 -7 3 -6 8l11 53c1 6 4 9 11 9h24l69 261h-24c-7 0 -8 4 -7 9l12 53c1 6 4 8 11 8h109c7 0 10 -1 11 -9l13 -129c2 -22 2 -46 0 -68c9 23 19 46 31 66l77 134c3 5 5 6 11 6h109c7 0 9 -2 8 -8zM392 678l-25 -117c-1 -6 -4 -9 -11 -9
h-39c-7 0 -8 4 -7 9l11 49h-40l-55 -255h35c7 0 9 -3 8 -9l-12 -53c-1 -6 -4 -8 -11 -8h-166c-7 0 -7 3 -6 8l11 53c1 6 4 9 11 9h35l55 255h-39l-10 -49c-1 -6 -4 -9 -11 -9h-39c-7 0 -8 4 -7 9l25 117c1 6 4 8 11 8h269c7 0 8 -2 7 -8z" />
    <glyph glyph-name="Eth" unicode="&#xd0;" horiz-adv-x="638" 
d="M621 458c0 -141 -56 -308 -135 -383c-65 -62 -152 -75 -272 -75h-217c-11 0 -13 6 -11 15l19 90c2 11 6 15 18 15h46l38 177h-42c-17 0 -19 5 -15 22l17 82c3 15 5 17 21 17h44l32 148h-45c-11 0 -13 6 -11 15l19 90c2 11 6 15 18 15h205c111 0 165 -12 209 -55
c39 -38 62 -102 62 -173zM459 459c0 42 -11 72 -32 86c-17 11 -38 14 -79 14h-28l-30 -141h77c20 0 19 -5 15 -23l-17 -81c-3 -15 -5 -17 -21 -17h-80l-36 -170c4 0 24 -1 27 0c69 0 104 17 129 51c41 56 75 182 75 281z" />
    <glyph glyph-name="onehalf" unicode="&#xbd;" horiz-adv-x="860" 
d="M816 313c0 -45 -19 -83 -55 -112c-28 -23 -52 -36 -100 -65c-34 -20 -51 -32 -58 -47h146c13 0 16 -4 14 -14l-11 -55c-3 -15 -5 -20 -20 -20h-245c-10 0 -12 4 -11 11c0 4 6 27 9 38c10 37 25 65 48 90c24 26 56 47 101 74c52 31 77 50 77 85c0 18 -10 28 -31 28
c-29 0 -46 -21 -64 -47c-8 -12 -15 -13 -25 -11c-2 0 -7 2 -9 3l-41 15c-6 2 -9 6 -8 12c2 15 21 40 38 58c33 35 79 55 132 55c71 0 113 -36 113 -98zM682 660l-8 -16l-422 -670c-6 -10 -12 -14 -22 -14h-69c-15 0 -20 5 -15 17c1 2 6 13 8 16l423 672c6 9 11 12 21 12h70
c16 0 18 -5 14 -17zM312 646l-64 -300h38c19 0 16 -11 13 -25l-8 -38c-3 -13 -6 -16 -20 -16h-196c-18 0 -15 13 -12 27l8 36c3 13 6 16 20 16h59l45 212l-53 -24c-11 -5 -23 -13 -30 4l-14 33c-6 13 4 21 15 27l116 63c4 2 13 7 17 7h52c15 0 17 -8 14 -22z" />
    <glyph glyph-name="plusminus" unicode="&#xb1;" horiz-adv-x="500" 
d="M502 284c0 -19 -2 -21 -21 -21h-131v-130c0 -19 -1 -21 -20 -21h-112c-18 0 -21 2 -21 21v130h-131c-19 0 -20 2 -20 21v99c0 17 1 20 20 20h131v131c0 18 3 20 21 20h112c19 0 20 -3 20 -21v-130h131c19 0 21 -3 21 -20v-99zM502 -54c0 -19 -2 -20 -21 -20h-415
c-19 0 -20 1 -20 20v96c0 17 1 21 20 21h415c19 0 21 -4 21 -21v-96z" />
    <glyph glyph-name="Thorn" unicode="&#xde;" horiz-adv-x="593" 
d="M570 408c0 -97 -50 -187 -130 -227c-45 -22 -97 -31 -160 -31h-48l-26 -135c-2 -10 -8 -15 -19 -15h-190c-11 0 -13 6 -11 15l19 90c2 11 6 15 18 15h45l96 446h-46c-11 0 -13 6 -11 15l19 90c2 11 6 15 18 15h187c12 0 14 -5 12 -15l-20 -101h21c88 0 138 -11 177 -45
c32 -28 49 -69 49 -117zM414 394c0 40 -19 56 -77 56h-40l-38 -175h35c45 0 71 14 89 34s31 53 31 85z" />
    <glyph glyph-name="onequarter" unicode="&#xbc;" horiz-adv-x="860" 
d="M802 138l-11 -47c-2 -11 -10 -14 -19 -14h-32l-15 -66c-3 -13 -6 -16 -20 -16h-65c-20 0 -16 9 -13 23l12 59h-153c-21 0 -16 10 -13 26l13 59c1 5 5 12 9 17l177 230c9 11 21 7 32 4l52 -13c16 -4 9 -18 2 -27l-173 -215h73l30 85c4 11 6 14 19 14h52c16 0 17 -9 14 -23
l-16 -75h34c14 0 15 -4 11 -21zM693 644l-421 -670c-7 -11 -13 -14 -23 -14h-69c-27 0 -16 19 -7 33l422 672c6 9 12 12 22 12h70c25 0 14 -20 6 -33zM322 646l-64 -300h38c19 0 16 -11 13 -25l-8 -38c-2 -13 -6 -16 -20 -16h-196c-18 0 -15 13 -12 27l8 36c3 13 6 16 20 16
h59l45 212l-53 -24c-11 -5 -22 -13 -30 4l-14 33c-5 13 4 21 15 27l116 63c4 2 13 7 17 7h52c15 0 17 -8 14 -22z" />
    <glyph glyph-name="divide" unicode="&#xf7;" horiz-adv-x="500" 
d="M362 533c0 -48 -40 -87 -88 -87s-88 39 -88 87s39 88 87 88s89 -40 89 -88zM502 283c0 -19 -2 -20 -21 -20h-415c-19 0 -20 1 -20 20v99c0 17 1 21 20 21h415c19 0 21 -4 21 -21v-99zM362 132c0 -48 -40 -86 -88 -86s-88 38 -88 86s39 88 87 88s88 -40 88 -88h1z" />
    <glyph glyph-name="brokenbar" unicode="&#xa6;" horiz-adv-x="385" 
d="M293 357c0 -17 -13 -30 -30 -30h-93c-17 0 -30 13 -30 30v296c0 17 13 30 30 30h93c17 0 30 -13 30 -30v-296zM293 -141c0 -17 -13 -30 -30 -30h-93c-17 0 -30 13 -30 30v296c0 17 13 30 30 30h93c17 0 30 -13 30 -30v-296z" />
    <glyph glyph-name="degree" unicode="&#xb0;" horiz-adv-x="450" 
d="M485 552c0 -93 -65 -171 -174 -171c-80 0 -143 62 -143 141c0 93 83 170 176 170c80 0 141 -62 141 -140zM389 541c0 33 -24 59 -57 59c-36 0 -68 -32 -68 -68c0 -33 25 -60 58 -60c37 0 67 33 67 69z" />
    <glyph glyph-name="thorn" unicode="&#xfe;" horiz-adv-x="537" 
d="M511 357c0 -106 -41 -231 -105 -302c-43 -47 -98 -72 -163 -72c-33 0 -61 4 -86 12l-18 -82h43c12 0 14 -6 12 -14l-16 -82c-3 -14 -4 -19 -17 -19h-235c-14 0 -14 7 -12 18l18 84c2 9 6 13 15 13h43l146 690h-46c-14 0 -14 9 -12 19l17 78c3 13 4 17 18 17h181
c15 0 15 -7 12 -21l-42 -200c-4 -18 -9 -33 -15 -47c29 37 76 62 125 62c89 0 137 -55 137 -154zM366 342c0 38 -19 56 -47 56c-48 0 -85 -38 -104 -127l-34 -161c23 -14 42 -22 65 -22c33 0 57 23 77 64c26 54 43 143 43 190z" />
    <glyph glyph-name="threequarters" unicode="&#xbe;" horiz-adv-x="860" 
d="M815 143l-11 -51c-2 -12 -6 -15 -19 -15h-33l-14 -66c-3 -13 -7 -16 -21 -16h-65c-17 0 -16 9 -13 23l12 59h-153c-20 0 -15 10 -12 24l10 52c1 5 4 15 7 19l181 237c8 11 21 7 32 4l53 -13c16 -4 8 -18 1 -27l-173 -215h73l30 85c4 11 7 14 20 14h51c20 0 17 -9 14 -23
l-16 -75h31c14 0 18 -5 15 -16zM704 644l-422 -670c-7 -11 -13 -14 -23 -14h-68c-27 0 -16 19 -7 33l422 672c6 9 11 12 21 12h70c25 0 15 -20 7 -33zM376 588c0 -18 -5 -36 -13 -52c-12 -23 -25 -38 -53 -53c30 -17 42 -39 42 -74c0 -95 -86 -152 -184 -152
c-59 0 -125 25 -125 41c0 3 2 6 4 11l25 46c8 14 21 8 32 3c25 -12 50 -18 74 -18c40 0 69 21 69 60c0 24 -15 36 -60 36h-28c-20 0 -15 11 -12 25l8 41c3 14 6 15 20 15h30c39 0 68 16 68 52c0 17 -11 27 -31 27c-24 0 -38 -13 -54 -24c-11 -8 -26 -13 -38 -3l-31 25
c-4 3 -4 7 -4 11c1 6 9 16 23 28c35 30 76 45 121 45c71 0 117 -34 117 -90z" />
    <glyph glyph-name="twosuperior" unicode="&#xb2;" horiz-adv-x="371" 
d="M388 580c0 -45 -19 -83 -55 -112c-28 -23 -53 -36 -101 -65c-34 -20 -50 -32 -57 -47h146c13 0 15 -4 13 -14l-10 -55c-3 -15 -5 -20 -20 -20h-245c-10 0 -13 4 -12 11c0 4 7 27 10 38c10 37 25 65 48 90c24 26 56 47 101 74c52 31 77 50 77 85c0 18 -11 28 -32 28
c-29 0 -46 -21 -64 -47c-8 -12 -14 -13 -24 -11c-2 0 -8 2 -10 3l-40 15c-6 2 -10 6 -9 12c2 15 21 40 38 58c33 35 80 55 133 55c71 0 113 -36 113 -98z" />
    <glyph glyph-name="registered" unicode="&#xae;" horiz-adv-x="440" 
d="M492 587c0 -140 -102 -248 -232 -248c-104 0 -174 81 -174 186c0 137 96 249 234 249c103 0 172 -82 172 -187zM442 581c0 83 -50 145 -130 145c-101 0 -175 -88 -175 -195c0 -82 50 -144 129 -144c99 0 176 86 176 194zM390 625c0 -24 -11 -50 -28 -65
c-7 -7 -15 -10 -28 -16l22 -58h20c6 0 8 -4 7 -9l-7 -32c-1 -4 -4 -7 -10 -7h-51c-5 0 -8 1 -10 7l-26 91h-7l-11 -50h13c6 0 8 -4 7 -9l-7 -32c-1 -4 -4 -7 -10 -7h-88c-7 0 -7 5 -6 8l7 32c1 5 3 8 9 8h14l34 152h-14c-6 0 -8 5 -7 9l8 32c1 4 3 7 9 7h76
c27 0 47 -4 62 -14c14 -10 22 -26 22 -47zM329 621c0 7 -2 12 -6 14c-3 2 -8 3 -18 3h-10l-13 -55h9c14 0 22 3 28 10c6 6 10 17 10 28z" />
    <glyph glyph-name="minus" unicode="&#x2212;" horiz-adv-x="500" 
d="M502 284c0 -18 -3 -20 -21 -20h-414c-18 0 -21 2 -21 20v100c0 18 3 20 21 20h414c18 0 21 -2 21 -20v-100z" />
    <glyph glyph-name="eth" unicode="&#xf0;" horiz-adv-x="527" 
d="M535 658c5 -10 5 -16 -7 -20l-85 -29c32 -85 55 -169 55 -258c0 -19 -1 -37 -3 -56c-18 -158 -116 -312 -290 -312c-122 0 -181 72 -181 187c0 118 60 257 179 298c27 9 59 16 91 16c18 0 35 -2 51 -7c-5 26 -14 65 -22 89l-77 -26c-8 -3 -15 -2 -19 7l-21 45
c-5 10 -4 16 8 20l80 27c-14 31 -23 51 -38 75c-8 12 2 17 14 18l76 6c11 1 21 0 30 -6c8 -5 20 -23 36 -52l84 30c10 4 14 1 19 -9zM343 336c0 48 -18 63 -51 63c-28 0 -50 -14 -68 -47c-23 -42 -42 -134 -42 -185c0 -49 18 -63 48 -63s53 13 71 47c22 42 42 135 42 185z
" />
    <glyph glyph-name="multiply" unicode="&#xd7;" horiz-adv-x="500" 
d="M471 233c15 -15 4 -25 -9 -38l-58 -58c-13 -13 -22 -8 -33 4l-93 95l-86 -87c-19 -19 -33 -20 -50 -3l-57 56c-12 11 -22 23 -7 37l99 98l-95 93c-12 11 -17 20 -4 33l58 58c13 13 22 25 38 9l97 -99l93 94c11 12 20 18 33 5l63 -63c23 -23 18 -32 -3 -53l-85 -84z" />
    <glyph glyph-name="threesuperior" unicode="&#xb3;" horiz-adv-x="370" 
d="M382 588c0 -18 -4 -36 -13 -52c-11 -23 -25 -38 -53 -53c30 -17 42 -39 42 -74c0 -95 -86 -152 -184 -152c-59 0 -125 25 -125 41c0 3 2 6 4 11l25 46c8 14 21 8 32 3c25 -12 50 -18 74 -18c40 0 69 21 69 60c0 24 -15 36 -60 36h-28c-20 0 -14 11 -12 25l8 41
c3 14 6 15 20 15h30c39 0 68 16 68 52c0 17 -11 27 -31 27c-24 0 -38 -13 -54 -24c-11 -8 -26 -13 -38 -3l-31 25c-4 3 -4 7 -4 11c1 6 9 16 23 28c35 30 76 45 121 45c71 0 117 -34 117 -90z" />
    <glyph glyph-name="copyright" unicode="&#xa9;" horiz-adv-x="734" 
d="M720 395c0 -232 -169 -410 -384 -410c-170 0 -285 132 -285 306c0 226 159 410 386 410c169 0 283 -133 283 -306zM644 384c0 141 -85 246 -221 246c-170 0 -296 -149 -296 -329c0 -139 86 -245 219 -245c169 0 298 146 298 328zM532 509l-15 -77c-1 -7 -5 -8 -11 -8h-55
c-8 0 -10 4 -9 10l9 42c-9 3 -16 5 -25 5c-29 0 -49 -16 -67 -47c-26 -46 -40 -116 -40 -161c0 -50 16 -64 52 -64c10 0 18 1 29 4l8 40c1 6 3 9 10 9h56c7 0 9 -3 8 -9l-17 -86c-2 -10 -7 -11 -12 -14c-21 -10 -62 -27 -107 -27c-89 0 -126 60 -126 144c0 83 24 171 72 227
c34 39 77 61 136 61c47 0 80 -17 99 -32c4 -3 7 -6 5 -17z" />
    <glyph glyph-name="Aacute" unicode="&#xc1;" horiz-adv-x="602" 
d="M563 828c8 -13 9 -17 -7 -23l-203 -74c-14 -5 -14 -6 -24 5l-38 44c-11 12 -5 19 6 25l188 109c14 8 20 8 29 -7zM572 100l-18 -85c-2 -11 -6 -15 -17 -15h-146c-13 0 -15 6 -16 21l-9 154h-150l-67 -157c-5 -13 -9 -18 -27 -18h-150c-12 0 -15 7 -12 19l18 81
c3 14 5 18 20 18h32l282 557c3 5 6 11 12 11h141c8 0 9 -7 10 -16l51 -552h28c18 0 21 -2 18 -18zM362 286l-1 161c0 20 1 41 1 82c-11 -29 -30 -71 -38 -89l-69 -154h107z" />
    <glyph glyph-name="Acircumflex" unicode="&#xc2;" horiz-adv-x="602" 
d="M544 780l-43 -42c-14 -14 -17 -14 -32 -2l-68 51l-103 -58c-14 -8 -17 -8 -26 6l-29 45c-9 14 -9 17 6 27l156 106c15 10 24 9 37 -4l100 -101c11 -11 14 -16 2 -28zM572 100l-18 -85c-2 -11 -6 -15 -17 -15h-146c-13 0 -15 6 -16 21l-9 154h-150l-67 -157
c-5 -13 -9 -18 -27 -18h-150c-12 0 -15 7 -12 19l18 81c3 14 5 18 20 18h32l282 557c3 5 6 11 12 11h141c8 0 9 -7 10 -16l51 -552h28c18 0 21 -2 18 -18zM362 286l-1 161c0 20 1 41 1 82c-11 -29 -30 -71 -38 -89l-69 -154h107z" />
    <glyph glyph-name="Adieresis" unicode="&#xc4;" horiz-adv-x="602" 
d="M604 831c0 -47 -37 -84 -84 -84c-46 0 -84 38 -84 84c0 47 38 85 85 85c46 0 83 -38 83 -85zM379 831c0 -47 -37 -84 -84 -84c-46 0 -84 38 -84 84c0 47 38 85 85 85c46 0 83 -39 83 -85zM572 100l-18 -85c-2 -11 -6 -15 -17 -15h-146c-13 0 -15 6 -16 21l-9 154h-150
l-67 -157c-5 -13 -9 -18 -27 -18h-150c-12 0 -15 7 -12 19l18 81c3 14 5 18 20 18h32l282 557c3 5 6 11 12 11h141c8 0 9 -7 10 -16l51 -552h28c18 0 21 -2 18 -18zM362 286l-1 161c0 20 1 41 1 82c-11 -29 -30 -71 -38 -89l-69 -154h107z" />
    <glyph glyph-name="Agrave" unicode="&#xc0;" horiz-adv-x="602" 
d="M466 810c10 -7 10 -10 -1 -22l-39 -42c-10 -11 -11 -10 -24 -5l-188 78c-15 6 -16 10 -6 23l60 79c11 14 16 16 29 7zM572 100l-18 -85c-2 -11 -6 -15 -17 -15h-146c-13 0 -15 6 -16 21l-9 154h-150l-67 -157c-5 -13 -9 -18 -27 -18h-150c-12 0 -15 7 -12 19l18 81
c3 14 5 18 20 18h32l282 557c3 5 6 11 12 11h141c8 0 9 -7 10 -16l51 -552h28c18 0 21 -2 18 -18zM362 286l-1 161c0 20 1 41 1 82c-11 -29 -30 -71 -38 -89l-69 -154h107z" />
    <glyph glyph-name="Aring" unicode="&#xc5;" horiz-adv-x="602" 
d="M535 859c0 -72 -59 -132 -135 -132c-59 0 -107 46 -107 104c0 73 57 131 135 131c60 0 107 -46 107 -103zM572 100l-18 -85c-2 -11 -6 -15 -17 -15h-146c-13 0 -15 6 -16 21l-9 154h-150l-67 -157c-5 -13 -9 -18 -27 -18h-150c-12 0 -15 7 -12 19l18 81c3 14 5 18 20 18
h32l282 557c3 5 6 11 12 11h141c8 0 9 -7 10 -16l51 -552h28c18 0 21 -2 18 -18zM453 849c0 20 -15 37 -36 37c-24 0 -43 -18 -43 -46c0 -20 15 -36 36 -36c26 0 43 22 43 45zM362 286l-1 161c0 20 1 41 1 82c-11 -29 -30 -71 -38 -89l-69 -154h107z" />
    <glyph glyph-name="Atilde" unicode="&#xc3;" horiz-adv-x="602" 
d="M573 830c-2 -8 -8 -19 -18 -34c-26 -38 -61 -69 -107 -69c-26 0 -42 9 -64 24c-11 8 -19 12 -28 12c-16 0 -27 -8 -39 -28c-6 -11 -11 -10 -22 -4l-54 30c-8 5 -8 9 -6 15c3 9 6 16 21 39c24 37 56 66 102 66c27 0 46 -10 69 -23c13 -8 21 -11 29 -11c17 0 26 12 37 28
c5 8 15 5 22 1l53 -30c9 -5 7 -9 5 -16zM572 100l-18 -85c-2 -11 -6 -15 -17 -15h-146c-13 0 -15 6 -16 21l-9 154h-150l-67 -157c-5 -13 -9 -18 -27 -18h-150c-12 0 -15 7 -12 19l18 81c3 14 5 18 20 18h32l282 557c3 5 6 11 12 11h141c8 0 9 -7 10 -16l51 -552h28
c18 0 21 -2 18 -18zM362 286l-1 161c0 20 1 41 1 82c-11 -29 -30 -71 -38 -89l-69 -154h107z" />
    <glyph glyph-name="Ccedilla" unicode="&#xc7;" horiz-adv-x="521" 
d="M558 621l-26 -128c-2 -11 -7 -13 -17 -13h-93c-13 0 -16 6 -14 16l15 70c-15 5 -27 8 -42 8c-49 0 -82 -27 -112 -78c-44 -76 -67 -192 -67 -268c0 -83 27 -107 87 -107c16 0 30 2 48 7l14 67c2 10 5 15 16 15h94c12 0 16 -5 14 -15l-29 -144c-3 -17 -11 -19 -20 -23
c-30 -15 -83 -36 -143 -43l-9 -32c44 -7 65 -36 65 -71c0 -67 -60 -114 -133 -114c-54 0 -86 15 -92 27c-2 4 0 10 2 15l20 45c4 9 12 4 18 1c7 -3 16 -6 26 -6c19 0 36 7 36 27c0 14 -7 21 -34 21c-16 0 -23 2 -17 20l23 71c-106 24 -151 114 -151 234
c0 138 39 285 120 378c56 65 129 102 227 102c78 0 135 -27 166 -53c6 -5 12 -11 8 -29z" />
    <glyph glyph-name="Eacute" unicode="&#xc9;" horiz-adv-x="530" 
d="M493 828c8 -13 9 -17 -7 -23l-203 -74c-14 -5 -14 -6 -24 5l-38 44c-11 12 -5 19 6 25l188 109c14 8 20 8 29 -7zM579 671l-35 -165c-2 -10 -8 -15 -19 -15h-91c-11 0 -13 6 -11 15l11 52h-114l-29 -136h175c11 0 14 -5 12 -15l-20 -97c-2 -10 -8 -15 -19 -15h-175
l-36 -167h118l13 60c2 11 6 15 18 15h88c11 0 14 -5 12 -15l-37 -173c-2 -10 -8 -15 -19 -15h-424c-11 0 -13 6 -11 15l19 90c2 11 6 15 18 15h46l95 446h-45c-11 0 -13 6 -11 15l19 90c2 11 6 15 18 15h421c11 0 15 -5 13 -15z" />
    <glyph glyph-name="Ecircumflex" unicode="&#xca;" horiz-adv-x="530" 
d="M524 780l-43 -42c-14 -14 -17 -14 -32 -2l-68 51l-103 -58c-14 -8 -17 -8 -26 6l-29 45c-9 14 -9 17 6 27l156 106c15 10 24 9 37 -4l100 -101c11 -11 14 -16 2 -28zM579 671l-35 -165c-2 -10 -8 -15 -19 -15h-91c-11 0 -13 6 -11 15l11 52h-114l-29 -136h175
c11 0 14 -5 12 -15l-20 -97c-2 -10 -8 -15 -19 -15h-175l-36 -167h118l13 60c2 11 6 15 18 15h88c11 0 14 -5 12 -15l-37 -173c-2 -10 -8 -15 -19 -15h-424c-11 0 -13 6 -11 15l19 90c2 11 6 15 18 15h46l95 446h-45c-11 0 -13 6 -11 15l19 90c2 11 6 15 18 15h421
c11 0 15 -5 13 -15z" />
    <glyph glyph-name="Edieresis" unicode="&#xcb;" horiz-adv-x="530" 
d="M572 831c0 -47 -37 -84 -84 -84c-46 0 -84 38 -84 84c0 47 38 85 85 85c46 0 83 -38 83 -85zM347 831c0 -47 -37 -84 -84 -84c-46 0 -84 38 -84 84c0 47 38 85 85 85c46 0 83 -39 83 -85zM579 671l-35 -165c-2 -10 -8 -15 -19 -15h-91c-11 0 -13 6 -11 15l11 52h-114
l-29 -136h175c11 0 14 -5 12 -15l-20 -97c-2 -10 -8 -15 -19 -15h-175l-36 -167h118l13 60c2 11 6 15 18 15h88c11 0 14 -5 12 -15l-37 -173c-2 -10 -8 -15 -19 -15h-424c-11 0 -13 6 -11 15l19 90c2 11 6 15 18 15h46l95 446h-45c-11 0 -13 6 -11 15l19 90c2 11 6 15 18 15
h421c11 0 15 -5 13 -15z" />
    <glyph glyph-name="Egrave" unicode="&#xc8;" horiz-adv-x="530" 
d="M456 810c10 -7 10 -10 -1 -22l-39 -42c-10 -11 -11 -10 -24 -5l-188 78c-15 6 -16 10 -6 23l60 79c11 14 16 16 29 7zM579 671l-35 -165c-2 -10 -8 -15 -19 -15h-91c-11 0 -13 6 -11 15l11 52h-114l-29 -136h175c11 0 14 -5 12 -15l-20 -97c-2 -10 -8 -15 -19 -15h-175
l-36 -167h118l13 60c2 11 6 15 18 15h88c11 0 14 -5 12 -15l-37 -173c-2 -10 -8 -15 -19 -15h-424c-11 0 -13 6 -11 15l19 90c2 11 6 15 18 15h46l95 446h-45c-11 0 -13 6 -11 15l19 90c2 11 6 15 18 15h421c11 0 15 -5 13 -15z" />
    <glyph glyph-name="Iacute" unicode="&#xcd;" horiz-adv-x="355" 
d="M433 828c8 -13 9 -17 -7 -23l-203 -74c-14 -5 -14 -6 -24 5l-38 44c-11 12 -5 19 6 25l188 109c14 8 20 8 29 -7zM415 671l-19 -90c-2 -10 -8 -15 -19 -15h-49l-96 -446h49c11 0 14 -5 12 -15l-19 -90c-2 -10 -8 -15 -19 -15h-258c-11 0 -13 6 -11 15l19 90
c2 11 6 15 18 15h51l96 446h-51c-11 0 -13 6 -11 15l19 90c2 11 6 15 18 15h258c11 0 14 -5 12 -15z" />
    <glyph glyph-name="Icircumflex" unicode="&#xce;" horiz-adv-x="355" 
d="M434 780l-43 -42c-14 -14 -17 -14 -32 -2l-68 51l-103 -58c-14 -8 -17 -8 -26 6l-29 45c-9 14 -9 17 6 27l156 106c15 10 24 9 37 -4l100 -101c11 -11 14 -16 2 -28zM415 671l-19 -90c-2 -10 -8 -15 -19 -15h-49l-96 -446h49c11 0 14 -5 12 -15l-19 -90
c-2 -10 -8 -15 -19 -15h-258c-11 0 -13 6 -11 15l19 90c2 11 6 15 18 15h51l96 446h-51c-11 0 -13 6 -11 15l19 90c2 11 6 15 18 15h258c11 0 14 -5 12 -15z" />
    <glyph glyph-name="Idieresis" unicode="&#xcf;" horiz-adv-x="355" 
d="M498 831c0 -47 -37 -84 -84 -84c-46 0 -84 38 -84 84c0 47 38 85 85 85c46 0 83 -38 83 -85zM273 831c0 -47 -37 -84 -84 -84c-46 0 -84 38 -84 84c0 47 38 85 85 85c46 0 83 -39 83 -85zM415 671l-19 -90c-2 -10 -8 -15 -19 -15h-49l-96 -446h49c11 0 14 -5 12 -15
l-19 -90c-2 -10 -8 -15 -19 -15h-258c-11 0 -13 6 -11 15l19 90c2 11 6 15 18 15h51l96 446h-51c-11 0 -13 6 -11 15l19 90c2 11 6 15 18 15h258c11 0 14 -5 12 -15z" />
    <glyph glyph-name="Igrave" unicode="&#xcc;" horiz-adv-x="355" 
d="M396 810c10 -7 10 -10 -1 -22l-39 -42c-10 -11 -11 -10 -24 -5l-188 78c-15 6 -16 10 -6 23l60 79c11 14 16 16 29 7zM415 671l-19 -90c-2 -10 -8 -15 -19 -15h-49l-96 -446h49c11 0 14 -5 12 -15l-19 -90c-2 -10 -8 -15 -19 -15h-258c-11 0 -13 6 -11 15l19 90
c2 11 6 15 18 15h51l96 446h-51c-11 0 -13 6 -11 15l19 90c2 11 6 15 18 15h258c11 0 14 -5 12 -15z" />
    <glyph glyph-name="Ntilde" unicode="&#xd1;" horiz-adv-x="661" 
d="M596 830c-2 -8 -8 -19 -18 -34c-26 -38 -61 -69 -107 -69c-26 0 -42 9 -64 24c-11 8 -19 12 -28 12c-16 0 -27 -8 -39 -28c-6 -11 -11 -10 -22 -4l-54 30c-8 5 -8 9 -6 15c3 9 6 16 21 39c24 37 56 66 102 66c27 0 46 -10 69 -23c13 -8 21 -11 29 -11c17 0 26 12 37 28
c5 8 15 5 22 1l53 -30c9 -5 7 -9 5 -16zM725 671l-19 -90c-2 -10 -8 -15 -19 -15h-45l-117 -551c-2 -11 -7 -15 -16 -15h-96c-6 0 -10 4 -13 13l-106 325c-9 28 -14 54 -20 89c-3 -26 -9 -63 -16 -96l-45 -211h50c11 0 14 -5 12 -15l-19 -90c-2 -10 -8 -15 -19 -15h-240
c-11 0 -13 6 -11 15l19 90c2 11 6 15 18 15h45l95 446h-45c-11 0 -13 6 -11 15l19 90c2 11 6 15 18 15h157c10 0 13 -5 16 -13l100 -300c12 -35 19 -64 25 -95c5 37 11 73 16 98l39 190h-46c-11 0 -13 6 -11 15l19 90c2 11 6 15 18 15h236c11 0 14 -5 12 -15z" />
    <glyph glyph-name="Oacute" unicode="&#xd3;" horiz-adv-x="601" 
d="M563 828c8 -13 9 -17 -7 -23l-203 -74c-14 -5 -14 -6 -24 5l-38 44c-11 12 -5 19 6 25l188 109c14 8 20 8 29 -7zM583 491c0 -155 -53 -328 -136 -418c-54 -59 -123 -90 -206 -90c-130 0 -202 79 -202 213c0 141 48 322 136 417c55 60 124 90 208 90
c127 0 200 -80 200 -212zM421 489c0 71 -19 88 -52 88c-42 0 -79 -30 -112 -104c-35 -77 -57 -184 -57 -276c0 -71 20 -88 52 -88c42 0 79 29 112 103c34 76 57 185 57 277z" />
    <glyph glyph-name="Ocircumflex" unicode="&#xd4;" horiz-adv-x="601" 
d="M534 780l-43 -42c-14 -14 -17 -14 -32 -2l-68 51l-103 -58c-14 -8 -17 -8 -26 6l-29 45c-9 14 -9 17 6 27l156 106c15 10 24 9 37 -4l100 -101c11 -11 14 -16 2 -28zM583 491c0 -155 -53 -328 -136 -418c-54 -59 -123 -90 -206 -90c-130 0 -202 79 -202 213
c0 141 48 322 136 417c55 60 124 90 208 90c127 0 200 -80 200 -212zM421 489c0 71 -19 88 -52 88c-42 0 -79 -30 -112 -104c-35 -77 -57 -184 -57 -276c0 -71 20 -88 52 -88c42 0 79 29 112 103c34 76 57 185 57 277z" />
    <glyph glyph-name="Odieresis" unicode="&#xd6;" horiz-adv-x="601" 
d="M602 831c0 -47 -37 -84 -84 -84c-46 0 -84 38 -84 84c0 47 38 85 85 85c46 0 83 -38 83 -85zM377 831c0 -47 -37 -84 -84 -84c-46 0 -84 38 -84 84c0 47 38 85 85 85c46 0 83 -39 83 -85zM583 491c0 -155 -53 -328 -136 -418c-54 -59 -123 -90 -206 -90
c-130 0 -202 79 -202 213c0 141 48 322 136 417c55 60 124 90 208 90c127 0 200 -80 200 -212zM421 489c0 71 -19 88 -52 88c-42 0 -79 -30 -112 -104c-35 -77 -57 -184 -57 -276c0 -71 20 -88 52 -88c42 0 79 29 112 103c34 76 57 185 57 277z" />
    <glyph glyph-name="Ograve" unicode="&#xd2;" horiz-adv-x="601" 
d="M466 810c10 -7 10 -10 -1 -22l-39 -42c-10 -11 -11 -10 -24 -5l-188 78c-15 6 -16 10 -6 23l60 79c11 14 16 16 29 7zM583 491c0 -155 -53 -328 -136 -418c-54 -59 -123 -90 -206 -90c-130 0 -202 79 -202 213c0 141 48 322 136 417c55 60 124 90 208 90
c127 0 200 -80 200 -212zM421 489c0 71 -19 88 -52 88c-42 0 -79 -30 -112 -104c-35 -77 -57 -184 -57 -276c0 -71 20 -88 52 -88c42 0 79 29 112 103c34 76 57 185 57 277z" />
    <glyph glyph-name="Otilde" unicode="&#xd5;" horiz-adv-x="601" 
d="M566 830c-2 -8 -8 -19 -18 -34c-26 -38 -61 -69 -107 -69c-26 0 -42 9 -64 24c-11 8 -19 12 -28 12c-16 0 -27 -8 -39 -28c-6 -11 -11 -10 -22 -4l-54 30c-8 5 -8 9 -6 15c3 9 6 16 21 39c24 37 56 66 102 66c27 0 46 -10 69 -23c13 -8 21 -11 29 -11c17 0 26 12 37 28
c5 8 15 5 22 1l53 -30c9 -5 7 -9 5 -16zM583 491c0 -155 -53 -328 -136 -418c-54 -59 -123 -90 -206 -90c-130 0 -202 79 -202 213c0 141 48 322 136 417c55 60 124 90 208 90c127 0 200 -80 200 -212zM421 489c0 71 -19 88 -52 88c-42 0 -79 -30 -112 -104
c-35 -77 -57 -184 -57 -276c0 -71 20 -88 52 -88c42 0 79 29 112 103c34 76 57 185 57 277z" />
    <glyph glyph-name="Scaron" unicode="&#x160;" horiz-adv-x="526" 
d="M512 867c9 -14 9 -17 -6 -27l-156 -106c-15 -10 -24 -9 -37 4l-100 101c-11 11 -14 16 -2 28l43 42c14 14 17 14 32 2l68 -51l103 58c14 8 17 8 26 -6zM538 629l-26 -132c-2 -12 -7 -16 -18 -16h-91c-14 0 -15 6 -12 19l14 61c-16 6 -38 12 -65 12c-60 0 -95 -32 -95 -77
c0 -26 20 -46 49 -64l70 -45c69 -44 111 -89 111 -164c0 -142 -111 -237 -275 -237c-58 0 -137 17 -181 43c-13 8 -21 17 -21 31c0 3 2 12 3 19l26 126c2 10 6 14 17 14h90c15 0 17 -7 14 -19l-15 -66c28 -11 52 -16 81 -16c65 0 101 32 101 79c0 30 -15 47 -49 70l-63 42
c-68 45 -115 75 -115 167c0 139 102 224 268 224c70 0 128 -19 167 -43c14 -9 18 -15 15 -28z" />
    <glyph glyph-name="Uacute" unicode="&#xda;" horiz-adv-x="636" 
d="M623 828c8 -13 9 -17 -7 -23l-203 -74c-14 -5 -14 -6 -24 5l-38 44c-11 12 -5 19 6 25l188 109c14 8 20 8 29 -7zM709 671l-19 -90c-2 -10 -8 -15 -19 -15h-44l-71 -333c-21 -98 -37 -148 -103 -195c-50 -36 -107 -52 -180 -52c-136 0 -219 57 -219 167c0 27 2 51 8 79
l72 334h-47c-11 0 -13 6 -11 15l19 90c2 11 6 15 18 15h247c11 0 14 -5 12 -15l-19 -90c-2 -10 -8 -15 -19 -15h-42l-71 -333c-6 -26 -7 -43 -7 -60c0 -38 22 -58 71 -58c60 0 98 31 115 115l70 336h-42c-11 0 -13 6 -11 15l19 90c2 11 6 15 18 15h243c11 0 14 -5 12 -15z
" />
    <glyph glyph-name="Ucircumflex" unicode="&#xdb;" horiz-adv-x="636" 
d="M554 780l-43 -42c-14 -14 -17 -14 -32 -2l-68 51l-103 -58c-14 -8 -17 -8 -26 6l-29 45c-9 14 -9 17 6 27l156 106c15 10 24 9 37 -4l100 -101c11 -11 14 -16 2 -28zM709 671l-19 -90c-2 -10 -8 -15 -19 -15h-44l-71 -333c-21 -98 -37 -148 -103 -195
c-50 -36 -107 -52 -180 -52c-136 0 -219 57 -219 167c0 27 2 51 8 79l72 334h-47c-11 0 -13 6 -11 15l19 90c2 11 6 15 18 15h247c11 0 14 -5 12 -15l-19 -90c-2 -10 -8 -15 -19 -15h-42l-71 -333c-6 -26 -7 -43 -7 -60c0 -38 22 -58 71 -58c60 0 98 31 115 115l70 336h-42
c-11 0 -13 6 -11 15l19 90c2 11 6 15 18 15h243c11 0 14 -5 12 -15z" />
    <glyph glyph-name="Udieresis" unicode="&#xdc;" horiz-adv-x="636" 
d="M622 831c0 -47 -37 -84 -84 -84c-46 0 -84 38 -84 84c0 47 38 85 85 85c46 0 83 -38 83 -85zM397 831c0 -47 -37 -84 -84 -84c-46 0 -84 38 -84 84c0 47 38 85 85 85c46 0 83 -39 83 -85zM709 671l-19 -90c-2 -10 -8 -15 -19 -15h-44l-71 -333
c-21 -98 -37 -148 -103 -195c-50 -36 -107 -52 -180 -52c-136 0 -219 57 -219 167c0 27 2 51 8 79l72 334h-47c-11 0 -13 6 -11 15l19 90c2 11 6 15 18 15h247c11 0 14 -5 12 -15l-19 -90c-2 -10 -8 -15 -19 -15h-42l-71 -333c-6 -26 -7 -43 -7 -60c0 -38 22 -58 71 -58
c60 0 98 31 115 115l70 336h-42c-11 0 -13 6 -11 15l19 90c2 11 6 15 18 15h243c11 0 14 -5 12 -15z" />
    <glyph glyph-name="Ugrave" unicode="&#xd9;" horiz-adv-x="636" 
d="M466 810c10 -7 10 -10 -1 -22l-39 -42c-10 -11 -11 -10 -24 -5l-188 78c-15 6 -16 10 -6 23l60 79c11 14 16 16 29 7zM709 671l-19 -90c-2 -10 -8 -15 -19 -15h-44l-71 -333c-21 -98 -37 -148 -103 -195c-50 -36 -107 -52 -180 -52c-136 0 -219 57 -219 167
c0 27 2 51 8 79l72 334h-47c-11 0 -13 6 -11 15l19 90c2 11 6 15 18 15h247c11 0 14 -5 12 -15l-19 -90c-2 -10 -8 -15 -19 -15h-42l-71 -333c-6 -26 -7 -43 -7 -60c0 -38 22 -58 71 -58c60 0 98 31 115 115l70 336h-42c-11 0 -13 6 -11 15l19 90c2 11 6 15 18 15h243
c11 0 14 -5 12 -15z" />
    <glyph glyph-name="Yacute" unicode="&#xdd;" horiz-adv-x="506" 
d="M513 828c8 -13 9 -17 -7 -23l-203 -74c-14 -5 -14 -6 -24 5l-38 44c-11 12 -5 19 6 25l188 109c14 8 20 8 29 -7zM611 667l-18 -86c-2 -10 -5 -15 -16 -15h-41l-205 -286l-35 -160h61c11 0 14 -5 12 -15l-19 -90c-2 -10 -8 -15 -19 -15h-282c-11 0 -13 6 -11 15l19 90
c2 11 6 15 18 15h63l34 161l-89 285h-39c-14 0 -15 4 -12 17l19 88c2 11 5 15 16 15h131c11 0 16 -1 19 -13l44 -167c7 -27 11 -55 14 -84c21 39 32 59 47 82l113 172c6 9 9 10 19 10h145c15 0 15 -5 12 -19z" />
    <glyph glyph-name="Ydieresis" unicode="&#x178;" horiz-adv-x="506" 
d="M542 831c0 -47 -37 -84 -84 -84c-46 0 -84 38 -84 84c0 47 38 85 85 85c46 0 83 -38 83 -85zM317 831c0 -47 -37 -84 -84 -84c-46 0 -84 38 -84 84c0 47 38 85 85 85c46 0 83 -39 83 -85zM611 667l-18 -86c-2 -10 -5 -15 -16 -15h-41l-205 -286l-35 -160h61
c11 0 14 -5 12 -15l-19 -90c-2 -10 -8 -15 -19 -15h-282c-11 0 -13 6 -11 15l19 90c2 11 6 15 18 15h63l34 161l-89 285h-39c-14 0 -15 4 -12 17l19 88c2 11 5 15 16 15h131c11 0 16 -1 19 -13l44 -167c7 -27 11 -55 14 -84c21 39 32 59 47 82l113 172c6 9 9 10 19 10h145
c15 0 15 -5 12 -19z" />
    <glyph glyph-name="Zcaron" unicode="&#x17d;" horiz-adv-x="522" 
d="M532 867c9 -14 9 -17 -6 -27l-156 -106c-15 -10 -24 -9 -37 4l-100 101c-11 11 -14 16 -2 28l43 42c14 14 17 14 32 2l68 -51l103 58c14 8 17 8 26 -6zM564 669l-23 -104l-347 -424h158l29 67c4 8 12 14 18 12l91 -23c8 -2 11 -10 7 -20l-64 -161c-4 -10 -9 -16 -19 -16
h-421c-16 0 -17 5 -14 21l20 96l350 434h-142l-13 -63c-2 -10 -8 -15 -19 -15h-74c-11 0 -13 6 -11 15l36 183c2 11 6 15 18 15h403c15 0 19 -6 17 -17z" />
    <glyph glyph-name="aacute" unicode="&#xe1;" 
d="M523 655c8 -13 9 -17 -7 -23l-203 -74c-14 -5 -14 -6 -24 5l-38 44c-11 12 -5 19 6 25l188 109c14 8 20 8 29 -7zM516 475l-68 -316c-4 -19 -6 -35 -6 -45h44c9 0 14 -5 12 -15l-17 -83c-2 -12 -6 -16 -17 -16h-105c-36 0 -48 13 -52 46l-3 25c-42 -55 -96 -88 -152 -88
c-85 0 -128 67 -128 169c0 189 106 359 249 359c47 0 78 -14 108 -46l8 19c3 8 7 10 15 10h102c13 0 13 -6 10 -19zM347 383c-26 21 -39 27 -58 27c-28 0 -49 -17 -68 -49c-24 -40 -53 -145 -53 -216c0 -30 12 -50 37 -50c31 0 61 23 81 57c13 22 23 50 30 84z" />
    <glyph glyph-name="acircumflex" unicode="&#xe2;" 
d="M472 611l-43 -42c-14 -14 -17 -14 -32 -2l-68 51l-103 -58c-14 -8 -17 -8 -26 6l-29 45c-9 14 -9 17 6 27l156 106c15 10 24 9 37 -4l100 -101c11 -11 14 -16 2 -28zM516 475l-68 -316c-4 -19 -6 -35 -6 -45h44c9 0 14 -5 12 -15l-17 -83c-2 -12 -6 -16 -17 -16h-105
c-36 0 -48 13 -52 46l-3 25c-42 -55 -96 -88 -152 -88c-85 0 -128 67 -128 169c0 189 106 359 249 359c47 0 78 -14 108 -46l8 19c3 8 7 10 15 10h102c13 0 13 -6 10 -19zM347 383c-26 21 -39 27 -58 27c-28 0 -49 -17 -68 -49c-24 -40 -53 -145 -53 -216
c0 -30 12 -50 37 -50c31 0 61 23 81 57c13 22 23 50 30 84z" />
    <glyph glyph-name="adieresis" unicode="&#xe4;" 
d="M552 635c0 -47 -37 -84 -84 -84c-46 0 -84 38 -84 84c0 47 38 85 85 85c46 0 83 -38 83 -85zM327 635c0 -47 -37 -84 -84 -84c-46 0 -84 38 -84 84c0 47 38 85 85 85c46 0 83 -39 83 -85zM516 475l-68 -316c-4 -19 -6 -35 -6 -45h44c9 0 14 -5 12 -15l-17 -83
c-2 -12 -6 -16 -17 -16h-105c-36 0 -48 13 -52 46l-3 25c-42 -55 -96 -88 -152 -88c-85 0 -128 67 -128 169c0 189 106 359 249 359c47 0 78 -14 108 -46l8 19c3 8 7 10 15 10h102c13 0 13 -6 10 -19zM347 383c-26 21 -39 27 -58 27c-28 0 -49 -17 -68 -49
c-24 -40 -53 -145 -53 -216c0 -30 12 -50 37 -50c31 0 61 23 81 57c13 22 23 50 30 84z" />
    <glyph glyph-name="agrave" unicode="&#xe0;" 
d="M396 625c10 -7 10 -10 -1 -22l-39 -42c-10 -11 -11 -10 -24 -5l-188 78c-15 6 -16 10 -6 23l60 79c11 14 16 16 29 7zM516 475l-68 -316c-4 -19 -6 -35 -6 -45h44c9 0 14 -5 12 -15l-17 -83c-2 -12 -6 -16 -17 -16h-105c-36 0 -48 13 -52 46l-3 25
c-42 -55 -96 -88 -152 -88c-85 0 -128 67 -128 169c0 189 106 359 249 359c47 0 78 -14 108 -46l8 19c3 8 7 10 15 10h102c13 0 13 -6 10 -19zM347 383c-26 21 -39 27 -58 27c-28 0 -49 -17 -68 -49c-24 -40 -53 -145 -53 -216c0 -30 12 -50 37 -50c31 0 61 23 81 57
c13 22 23 50 30 84z" />
    <glyph glyph-name="aring" unicode="&#xe5;" 
d="M459 692c0 -72 -59 -132 -135 -132c-59 0 -107 46 -107 104c0 73 57 131 135 131c60 0 107 -46 107 -103zM516 475l-68 -316c-4 -19 -6 -35 -6 -45h44c9 0 14 -5 12 -15l-17 -83c-2 -12 -6 -16 -17 -16h-105c-36 0 -48 13 -52 46l-3 25c-42 -55 -96 -88 -152 -88
c-85 0 -128 67 -128 169c0 189 106 359 249 359c47 0 78 -14 108 -46l8 19c3 8 7 10 15 10h102c13 0 13 -6 10 -19zM377 682c0 20 -15 37 -36 37c-24 0 -43 -18 -43 -46c0 -20 15 -36 36 -36c26 0 43 22 43 45zM347 383c-26 21 -39 27 -58 27c-28 0 -49 -17 -68 -49
c-24 -40 -53 -145 -53 -216c0 -30 12 -50 37 -50c31 0 61 23 81 57c13 22 23 50 30 84z" />
    <glyph glyph-name="atilde" unicode="&#xe3;" 
d="M486 675c-2 -8 -8 -19 -18 -34c-26 -38 -61 -69 -107 -69c-26 0 -42 9 -64 24c-11 8 -19 12 -28 12c-16 0 -27 -8 -39 -28c-7 -11 -11 -10 -22 -4l-54 30c-8 5 -8 9 -6 15c3 9 6 16 21 39c24 37 56 66 102 66c27 0 46 -10 69 -23c13 -8 21 -11 29 -11c17 0 26 12 37 28
c5 8 15 5 22 1l53 -30c9 -5 7 -9 5 -16zM516 475l-68 -316c-4 -19 -6 -35 -6 -45h44c9 0 14 -5 12 -15l-17 -83c-2 -12 -6 -16 -17 -16h-105c-36 0 -48 13 -52 46l-3 25c-42 -55 -96 -88 -152 -88c-85 0 -128 67 -128 169c0 189 106 359 249 359c47 0 78 -14 108 -46l8 19
c3 8 7 10 15 10h102c13 0 13 -6 10 -19zM347 383c-26 21 -39 27 -58 27c-28 0 -49 -17 -68 -49c-24 -40 -53 -145 -53 -216c0 -30 12 -50 37 -50c31 0 61 23 81 57c13 22 23 50 30 84z" />
    <glyph glyph-name="ccedilla" unicode="&#xe7;" horiz-adv-x="435" 
d="M454 451l-27 -126c-2 -9 -7 -13 -16 -13h-86c-14 0 -15 5 -12 18l13 63c-6 1 -10 0 -15 0c-32 0 -60 -14 -79 -36c-38 -45 -56 -118 -56 -180c0 -45 22 -69 64 -69c23 0 44 6 69 16l18 7c9 4 14 2 18 -9l28 -81c4 -11 3 -16 -14 -25c-30 -16 -75 -29 -117 -32l-8 -31
c44 -7 65 -36 65 -71c0 -67 -60 -114 -133 -114c-54 0 -86 15 -92 27c-2 4 0 10 2 15l20 45c4 9 12 4 18 1c7 -3 16 -6 26 -6c19 0 36 7 36 27c0 14 -7 21 -34 21c-16 0 -23 2 -17 20l24 76c-79 25 -123 91 -123 187c0 107 41 212 117 274c44 36 103 56 171 56
c61 0 108 -19 133 -36c9 -7 9 -13 7 -24z" />
    <glyph glyph-name="eacute" unicode="&#xe9;" horiz-adv-x="504" 
d="M513 655c8 -13 9 -17 -7 -23l-203 -74c-14 -5 -14 -6 -24 5l-38 44c-11 12 -5 19 6 25l188 109c14 8 20 8 29 -7zM481 372c0 -89 -65 -146 -158 -171c-40 -11 -98 -17 -150 -16c0 0 -2 -7 -2 -11c-5 -52 24 -74 73 -74c46 0 90 23 123 38c9 4 18 8 23 -4l32 -76
c3 -8 0 -13 -5 -17c-28 -26 -115 -58 -202 -58c-121 0 -189 70 -189 190c0 102 39 199 104 262c49 47 116 76 189 76c98 0 162 -53 162 -139zM343 367c0 26 -17 43 -40 43c-36 0 -67 -18 -88 -46c-14 -19 -24 -44 -33 -79c56 0 88 5 115 17c31 13 46 35 46 65z" />
    <glyph glyph-name="ecircumflex" unicode="&#xea;" horiz-adv-x="504" 
d="M472 611l-43 -42c-14 -14 -17 -14 -32 -2l-68 51l-103 -58c-14 -8 -17 -8 -26 6l-29 45c-9 14 -9 17 6 27l156 106c15 10 24 9 37 -4l100 -101c11 -11 14 -16 2 -28zM481 372c0 -89 -65 -146 -158 -171c-40 -11 -98 -17 -150 -16c0 0 -2 -7 -2 -11c-5 -52 24 -74 73 -74
c46 0 90 23 123 38c9 4 18 8 23 -4l32 -76c3 -8 0 -13 -5 -17c-28 -26 -115 -58 -202 -58c-121 0 -189 70 -189 190c0 102 39 199 104 262c49 47 116 76 189 76c98 0 162 -53 162 -139zM343 367c0 26 -17 43 -40 43c-36 0 -67 -18 -88 -46c-14 -19 -24 -44 -33 -79
c56 0 88 5 115 17c31 13 46 35 46 65z" />
    <glyph glyph-name="edieresis" unicode="&#xeb;" horiz-adv-x="504" 
d="M529 635c0 -47 -37 -84 -84 -84c-46 0 -84 38 -84 84c0 47 38 85 85 85c46 0 83 -38 83 -85zM304 635c0 -47 -37 -84 -84 -84c-46 0 -84 38 -84 84c0 47 38 85 85 85c46 0 83 -39 83 -85zM481 372c0 -89 -65 -146 -158 -171c-40 -11 -98 -17 -150 -16c0 0 -2 -7 -2 -11
c-5 -52 24 -74 73 -74c46 0 90 23 123 38c9 4 18 8 23 -4l32 -76c3 -8 0 -13 -5 -17c-28 -26 -115 -58 -202 -58c-121 0 -189 70 -189 190c0 102 39 199 104 262c49 47 116 76 189 76c98 0 162 -53 162 -139zM343 367c0 26 -17 43 -40 43c-36 0 -67 -18 -88 -46
c-14 -19 -24 -44 -33 -79c56 0 88 5 115 17c31 13 46 35 46 65z" />
    <glyph glyph-name="egrave" unicode="&#xe8;" horiz-adv-x="504" 
d="M396 625c10 -7 10 -10 -1 -22l-39 -42c-10 -11 -11 -10 -24 -5l-188 78c-15 6 -16 10 -6 23l60 79c11 14 16 16 29 7zM481 372c0 -89 -65 -146 -158 -171c-40 -11 -98 -17 -150 -16c0 0 -2 -7 -2 -11c-5 -52 24 -74 73 -74c46 0 90 23 123 38c9 4 18 8 23 -4l32 -76
c3 -8 0 -13 -5 -17c-28 -26 -115 -58 -202 -58c-121 0 -189 70 -189 190c0 102 39 199 104 262c49 47 116 76 189 76c98 0 162 -53 162 -139zM343 367c0 26 -17 43 -40 43c-36 0 -67 -18 -88 -46c-14 -19 -24 -44 -33 -79c56 0 88 5 115 17c31 13 46 35 46 65z" />
    <glyph glyph-name="iacute" unicode="&#xed;" horiz-adv-x="305" 
d="M353 655c8 -13 9 -17 -7 -23l-203 -74c-14 -5 -14 -6 -24 5l-38 44c-11 12 -5 19 6 25l188 109c14 8 20 8 29 -7zM273 477l-78 -363h55c14 0 16 -5 13 -17l-19 -84c-2 -9 -6 -13 -15 -13h-105c-39 0 -70 9 -81 47c-7 26 0 53 5 79l54 255h-62c-11 0 -14 3 -12 12l17 85
c3 13 3 16 16 16h200c15 0 15 -4 12 -17z" />
    <glyph glyph-name="icircumflex" unicode="&#xee;" horiz-adv-x="305" 
d="M352 611l-43 -42c-14 -14 -17 -14 -32 -2l-68 51l-103 -58c-14 -8 -17 -8 -26 6l-29 45c-9 14 -9 17 6 27l156 106c15 10 24 9 37 -4l100 -101c11 -11 14 -16 2 -28zM273 477l-78 -363h55c14 0 16 -5 13 -17l-19 -84c-2 -9 -6 -13 -15 -13h-105c-39 0 -70 9 -81 47
c-7 26 0 53 5 79l54 255h-62c-11 0 -14 3 -12 12l17 85c3 13 3 16 16 16h200c15 0 15 -4 12 -17z" />
    <glyph glyph-name="idieresis" unicode="&#xef;" horiz-adv-x="305" 
d="M404 635c0 -47 -37 -84 -84 -84c-46 0 -84 38 -84 84c0 47 38 85 85 85c46 0 83 -38 83 -85zM179 635c0 -47 -37 -84 -84 -84c-46 0 -84 38 -84 84c0 47 38 85 85 85c46 0 83 -39 83 -85zM273 477l-78 -363h55c14 0 16 -5 13 -17l-19 -84c-2 -9 -6 -13 -15 -13h-105
c-39 0 -70 9 -81 47c-7 26 0 53 5 79l54 255h-62c-11 0 -14 3 -12 12l17 85c3 13 3 16 16 16h200c15 0 15 -4 12 -17z" />
    <glyph glyph-name="igrave" unicode="&#xec;" horiz-adv-x="305" 
d="M326 625c10 -7 10 -10 -1 -22l-39 -42c-10 -11 -11 -10 -24 -5l-188 78c-15 6 -16 10 -6 23l60 79c11 14 16 16 29 7zM273 477l-78 -363h55c14 0 16 -5 13 -17l-19 -84c-2 -9 -6 -13 -15 -13h-105c-39 0 -70 9 -81 47c-7 26 0 53 5 79l54 255h-62c-11 0 -14 3 -12 12
l17 85c3 13 3 16 16 16h200c15 0 15 -4 12 -17z" />
    <glyph glyph-name="ntilde" unicode="&#xf1;" horiz-adv-x="573" 
d="M506 675c-2 -8 -8 -19 -18 -34c-26 -38 -61 -69 -107 -69c-26 0 -42 9 -64 24c-11 8 -19 12 -28 12c-16 0 -27 -8 -39 -28c-7 -11 -11 -10 -22 -4l-54 30c-8 5 -8 9 -6 15c3 9 6 16 21 39c24 37 56 66 102 66c27 0 46 -10 69 -23c13 -8 21 -11 29 -11c17 0 26 12 37 28
c5 8 15 5 22 1l53 -30c9 -5 7 -9 5 -16zM529 93l-17 -80c-2 -9 -8 -13 -17 -13h-95c-39 0 -58 8 -71 27c-8 12 -12 26 -12 44c0 17 3 37 7 53l37 164c4 20 12 48 12 68c0 27 -11 35 -32 35c-46 0 -91 -65 -115 -177l-43 -202c-2 -10 -5 -12 -15 -12h-121c-9 0 -15 3 -12 15
l72 318c3 12 7 33 7 47h-50c-14 0 -14 6 -11 22l17 78c2 10 7 14 16 14h138c10 0 16 -3 20 -10c9 -17 11 -41 11 -65c49 60 97 92 164 92c69 0 109 -44 109 -113c0 -24 -3 -45 -10 -76l-47 -208h46c13 0 15 -8 12 -21z" />
    <glyph glyph-name="oacute" unicode="&#xf3;" horiz-adv-x="527" 
d="M513 655c8 -13 9 -17 -7 -23l-203 -74c-14 -5 -14 -6 -24 5l-38 44c-11 12 -5 19 6 25l188 109c14 8 20 8 29 -7zM499 328c0 -98 -37 -198 -101 -267c-46 -50 -116 -78 -190 -78c-118 0 -184 67 -184 183c0 99 37 200 103 267c50 50 113 78 191 78
c112 0 181 -71 181 -183zM349 337c0 39 -16 62 -54 62c-34 0 -59 -22 -79 -58c-26 -48 -42 -133 -42 -181c0 -41 15 -66 52 -66c38 0 66 21 87 69c21 50 36 126 36 174z" />
    <glyph glyph-name="ocircumflex" unicode="&#xf4;" horiz-adv-x="527" 
d="M479 611l-43 -42c-14 -14 -17 -14 -32 -2l-68 51l-103 -58c-14 -8 -17 -8 -26 6l-29 45c-9 14 -9 17 6 27l156 106c15 10 24 9 37 -4l100 -101c11 -11 14 -16 2 -28zM499 328c0 -98 -37 -198 -101 -267c-46 -50 -116 -78 -190 -78c-118 0 -184 67 -184 183
c0 99 37 200 103 267c50 50 113 78 191 78c112 0 181 -71 181 -183zM349 337c0 39 -16 62 -54 62c-34 0 -59 -22 -79 -58c-26 -48 -42 -133 -42 -181c0 -41 15 -66 52 -66c38 0 66 21 87 69c21 50 36 126 36 174z" />
    <glyph glyph-name="odieresis" unicode="&#xf6;" horiz-adv-x="527" 
d="M523 635c0 -47 -37 -84 -84 -84c-46 0 -84 38 -84 84c0 47 38 85 85 85c46 0 83 -38 83 -85zM298 635c0 -47 -37 -84 -84 -84c-46 0 -84 38 -84 84c0 47 38 85 85 85c46 0 83 -39 83 -85zM499 328c0 -98 -37 -198 -101 -267c-46 -50 -116 -78 -190 -78
c-118 0 -184 67 -184 183c0 99 37 200 103 267c50 50 113 78 191 78c112 0 181 -71 181 -183zM349 337c0 39 -16 62 -54 62c-34 0 -59 -22 -79 -58c-26 -48 -42 -133 -42 -181c0 -41 15 -66 52 -66c38 0 66 21 87 69c21 50 36 126 36 174z" />
    <glyph glyph-name="ograve" unicode="&#xf2;" horiz-adv-x="527" 
d="M396 625c10 -7 10 -10 -1 -22l-39 -42c-10 -11 -11 -10 -24 -5l-188 78c-15 6 -16 10 -6 23l60 79c11 14 16 16 29 7zM499 328c0 -98 -37 -198 -101 -267c-46 -50 -116 -78 -190 -78c-118 0 -184 67 -184 183c0 99 37 200 103 267c50 50 113 78 191 78
c112 0 181 -71 181 -183zM349 337c0 39 -16 62 -54 62c-34 0 -59 -22 -79 -58c-26 -48 -42 -133 -42 -181c0 -41 15 -66 52 -66c38 0 66 21 87 69c21 50 36 126 36 174z" />
    <glyph glyph-name="otilde" unicode="&#xf5;" horiz-adv-x="527" 
d="M486 675c-2 -8 -8 -19 -18 -34c-26 -38 -61 -69 -107 -69c-26 0 -42 9 -64 24c-11 8 -19 12 -28 12c-16 0 -27 -8 -39 -28c-7 -11 -11 -10 -22 -4l-54 30c-8 5 -8 9 -6 15c3 9 6 16 21 39c24 37 56 66 102 66c27 0 46 -10 69 -23c13 -8 21 -11 29 -11c17 0 26 12 37 28
c5 8 15 5 22 1l53 -30c9 -5 7 -9 5 -16zM499 328c0 -98 -37 -198 -101 -267c-46 -50 -116 -78 -190 -78c-118 0 -184 67 -184 183c0 99 37 200 103 267c50 50 113 78 191 78c112 0 181 -71 181 -183zM349 337c0 39 -16 62 -54 62c-34 0 -59 -22 -79 -58
c-26 -48 -42 -133 -42 -181c0 -41 15 -66 52 -66c38 0 66 21 87 69c21 50 36 126 36 174z" />
    <glyph glyph-name="scaron" unicode="&#x161;" horiz-adv-x="428" 
d="M442 698c9 -14 9 -17 -6 -27l-156 -106c-15 -10 -24 -9 -37 4l-100 101c-11 11 -14 16 -2 28l43 42c14 14 17 14 32 2l68 -51l103 58c14 8 17 8 26 -6zM406 452l-21 -99c-2 -10 -4 -12 -14 -12h-75c-13 0 -17 2 -14 15l7 36c-6 2 -19 6 -31 6c-33 0 -58 -15 -58 -43
c0 -18 15 -28 35 -38l54 -27c60 -30 88 -59 88 -125c0 -111 -79 -182 -204 -182c-66 0 -121 17 -165 39c-14 7 -17 13 -14 25l21 99c2 10 4 12 14 12h75c13 0 16 -2 14 -15l-7 -37c19 -6 37 -10 56 -10c45 0 68 18 68 48c0 24 -19 32 -63 52c-39 18 -67 34 -86 55
c-18 20 -28 44 -28 80c0 108 81 180 200 180c63 0 110 -21 134 -34c13 -7 17 -13 14 -25z" />
    <glyph glyph-name="uacute" unicode="&#xfa;" horiz-adv-x="558" 
d="M503 655c8 -13 9 -17 -7 -23l-203 -74c-14 -5 -14 -6 -24 5l-38 44c-11 12 -5 19 6 25l188 109c14 8 20 8 29 -7zM533 484l-76 -331c-3 -13 -4 -30 -4 -39h44c12 0 14 -6 12 -14l-18 -84c-2 -10 -3 -16 -17 -16h-93c-43 0 -66 14 -66 59c0 4 0 10 1 17
c-46 -59 -97 -93 -161 -93c-74 0 -115 41 -115 111c0 23 5 51 11 78l47 208h-48c-9 0 -14 5 -12 15l16 82c3 13 4 17 18 17h184c15 0 15 -8 12 -21l-64 -281c-6 -27 -9 -43 -9 -54c0 -17 12 -28 29 -28c56 0 100 85 123 198l32 159c2 12 4 14 16 16l118 19c18 3 24 0 20 -18
z" />
    <glyph glyph-name="ucircumflex" unicode="&#xfb;" horiz-adv-x="558" 
d="M487 611l-43 -42c-14 -14 -17 -14 -32 -2l-68 51l-103 -58c-14 -8 -17 -8 -26 6l-29 45c-9 14 -9 17 6 27l156 106c15 10 24 9 37 -4l100 -101c11 -11 14 -16 2 -28zM533 484l-76 -331c-3 -13 -4 -30 -4 -39h44c12 0 14 -6 12 -14l-18 -84c-2 -10 -3 -16 -17 -16h-93
c-43 0 -66 14 -66 59c0 4 0 10 1 17c-46 -59 -97 -93 -161 -93c-74 0 -115 41 -115 111c0 23 5 51 11 78l47 208h-48c-9 0 -14 5 -12 15l16 82c3 13 4 17 18 17h184c15 0 15 -8 12 -21l-64 -281c-6 -27 -9 -43 -9 -54c0 -17 12 -28 29 -28c56 0 100 85 123 198l32 159
c2 12 4 14 16 16l118 19c18 3 24 0 20 -18z" />
    <glyph glyph-name="udieresis" unicode="&#xfc;" horiz-adv-x="558" 
d="M544 635c0 -47 -37 -84 -84 -84c-46 0 -84 38 -84 84c0 47 38 85 85 85c46 0 83 -38 83 -85zM319 635c0 -47 -37 -84 -84 -84c-46 0 -84 38 -84 84c0 47 38 85 85 85c46 0 83 -39 83 -85zM533 484l-76 -331c-3 -13 -4 -30 -4 -39h44c12 0 14 -6 12 -14l-18 -84
c-2 -10 -3 -16 -17 -16h-93c-43 0 -66 14 -66 59c0 4 0 10 1 17c-46 -59 -97 -93 -161 -93c-74 0 -115 41 -115 111c0 23 5 51 11 78l47 208h-48c-9 0 -14 5 -12 15l16 82c3 13 4 17 18 17h184c15 0 15 -8 12 -21l-64 -281c-6 -27 -9 -43 -9 -54c0 -17 12 -28 29 -28
c56 0 100 85 123 198l32 159c2 12 4 14 16 16l118 19c18 3 24 0 20 -18z" />
    <glyph glyph-name="ugrave" unicode="&#xf9;" horiz-adv-x="558" 
d="M406 625c10 -7 10 -10 -1 -22l-39 -42c-10 -11 -11 -10 -24 -5l-188 78c-15 6 -16 10 -6 23l60 79c11 14 16 16 29 7zM533 484l-76 -331c-3 -13 -4 -30 -4 -39h44c12 0 14 -6 12 -14l-18 -84c-2 -10 -3 -16 -17 -16h-93c-43 0 -66 14 -66 59c0 4 0 10 1 17
c-46 -59 -97 -93 -161 -93c-74 0 -115 41 -115 111c0 23 5 51 11 78l47 208h-48c-9 0 -14 5 -12 15l16 82c3 13 4 17 18 17h184c15 0 15 -8 12 -21l-64 -281c-6 -27 -9 -43 -9 -54c0 -17 12 -28 29 -28c56 0 100 85 123 198l32 159c2 12 4 14 16 16l118 19c18 3 24 0 20 -18
z" />
    <glyph glyph-name="yacute" unicode="&#xfd;" horiz-adv-x="487" 
d="M483 655c8 -13 9 -17 -7 -23l-203 -74c-14 -5 -14 -6 -24 5l-38 44c-11 12 -5 19 6 25l188 109c14 8 20 8 29 -7zM525 469l-203 -414c-47 -96 -79 -163 -120 -208c-37 -40 -86 -66 -146 -66c-48 0 -101 19 -122 35c-13 9 -12 15 -5 27l40 75c7 13 16 9 26 4
c24 -11 46 -18 64 -18c35 0 56 14 72 45l26 51h-32c-11 0 -13 2 -14 13l-48 367h-55c-12 0 -13 6 -10 21l16 79c2 9 7 14 16 14h154c12 0 15 -5 16 -15l17 -241c2 -34 3 -69 4 -112c11 27 23 56 36 88l118 278c5 11 17 9 29 8l111 -12c15 -2 16 -8 10 -19z" />
    <glyph glyph-name="ydieresis" unicode="&#xff;" horiz-adv-x="487" 
d="M492 635c0 -47 -37 -84 -84 -84c-46 0 -84 38 -84 84c0 47 38 85 85 85c46 0 83 -38 83 -85zM267 635c0 -47 -37 -84 -84 -84c-46 0 -84 38 -84 84c0 47 38 85 85 85c46 0 83 -39 83 -85zM525 469l-203 -414c-47 -96 -79 -163 -120 -208c-37 -40 -86 -66 -146 -66
c-48 0 -101 19 -122 35c-13 9 -12 15 -5 27l40 75c7 13 16 9 26 4c24 -11 46 -18 64 -18c35 0 56 14 72 45l26 51h-32c-11 0 -13 2 -14 13l-48 367h-55c-12 0 -13 6 -10 21l16 79c2 9 7 14 16 14h154c12 0 15 -5 16 -15l17 -241c2 -34 3 -69 4 -112c11 27 23 56 36 88
l118 278c5 11 17 9 29 8l111 -12c15 -2 16 -8 10 -19z" />
    <glyph glyph-name="zcaron" unicode="&#x17e;" horiz-adv-x="471" 
d="M482 698c9 -14 9 -17 -6 -27l-156 -106c-15 -10 -24 -9 -37 4l-100 101c-11 11 -14 16 -2 28l43 42c14 14 17 14 32 2l68 -51l103 58c14 8 17 8 26 -6zM480 479l-18 -85l-271 -274h125l30 46c6 9 10 14 21 9l69 -34c10 -5 13 -9 7 -18l-72 -113c-7 -10 -14 -10 -25 -10
h-352c-10 0 -14 2 -12 12l17 88l275 274h-96l-8 -36c-2 -10 -8 -15 -19 -15h-68c-11 0 -13 6 -11 15l30 144c2 10 5 12 15 12h350c12 0 15 -6 13 -15z" />
    <glyph glyph-name="Euro" unicode="&#x20ac;" 
d="M605 614c0 -4 -1 -10 -2 -13l-24 -119c-3 -10 -7 -12 -17 -12h-91c-10 0 -14 4 -14 11c0 4 2 9 3 15l12 54c-14 5 -26 7 -41 7c-75 0 -121 -55 -149 -124h168c6 0 10 -5 10 -9s-1 -9 -3 -14l-10 -31c-3 -8 -10 -15 -18 -15h-168c-4 -16 -6 -32 -9 -48h154
c6 0 11 -4 11 -9c0 -3 -3 -10 -4 -14l-10 -31c-3 -8 -10 -15 -18 -15h-139v-25c0 -88 38 -111 93 -111c16 0 30 2 47 7l16 70c2 9 5 14 16 14h91c12 0 14 -5 14 -11c0 -3 -1 -10 -2 -14l-26 -128c-4 -17 -11 -18 -20 -22c-35 -17 -101 -44 -175 -44c-145 0 -205 97 -205 234
c0 10 1 20 1 30h-61c-6 0 -10 4 -10 9s2 11 4 16l10 29c3 8 9 15 17 15h45c2 16 5 32 8 48h-55c-6 0 -10 4 -10 9c0 4 2 11 4 16l10 29c2 8 9 15 17 15h51c19 60 46 113 84 156c54 63 119 96 224 96c69 0 132 -26 162 -51c5 -4 9 -9 9 -20z" />
    <glyph glyph-name="zero.oldstyle" unicode="&#xf730;" horiz-adv-x="527" 
d="M535 416c0 -132 -41 -254 -111 -335c-52 -60 -129 -98 -212 -98c-57 0 -105 17 -138 46c-38 34 -57 89 -57 157c0 133 44 257 118 336c54 58 125 91 206 91c53 0 101 -16 134 -44c39 -33 60 -84 60 -153zM381 407c0 56 -21 76 -58 76c-30 0 -57 -16 -77 -43
c-49 -67 -75 -182 -75 -253c0 -55 22 -74 57 -74c33 0 61 18 82 48c46 67 71 178 71 246z" />
    <glyph glyph-name="one.oldstyle" unicode="&#xf731;" horiz-adv-x="491" 
d="M414 566l-97 -455h70c20 0 19 -12 16 -26l-14 -67c-3 -12 -7 -18 -19 -18h-310c-11 0 -19 4 -17 16l14 78c3 15 4 17 20 17h98l68 318l-99 -50c-13 -7 -20 -5 -26 8l-26 60c-6 13 -6 17 8 25l191 114c5 3 17 9 23 9h86c18 0 17 -14 14 -29z" />
    <glyph glyph-name="two.oldstyle" unicode="&#xf732;" horiz-adv-x="514" 
d="M507 464c0 -57 -23 -109 -66 -150c-35 -34 -72 -54 -146 -93c-69 -36 -97 -59 -109 -92h237c17 0 18 -6 15 -21l-19 -90c-3 -12 -7 -18 -19 -18h-375c-18 0 -20 9 -20 21c0 35 32 102 53 138c35 59 86 103 161 147c35 21 98 50 121 78c13 16 20 34 20 55
c0 33 -19 48 -50 48c-49 0 -82 -40 -113 -85c-13 -18 -17 -21 -31 -15l-78 34c-10 4 -7 14 -5 21c5 16 17 38 35 62c51 70 128 107 216 107c102 0 173 -57 173 -147z" />
    <glyph glyph-name="three.oldstyle" unicode="&#xf733;" horiz-adv-x="521" 
d="M488 459c0 -90 -51 -146 -115 -177c49 -28 73 -66 73 -128c0 -72 -26 -133 -72 -177c-48 -46 -114 -70 -200 -70c-58 0 -132 16 -175 46c-18 13 -17 16 -8 34l36 75c8 17 19 12 31 5c36 -21 79 -37 123 -37c38 0 64 9 84 28c24 22 37 54 37 90c0 43 -23 68 -96 68h-42
c-21 0 -21 7 -18 22l17 79c3 12 7 18 19 18h44c46 0 73 10 94 34c16 19 25 42 25 71c0 32 -20 48 -52 48c-36 0 -69 -24 -103 -53c-9 -8 -15 -14 -28 -3l-57 48c-15 13 -12 20 0 34c55 63 130 97 209 97c56 0 101 -16 132 -45c27 -25 42 -62 42 -107z" />
    <glyph glyph-name="four.oldstyle" unicode="&#xf734;" horiz-adv-x="522" 
d="M485 140l-16 -80c-2 -12 -7 -17 -19 -17h-61l-27 -127c-3 -12 -7 -17 -19 -17h-101c-21 0 -21 8 -18 23l26 121h-246c-18 0 -20 4 -17 19l26 128l298 409c9 12 17 11 31 6l93 -32c19 -7 14 -20 5 -31l-292 -380h129l54 151c4 11 7 17 19 17h81c16 0 17 -7 14 -21
l-31 -147h54c18 0 20 -8 17 -22z" />
    <glyph glyph-name="five.oldstyle" unicode="&#xf735;" horiz-adv-x="527" 
d="M515 573l-23 -88c-3 -11 -6 -18 -18 -18h-211l-41 -127c26 15 55 21 87 21c92 0 169 -64 169 -160c0 -75 -34 -158 -88 -212c-56 -55 -133 -85 -221 -85c-60 0 -133 14 -170 34c-20 11 -19 18 -12 35l35 84c5 13 21 5 31 1c38 -17 85 -31 120 -31c92 0 160 62 160 158
c0 41 -23 65 -66 65c-42 0 -72 -14 -102 -42c-18 -16 -19 -16 -36 -9l-67 26c-14 5 -12 11 -7 27l101 327c3 11 7 17 20 17h322c19 0 21 -8 17 -23z" />
    <glyph glyph-name="six.oldstyle" unicode="&#xf736;" horiz-adv-x="527" 
d="M537 621l-41 -76c-8 -15 -23 -5 -34 0c-15 7 -35 12 -54 12c-66 0 -125 -45 -171 -130c33 25 66 36 100 36c96 0 152 -63 152 -168c0 -103 -37 -196 -103 -256c-43 -40 -101 -62 -168 -62c-115 0 -181 71 -181 193c0 138 60 301 148 401c61 69 146 108 234 108
c40 0 87 -9 113 -26c17 -11 12 -19 5 -32zM345 280c0 47 -19 68 -55 68c-59 0 -108 -70 -108 -181c0 -45 19 -66 53 -66c59 0 110 73 110 179z" />
    <glyph glyph-name="seven.oldstyle" unicode="&#xf737;" horiz-adv-x="515" 
d="M523 580l-12 -62l-346 -595c-6 -11 -13 -11 -26 -9l-112 18c-17 3 -20 11 -12 23l317 509h-242c-18 0 -17 9 -14 24l19 91c2 12 7 17 19 17h394c12 0 17 -7 15 -16z" />
    <glyph glyph-name="eight.oldstyle" unicode="&#xf738;" horiz-adv-x="527" 
d="M535 524c0 -73 -46 -139 -132 -178c61 -36 87 -81 87 -142c0 -60 -25 -118 -72 -161c-53 -48 -115 -68 -204 -68c-130 0 -211 56 -211 162c0 96 63 170 166 212c-46 31 -72 73 -72 129c0 121 97 205 238 205c115 0 200 -64 200 -159zM386 507c0 35 -21 59 -60 59
c-54 0 -83 -38 -83 -84c0 -36 19 -60 55 -80c62 24 88 57 88 105zM341 195c0 53 -32 74 -73 94c-77 -31 -116 -67 -116 -123c0 -41 27 -70 85 -70c67 0 104 40 104 99z" />
    <glyph glyph-name="nine.oldstyle" unicode="&#xf739;" horiz-adv-x="518" 
d="M502 418c0 -137 -57 -299 -144 -400c-61 -70 -143 -109 -234 -109c-37 0 -70 10 -91 20c-19 9 -20 17 -15 31l27 77c5 14 16 13 37 5c10 -4 30 -11 50 -11c71 0 133 55 171 135c-33 -27 -69 -38 -101 -38c-92 0 -152 61 -152 166c0 103 37 196 104 256
c44 40 101 62 167 62c117 0 181 -71 181 -194zM358 423c0 44 -17 65 -53 65c-26 0 -49 -13 -65 -34c-28 -37 -45 -95 -45 -149c0 -41 20 -64 54 -64c23 0 47 12 63 33c26 33 46 89 46 149z" />
    <glyph glyph-name="notequal" unicode="&#x2260;" horiz-adv-x="550" 
d="M498 100h-213l-31 -83h-172l31 83h-60v153h122l39 105h-161v153h224l43 113h172l-44 -113h50v-153h-112l-39 -105h151v-153z" />
    <glyph glyph-name="infinity" unicode="&#x221e;" horiz-adv-x="628" 
d="M457 140c-70 0 -103 33 -133 85h-1c-32 -48 -76 -85 -148 -85c-77 0 -134 60 -134 138c0 81 54 142 131 142c73 0 109 -46 130 -85h2c35 55 79 85 148 85c75 0 134 -57 134 -139c0 -80 -56 -141 -129 -141zM459 373c-63 0 -85 -57 -112 -107c25 -54 58 -80 109 -80
c56 0 86 48 86 95c0 49 -26 92 -83 92zM174 373h1c-48 0 -90 -33 -90 -93c0 -53 30 -94 87 -94c59 0 87 68 108 110c-20 39 -52 77 -106 77z" />
    <glyph glyph-name="lessequal" unicode="&#x2264;" horiz-adv-x="550" 
d="M498 0h-445v153h445v-153zM498 192l-445 154v156l445 152v-155l-271 -76v-2l271 -77v-152z" />
    <glyph glyph-name="greaterequal" unicode="&#x2265;" horiz-adv-x="550" 
d="M497 0h-444v153h444v-153zM498 345l-445 -152v155l271 77v1l-271 77v152l445 -153v-157z" />
    <glyph glyph-name="partialdiff" unicode="&#x2202;" horiz-adv-x="483" 
d="M459 494c0 -74 -27 -198 -54 -264c-74 -184 -139 -242 -227 -242c-97 0 -157 71 -157 196c0 150 93 282 233 282c75 0 110 -50 122 -84h1c3 25 3 50 3 76c0 71 -31 182 -123 182c-54 0 -93 -25 -127 -63l-19 24c37 61 95 125 194 125c115 0 154 -95 154 -232zM370 328
c-9 34 -27 85 -79 85c-69 0 -129 -117 -129 -261c0 -72 32 -108 67 -108c71 0 121 156 141 284z" />
    <glyph glyph-name="summation" unicode="&#x2211;" horiz-adv-x="459" 
d="M448 69l-13 -200h-427l-1 41l192 348l-185 401v41h408l8 -165h-35c-7 89 -20 111 -66 111h-173l144 -313l-195 -350h237c54 0 63 26 71 90z" />
    <glyph glyph-name="product" unicode="&#x220f;" horiz-adv-x="632" 
d="M602 -131h-252v36h12c36 0 40 43 40 84v658h-174v-658c0 -41 3 -84 38 -84h13v-36h-248v36h12c36 0 39 43 39 84v591c0 43 -3 84 -38 84h-13v36h571v-36h-13c-37 0 -40 -41 -40 -84v-591c0 -42 4 -84 39 -84h14v-36z" />
    <glyph glyph-name="pi" unicode="&#x3c0;" horiz-adv-x="418" 
d="M404 118c-16 -85 -41 -130 -76 -130c-23 0 -39 12 -49 32c-19 35 -19 90 -19 124v228h-82v-153c0 -91 -9 -161 -32 -199c-12 -20 -29 -32 -51 -32c-17 0 -37 15 -37 43c0 20 10 38 29 47c36 16 38 71 38 163v131h-18c-29 0 -39 -14 -47 -58l-33 10c2 102 42 158 99 158
h260v-110h-74v-168c0 -47 2 -80 8 -100c5 -19 13 -29 23 -29c19 0 26 28 37 61z" />
    <glyph glyph-name="integral" unicode="&#x222b;" horiz-adv-x="248" 
d="M251 690c0 -16 -5 -45 -34 -45c-15 0 -24 4 -35 16c-7 9 -16 11 -25 11c-11 0 -17 -6 -17 -23c0 -35 16 -82 25 -132c12 -53 24 -171 24 -240c0 -67 -1 -180 -13 -255c-8 -58 -17 -115 -31 -154c-16 -43 -40 -79 -85 -79c-35 0 -64 23 -64 57c0 23 12 45 41 45
c13 0 19 -6 29 -18c6 -7 16 -9 22 -9c10 0 17 6 18 31s-20 95 -31 156c-12 74 -17 164 -17 223c0 58 2 129 9 198c6 66 19 150 30 188c19 58 53 87 87 87c44 0 67 -27 67 -57z" />
    <glyph glyph-name="uni03A9" unicode="&#x3a9;" horiz-adv-x="710" 
d="M668 0h-268v171c70 40 92 156 92 240c0 185 -62 258 -138 258c-100 0 -144 -109 -144 -256c0 -120 38 -224 106 -248v-165h-274v189h35c0 -43 0 -96 76 -96h106v34c-105 33 -212 120 -212 285c0 170 117 300 308 300c200 0 308 -149 308 -298c0 -130 -83 -246 -207 -282
v-39h101c75 0 75 53 75 96h36v-189z" />
    <glyph glyph-name="radical" unicode="&#x221a;" horiz-adv-x="333" 
d="M303 728l-93 -740h-61l-99 321l-35 -25l-23 33l102 72l85 -300h2l83 639h39z" />
    <glyph glyph-name="approxequal" unicode="&#x2248;" horiz-adv-x="550" 
d="M548 427c-48 -73 -92 -105 -165 -105c-32 0 -76 6 -114 31c-30 20 -58 33 -92 33c-46 0 -65 -53 -74 -70l-100 118c42 60 85 105 164 105c42 0 78 -10 114 -30c42 -25 65 -34 94 -34c44 0 61 46 74 70zM548 171c-48 -73 -92 -105 -165 -105c-32 0 -76 6 -114 31
c-30 20 -58 33 -92 33c-46 0 -65 -53 -74 -70l-100 118c42 60 85 105 164 105c42 0 78 -10 114 -30c42 -25 65 -34 94 -34c44 0 61 46 74 70z" />
    <glyph glyph-name="Delta" unicode="&#x2206;" horiz-adv-x="538" 
d="M518 0h-497l198 712h107zM354 52l-124 464l-132 -464h256z" />
    <glyph glyph-name="lozenge" unicode="&#x25ca;" horiz-adv-x="303" 
d="M319 349l-147 -361h-42l-146 361l146 363h42zM263 349l-112 284l-111 -284l111 -282z" />
    <glyph glyph-name="litre" unicode="&#x2113;" horiz-adv-x="304" 
d="M333 133c-19 -97 -61 -145 -135 -145c-39 0 -68 9 -93 33c-30 28 -43 81 -43 121v38c-9 -13 -34 -38 -46 -52l-24 36c16 17 53 53 69 76v220c0 128 57 252 165 252c66 0 94 -39 94 -101c0 -85 -30 -162 -62 -222c-14 -25 -34 -59 -49 -77v-174c0 -57 12 -80 32 -80
c23 0 38 30 49 88zM277 606c0 29 -7 58 -31 58c-25 0 -37 -40 -37 -127v-146c5 10 17 34 27 56c23 46 41 118 41 159z" />
    <glyph glyph-name="estimated" unicode="&#x212e;" horiz-adv-x="602" 
d="M574 265h-410v-191c39 -40 88 -60 146 -60c83 0 155 45 202 125l27 -15c-58 -86 -123 -136 -229 -136c-161 0 -260 123 -260 278c0 154 97 277 259 277c165 0 258 -121 265 -278zM456 293v162c-42 42 -92 62 -148 62c-58 0 -105 -20 -144 -60v-164h292z" />
    <glyph glyph-name="uni00AD" unicode="&#xad;" horiz-adv-x="382" 
d="M352 308l-25 -111c-2 -8 -7 -15 -15 -15h-270c-8 0 -14 7 -12 15l25 111c2 8 7 15 15 15h270c8 0 14 -7 12 -15z" />
    <glyph glyph-name="uni02C9" unicode="&#x2c9;" horiz-adv-x="427" 
d="M401 683l-17 -78c-3 -15 -6 -17 -22 -17h-241c-15 0 -15 6 -12 18l16 77c4 17 5 19 21 19h238c19 0 20 -5 17 -19z" />
    <glyph glyph-name="uni03BC" unicode="&#x3bc;" horiz-adv-x="535" 
d="M524 486l-74 -327c-8 -36 -9 -50 -8 -71s3 -35 8 -53c3 -10 -2 -15 -11 -18l-99 -32c-4 -1 -8 -1 -11 -1c-11 0 -22 24 -24 62c-1 9 -2 15 -1 26c-46 -57 -96 -91 -150 -88l-34 -159c-3 -12 -4 -14 -16 -16l-125 -19c-14 -2 -15 1 -12 16l140 658c3 12 6 17 18 19l121 19
c16 3 20 1 16 -15l-67 -295c-5 -23 -9 -43 -9 -54c0 -17 12 -28 29 -28c55 0 98 84 122 198l34 159c3 12 3 14 15 16l124 20c16 3 18 0 14 -17z" />
    <glyph glyph-name="uni2215" unicode="&#x2215;" horiz-adv-x="315" 
d="M432 654l-434 -681c-6 -9 -10 -13 -21 -13h-93c-15 0 -19 11 -12 21l435 683c6 10 10 14 22 14h91c18 0 20 -11 12 -24z" />
    <glyph glyph-name="uni2219" unicode="&#x2219;" horiz-adv-x="500" 
d="M362 334c0 -48 -40 -87 -88 -87s-88 39 -88 87s39 88 87 88s89 -40 89 -88z" />
    <glyph glyph-name="Omega" unicode="&#x2126;" horiz-adv-x="710" 
d="M668 0h-268v171c70 40 92 156 92 240c0 185 -62 258 -138 258c-100 0 -144 -109 -144 -256c0 -120 38 -224 106 -248v-165h-274v189h35c0 -43 0 -96 76 -96h106v34c-105 33 -212 120 -212 285c0 170 117 300 308 300c200 0 308 -149 308 -298c0 -130 -83 -246 -207 -282
v-39h101c75 0 75 53 75 96h36v-189z" />
    <glyph glyph-name="uni00A0" unicode="&#xa0;" 
 />
    </font>
</defs>
</svg>
