<svg version="1.1" id="loftblog_icon" xmlns="http://www.w3.org/2000/svg" xmlns:xlink="http://www.w3.org/1999/xlink" x="0px"
	 y="0px" viewBox="0 0 640 340" style="enable-background:new 0 0 640 340;" xml:space="preserve">
	<defs>
		<style type="text/css">
			.st0{fill:#E9DFD5;}
			.st1{fill:#AC9E91;}
			.st2{fill:none;stroke:#231F20;stroke-width:20;stroke-miterlimit:10;}
			.st3{fill:#FFC17A;stroke:#231F20;stroke-width:18;stroke-miterlimit:10;}
			.st4{fill:#AC9E91;stroke:#231F20;stroke-width:18;stroke-miterlimit:10;}
			.st5{fill:#FFFFFF;stroke:#231F20;stroke-width:20;stroke-miterlimit:10;}
			.st6{fill:none;stroke:#231F20;stroke-width:17;stroke-miterlimit:10;}
			.st7{fill:#231F20;}

			<!-- Берем ширину иконки на нужном нам разрешении, например на 768px - это 225px -->
			@media only screen and (max-width: 225px) {
				#tablet {
					display: none;
				}
			}<!-- 480px - это 144px -->
			@media only screen and (max-width: 144px) {
				#fly, #fly_color, 
				#nose,
				#body path {
					fill: none;
				}
			}
			@-webkit-keyframes flyesMove {
				0% {
					transform-origin: 70% 20%;
					transform: rotate(0deg);
				}
				50% {
					transform-origin: 70% 20%;
					transform: rotate(-40deg);
				}
				100% {
					transform-origin: 70% 20%;
					transform: rotate(0deg);
				}
			}
			#loftblog_icon #fly {
				-webkit-animation: flyesMove .8s ease-out 3;
			}
			#loftblog_icon.animate #fly path{
				-webkit-animation: flyesMove .8s ease-out 3;
			}
		</style>
		<script type="text/javascript">
				var iconClick = document.getElementById('loftblog_icon');
        console.log(iconClick);
        
        iconClick.addEventListener('click', function() {
          iconClick.classList.add('animate');

          setTimeout(function() {
            iconClick.classList.remove('animate');
          }, 3000);
        })
		</script>
	</defs>
	
	<g id="desktop">
		<g id="body">
			<g>
				<path class="st0" d="M436,25.8V319c0,0-237.5,38.5-231-182l-1.8-109.9L320,116L436,25.8z"/>
				<path class="st1" d="M436,16v9.8L320,116L203.2,27.1L203,16C203,16,321,63,436,16z"/>
			</g>
			<g>
				<path class="st2" d="M203.2,27.1L203,16c0,0,118,47,233,0v9.8V319c0,0-237.5,38.5-231-182L203.2,27.1z"/>
				<polyline class="st2" points="437,25 436,25.8 320,116 203.2,27.1 203,27 			"/>
			</g>
		</g>
		<path id="nose" class="st3" d="M289,160.3l30,36.7l32-36.7C326,148,312,149,289,160.3z"/>
		<g id="fly">
			<path id="fly_color" class="st4" d="M436,72.2l0.7,251c0,0-95.5-19.1-115.6-98.8c-1.5-6.1-2.7-14.8-2.7-21.8L436,72.2z"/>
			<g id="tablet">
				<path class="st4" d="M434.8,202.2c-18,28-54,12.9-54,12.9c-24.5,24-58,7.9-58,7.9"/>
				<path class="st4" d="M340.7,267.1c0,0,25.5,14,49-6.9c0,0,22.5,13,45-2.9"/>
			</g>
		</g>
		<g id="eyes">
			<g id="eye">
				<circle class="st5" cx="259.5" cy="115.5" r="56.5"/>
				<path class="st6" d="M234,130c0-38.7,50-38.7,50,0"/>
			</g>
			<g id="eye_1_">
				<circle class="st5" cx="380.5" cy="115.5" r="56.5"/>
				<path class="st6" d="M355,130c0-38.7,50-38.7,50,0"/>
			</g>
		</g>
		<g id="legs">
			<path class="st7" d="M344,334h-52.9c0.9-8.4,10-16,26-16C333,318,343.1,325.6,344,334z"/>
			<path class="st7" d="M415,334h-52.9c0.9-8.4,10-16,26-16C404,318,414.1,325.6,415,334z"/>
		</g>
	</g>
</svg>
